<?xml version="1.0" standalone="no"?>
<!DOCTYPE svg PUBLIC "-//W3C//DTD SVG 1.1//EN" "http://www.w3.org/Graphics/SVG/1.1/DTD/svg11.dtd">
<svg version="1.1" xmlns="http://www.w3.org/2000/svg" viewBox="0 0 634.5353172451196 785.1965393049086" width="634.5353172451196" height="785.1965393049086"><!-- svg-source:excalidraw --><metadata></metadata><defs><style class="style-fonts">
      </style></defs><g transform="translate(263.75151784871196 12.136777327170421) rotate(0 58.37454611902285 368.7184272729428)" stroke="none"><path d="M0 0 C-3.23 1.98, -12.77 6.72, -19.38 11.86 C-25.99 17, -35.04 25.62, -39.68 30.85 C-44.32 36.07, -45.42 39.71, -47.2 43.19 C-48.99 46.67, -48.45 44.88, -50.39 51.72 C-52.33 58.57, -56.74 74.03, -58.83 84.24 C-60.92 94.44, -62.21 101.04, -62.93 112.95 C-63.66 124.85, -64.42 137.3, -63.16 155.65 C-61.91 174, -56.63 201.8, -55.41 223.04 C-54.19 244.27, -55.4 269.86, -55.86 283.07 C-56.32 296.28, -57.04 295.96, -58.14 302.29 C-59.25 308.62, -61.56 313.95, -62.47 321.03 C-63.38 328.11, -62.63 337.48, -63.62 344.76 C-64.6 352.03, -67.07 360.58, -68.4 364.69 C-69.74 368.8, -68.29 367.14, -71.6 369.43 C-74.91 371.73, -79.58 375.52, -88.24 378.45 C-96.91 381.38, -114.27 384.03, -123.58 387 C-132.89 389.96, -136.25 391.34, -144.11 396.24 C-151.98 401.15, -164.1 410.88, -170.79 416.41 C-177.47 421.95, -179.87 422.27, -184.24 429.46 C-188.61 436.66, -194.28 451.57, -197.02 459.6 C-199.75 467.63, -199.94 472.8, -200.66 477.62 C-201.39 482.45, -201.16 478.34, -201.35 488.55 C-201.53 498.75, -200.92 523.54, -201.8 538.85 C-202.67 554.15, -205.64 565.58, -206.59 580.37 C-207.54 595.16, -206.58 617.38, -207.5 627.59 C-208.41 637.79, -210.05 636.41, -212.07 641.59 C-214.08 646.77, -217.69 652.31, -219.59 658.67 C-221.49 665.04, -221.83 672.82, -223.46 679.78 C-225.09 686.74, -228.33 695.13, -229.39 700.43 C-230.46 705.73, -230.04 708.96, -229.85 711.57 C-229.66 714.18, -230.07 713.4, -228.25 716.09 C-226.42 718.78, -221.75 725.18, -218.9 727.71 C-216.05 730.24, -214.08 730.29, -211.15 731.28 C-208.23 732.26, -205.18 732.26, -201.35 733.64 C-197.51 735.03, -191.27 738.59, -188.12 739.57 C-184.96 740.56, -185.42 740.28, -182.42 739.57 C-179.42 738.86, -174.21 736.26, -170.1 735.31 C-166 734.36, -162.16 734.91, -157.79 733.88 C-153.42 732.85, -149.28 730.48, -143.88 729.14 C-138.49 727.79, -134.61 728.34, -125.42 725.81 C-116.22 723.28, -99.65 716.32, -88.7 713.95 C-77.76 711.58, -80.6 714.86, -59.74 711.57 C-38.87 708.29, 13.08 697.94, 36.49 694.26 C59.9 690.58, 65.91 691.73, 80.73 689.52 C95.55 687.3, 108.2 682.99, 125.42 680.97 C142.63 678.95, 170.07 679.27, 184.02 677.41 C197.97 675.55, 201.46 671.79, 209.1 669.82 C216.74 667.84, 221.11 666.46, 229.85 665.55 C238.59 664.64, 243.58 665.71, 261.55 664.36 C279.53 663.02, 324.56 658.75, 337.71 657.48 C350.86 656.22, 339.35 657.72, 340.45 656.77 C341.55 655.82, 343.41 653.41, 344.33 651.79 C345.24 650.17, 345.61 649.97, 345.92 647.04 C346.22 644.11, 346.6 637.51, 346.15 634.23 C345.69 630.94, 345.05 630.94, 343.18 627.35 C341.32 623.75, 338.85 618.61, 334.98 612.64 C331.1 606.67, 322.93 596.38, 319.93 591.52 C316.92 586.65, 318.41 588.55, 316.96 583.45 C315.52 578.35, 312.78 568.7, 311.26 560.91 C309.74 553.12, 312.24 552.21, 307.83 536.71 C303.43 521.21, 288.87 481.42, 284.81 467.9 C280.74 454.38, 284.2 459.88, 283.44 455.57 C282.68 451.26, 283.74 453.03, 280.25 442.04 C276.75 431.04, 266.04 399.21, 262.46 389.6 C258.89 379.99, 262.54 388.3, 258.82 384.38 C255.09 380.46, 245.17 370.69, 240.11 366.11 C235.06 361.52, 234.15 360.18, 228.49 356.86 C222.83 353.54, 213.85 348.83, 206.13 346.18 C198.42 343.53, 193.18 341.95, 182.2 340.96 C171.21 339.97, 149.05 340.56, 140.24 340.24 C131.42 339.93, 132.9 339.78, 129.29 339.07 C125.68 338.36, 122.49 337.8, 118.57 335.98 C114.66 334.16, 109.64 330.96, 105.81 328.15 C101.97 325.34, 99.96 323.8, 95.55 319.14 C91.14 314.47, 84.11 309.49, 79.36 300.15 C74.6 290.82, 70.39 275.79, 67.04 263.14 C63.7 250.48, 62.1 234.86, 59.29 224.22 C56.47 213.59, 52.14 206.27, 50.17 199.31 C48.19 192.35, 47.85 188.12, 47.43 182.46 C47.02 176.81, 47.06 171.94, 47.66 165.38 C48.27 158.81, 48.72 151.45, 51.08 143.07 C53.44 134.69, 59.33 122.48, 61.8 115.08 C64.27 107.69, 65.14 109.07, 65.9 98.71 C66.66 88.34, 66.89 64.06, 66.36 52.91 C65.83 41.76, 64.54 38.83, 62.71 31.79 C60.89 24.75, 58.87 16.17, 55.41 10.67 C51.95 5.18, 47.78 0.95, 41.96 -1.19 C36.15 -3.32, 26.46 -2.65, 20.53 -2.14 C14.6 -1.62, 10 0.51, 6.39 1.9 C2.78 3.28, 1.95 5.34, -1.13 6.17 C-4.21 7, -12.27 7.91, -12.08 6.88 C-11.9 5.85, -2.01 1.15, 0 0" stroke="none" stroke-width="0" fill="#1971c2" fill-rule="evenodd"></path><path fill="#1971c2" d="M 5.24,8.01 Q 5.24,8.01 -1.18,14.35 -7.60,20.69 -12.38,24.38 -17.16,28.06 -20.90,31.48 -24.63,34.90 -27.77,39.21 -30.91,43.51 -33.00,47.36 -35.10,51.21 -38.12,59.88 -41.14,68.56 -42.52,73.88 -43.89,79.21 -45.34,86.44 -46.80,93.68 -47.61,99.62 -48.42,105.55 -48.80,110.38 -49.17,115.20 -49.31,119.63 -49.45,124.05 -49.51,129.97 -49.57,135.89 -49.59,141.57 -49.61,147.26 -49.30,152.55 -48.98,157.85 -48.59,163.08 -48.21,168.32 -47.80,172.78 -47.39,177.25 -46.76,181.80 -46.14,186.36 -45.24,194.33 -44.35,202.30 -43.46,209.07 -42.57,215.84 -42.13,221.88 -41.69,227.92 -41.53,232.84 -41.38,237.77 -41.36,244.01 -41.34,250.24 -41.42,257.01 -41.50,263.78 -41.65,269.48 -41.79,275.17 -42.11,280.72 -42.42,286.27 -42.98,291.45 -43.55,296.64 -44.91,304.38 -46.27,312.13 -47.23,317.67 -48.20,323.22 -48.68,330.94 -49.16,338.67 -49.76,343.38 -50.36,348.10 -52.05,355.87 -53.74,363.65 -56.16,369.14 -58.57,374.64 -61.87,377.89 -65.18,381.14 -71.43,384.85 -77.69,388.57 -85.26,391.27 -92.83,393.96 -99.28,395.17 -105.73,396.38 -110.51,397.66 -115.30,398.93 -119.97,400.64 -124.63,402.34 -129.42,404.50 -134.21,406.67 -138.99,410.00 -143.77,413.34 -148.61,416.87 -153.45,420.39 -157.78,423.89 -162.11,427.38 -166.73,431.66 -171.35,435.94 -174.70,442.56 -178.06,449.17 -179.74,453.50 -181.42,457.82 -183.46,465.76 -185.51,473.71 -186.04,478.19 -186.57,482.67 -186.79,489.57 -187.01,496.46 -187.11,502.80 -187.21,509.13 -187.32,514.76 -187.44,520.39 -187.56,525.78 -187.68,531.17 -187.92,536.58 -188.16,541.98 -188.81,548.36 -189.46,554.73 -190.06,559.99 -190.66,565.26 -191.23,570.10 -191.80,574.94 -192.20,581.62 -192.59,588.30 -192.64,593.00 -192.69,597.71 -192.72,602.14 -192.74,606.57 -192.95,614.65 -193.16,622.72 -194.39,629.42 -195.62,636.11 -197.72,642.09 -199.83,648.07 -202.24,653.78 -204.66,659.49 -205.94,665.26 -207.21,671.02 -208.10,675.26 -209.00,679.49 -210.19,684.12 -211.39,688.74 -212.63,692.80 -213.88,696.87 -214.80,701.41 -215.71,705.95 -213.53,710.42 -211.36,714.90 -206.17,717.04 -200.98,719.19 -195.64,721.23 -190.30,723.27 -184.45,723.26 -178.60,723.24 -174.21,722.10 -169.83,720.97 -165.29,720.48 -160.75,719.99 -156.65,718.56 -152.56,717.13 -145.49,715.50 -138.43,713.87 -132.62,712.63 -126.82,711.38 -122.76,709.95 -118.69,708.53 -114.14,706.95 -109.60,705.37 -104.55,703.92 -99.51,702.46 -93.18,701.32 -86.85,700.18 -81.74,699.68 -76.63,699.19 -72.20,698.72 -67.78,698.25 -63.33,697.61 -58.89,696.98 -53.96,696.10 -49.02,695.23 -43.53,694.18 -38.03,693.14 -30.93,691.86 -23.84,690.59 -18.22,689.75 -12.60,688.91 -8.05,688.27 -3.51,687.63 1.61,686.77 6.73,685.92 11.44,684.98 16.15,684.03 21.18,683.01 26.20,681.99 31.32,681.16 36.44,680.33 41.10,679.69 45.76,679.05 50.21,678.57 54.66,678.08 59.71,677.61 64.77,677.15 72.55,676.16 80.33,675.18 85.42,674.09 90.52,673.01 96.19,671.82 101.86,670.63 108.10,669.59 114.33,668.54 120.38,667.81 126.42,667.08 132.34,666.75 138.26,666.42 143.57,666.21 148.89,666.01 155.10,665.65 161.31,665.30 166.05,664.97 170.79,664.65 176.66,663.70 182.54,662.76 186.94,661.61 191.34,660.46 196.70,658.88 202.05,657.30 206.62,656.15 211.19,655.01 215.92,654.05 220.65,653.09 225.40,652.51 230.15,651.92 235.07,651.56 239.99,651.20 246.92,650.92 253.85,650.63 259.99,650.29 266.12,649.95 271.77,649.41 277.43,648.86 282.78,648.37 288.13,647.87 293.02,647.55 297.92,647.23 303.12,647.02 308.31,646.80 312.56,646.42 316.80,646.03 321.09,645.63 325.38,645.22 329.78,644.84 334.17,644.47 332.87,639.99 331.58,635.52 328.78,629.89 325.99,624.26 322.45,619.20 318.90,614.13 314.97,608.43 311.04,602.73 308.99,598.44 306.94,594.15 305.05,588.89 303.17,583.64 301.64,578.28 300.11,572.91 298.75,566.88 297.40,560.85 296.76,555.34 296.13,549.84 294.89,544.66 293.66,539.48 291.80,534.17 289.95,528.85 288.39,524.26 286.84,519.67 285.05,514.29 283.26,508.91 281.63,504.68 280.00,500.45 278.71,495.90 277.42,491.35 275.62,486.05 273.83,480.74 272.43,476.26 271.04,471.77 270.27,466.67 269.50,461.56 268.64,456.99 267.77,452.43 266.07,446.44 264.37,440.45 262.73,435.24 261.09,430.03 259.29,424.56 257.49,419.10 255.40,413.37 253.30,407.64 251.84,403.62 250.38,399.59 247.70,395.14 245.03,390.68 241.67,387.82 238.30,384.97 234.86,381.45 231.41,377.92 227.16,374.49 222.91,371.05 217.55,368.04 212.19,365.02 207.64,362.73 203.08,360.45 197.70,359.22 192.31,357.98 187.29,356.85 182.27,355.72 176.74,355.37 171.22,355.02 165.49,354.94 159.76,354.87 154.76,354.86 149.77,354.86 144.63,354.66 139.48,354.46 134.64,353.99 129.80,353.52 124.84,352.41 119.88,351.30 115.14,349.56 110.40,347.83 106.39,345.38 102.38,342.93 98.88,340.28 95.38,337.62 91.89,334.74 88.40,331.86 84.30,327.61 80.20,323.36 77.05,319.73 73.90,316.10 70.53,311.77 67.16,307.45 64.94,301.78 62.72,296.10 60.49,290.15 58.26,284.20 56.21,277.51 54.15,270.83 52.37,263.60 50.58,256.37 49.75,252.16 48.91,247.94 47.52,240.28 46.13,232.61 44.11,225.65 42.10,218.69 39.97,213.22 37.84,207.75 36.77,203.57 35.70,199.39 34.84,194.69 33.98,189.99 33.50,185.39 33.03,180.78 33.04,174.85 33.05,168.92 33.66,162.52 34.27,156.12 35.18,150.27 36.09,144.42 37.72,138.82 39.35,133.21 41.28,127.88 43.21,122.55 44.98,118.07 46.75,113.60 48.39,108.34 50.03,103.07 50.62,98.71 51.21,94.35 51.26,89.44 51.31,84.53 51.51,80.25 51.72,75.98 51.73,70.51 51.75,65.05 51.77,59.89 51.78,54.73 50.87,49.20 49.95,43.67 49.02,38.99 48.09,34.31 46.31,29.48 44.52,24.65 43.15,20.45 41.78,16.24 37.54,13.67 33.30,11.11 28.92,11.82 24.54,12.54 20.29,13.46 16.04,14.38 11.14,16.62 6.25,18.86 1.43,16.37 -3.38,13.88 -5.54,14.02 -7.71,14.16 -8.62,14.19 -9.54,14.23 -10.43,14.04 -11.33,13.85 -12.15,13.45 -12.97,13.05 -13.68,12.47 -14.38,11.89 -14.93,11.15 -15.47,10.42 -15.83,9.57 -16.18,8.73 -16.32,7.82 -16.46,6.92 -16.38,6.01 -16.30,5.10 -16.01,4.23 -15.71,3.37 -15.22,2.60 -14.73,1.82 -14.06,1.20 -13.40,0.57 -12.60,0.11 -11.81,-0.33 -10.93,-0.58 -10.05,-0.83 -6.60,-2.51 -3.15,-4.20 -2.40,-4.59 -1.64,-4.98 -0.80,-5.12 0.03,-5.25 0.86,-5.11 1.70,-4.96 2.45,-4.56 3.20,-4.16 3.78,-3.54 4.36,-2.92 4.71,-2.14 5.07,-1.37 5.15,-0.52 5.24,0.31 5.05,1.14 4.86,1.97 4.42,2.69 3.98,3.42 3.33,3.97 2.68,4.51 1.88,4.82 1.09,5.13 0.24,5.17 -0.60,5.21 -1.41,4.98 -2.23,4.75 -2.93,4.27 -3.63,3.79 -4.14,3.11 -4.65,2.43 -4.92,1.62 -5.18,0.81 -5.18,-0.03 -5.17,-0.88 -4.90,-1.68 -4.62,-2.48 -4.10,-3.16 -3.58,-3.83 -2.88,-4.30 -2.17,-4.78 -1.35,-5.00 -0.53,-5.22 0.31,-5.17 1.16,-5.12 1.94,-4.80 2.73,-4.48 3.38,-3.93 4.02,-3.37 4.45,-2.64 4.89,-1.91 5.06,-1.08 5.24,-0.25 5.15,0.59 5.05,1.43 4.69,2.20 4.32,2.97 3.74,3.58 3.15,4.20 3.15,4.20 3.15,4.20 -2.27,9.18 -7.71,14.16 -8.62,14.19 -9.54,14.23 -10.43,14.04 -11.33,13.85 -12.15,13.45 -12.97,13.05 -13.68,12.47 -14.38,11.89 -14.93,11.15 -15.47,10.42 -15.83,9.57 -16.18,8.73 -16.32,7.83 -16.46,6.92 -16.38,6.01 -16.30,5.10 -16.01,4.23 -15.71,3.37 -15.22,2.60 -14.73,1.83 -14.06,1.20 -13.40,0.57 -12.60,0.11 -11.81,-0.33 -10.93,-0.58 -10.05,-0.83 -7.54,-4.61 -5.03,-8.39 -0.00,-10.62 5.02,-12.85 9.21,-14.20 13.41,-15.56 17.82,-16.18 22.23,-16.80 27.04,-16.80 31.85,-16.81 36.98,-16.48 42.10,-16.14 47.59,-13.46 53.09,-10.78 56.33,-8.02 59.57,-5.26 62.99,-1.87 66.41,1.52 68.46,5.72 70.50,9.92 71.94,14.31 73.38,18.70 74.90,22.91 76.42,27.12 77.36,31.38 78.30,35.63 79.13,41.34 79.96,47.05 80.44,52.10 80.93,57.15 80.92,63.14 80.92,69.13 80.80,74.78 80.69,80.43 80.55,85.64 80.41,90.84 80.22,95.31 80.03,99.77 79.04,105.42 78.05,111.08 75.92,117.67 73.79,124.27 72.06,128.64 70.32,133.00 68.67,137.56 67.02,142.11 65.48,148.11 63.94,154.11 63.22,159.83 62.49,165.56 62.24,169.90 61.99,174.23 62.50,180.59 63.01,186.94 64.00,192.21 65.00,197.49 67.34,203.54 69.68,209.59 71.25,214.48 72.82,219.37 74.48,227.22 76.14,235.06 77.44,242.29 78.75,249.51 79.75,253.66 80.74,257.80 82.48,264.11 84.21,270.42 86.28,276.48 88.36,282.54 89.98,287.30 91.61,292.06 94.33,295.41 97.04,298.76 100.32,302.49 103.61,306.23 107.19,309.49 110.77,312.75 115.48,316.66 120.19,320.58 124.54,322.27 128.89,323.96 133.28,324.73 137.67,325.50 142.36,325.81 147.04,326.12 151.88,326.11 156.72,326.11 162.33,326.15 167.94,326.20 172.63,326.35 177.31,326.50 182.85,327.03 188.39,327.56 193.25,328.63 198.10,329.71 203.73,331.01 209.37,332.31 214.50,334.20 219.63,336.10 223.42,338.16 227.20,340.22 231.29,342.28 235.37,344.34 239.58,347.52 243.78,350.70 247.82,354.01 251.87,357.32 255.03,360.55 258.20,363.79 261.82,367.00 265.43,370.22 268.92,374.43 272.41,378.63 274.72,383.03 277.03,387.43 278.70,392.25 280.36,397.08 282.56,403.01 284.76,408.93 286.82,415.17 288.87,421.42 290.48,426.53 292.09,431.64 293.59,436.66 295.09,441.68 296.11,445.94 297.13,450.21 297.83,455.59 298.52,460.98 299.75,465.88 300.97,470.77 303.11,477.27 305.25,483.77 306.80,489.17 308.35,494.57 310.44,500.71 312.53,506.84 313.99,511.39 315.44,515.95 317.38,521.87 319.31,527.80 320.92,533.44 322.54,539.07 323.48,545.41 324.42,551.75 325.01,556.37 325.59,560.99 326.82,565.83 328.05,570.67 329.83,576.74 331.60,582.81 334.22,587.67 336.84,592.53 340.91,598.34 344.97,604.14 347.29,607.77 349.61,611.41 351.84,615.58 354.06,619.76 355.71,623.91 357.35,628.06 358.46,636.12 359.57,644.18 357.95,650.25 356.33,656.31 352.15,661.53 347.96,666.75 341.50,669.09 335.03,671.42 329.94,672.03 324.84,672.64 320.02,673.25 315.19,673.87 310.39,674.15 305.58,674.43 300.44,674.76 295.30,675.08 290.50,675.51 285.71,675.94 280.76,676.36 275.82,676.78 270.21,677.29 264.60,677.79 259.82,678.13 255.04,678.48 248.57,678.75 242.10,679.03 234.08,679.80 226.07,680.56 217.97,682.36 209.88,684.15 204.32,685.78 198.76,687.42 193.73,688.73 188.69,690.05 180.76,691.34 172.84,692.63 167.86,693.02 162.88,693.41 156.41,693.76 149.94,694.11 144.85,694.30 139.77,694.48 134.77,694.74 129.78,695.00 124.35,695.64 118.92,696.29 113.27,697.21 107.63,698.14 101.99,699.32 96.36,700.50 86.22,702.35 76.07,704.21 71.74,704.69 67.41,705.16 58.47,706.07 49.53,706.97 45.23,707.54 40.93,708.11 36.38,708.84 31.84,709.57 26.75,710.62 21.67,711.66 16.49,712.69 11.32,713.72 5.83,714.62 0.35,715.52 -4.03,716.11 -8.41,716.71 -13.62,717.50 -18.84,718.29 -25.81,719.55 -32.78,720.82 -38.48,721.90 -44.19,722.98 -49.57,723.90 -54.95,724.82 -59.95,725.53 -64.96,726.23 -73.48,727.01 -82.01,727.78 -86.87,728.61 -91.74,729.43 -96.06,730.68 -100.39,731.93 -104.94,733.51 -109.49,735.09 -118.37,737.77 -127.24,740.45 -132.81,741.51 -138.37,742.58 -144.31,744.26 -150.25,745.94 -158.04,747.43 -165.84,748.92 -172.06,750.65 -178.28,752.37 -182.64,752.80 -187.00,753.23 -193.10,751.75 -199.20,750.28 -203.89,748.22 -208.58,746.15 -214.41,744.26 -220.24,742.37 -225.73,738.61 -231.22,734.84 -234.01,731.23 -236.81,727.61 -239.62,722.39 -242.44,717.17 -243.14,712.40 -243.84,707.64 -243.34,702.12 -242.84,696.61 -241.77,692.36 -240.71,688.12 -239.12,682.95 -237.53,677.79 -236.14,671.64 -234.76,665.49 -233.76,660.42 -232.76,655.34 -230.37,648.81 -227.98,642.29 -225.47,635.96 -222.96,629.64 -222.10,625.43 -221.24,621.23 -221.02,613.82 -220.81,606.42 -220.79,601.90 -220.76,597.39 -220.70,592.29 -220.64,587.19 -220.14,579.39 -219.65,571.58 -219.06,566.83 -218.47,562.07 -217.88,556.93 -217.29,551.80 -216.69,546.23 -216.08,540.66 -215.83,535.62 -215.57,530.59 -215.47,525.20 -215.36,519.81 -215.25,514.22 -215.13,508.63 -215.00,502.04 -214.87,495.45 -214.55,487.35 -214.23,479.24 -213.47,473.45 -212.72,467.67 -211.50,462.38 -210.27,457.10 -208.73,452.37 -207.18,447.64 -203.49,438.97 -199.81,430.30 -195.66,423.66 -191.50,417.01 -187.41,413.02 -183.31,409.02 -179.35,405.73 -175.40,402.44 -169.98,398.37 -164.56,394.31 -158.76,390.12 -152.96,385.92 -148.25,383.22 -143.55,380.52 -139.20,378.64 -134.85,376.75 -128.88,374.61 -122.91,372.48 -116.64,370.81 -110.38,369.14 -105.60,368.29 -100.82,367.45 -95.80,365.74 -90.77,364.04 -86.30,362.02 -81.83,360.01 -80.53,355.68 -79.23,351.36 -78.08,343.91 -76.92,336.47 -76.37,328.29 -75.81,320.11 -74.68,313.44 -73.54,306.77 -72.35,300.19 -71.16,293.61 -70.66,289.10 -70.16,284.58 -69.83,279.53 -69.50,274.47 -69.36,269.02 -69.23,263.56 -69.12,256.92 -69.02,250.27 -69.02,244.15 -69.03,238.02 -69.01,233.59 -69.00,229.16 -69.33,224.29 -69.67,219.42 -70.47,212.28 -71.28,205.13 -72.11,197.53 -72.95,189.94 -73.61,184.85 -74.27,179.77 -74.72,175.04 -75.17,170.31 -75.58,164.82 -75.98,159.33 -76.29,153.21 -76.60,147.09 -76.55,141.31 -76.50,135.53 -76.40,129.24 -76.29,122.95 -76.04,117.90 -75.79,112.86 -75.25,107.28 -74.71,101.71 -73.68,95.05 -72.65,88.40 -71.00,80.45 -69.35,72.51 -67.74,66.51 -66.14,60.51 -64.31,54.95 -62.48,49.39 -60.25,43.94 -58.01,38.48 -54.93,33.04 -51.85,27.59 -47.12,21.57 -42.38,15.54 -37.78,11.36 -33.18,7.18 -27.59,2.93 -22.01,-1.32 -13.62,-4.67 -5.24,-8.01 -4.20,-8.53 -3.17,-9.04 -2.04,-9.28 -0.91,-9.53 0.23,-9.50 1.39,-9.47 2.50,-9.17 3.62,-8.87 4.62,-8.30 5.63,-7.74 6.48,-6.95 7.32,-6.17 7.96,-5.20 8.59,-4.23 8.97,-3.14 9.35,-2.05 9.46,-0.90 9.57,0.24 9.41,1.38 9.24,2.52 8.80,3.59 8.36,4.66 7.68,5.59 7.00,6.53 6.12,7.27 5.24,8.01 5.24,8.01 L 5.24,8.01 Z"></path></g><g transform="translate(31.892757356408765 545.9903299773614) rotate(0 261.5479920187681 -251.74368398094975)" stroke="none"><path d="M0 0 C1.9 -4.86, 6.73 -14.47, 11.4 -29.18 C16.08 -43.89, 24.7 -75.01, 28.05 -88.26 C31.39 -101.51, 30.07 -103.69, 31.47 -108.67 C32.88 -113.65, 32.49 -114.28, 36.48 -118.16 C40.47 -122.03, 46.78 -126.94, 55.41 -131.92 C64.04 -136.9, 79.24 -144.57, 88.24 -148.05 C97.25 -151.53, 98.43 -151.65, 109.45 -152.8 C120.48 -153.94, 141.87 -153.67, 154.37 -154.93 C166.88 -156.2, 178.35 -157.91, 184.47 -160.4 C190.59 -162.89, 189.41 -166.8, 191.08 -169.88 C192.76 -172.97, 193.75 -175.85, 194.51 -178.9 C195.27 -181.95, 195.46 -182.07, 195.64 -188.16 C195.83 -194.25, 196.4 -205.2, 195.64 -215.44 C194.88 -225.68, 192.68 -233.23, 191.08 -249.61 C189.49 -265.98, 186.91 -297.02, 186.07 -313.67 C185.24 -330.32, 185.01 -325.89, 186.07 -349.5 C187.14 -373.11, 190.48 -431.04, 192.46 -455.32 C194.43 -479.6, 196.79 -487.35, 197.93 -495.18 C199.07 -503.01, 198.76 -500.56, 199.29 -502.3 C199.82 -504.04, 198.04 -502.89, 201.12 -505.62 C204.2 -508.35, 212.03 -515.43, 217.77 -518.68 C223.51 -521.92, 229.51 -523.93, 235.55 -525.08 C241.59 -526.22, 249.42 -527.14, 254.02 -525.56 C258.62 -523.97, 260.71 -518.87, 263.15 -515.59 C265.58 -512.31, 264.74 -531.37, 268.62 -505.86 C272.49 -480.36, 282.11 -392.65, 286.4 -362.55 C290.7 -332.46, 292.45 -337.83, 294.39 -325.3 C296.33 -312.76, 296.78 -297.77, 298.03 -287.33 C299.29 -276.89, 300.51 -276.5, 301.91 -262.66 C303.32 -248.82, 305.45 -215.95, 306.47 -204.28 C307.5 -192.62, 307.23 -196.14, 308.06 -192.66 C308.9 -189.18, 309.96 -185.74, 311.48 -183.4 C313 -181.07, 314.94 -179.85, 317.18 -178.66 C319.43 -177.48, 317.79 -176.73, 324.94 -176.29 C332.08 -175.86, 351.96 -175.78, 360.06 -176.05 C368.15 -176.33, 366.09 -176.41, 373.5 -177.95 C380.91 -179.49, 393.73 -183.89, 404.52 -185.31 C415.32 -186.73, 430.33 -186.53, 438.27 -186.49 C446.21 -186.45, 447.62 -185.86, 452.18 -185.07 C456.74 -184.28, 461.83 -182.97, 465.63 -181.75 C469.43 -180.52, 472.09 -179.85, 474.98 -177.71 C477.87 -175.58, 480.22 -172.53, 482.96 -168.93 C485.69 -165.34, 488.81 -160.83, 491.39 -156.12 C493.98 -151.42, 495.27 -149.95, 498.47 -140.7 C501.66 -131.44, 506.94 -113.53, 510.55 -100.6 C514.16 -87.67, 518.04 -72.48, 520.13 -63.11 C522.22 -53.74, 523.97 -48.68, 523.1 -44.37 C522.22 -40.06, 517.96 -39.22, 514.88 -37.25 C511.8 -35.27, 509.18 -34.08, 504.62 -32.5 C500.06 -30.92, 496.07 -29.74, 487.52 -27.76 C478.97 -25.78, 462.59 -21.87, 453.32 -20.64 C444.05 -19.41, 448.27 -22.18, 431.89 -20.4 C415.51 -18.62, 379.66 -12.85, 355.04 -9.97 C330.41 -7.08, 308.78 -4.35, 284.12 -3.09 C259.45 -1.82, 226.62 -3.08, 207.05 -2.37 C187.47 -1.65, 183.56 -0.91, 166.69 1.19 C149.81 3.28, 120.97 7.32, 105.81 10.2 C90.64 13.09, 84.26 16.54, 75.71 18.51 C67.16 20.49, 60.5 21.48, 54.5 22.07 C48.49 22.66, 47.89 24.16, 39.68 22.07 C31.47 19.97, 11.25 11.95, 5.24 9.5 C-0.76 7.04, 3.42 8.43, 3.65 7.36 C3.88 6.29, 7.22 4.31, 6.61 3.09 C6.01 1.86, 1.1 0.51, 0 0" stroke="none" stroke-width="0" fill="#fffefe" fill-rule="evenodd"></path><path fill="#1e1e1e" d="M -2.58,-1.01 Q -2.58,-1.01 -0.57,-9.89 1.43,-18.77 3.62,-25.53 5.80,-32.30 7.51,-38.04 9.22,-43.79 10.74,-48.85 12.26,-53.91 14.09,-59.90 15.91,-65.88 17.33,-70.77 18.74,-75.65 19.85,-79.70 20.96,-83.74 21.57,-86.92 22.19,-90.09 22.56,-92.52 22.93,-94.95 23.49,-98.62 24.04,-102.29 24.71,-105.13 25.37,-107.98 26.03,-110.06 26.68,-112.14 27.77,-114.60 28.86,-117.07 31.23,-120.02 33.60,-122.97 36.77,-125.48 39.94,-128.00 42.31,-129.61 44.68,-131.22 47.33,-133.11 49.98,-135.00 52.21,-136.39 54.43,-137.78 58.49,-140.08 62.55,-142.39 64.62,-143.44 66.69,-144.50 68.82,-145.56 70.95,-146.62 73.87,-148.00 76.80,-149.38 79.47,-150.53 82.15,-151.67 84.71,-152.61 87.27,-153.55 91.54,-154.71 95.81,-155.87 99.71,-156.72 103.61,-157.56 107.73,-157.96 111.86,-158.37 115.58,-158.43 119.30,-158.49 122.85,-158.63 126.40,-158.78 130.01,-158.99 133.61,-159.19 136.90,-159.42 140.19,-159.64 142.93,-159.87 145.67,-160.11 148.07,-160.26 150.47,-160.42 152.72,-160.69 154.98,-160.95 157.94,-161.43 160.90,-161.91 163.32,-162.39 165.74,-162.87 168.13,-163.39 170.52,-163.90 173.90,-164.51 177.28,-165.11 179.52,-165.41 181.77,-165.70 183.14,-168.28 184.50,-170.85 185.55,-173.03 186.60,-175.21 187.71,-179.68 188.83,-184.16 189.04,-188.45 189.26,-192.75 189.37,-196.96 189.49,-201.16 189.52,-205.27 189.55,-209.37 189.31,-213.17 189.07,-216.96 188.53,-220.76 187.99,-224.55 187.49,-228.40 186.98,-232.25 186.43,-237.06 185.87,-241.88 185.45,-246.05 185.02,-250.22 184.76,-254.42 184.49,-258.63 184.19,-263.99 183.88,-269.35 183.50,-274.22 183.11,-279.09 182.69,-283.74 182.27,-288.39 181.84,-292.88 181.40,-297.38 181.00,-301.93 180.60,-306.48 180.44,-312.81 180.27,-319.13 180.21,-324.85 180.14,-330.58 180.11,-336.02 180.08,-341.46 180.27,-346.81 180.45,-352.17 180.80,-358.68 181.14,-365.18 181.42,-370.45 181.69,-375.71 182.01,-380.39 182.32,-385.06 182.73,-389.61 183.14,-394.16 183.43,-398.66 183.72,-403.16 184.10,-409.46 184.48,-415.75 184.78,-421.21 185.08,-426.66 185.21,-431.23 185.33,-435.80 185.51,-439.68 185.69,-443.56 185.90,-447.06 186.11,-450.56 186.55,-454.88 186.98,-459.19 187.49,-463.06 188.00,-466.93 188.62,-470.79 189.24,-474.65 189.75,-478.25 190.27,-481.85 190.74,-485.85 191.22,-489.86 191.63,-492.58 192.05,-495.30 192.51,-498.22 192.98,-501.13 194.03,-504.07 195.08,-507.01 197.76,-510.04 200.44,-513.07 202.34,-514.62 204.25,-516.18 206.15,-517.61 208.04,-519.05 209.86,-520.35 211.67,-521.66 213.74,-522.85 215.81,-524.04 218.55,-525.32 221.30,-526.60 225.78,-528.18 230.27,-529.76 232.90,-530.26 235.54,-530.76 238.30,-530.98 241.06,-531.21 243.95,-531.29 246.83,-531.38 251.33,-530.84 255.83,-530.31 258.40,-528.39 260.97,-526.46 262.47,-524.94 263.98,-523.42 266.66,-520.22 269.33,-517.02 270.75,-514.38 272.16,-511.74 273.33,-506.12 274.49,-500.50 275.15,-495.73 275.80,-490.97 276.47,-486.51 277.13,-482.04 277.82,-477.63 278.50,-473.21 279.20,-467.84 279.90,-462.48 280.40,-457.70 280.91,-452.92 281.40,-448.40 281.88,-443.88 282.40,-439.40 282.92,-434.93 283.54,-430.40 284.16,-425.88 284.82,-421.22 285.49,-416.56 286.24,-410.72 286.99,-404.87 287.57,-400.29 288.15,-395.70 288.73,-391.84 289.32,-387.97 289.91,-383.16 290.50,-378.35 291.07,-374.05 291.64,-369.75 292.28,-365.58 292.92,-361.41 293.58,-357.63 294.24,-353.85 294.95,-350.74 295.67,-347.63 296.65,-343.62 297.63,-339.61 298.45,-335.85 299.27,-332.09 299.93,-328.17 300.58,-324.25 301.05,-320.12 301.52,-315.99 302.12,-310.24 302.72,-304.49 303.17,-299.71 303.63,-294.94 304.13,-291.27 304.63,-287.61 305.11,-284.24 305.59,-280.88 306.11,-277.82 306.64,-274.75 307.08,-271.47 307.53,-268.18 308.04,-263.41 308.56,-258.64 308.92,-254.53 309.28,-250.42 309.68,-246.21 310.09,-242.00 310.47,-236.29 310.85,-230.57 311.14,-226.13 311.43,-221.69 311.69,-218.19 311.94,-214.69 312.18,-211.86 312.42,-209.04 312.71,-206.48 313.00,-203.92 313.32,-201.56 313.63,-199.21 314.08,-196.30 314.54,-193.40 315.61,-190.43 316.68,-187.46 318.86,-185.67 321.05,-183.88 324.19,-183.35 327.33,-182.83 330.25,-182.72 333.18,-182.61 336.32,-182.56 339.45,-182.50 342.30,-182.47 345.14,-182.45 347.40,-182.44 349.65,-182.42 353.49,-182.42 357.34,-182.41 361.08,-182.73 364.82,-183.04 366.96,-183.37 369.10,-183.70 373.43,-184.76 377.76,-185.82 382.53,-186.97 387.30,-188.13 391.90,-189.11 396.50,-190.09 400.95,-190.81 405.40,-191.52 410.98,-191.92 416.56,-192.31 420.87,-192.47 425.19,-192.64 428.94,-192.71 432.69,-192.77 436.51,-192.67 440.33,-192.56 443.99,-192.23 447.65,-191.89 451.30,-191.24 454.95,-190.59 457.16,-190.10 459.37,-189.60 462.10,-189.01 464.84,-188.42 467.63,-187.58 470.41,-186.75 473.21,-185.53 476.00,-184.32 477.85,-183.01 479.69,-181.71 482.18,-179.11 484.67,-176.51 486.94,-173.46 489.20,-170.42 491.36,-167.33 493.52,-164.25 495.60,-160.70 497.69,-157.15 499.64,-153.11 501.59,-149.08 503.25,-144.86 504.91,-140.65 506.69,-135.23 508.47,-129.81 509.80,-125.74 511.13,-121.67 512.11,-118.27 513.10,-114.87 514.15,-111.30 515.20,-107.74 516.03,-104.27 516.86,-100.80 517.66,-97.33 518.45,-93.86 519.23,-90.66 520.02,-87.47 520.81,-84.52 521.59,-81.57 522.38,-78.94 523.16,-76.31 523.91,-73.61 524.67,-70.91 525.52,-67.22 526.38,-63.54 526.79,-61.00 527.20,-58.47 527.68,-56.37 528.16,-54.28 528.61,-51.72 529.07,-49.17 528.31,-44.71 527.54,-40.25 524.72,-37.36 521.90,-34.48 519.76,-32.85 517.62,-31.22 515.28,-29.94 512.95,-28.67 509.52,-27.45 506.09,-26.23 502.36,-25.12 498.64,-24.01 495.91,-23.28 493.17,-22.54 489.46,-21.72 485.74,-20.91 482.40,-20.17 479.05,-19.42 475.81,-18.76 472.57,-18.09 469.56,-17.42 466.55,-16.75 463.10,-16.04 459.65,-15.32 456.73,-14.97 453.82,-14.63 451.05,-14.51 448.29,-14.38 445.40,-14.34 442.51,-14.29 439.53,-14.20 436.54,-14.12 432.64,-13.74 428.73,-13.37 425.33,-13.01 421.92,-12.66 419.06,-12.19 416.20,-11.72 413.43,-11.29 410.66,-10.87 407.41,-10.29 404.16,-9.71 401.10,-9.25 398.03,-8.78 395.00,-8.49 391.98,-8.21 389.04,-7.96 386.10,-7.71 382.94,-7.40 379.77,-7.09 375.26,-6.38 370.75,-5.68 366.46,-5.07 362.17,-4.47 358.35,-4.00 354.53,-3.54 350.94,-3.20 347.35,-2.86 343.05,-2.46 338.75,-2.05 335.11,-1.68 331.47,-1.30 328.31,-0.93 325.15,-0.56 322.17,-0.26 319.18,0.03 316.49,0.29 313.80,0.55 311.12,0.74 308.45,0.93 305.17,1.20 301.89,1.48 298.83,1.80 295.78,2.12 292.63,2.46 289.48,2.80 285.10,3.16 280.72,3.52 277.07,3.68 273.42,3.84 270.27,3.90 267.13,3.97 264.28,4.00 261.43,4.03 258.64,4.04 255.86,4.06 252.64,4.06 249.42,4.07 246.88,4.07 244.33,4.07 242.00,4.07 239.67,4.07 237.11,4.07 234.55,4.07 230.51,4.07 226.47,4.08 222.72,4.07 218.97,4.07 215.54,4.08 212.11,4.08 208.94,4.34 205.77,4.61 202.40,4.92 199.02,5.24 195.76,5.57 192.50,5.90 188.45,6.20 184.39,6.50 180.89,6.69 177.38,6.88 174.47,7.09 171.55,7.30 168.59,7.60 165.64,7.89 163.35,8.15 161.06,8.41 156.78,9.09 152.51,9.78 149.95,10.23 147.40,10.68 144.43,11.16 141.46,11.63 137.24,12.19 133.03,12.75 129.48,13.18 125.94,13.61 122.86,14.11 119.79,14.62 116.03,15.19 112.27,15.77 109.37,16.32 106.47,16.88 103.98,17.51 101.48,18.14 98.97,18.80 96.45,19.47 94.02,20.21 91.59,20.95 88.60,21.78 85.62,22.62 83.22,23.25 80.82,23.87 78.34,24.44 75.85,25.00 73.24,25.41 70.63,25.81 67.53,26.36 64.43,26.91 62.12,27.29 59.82,27.68 56.84,28.07 53.87,28.45 50.61,28.51 47.34,28.58 45.13,28.58 42.92,28.59 40.23,28.22 37.53,27.85 35.18,27.09 32.84,26.34 30.34,25.34 27.84,24.34 25.77,23.64 23.71,22.95 19.43,21.39 15.15,19.84 12.96,19.05 10.77,18.26 7.80,17.27 4.83,16.28 2.11,12.93 -0.60,9.57 1.19,8.02 2.99,6.47 0.61,4.21 -1.76,1.94 -2.02,1.61 -2.29,1.28 -2.43,0.88 -2.58,0.48 -2.59,0.05 -2.60,-0.36 -2.47,-0.77 -2.34,-1.17 -2.09,-1.52 -1.84,-1.86 -1.50,-2.11 -1.15,-2.35 -0.75,-2.48 -0.34,-2.60 0.08,-2.59 0.50,-2.57 0.90,-2.42 1.30,-2.28 1.63,-2.01 1.96,-1.74 2.18,-1.38 2.41,-1.02 2.51,-0.61 2.61,-0.20 2.58,0.22 2.54,0.64 2.37,1.03 2.20,1.42 1.92,1.73 1.63,2.05 1.26,2.26 0.89,2.46 0.47,2.54 0.06,2.62 -0.36,2.56 -0.78,2.50 -1.16,2.31 -1.54,2.12 -1.84,1.82 -2.13,1.52 -2.32,1.14 -2.51,0.76 -2.56,0.33 -2.62,-0.08 -2.54,-0.49 -2.46,-0.91 -2.25,-1.28 -2.04,-1.65 -1.72,-1.93 -1.40,-2.21 -1.01,-2.38 -0.62,-2.55 -0.19,-2.58 0.22,-2.61 0.63,-2.51 1.04,-2.40 1.40,-2.17 1.76,-1.94 1.76,-1.94 1.76,-1.94 5.55,1.01 9.35,3.98 12.30,4.93 15.25,5.88 17.40,6.67 19.56,7.45 23.60,8.93 27.65,10.41 30.08,11.23 32.52,12.05 34.85,12.99 37.17,13.93 40.04,14.72 42.90,15.51 45.07,15.50 47.23,15.50 50.11,15.44 52.99,15.39 55.34,15.12 57.70,14.86 59.93,14.49 62.16,14.13 65.42,13.55 68.68,12.97 70.84,12.65 73.00,12.33 75.27,11.83 77.54,11.32 79.85,10.72 82.16,10.12 84.99,9.34 87.83,8.56 90.47,7.76 93.11,6.96 95.74,6.25 98.38,5.54 101.21,4.86 104.03,4.18 107.18,3.57 110.33,2.96 114.01,2.41 117.70,1.85 121.03,1.31 124.36,0.76 127.86,0.33 131.36,-0.10 135.40,-0.62 139.43,-1.14 142.30,-1.59 145.17,-2.04 147.72,-2.47 150.26,-2.91 152.66,-3.34 155.06,-3.77 157.33,-4.10 159.61,-4.43 162.00,-4.70 164.39,-4.97 167.50,-5.27 170.61,-5.56 173.65,-5.78 176.68,-6.00 180.08,-6.18 183.47,-6.37 187.33,-6.64 191.18,-6.91 194.50,-7.26 197.82,-7.60 201.28,-7.93 204.75,-8.25 208.43,-8.53 212.11,-8.81 215.54,-8.81 218.97,-8.81 222.72,-8.81 226.47,-8.81 230.51,-8.81 234.54,-8.80 237.11,-8.80 239.67,-8.80 241.99,-8.81 244.32,-8.81 246.86,-8.81 249.40,-8.81 252.60,-8.82 255.80,-8.82 258.56,-8.84 261.31,-8.85 264.08,-8.87 266.86,-8.89 269.87,-8.95 272.87,-9.01 276.27,-9.15 279.68,-9.29 283.89,-9.64 288.10,-9.98 291.27,-10.32 294.45,-10.66 297.63,-10.99 300.81,-11.32 304.18,-11.60 307.56,-11.88 310.05,-12.06 312.55,-12.23 315.23,-12.49 317.91,-12.76 320.80,-13.04 323.68,-13.32 326.92,-13.69 330.15,-14.05 333.84,-14.43 337.53,-14.82 341.84,-15.24 346.15,-15.66 349.56,-15.98 352.98,-16.30 356.69,-16.75 360.40,-17.20 364.57,-17.77 368.74,-18.35 373.64,-19.13 378.54,-19.91 381.78,-20.22 385.02,-20.53 387.91,-20.77 390.80,-21.02 393.45,-21.25 396.11,-21.49 399.02,-21.93 401.93,-22.37 405.33,-22.97 408.73,-23.56 411.43,-23.97 414.13,-24.37 417.35,-24.90 420.56,-25.42 424.05,-25.80 427.55,-26.17 431.85,-26.56 436.15,-26.95 439.21,-27.04 442.26,-27.14 444.96,-27.20 447.65,-27.26 450.00,-27.39 452.35,-27.52 454.69,-27.78 457.03,-28.03 460.37,-28.72 463.71,-29.40 466.83,-30.11 469.95,-30.82 473.09,-31.47 476.23,-32.11 479.58,-32.86 482.93,-33.60 486.32,-34.36 489.72,-35.13 492.32,-35.85 494.91,-36.58 498.47,-37.67 502.04,-38.76 504.82,-39.79 507.60,-40.81 509.60,-42.07 511.60,-43.34 513.86,-45.17 516.12,-47.00 515.61,-49.54 515.10,-52.09 514.68,-54.21 514.25,-56.33 513.88,-58.82 513.50,-61.31 512.78,-64.37 512.05,-67.42 511.34,-70.03 510.63,-72.63 509.81,-75.43 509.00,-78.23 508.19,-81.31 507.39,-84.38 506.58,-87.67 505.78,-90.96 504.99,-94.38 504.21,-97.81 503.48,-100.93 502.75,-104.06 501.68,-107.66 500.61,-111.26 499.69,-114.47 498.78,-117.67 497.47,-121.74 496.17,-125.81 494.53,-130.89 492.89,-135.97 491.43,-139.76 489.98,-143.55 488.30,-147.12 486.63,-150.69 484.82,-153.80 483.02,-156.92 480.95,-159.88 478.88,-162.83 477.07,-165.35 475.25,-167.86 473.69,-169.66 472.13,-171.46 470.29,-172.64 468.45,-173.82 466.35,-174.58 464.25,-175.35 461.80,-175.92 459.34,-176.50 456.00,-177.26 452.65,-178.02 449.56,-178.60 446.47,-179.18 443.21,-179.48 439.95,-179.79 436.43,-179.90 432.92,-180.00 429.28,-179.94 425.65,-179.88 421.53,-179.74 417.41,-179.60 412.41,-179.28 407.40,-178.96 403.28,-178.31 399.17,-177.65 394.73,-176.70 390.29,-175.75 385.51,-174.60 380.74,-173.45 375.88,-172.30 371.02,-171.14 368.52,-170.76 366.01,-170.38 363.85,-170.17 361.69,-169.97 359.51,-169.83 357.32,-169.69 353.46,-169.70 349.59,-169.70 347.31,-169.71 345.03,-169.72 342.12,-169.75 339.22,-169.77 335.93,-169.84 332.63,-169.90 329.06,-170.07 325.49,-170.24 322.80,-170.67 320.11,-171.10 317.40,-172.02 314.69,-172.94 311.92,-174.83 309.16,-176.72 307.51,-178.78 305.87,-180.84 304.92,-182.95 303.97,-185.06 303.04,-188.02 302.11,-190.98 301.59,-194.26 301.07,-197.53 300.74,-200.02 300.41,-202.50 300.11,-205.24 299.80,-207.98 299.56,-210.88 299.32,-213.78 299.07,-217.33 298.82,-220.87 298.53,-225.30 298.24,-229.74 297.88,-235.26 297.52,-240.79 297.11,-245.07 296.70,-249.34 296.36,-253.32 296.02,-257.29 295.53,-261.90 295.03,-266.51 294.62,-269.58 294.22,-272.65 293.68,-275.88 293.14,-279.11 292.66,-282.51 292.17,-285.92 291.64,-289.84 291.11,-293.76 290.67,-298.48 290.23,-303.21 289.66,-308.89 289.09,-314.58 288.65,-318.42 288.22,-322.26 287.66,-325.85 287.10,-329.43 286.31,-333.07 285.52,-336.71 284.56,-340.80 283.60,-344.90 282.83,-348.33 282.06,-351.75 281.40,-355.66 280.73,-359.57 280.10,-363.86 279.46,-368.15 278.89,-372.51 278.32,-376.88 277.77,-381.55 277.22,-386.21 276.66,-390.20 276.11,-394.19 275.53,-398.76 274.96,-403.34 274.23,-409.11 273.51,-414.88 272.86,-419.57 272.21,-424.27 271.60,-428.90 270.98,-433.53 270.44,-438.08 269.91,-442.64 269.46,-447.17 269.01,-451.69 268.55,-456.33 268.08,-460.96 267.42,-466.19 266.76,-471.41 266.09,-475.86 265.43,-480.31 264.76,-484.84 264.09,-489.36 263.48,-493.87 262.86,-498.38 261.39,-504.07 259.92,-509.76 257.74,-512.46 255.55,-515.15 253.92,-517.13 252.29,-519.11 249.73,-519.30 247.17,-519.49 244.57,-519.41 241.97,-519.34 237.77,-518.81 233.58,-518.29 229.96,-517.03 226.34,-515.78 224.02,-514.70 221.70,-513.62 218.48,-511.55 215.27,-509.49 213.54,-508.18 211.81,-506.87 210.12,-505.51 208.43,-504.14 206.67,-501.68 204.91,-499.21 204.44,-496.34 203.98,-493.47 203.59,-490.96 203.19,-488.44 202.71,-484.29 202.22,-480.14 201.69,-476.44 201.16,-472.73 200.56,-469.03 199.97,-465.32 199.47,-461.66 198.98,-458.00 198.57,-453.91 198.17,-449.83 197.96,-446.40 197.75,-442.98 197.56,-439.22 197.37,-435.47 197.25,-430.74 197.12,-426.01 196.83,-420.51 196.53,-415.01 196.14,-408.69 195.74,-402.38 195.43,-397.74 195.13,-393.10 194.74,-388.67 194.35,-384.24 194.04,-379.66 193.73,-375.09 193.45,-369.82 193.18,-364.55 192.84,-358.15 192.51,-351.74 192.33,-346.63 192.14,-341.52 192.17,-336.12 192.21,-330.73 192.28,-325.09 192.35,-319.45 192.51,-313.48 192.67,-307.51 193.04,-303.04 193.41,-298.56 193.87,-294.02 194.32,-289.49 194.75,-284.76 195.19,-280.04 195.59,-275.04 195.98,-270.03 196.28,-264.70 196.57,-259.36 196.80,-255.41 197.04,-251.46 197.46,-247.35 197.89,-243.24 198.41,-238.53 198.94,-233.81 199.44,-230.01 199.94,-226.21 200.52,-221.95 201.10,-217.69 201.34,-213.46 201.59,-209.23 201.52,-205.04 201.45,-200.84 201.33,-196.44 201.20,-192.05 200.88,-187.01 200.55,-181.97 199.72,-177.96 198.90,-173.96 198.05,-171.89 197.19,-169.82 195.64,-166.89 194.09,-163.96 192.76,-162.14 191.43,-160.33 190.01,-158.70 188.58,-157.08 186.43,-155.85 184.28,-154.62 181.84,-154.20 179.41,-153.78 176.17,-153.23 172.93,-152.67 170.74,-152.16 168.55,-151.66 165.71,-151.11 162.88,-150.55 159.59,-150.03 156.30,-149.51 153.79,-149.23 151.28,-148.94 148.95,-148.77 146.62,-148.60 143.79,-148.37 140.96,-148.14 137.61,-147.92 134.25,-147.69 130.57,-147.49 126.89,-147.30 123.17,-147.13 119.44,-146.97 115.91,-146.93 112.38,-146.90 109.05,-146.59 105.71,-146.28 102.12,-145.51 98.53,-144.74 94.87,-143.77 91.20,-142.79 88.94,-141.96 86.67,-141.14 84.16,-140.06 81.65,-138.98 78.85,-137.69 76.06,-136.40 73.97,-135.36 71.89,-134.31 69.92,-133.31 67.95,-132.31 64.19,-130.18 60.43,-128.05 58.60,-126.94 56.78,-125.82 53.95,-123.80 51.12,-121.78 47.52,-119.28 43.92,-116.77 42.04,-115.07 40.17,-113.36 38.92,-111.00 37.67,-108.64 36.80,-105.60 35.92,-102.56 35.40,-100.05 34.89,-97.53 34.54,-95.30 34.19,-93.08 33.73,-90.47 33.26,-87.85 32.52,-84.29 31.77,-80.74 30.62,-76.64 29.46,-72.54 28.01,-67.58 26.57,-62.61 24.73,-56.66 22.89,-50.71 21.36,-45.65 19.83,-40.60 18.06,-34.74 16.28,-28.89 13.98,-21.83 11.67,-14.77 7.13,-6.88 2.58,1.01 2.42,1.30 2.26,1.59 2.04,1.84 1.81,2.09 1.54,2.28 1.26,2.47 0.95,2.58 0.63,2.70 0.30,2.73 -0.02,2.77 -0.35,2.73 -0.69,2.68 -1.00,2.56 -1.31,2.44 -1.58,2.25 -1.86,2.05 -2.08,1.80 -2.30,1.55 -2.45,1.25 -2.60,0.95 -2.68,0.63 -2.75,0.30 -2.75,-0.02 -2.75,-0.36 -2.66,-0.68 -2.58,-1.01 -2.58,-1.01 L -2.58,-1.01 Z"></path></g><g transform="translate(41.92271644817629 570.4343257804358) rotate(0 275.3449421743835 70.9419282868048)" stroke="none"><path fill="#1e1e1e" d="M 2.33,2.68 Q 2.33,2.68 -0.17,6.26 -2.69,9.83 -4.10,11.84 -5.50,13.84 -6.69,17.05 -7.87,20.27 -8.41,23.37 -8.96,26.47 -9.31,30.67 -9.66,34.87 -9.78,37.84 -9.91,40.81 -9.95,43.21 -9.99,45.61 -10.02,49.70 -10.05,53.78 -10.04,55.91 -10.02,58.05 -10.01,60.66 -9.99,63.27 -9.97,66.94 -9.96,70.61 -9.93,74.90 -9.91,79.19 -9.89,82.14 -9.87,85.09 -9.86,87.43 -9.86,89.77 -9.86,91.93 -9.86,94.09 -9.85,96.37 -9.84,98.65 -9.91,102.00 -9.97,105.35 -10.06,108.16 -10.16,110.96 -10.33,113.42 -10.50,115.87 -10.76,118.78 -11.03,121.68 -11.18,124.83 -11.33,127.98 -11.72,131.61 -12.10,135.24 -12.58,137.76 -13.07,140.28 -13.60,142.74 -14.13,145.21 -14.80,147.57 -15.46,149.93 -16.16,152.90 -16.86,155.87 -17.32,158.52 -17.79,161.17 -17.88,163.49 -17.98,165.82 -18.59,168.78 -19.20,171.74 -19.76,174.29 -20.33,176.84 -20.76,179.07 -21.20,181.29 -21.71,183.61 -22.21,185.94 -22.64,188.24 -23.08,190.54 -23.69,192.86 -24.29,195.17 -24.60,197.30 -24.90,199.43 -29.89,198.85 -34.89,198.27 -32.35,195.92 -29.81,193.56 -26.98,191.52 -24.15,189.48 -21.43,187.70 -18.71,185.92 -16.61,184.80 -14.52,183.67 -12.15,183.20 -9.77,182.74 -7.43,183.35 -5.08,183.96 -3.36,185.30 -1.64,186.63 0.69,186.44 3.03,186.25 7.24,185.75 11.44,185.25 14.34,185.16 17.24,185.06 19.80,185.16 22.37,185.26 25.33,185.85 28.28,186.43 30.76,186.91 33.25,187.38 35.43,187.70 37.62,188.03 41.12,188.30 44.62,188.57 47.73,185.62 50.84,182.67 52.41,180.85 53.98,179.03 56.90,176.88 59.83,174.72 63.64,174.37 67.46,174.02 69.75,174.86 72.05,175.69 74.01,176.77 75.96,177.85 78.57,178.62 81.17,179.38 84.85,180.34 88.52,181.30 91.33,181.46 94.14,181.61 95.86,179.63 97.58,177.65 100.21,174.61 102.83,171.57 105.10,169.00 107.37,166.43 113.28,163.96 119.18,161.49 121.14,162.48 123.10,163.47 124.76,165.68 126.42,167.89 127.74,169.85 129.05,171.82 131.42,173.57 133.78,175.32 135.68,172.91 137.57,170.50 140.81,167.09 144.05,163.69 146.50,161.41 148.96,159.14 152.25,157.60 155.54,156.06 159.31,156.19 163.08,156.33 166.00,157.39 168.93,158.45 171.11,159.41 173.29,160.38 176.59,160.96 179.88,161.55 182.93,161.12 185.97,160.69 188.19,159.23 190.41,157.78 192.58,156.56 194.76,155.34 196.83,154.58 198.89,153.82 201.66,153.45 204.43,153.07 207.91,153.79 211.38,154.51 215.09,155.70 218.80,156.89 221.34,157.44 223.87,157.99 227.18,158.32 230.48,158.66 233.62,154.85 236.76,151.03 239.51,148.28 242.26,145.53 244.25,143.80 246.24,142.06 249.06,140.86 251.89,139.65 254.94,140.03 258.00,140.40 261.05,141.78 264.09,143.15 266.70,143.45 269.31,143.76 272.22,142.20 275.13,140.64 277.29,139.79 279.46,138.95 282.12,138.94 284.78,138.92 287.47,139.99 290.17,141.05 293.07,142.31 295.98,143.57 298.32,144.37 300.66,145.17 303.38,145.88 306.11,146.59 308.37,145.30 310.63,144.01 312.89,142.04 315.16,140.07 319.07,138.58 322.98,137.10 325.96,137.17 328.93,137.24 331.15,137.50 333.37,137.76 337.44,138.57 341.52,139.39 344.09,139.76 346.66,140.13 348.89,140.58 351.12,141.02 351.50,138.91 351.89,136.81 353.15,134.45 354.41,132.10 355.61,130.25 356.82,128.40 359.21,126.71 361.60,125.01 364.37,124.38 367.13,123.74 370.45,123.98 373.76,124.22 377.01,124.92 380.26,125.62 383.76,126.61 387.27,127.61 389.61,128.18 391.95,128.75 394.95,129.03 397.94,129.30 400.26,127.85 402.58,126.40 404.70,125.50 406.82,124.61 414.73,126.73 422.65,128.86 426.86,131.10 431.07,133.34 434.62,134.93 438.16,136.53 440.75,137.31 443.34,138.10 444.72,132.75 446.10,127.40 447.39,124.55 448.69,121.70 451.97,119.11 455.24,116.52 457.89,116.40 460.53,116.28 463.23,117.70 465.93,119.12 468.69,120.71 471.45,122.30 473.53,123.24 475.61,124.19 478.20,124.80 480.78,125.41 482.72,123.86 484.65,122.32 488.93,120.83 493.22,119.34 497.07,119.14 500.93,118.94 505.30,119.09 509.68,119.23 514.35,119.43 519.01,119.62 523.08,119.70 527.14,119.78 530.25,119.81 533.35,119.84 534.37,117.95 535.38,116.06 535.41,115.90 535.45,115.74 535.60,114.97 535.76,114.20 536.10,113.49 536.44,112.77 536.93,112.17 537.43,111.56 538.06,111.08 538.69,110.61 539.42,110.30 540.14,109.99 540.92,109.87 541.69,109.74 542.48,109.80 543.26,109.87 544.01,110.11 544.76,110.36 545.42,110.78 546.09,111.20 546.63,111.77 547.18,112.34 547.57,113.02 547.97,113.70 548.18,114.46 548.40,115.22 548.44,116.00 548.47,116.79 544.59,115.89 540.71,115.00 542.24,112.09 543.77,109.18 546.92,105.38 550.08,101.57 552.31,101.12 554.55,100.68 557.07,102.21 559.59,103.73 561.53,104.84 563.46,105.95 565.75,106.25 568.03,106.55 571.79,108.16 575.55,109.77 577.41,111.10 579.27,112.44 581.91,114.16 584.54,115.88 585.15,116.39 585.75,116.90 586.21,117.53 586.67,118.17 586.97,118.89 587.27,119.62 587.38,120.40 587.50,121.17 587.42,121.96 587.35,122.74 587.09,123.48 586.83,124.22 586.40,124.88 585.97,125.54 585.39,126.07 584.82,126.61 584.13,126.99 583.45,127.38 582.69,127.58 581.93,127.79 581.15,127.81 580.36,127.83 579.59,127.66 578.83,127.49 578.12,127.15 577.42,126.80 575.95,124.36 574.48,121.93 571.46,118.04 568.44,114.16 566.93,111.67 565.42,109.18 563.57,106.13 561.72,103.07 560.56,101.11 559.41,99.15 558.04,95.76 556.67,92.38 555.63,88.91 554.59,85.43 553.32,82.45 552.05,79.47 550.32,75.72 548.60,71.98 547.60,69.88 546.61,67.78 545.00,64.43 543.40,61.08 542.52,59.04 541.63,57.01 540.87,54.91 540.12,52.81 538.74,49.46 537.36,46.11 536.15,42.75 534.94,39.38 534.20,36.26 533.46,33.13 532.88,30.13 532.29,27.14 531.77,24.14 531.26,21.15 530.82,18.34 530.38,15.53 529.88,12.50 529.37,9.47 528.92,7.37 528.46,5.27 527.74,2.78 527.02,0.29 526.32,-2.13 525.62,-4.55 524.15,-7.52 522.68,-10.48 520.60,-14.49 518.52,-18.50 517.52,-20.81 516.51,-23.12 515.85,-26.07 515.19,-29.03 514.35,-32.72 513.51,-36.42 512.53,-39.79 511.56,-43.16 510.77,-45.69 509.99,-48.22 509.12,-50.82 508.25,-53.41 505.87,-56.85 503.49,-60.28 503.09,-60.42 502.69,-60.56 502.35,-60.82 502.02,-61.08 501.78,-61.43 501.54,-61.79 501.43,-62.20 501.32,-62.61 501.35,-63.03 501.37,-63.45 501.53,-63.85 501.69,-64.24 501.97,-64.56 502.25,-64.89 502.61,-65.10 502.98,-65.32 503.39,-65.41 503.81,-65.50 504.23,-65.45 504.65,-65.40 505.04,-65.22 505.42,-65.04 505.73,-64.74 506.03,-64.45 506.23,-64.07 506.43,-63.70 506.49,-63.28 506.56,-62.86 506.49,-62.44 506.42,-62.02 506.22,-61.64 506.01,-61.27 505.70,-60.98 505.39,-60.69 505.01,-60.51 504.62,-60.34 504.20,-60.29 503.77,-60.25 503.36,-60.35 502.95,-60.44 502.58,-60.66 502.22,-60.88 501.95,-61.21 501.67,-61.53 501.52,-61.93 501.36,-62.32 501.34,-62.75 501.32,-63.17 501.44,-63.58 501.56,-63.99 501.80,-64.34 502.04,-64.69 502.38,-64.95 502.72,-65.20 503.12,-65.33 503.53,-65.47 503.95,-65.47 504.38,-65.46 504.37,-65.46 504.37,-65.46 508.82,-66.88 513.26,-68.29 515.97,-66.54 518.69,-64.79 520.45,-61.28 522.20,-57.77 523.00,-55.30 523.79,-52.82 524.68,-49.87 525.56,-46.91 526.57,-43.38 527.58,-39.85 528.46,-35.93 529.34,-32.01 530.43,-28.42 531.51,-24.82 533.30,-21.29 535.08,-17.76 536.25,-15.70 537.42,-13.65 538.40,-11.00 539.38,-8.35 540.07,-5.91 540.76,-3.47 541.57,-0.56 542.39,2.35 542.88,4.77 543.37,7.20 543.87,10.32 544.37,13.44 544.75,16.12 545.13,18.79 545.60,21.64 546.07,24.49 546.59,27.21 547.10,29.93 548.12,33.94 549.14,37.94 550.32,40.90 551.50,43.85 552.35,46.01 553.20,48.17 554.53,51.64 555.86,55.11 557.48,58.55 559.09,61.99 560.11,64.21 561.12,66.44 562.06,68.61 563.01,70.79 564.32,73.91 565.63,77.03 566.50,79.29 567.36,81.55 568.33,84.91 569.30,88.26 570.05,90.38 570.80,92.51 571.88,94.38 572.95,96.25 574.82,99.31 576.68,102.37 578.06,104.64 579.43,106.91 581.34,109.80 583.26,112.69 585.26,115.98 587.26,119.27 585.90,117.58 584.54,115.88 585.15,116.39 585.75,116.89 586.21,117.53 586.67,118.16 586.97,118.89 587.27,119.62 587.38,120.40 587.50,121.17 587.42,121.96 587.35,122.74 587.09,123.48 586.83,124.22 586.40,124.88 585.97,125.54 585.40,126.07 584.82,126.61 584.13,126.99 583.45,127.38 582.69,127.58 581.93,127.79 581.15,127.81 580.36,127.83 579.59,127.66 578.83,127.49 578.12,127.15 577.42,126.80 576.32,126.07 575.22,125.33 573.43,124.15 571.65,122.97 568.08,121.08 564.51,119.19 561.51,118.52 558.50,117.85 554.79,115.57 551.08,113.28 553.40,113.62 555.72,113.96 554.81,116.26 553.91,118.56 550.70,122.22 547.49,125.89 542.15,123.51 536.82,121.12 536.13,118.43 535.45,115.74 535.60,114.97 535.76,114.20 536.10,113.49 536.44,112.78 536.93,112.17 537.43,111.56 538.06,111.08 538.69,110.61 539.41,110.30 540.14,109.99 540.92,109.87 541.69,109.74 542.48,109.80 543.26,109.87 544.01,110.11 544.76,110.36 545.42,110.78 546.09,111.20 546.63,111.77 547.18,112.34 547.57,113.02 547.97,113.70 548.18,114.46 548.40,115.22 548.44,116.00 548.47,116.79 548.32,118.33 548.18,119.87 547.73,122.38 547.29,124.90 545.63,127.43 543.96,129.96 541.06,131.37 538.16,132.77 535.68,132.87 533.20,132.97 530.03,132.93 526.87,132.89 522.65,132.79 518.44,132.70 513.82,132.49 509.19,132.28 505.28,132.11 501.36,131.94 497.60,131.96 493.83,131.99 491.69,133.38 489.54,134.78 486.14,136.49 482.74,138.20 478.94,137.84 475.14,137.49 472.64,136.70 470.14,135.92 467.51,134.66 464.89,133.40 462.48,130.11 460.07,126.83 459.11,129.03 458.15,131.22 457.02,134.88 455.90,138.55 454.26,142.54 452.63,146.53 449.89,148.46 447.16,150.39 443.31,150.45 439.47,150.51 436.13,149.44 432.79,148.37 428.86,146.56 424.93,144.74 420.81,142.50 416.69,140.25 414.00,138.38 411.31,136.51 409.20,137.71 407.10,138.91 403.65,140.55 400.21,142.19 396.76,142.09 393.30,141.99 391.06,141.66 388.82,141.33 386.24,140.67 383.67,140.01 380.52,139.08 377.38,138.14 374.85,137.51 372.32,136.88 368.94,137.43 365.57,137.97 364.27,140.48 362.98,142.99 361.02,146.16 359.07,149.33 356.01,151.15 352.94,152.96 348.87,152.92 344.79,152.87 341.86,152.44 338.94,152.01 333.64,150.99 328.34,149.98 324.94,150.70 321.54,151.41 319.86,152.90 318.17,154.38 315.78,156.01 313.39,157.63 310.32,158.56 307.25,159.48 303.92,159.03 300.59,158.59 298.52,157.95 296.45,157.31 293.64,156.32 290.83,155.33 287.02,153.13 283.20,150.93 281.22,152.15 279.24,153.38 276.63,154.60 274.02,155.83 271.10,156.21 268.19,156.59 266.03,156.35 263.87,156.12 261.49,155.52 259.11,154.93 256.81,153.11 254.51,151.29 252.80,152.77 251.09,154.25 248.54,156.87 245.98,159.50 242.28,163.44 238.58,167.39 235.04,169.19 231.50,171.00 228.86,171.03 226.23,171.06 223.66,170.74 221.09,170.41 217.98,169.70 214.86,168.98 210.17,167.25 205.48,165.53 203.16,165.90 200.85,166.27 197.82,168.12 194.79,169.97 192.44,171.29 190.09,172.61 186.93,173.48 183.77,174.36 181.06,174.25 178.35,174.14 175.79,173.79 173.24,173.43 170.68,172.67 168.13,171.90 166.18,171.01 164.24,170.11 160.75,169.22 157.25,168.33 155.21,170.27 153.18,172.21 149.86,175.83 146.55,179.44 143.25,182.52 139.96,185.59 136.44,186.65 132.92,187.70 130.18,187.05 127.44,186.40 125.22,184.99 123.00,183.58 120.73,181.22 118.47,178.85 117.25,176.96 116.03,175.07 115.11,173.02 114.20,170.97 115.49,172.83 116.78,174.69 114.57,177.22 112.37,179.74 109.39,183.23 106.42,186.72 103.75,189.15 101.09,191.57 97.92,192.87 94.75,194.18 90.17,193.92 85.59,193.67 81.57,192.59 77.55,191.50 73.67,190.18 69.78,188.87 66.65,188.02 63.51,187.17 61.87,189.11 60.24,191.05 57.52,194.00 54.80,196.95 51.93,198.68 49.07,200.41 46.58,200.82 44.09,201.22 39.93,200.88 35.77,200.53 33.30,200.17 30.83,199.80 28.23,199.29 25.64,198.77 21.63,198.22 17.63,197.66 13.03,197.93 8.43,198.20 4.01,198.48 -0.40,198.76 -2.90,198.50 -5.40,198.23 -8.57,197.32 -11.74,196.42 -14.21,198.09 -16.68,199.76 -19.27,201.66 -21.86,203.56 -25.08,205.85 -28.29,208.13 -32.99,206.21 -37.68,204.29 -37.80,200.78 -37.93,197.28 -37.60,195.09 -37.28,192.90 -36.64,190.37 -36.00,187.85 -35.43,184.86 -34.86,181.87 -34.22,179.07 -33.59,176.27 -32.96,173.26 -32.33,170.26 -31.67,167.57 -31.01,164.88 -30.86,162.48 -30.72,160.07 -30.29,157.37 -29.87,154.67 -29.26,152.06 -28.66,149.44 -27.68,145.93 -26.70,142.42 -26.17,140.12 -25.65,137.82 -25.19,135.53 -24.74,133.25 -24.41,130.38 -24.08,127.51 -23.89,124.02 -23.70,120.53 -23.44,117.74 -23.17,114.95 -23.01,112.74 -22.84,110.53 -22.74,107.81 -22.65,105.10 -22.58,101.87 -22.51,98.65 -22.50,96.37 -22.50,94.09 -22.50,91.93 -22.50,89.77 -22.49,87.43 -22.49,85.09 -22.46,82.14 -22.44,79.19 -22.42,74.90 -22.40,70.61 -22.38,66.94 -22.35,63.26 -22.34,60.64 -22.32,58.02 -22.28,53.84 -22.25,49.66 -22.21,47.47 -22.17,45.29 -22.08,42.75 -21.99,40.20 -21.80,36.98 -21.62,33.76 -21.39,31.45 -21.17,29.15 -20.93,26.96 -20.69,24.77 -19.82,20.62 -18.96,16.47 -18.16,14.29 -17.35,12.11 -15.99,9.56 -14.63,7.00 -12.39,4.17 -10.15,1.34 -6.24,-0.66 -2.33,-2.68 -1.98,-2.92 -1.62,-3.16 -1.22,-3.31 -0.82,-3.46 -0.39,-3.51 0.03,-3.56 0.45,-3.50 0.88,-3.45 1.28,-3.29 1.68,-3.13 2.03,-2.89 2.38,-2.64 2.66,-2.32 2.94,-1.99 3.14,-1.61 3.34,-1.23 3.44,-0.81 3.53,-0.39 3.53,0.03 3.53,0.46 3.42,0.87 3.31,1.29 3.11,1.67 2.91,2.04 2.62,2.36 2.33,2.68 2.33,2.68 L 2.33,2.68 Z"></path></g><g transform="translate(105.99840552202295 501.1456368480576) rotate(0 -5.130107634632623 9.371426424125275)" stroke="none"><path fill="#1e1e1e" d="M 3.18,4.17 Q 3.18,4.17 -0.22,7.28 -3.64,10.40 -5.34,12.97 -7.04,15.54 -4.01,17.45 -0.98,19.37 2.25,19.86 5.49,20.36 7.69,20.55 9.90,20.73 9.18,17.96 8.45,15.18 8.46,12.95 8.46,10.73 6.62,8.54 4.78,6.36 2.76,4.22 0.74,2.09 -1.84,0.38 -4.44,-1.31 -6.78,1.23 -9.12,3.78 -13.04,6.57 -16.96,9.35 -20.22,11.08 -23.49,12.80 -23.84,13.04 -24.19,13.29 -24.59,13.40 -25.00,13.52 -25.43,13.50 -25.85,13.48 -26.25,13.32 -26.64,13.17 -26.97,12.90 -27.30,12.62 -27.52,12.26 -27.74,11.90 -27.83,11.48 -27.93,11.07 -27.88,10.65 -27.84,10.22 -27.66,9.84 -27.49,9.45 -27.20,9.14 -26.91,8.83 -26.53,8.63 -26.16,8.43 -25.74,8.35 -25.32,8.28 -24.90,8.35 -24.48,8.41 -24.11,8.61 -23.73,8.81 -23.43,9.11 -23.14,9.42 -22.96,9.81 -22.78,10.19 -22.73,10.61 -22.68,11.03 -22.77,11.45 -22.86,11.87 -23.08,12.23 -23.29,12.60 -23.61,12.87 -23.94,13.15 -24.33,13.31 -24.72,13.47 -25.15,13.50 -25.57,13.52 -25.98,13.41 -26.39,13.30 -26.75,13.06 -27.10,12.83 -27.36,12.49 -27.62,12.15 -27.76,11.75 -27.89,11.35 -27.90,10.93 -27.90,10.50 -27.77,10.10 -27.63,9.69 -27.38,9.35 -27.12,9.01 -27.12,9.01 -27.12,9.01 -25.27,5.83 -23.41,2.64 -20.40,-1.22 -17.40,-5.09 -13.46,-8.65 -9.53,-12.22 -6.23,-12.97 -2.94,-13.72 -0.61,-13.13 1.70,-12.54 3.55,-11.43 5.41,-10.32 7.78,-8.28 10.15,-6.24 12.73,-3.16 15.31,-0.08 17.81,4.84 20.31,9.78 20.34,13.41 20.37,17.04 19.77,20.37 19.17,23.70 17.15,27.09 15.14,30.48 11.21,31.66 7.28,32.83 3.79,32.51 0.30,32.19 -2.56,31.56 -5.43,30.94 -8.62,29.59 -11.82,28.24 -13.99,26.44 -16.16,24.64 -17.70,21.47 -19.24,18.29 -18.57,14.19 -17.90,10.09 -16.68,7.87 -15.45,5.64 -13.24,3.21 -11.03,0.78 -7.11,-1.69 -3.18,-4.17 -2.63,-4.49 -2.09,-4.81 -1.48,-4.99 -0.87,-5.17 -0.24,-5.20 0.38,-5.23 1.00,-5.11 1.62,-4.98 2.19,-4.72 2.77,-4.45 3.26,-4.05 3.75,-3.66 4.14,-3.15 4.52,-2.65 4.77,-2.07 5.02,-1.49 5.13,-0.87 5.24,-0.24 5.19,0.38 5.14,1.01 4.95,1.61 4.75,2.21 4.42,2.75 4.08,3.28 3.63,3.73 3.18,4.17 3.18,4.17 L 3.18,4.17 Z"></path></g><g transform="translate(491.82486678298665 452.9852547627979) rotate(0 -5.245235723380574 11.149004114402487)" stroke="none"><path d="M0 0 C-2.66 -0.12, -12.85 -1.07, -15.96 -0.72 C-19.08 -0.36, -17.78 0.16, -18.7 2.14 C-19.61 4.12, -20.91 7.16, -21.44 11.15 C-21.97 15.15, -22.01 23.33, -21.89 26.1 C-21.78 28.87, -21.78 27.17, -20.75 27.76 C-19.73 28.35, -18.21 29.14, -15.74 29.66 C-13.27 30.17, -9.05 30.65, -5.93 30.85 C-2.81 31.04, 1.22 31.16, 2.97 30.85 C4.71 30.53, 3.15 31.52, 4.56 28.95 C5.97 26.38, 10.26 18.54, 11.4 15.42 C12.54 12.29, 11.71 11.67, 11.4 10.2 C11.1 8.74, 11.59 9.01, 9.58 6.64 C7.56 4.27, 2.39 -1.62, -0.69 -4.03 C-3.77 -6.45, -6.39 -7.08, -8.9 -7.83 C-11.41 -8.58, -17.22 -9.85, -15.74 -8.55 C-14.26 -7.24, -2.62 -1.42, 0 0" stroke="none" stroke-width="0" fill="#fffefe" fill-rule="evenodd"></path><path fill="#1e1e1e" d="M -0.19,4.41 Q -0.19,4.41 -4.77,4.94 -9.35,5.48 -11.70,6.67 -14.05,7.86 -14.74,11.47 -15.43,15.08 -15.58,19.06 -15.73,23.05 -13.41,23.58 -11.09,24.11 -8.15,24.34 -5.21,24.57 -3.03,24.75 -0.86,24.94 0.95,22.33 2.77,19.73 4.07,17.20 5.36,14.67 3.63,11.34 1.89,8.00 0.01,5.83 -1.86,3.66 -4.26,1.57 -6.66,-0.51 -9.46,-2.53 -12.26,-4.56 -12.52,-4.77 -12.78,-4.99 -12.98,-5.26 -13.18,-5.53 -13.31,-5.84 -13.44,-6.15 -13.49,-6.48 -13.55,-6.81 -13.52,-7.15 -13.49,-7.48 -13.38,-7.80 -13.27,-8.12 -13.09,-8.40 -12.91,-8.69 -12.66,-8.92 -12.42,-9.15 -12.12,-9.32 -11.83,-9.48 -11.51,-9.58 -11.18,-9.67 -10.85,-9.68 -10.51,-9.69 -10.18,-9.62 -9.85,-9.55 -9.55,-9.40 -9.25,-9.26 -3.91,-5.73 1.41,-2.20 1.73,-1.92 2.05,-1.64 2.25,-1.27 2.46,-0.90 2.54,-0.48 2.62,-0.06 2.56,0.35 2.50,0.77 2.31,1.15 2.12,1.53 1.82,1.83 1.52,2.13 1.14,2.32 0.76,2.51 0.34,2.56 -0.07,2.62 -0.49,2.54 -0.91,2.46 -1.28,2.25 -1.65,2.04 -1.93,1.72 -2.21,1.40 -2.38,1.01 -2.55,0.62 -2.58,0.20 -2.61,-0.21 -2.51,-0.63 -2.41,-1.04 -2.18,-1.40 -1.95,-1.75 -1.61,-2.02 -1.28,-2.28 -0.88,-2.43 -0.48,-2.58 -0.06,-2.59 0.36,-2.60 0.76,-2.47 1.17,-2.35 1.51,-2.10 1.86,-1.85 2.10,-1.50 2.35,-1.16 2.47,-0.75 2.60,-0.34 2.59,0.07 2.57,0.50 2.43,0.89 2.28,1.29 2.01,1.62 1.74,1.95 1.39,2.18 1.03,2.41 0.61,2.51 0.20,2.61 -0.21,2.58 -0.64,2.54 -1.03,2.37 -1.42,2.20 -1.41,2.20 -1.41,2.20 -6.84,-1.17 -12.26,-4.56 -12.52,-4.77 -12.78,-4.99 -12.98,-5.26 -13.18,-5.53 -13.31,-5.84 -13.44,-6.15 -13.49,-6.48 -13.55,-6.81 -13.52,-7.15 -13.49,-7.48 -13.38,-7.80 -13.27,-8.12 -13.09,-8.40 -12.91,-8.69 -12.66,-8.92 -12.42,-9.15 -12.13,-9.32 -11.83,-9.48 -11.51,-9.58 -11.18,-9.67 -10.85,-9.68 -10.51,-9.69 -10.18,-9.62 -9.85,-9.55 -9.55,-9.40 -9.25,-9.26 -5.31,-9.07 -1.38,-8.88 2.81,-6.74 7.01,-4.60 9.55,-1.94 12.09,0.71 14.13,3.89 16.17,7.06 16.73,9.74 17.29,12.42 16.60,15.94 15.91,19.46 14.35,22.49 12.79,25.52 11.58,27.59 10.36,29.67 8.30,32.14 6.23,34.60 3.95,35.53 1.67,36.46 -0.82,36.69 -3.32,36.91 -6.34,36.81 -9.35,36.70 -11.59,36.45 -13.83,36.20 -17.05,35.19 -20.28,34.17 -22.23,32.88 -24.18,31.59 -25.58,29.44 -26.99,27.28 -27.42,25.03 -27.85,22.77 -27.76,20.48 -27.66,18.18 -27.47,15.80 -27.28,13.41 -25.96,8.39 -24.65,3.36 -22.93,0.92 -21.21,-1.51 -18.76,-3.07 -16.31,-4.64 -12.65,-5.47 -8.99,-6.30 -4.39,-5.36 0.19,-4.41 0.72,-4.32 1.25,-4.24 1.73,-4.02 2.22,-3.81 2.65,-3.49 3.07,-3.17 3.41,-2.75 3.74,-2.34 3.97,-1.86 4.20,-1.38 4.30,-0.85 4.40,-0.33 4.38,0.19 4.36,0.72 4.20,1.24 4.05,1.75 3.79,2.21 3.52,2.67 3.15,3.05 2.77,3.43 2.32,3.72 1.87,4.00 1.36,4.16 0.86,4.33 0.33,4.37 -0.19,4.41 -0.19,4.41 L -0.19,4.41 Z"></path></g><g transform="translate(85.93848733848972 603.8859432471909) rotate(0 2.730838265112652 65.6045900924264)" stroke="none"><path fill="#1e1e1e" d="M 4.81,0.74 Q 4.81,0.74 4.32,5.00 3.83,9.25 3.63,12.56 3.43,15.86 4.55,23.42 5.66,30.99 7.47,41.97 9.29,52.95 10.50,62.59 11.70,72.24 12.14,81.27 12.57,90.31 11.73,99.08 10.89,107.85 8.76,114.88 6.64,121.92 5.06,126.84 3.48,131.76 3.32,132.15 3.16,132.55 2.89,132.87 2.62,133.20 2.25,133.42 1.89,133.64 1.48,133.73 1.06,133.83 0.64,133.78 0.22,133.74 -0.16,133.56 -0.55,133.39 -0.86,133.10 -1.17,132.80 -1.37,132.43 -1.57,132.06 -1.64,131.64 -1.71,131.22 -1.64,130.80 -1.58,130.38 -1.38,130.00 -1.18,129.63 -0.88,129.33 -0.57,129.04 -0.18,128.86 0.19,128.68 0.61,128.63 1.04,128.58 1.45,128.67 1.87,128.76 2.23,128.98 2.60,129.19 2.87,129.52 3.15,129.84 3.31,130.23 3.47,130.63 3.49,131.05 3.52,131.47 3.41,131.88 3.30,132.29 3.06,132.65 2.82,133.00 2.49,133.26 2.15,133.52 1.75,133.66 1.34,133.79 0.92,133.80 0.50,133.80 0.09,133.66 -0.30,133.53 -0.64,133.28 -0.98,133.02 -1.22,132.67 -1.46,132.32 -1.58,131.91 -1.69,131.50 -1.67,131.08 -1.65,130.65 -1.65,130.65 -1.65,130.65 -1.08,125.52 -0.50,120.38 0.28,113.82 1.08,107.25 1.24,99.09 1.41,90.94 0.83,82.30 0.24,73.67 -0.93,64.20 -2.11,54.74 -3.76,43.54 -5.42,32.35 -6.30,23.70 -7.18,15.06 -6.82,11.36 -6.46,7.65 -5.63,3.45 -4.81,-0.74 -4.65,-1.31 -4.49,-1.87 -4.20,-2.38 -3.91,-2.89 -3.50,-3.32 -3.10,-3.74 -2.61,-4.06 -2.11,-4.38 -1.56,-4.57 -1.00,-4.76 -0.42,-4.81 0.16,-4.86 0.74,-4.77 1.32,-4.68 1.86,-4.45 2.40,-4.23 2.87,-3.88 3.34,-3.53 3.72,-3.08 4.09,-2.63 4.35,-2.10 4.60,-1.57 4.72,-0.99 4.84,-0.42 4.83,0.16 4.81,0.74 4.81,0.74 L 4.81,0.74 Z"></path></g><g transform="translate(115.80731868339171 607.6805650523402) rotate(0 3.4170016740554274 55.75883594265724)" stroke="none"><path fill="#1e1e1e" d="M 3.75,-0.09 Q 3.75,-0.09 4.80,7.58 5.84,15.27 7.25,23.65 8.65,32.02 10.29,40.98 11.93,49.94 12.97,59.84 14.00,69.74 13.55,77.68 13.11,85.62 10.36,92.46 7.62,99.31 4.92,103.20 2.22,107.08 0.67,109.92 -0.87,112.75 -1.13,113.09 -1.39,113.42 -1.74,113.66 -2.09,113.90 -2.50,114.01 -2.91,114.12 -3.34,114.10 -3.76,114.08 -4.15,113.92 -4.55,113.76 -4.87,113.49 -5.20,113.21 -5.41,112.84 -5.63,112.48 -5.72,112.07 -5.81,111.65 -5.77,111.23 -5.72,110.81 -5.54,110.42 -5.36,110.03 -5.07,109.73 -4.78,109.42 -4.40,109.22 -4.02,109.02 -3.61,108.95 -3.19,108.89 -2.77,108.96 -2.35,109.03 -1.97,109.22 -1.60,109.42 -1.31,109.73 -1.01,110.04 -0.84,110.43 -0.66,110.82 -0.61,111.24 -0.57,111.66 -0.66,112.08 -0.75,112.49 -0.97,112.85 -1.19,113.22 -1.52,113.49 -1.84,113.77 -2.24,113.92 -2.63,114.08 -3.06,114.10 -3.48,114.12 -3.89,114.01 -4.30,113.89 -4.65,113.66 -5.00,113.42 -5.26,113.08 -5.51,112.74 -5.65,112.34 -5.78,111.93 -5.78,111.51 -5.78,111.08 -5.65,110.68 -5.51,110.28 -5.51,110.28 -5.51,110.28 -4.03,107.41 -2.54,104.55 -1.14,100.72 0.25,96.90 1.61,91.07 2.97,85.24 2.92,78.10 2.86,70.97 1.74,61.46 0.62,51.96 -0.96,42.84 -2.55,33.73 -3.80,24.64 -5.06,15.56 -4.41,7.82 -3.75,0.09 -3.71,-0.35 -3.67,-0.80 -3.52,-1.23 -3.37,-1.66 -3.12,-2.04 -2.87,-2.42 -2.54,-2.73 -2.21,-3.03 -1.81,-3.26 -1.42,-3.48 -0.98,-3.60 -0.54,-3.72 -0.09,-3.73 0.35,-3.74 0.80,-3.64 1.24,-3.54 1.65,-3.34 2.05,-3.14 2.40,-2.85 2.75,-2.56 3.01,-2.19 3.28,-1.83 3.45,-1.41 3.62,-0.99 3.69,-0.54 3.75,-0.09 3.75,-0.09 L 3.75,-0.09 Z"></path></g><g transform="translate(143.62226492502123 605.7832541497646) rotate(0 7.299120826653052 55.04964691596706)" stroke="none"><path fill="#1e1e1e" d="M 3.97,-0.98 Q 3.97,-0.98 5.84,3.04 7.70,7.07 9.29,14.15 10.88,21.24 12.47,30.13 14.06,39.03 15.55,47.90 17.05,56.78 18.03,66.60 19.02,76.42 19.10,83.83 19.19,91.24 18.19,96.82 17.19,102.41 16.41,106.32 15.62,110.22 15.53,110.64 15.44,111.05 15.23,111.42 15.01,111.78 14.69,112.06 14.37,112.34 13.97,112.50 13.58,112.66 13.15,112.68 12.73,112.71 12.32,112.60 11.91,112.48 11.56,112.25 11.20,112.01 10.94,111.67 10.69,111.34 10.55,110.93 10.41,110.53 10.41,110.11 10.41,109.68 10.54,109.28 10.67,108.88 10.93,108.54 11.18,108.20 11.53,107.96 11.88,107.72 12.29,107.60 12.70,107.48 13.13,107.51 13.55,107.53 13.95,107.68 14.34,107.84 14.67,108.11 14.99,108.38 15.21,108.75 15.44,109.11 15.53,109.52 15.62,109.94 15.58,110.36 15.53,110.78 15.36,111.17 15.18,111.56 14.89,111.87 14.60,112.18 14.23,112.38 13.85,112.58 13.43,112.65 13.01,112.72 12.59,112.65 12.17,112.59 11.80,112.39 11.42,112.19 11.13,111.89 10.83,111.58 10.65,111.19 10.47,110.81 10.42,110.39 10.38,109.96 10.38,109.97 10.38,109.97 9.98,106.00 9.58,102.04 9.10,96.97 8.62,91.91 7.78,84.85 6.94,77.79 5.75,68.33 4.55,58.88 3.06,50.01 1.58,41.15 0.17,32.37 -1.22,23.60 -2.36,16.73 -3.50,9.85 -3.73,5.42 -3.97,0.98 -4.03,0.49 -4.09,0.00 -4.03,-0.48 -3.97,-0.97 -3.80,-1.43 -3.62,-1.89 -3.34,-2.30 -3.07,-2.70 -2.70,-3.03 -2.33,-3.36 -1.89,-3.59 -1.45,-3.82 -0.97,-3.94 -0.50,-4.06 -0.00,-4.06 0.48,-4.06 0.96,-3.94 1.44,-3.83 1.88,-3.60 2.32,-3.37 2.69,-3.04 3.06,-2.72 3.34,-2.31 3.62,-1.90 3.79,-1.44 3.97,-0.98 3.97,-0.98 L 3.97,-0.98 Z"></path></g><g transform="translate(185.8144068895599 595.8177667876971) rotate(0 12.995658657927379 53.86152504008351)" stroke="none"><path fill="#1e1e1e" d="M 3.43,-1.67 Q 3.43,-1.67 6.18,2.30 8.94,6.27 11.81,13.54 14.67,20.81 17.76,30.03 20.84,39.25 23.83,51.37 26.81,63.49 28.20,72.64 29.60,81.78 29.76,88.31 29.92,94.85 29.44,98.55 28.96,102.26 28.67,104.92 28.38,107.58 28.33,108.00 28.29,108.42 28.11,108.81 27.93,109.19 27.64,109.50 27.35,109.81 26.97,110.01 26.59,110.21 26.18,110.28 25.76,110.34 25.34,110.28 24.92,110.21 24.54,110.01 24.17,109.81 23.87,109.50 23.58,109.19 23.40,108.81 23.23,108.42 23.18,108.00 23.13,107.58 23.22,107.16 23.32,106.75 23.54,106.38 23.75,106.02 24.08,105.74 24.40,105.47 24.80,105.31 25.19,105.15 25.62,105.13 26.04,105.11 26.45,105.22 26.86,105.33 27.21,105.57 27.56,105.81 27.82,106.15 28.08,106.49 28.21,106.89 28.35,107.29 28.35,107.72 28.35,108.14 28.21,108.55 28.08,108.95 27.82,109.29 27.56,109.63 27.21,109.86 26.86,110.10 26.45,110.22 26.04,110.33 25.62,110.31 25.19,110.28 24.80,110.13 24.40,109.97 24.08,109.69 23.75,109.42 23.53,109.05 23.32,108.69 23.22,108.27 23.13,107.86 23.13,107.86 23.13,107.86 22.56,105.25 21.98,102.64 21.12,99.21 20.25,95.78 19.18,89.71 18.12,83.64 16.63,74.99 15.15,66.35 12.28,54.59 9.41,42.84 6.75,33.76 4.09,24.69 1.77,17.80 -0.55,10.91 -1.99,6.29 -3.43,1.67 -3.58,1.23 -3.73,0.80 -3.77,0.34 -3.81,-0.11 -3.74,-0.56 -3.67,-1.02 -3.50,-1.44 -3.32,-1.87 -3.05,-2.24 -2.78,-2.61 -2.42,-2.90 -2.07,-3.20 -1.66,-3.40 -1.24,-3.60 -0.79,-3.70 -0.34,-3.80 0.11,-3.78 0.57,-3.77 1.01,-3.65 1.45,-3.52 1.85,-3.30 2.25,-3.07 2.59,-2.76 2.93,-2.44 3.18,-2.05 3.43,-1.67 3.43,-1.67 L 3.43,-1.67 Z"></path></g><g transform="translate(233.01692327643104 584.1944349476526) rotate(0 11.96871610629114 51.37015319956572)" stroke="none"><path fill="#1e1e1e" d="M 4.53,-0.45 Q 4.53,-0.45 5.35,4.07 6.17,8.59 9.85,20.30 13.53,32.01 17.28,44.61 21.04,57.21 23.41,65.91 25.79,74.61 26.80,80.80 27.81,86.98 28.07,90.77 28.34,94.56 25.63,97.63 22.93,100.70 21.83,102.38 20.73,104.06 20.46,104.39 20.19,104.71 19.83,104.94 19.47,105.16 19.05,105.26 18.64,105.36 18.22,105.32 17.79,105.28 17.40,105.10 17.02,104.93 16.70,104.64 16.39,104.35 16.19,103.98 15.98,103.61 15.91,103.19 15.84,102.77 15.90,102.35 15.96,101.93 16.16,101.55 16.35,101.17 16.65,100.88 16.96,100.58 17.34,100.40 17.73,100.21 18.15,100.16 18.57,100.11 18.98,100.20 19.40,100.28 19.77,100.50 20.14,100.71 20.41,101.03 20.69,101.35 20.86,101.74 21.02,102.14 21.05,102.56 21.08,102.98 20.97,103.40 20.86,103.81 20.63,104.16 20.39,104.52 20.06,104.78 19.72,105.04 19.32,105.18 18.92,105.32 18.50,105.33 18.07,105.33 17.67,105.20 17.26,105.07 16.92,104.82 16.58,104.57 16.34,104.22 16.09,103.87 15.97,103.46 15.85,103.05 15.87,102.63 15.89,102.20 16.04,101.81 16.19,101.41 16.19,101.41 16.19,101.41 17.15,98.01 18.10,94.60 17.40,91.85 16.70,89.11 15.45,83.44 14.19,77.78 11.84,69.18 9.49,60.59 5.84,47.91 2.18,35.23 -1.07,22.45 -4.33,9.68 -4.43,5.06 -4.53,0.45 -4.52,-0.09 -4.50,-0.64 -4.36,-1.17 -4.22,-1.70 -3.95,-2.18 -3.69,-2.66 -3.32,-3.06 -2.94,-3.47 -2.48,-3.77 -2.03,-4.07 -1.51,-4.26 -0.99,-4.44 -0.45,-4.49 0.09,-4.55 0.63,-4.47 1.18,-4.39 1.69,-4.19 2.20,-3.98 2.64,-3.66 3.09,-3.34 3.44,-2.92 3.80,-2.50 4.04,-2.01 4.29,-1.52 4.41,-0.98 4.53,-0.45 4.53,-0.45 L 4.53,-0.45 Z"></path></g><g transform="translate(274.7393426388753 587.2798677261108) rotate(0 17.103428864472335 59.198863234461896)" stroke="none"><path fill="#1e1e1e" d="M 3.94,-1.29 Q 3.94,-1.29 8.00,8.40 12.06,18.10 15.73,27.65 19.40,37.20 23.10,46.88 26.80,56.57 29.94,65.38 33.08,74.20 34.81,83.79 36.54,93.38 35.23,100.91 33.93,108.43 33.21,113.49 32.50,118.55 32.40,118.96 32.31,119.38 32.09,119.74 31.87,120.10 31.54,120.38 31.22,120.65 30.82,120.80 30.43,120.96 30.00,120.98 29.58,121.00 29.17,120.89 28.76,120.77 28.41,120.53 28.06,120.29 27.80,119.95 27.55,119.61 27.41,119.21 27.28,118.81 27.28,118.38 27.28,117.96 27.42,117.55 27.56,117.15 27.82,116.82 28.08,116.48 28.43,116.24 28.78,116.00 29.19,115.89 29.60,115.78 30.02,115.81 30.45,115.83 30.84,115.99 31.24,116.15 31.56,116.42 31.88,116.70 32.10,117.07 32.32,117.43 32.41,117.85 32.50,118.26 32.45,118.68 32.40,119.11 32.22,119.49 32.04,119.88 31.75,120.18 31.45,120.49 31.08,120.69 30.70,120.89 30.28,120.95 29.86,121.02 29.44,120.95 29.02,120.88 28.65,120.68 28.27,120.48 27.98,120.17 27.69,119.86 27.52,119.47 27.34,119.08 27.29,118.66 27.25,118.24 27.25,118.24 27.25,118.24 27.13,113.13 27.00,108.03 26.50,101.80 26.01,95.57 23.77,86.93 21.53,78.29 18.44,69.58 15.35,60.86 11.77,51.12 8.19,41.39 4.62,31.56 1.04,21.73 -1.44,11.51 -3.94,1.29 -4.03,0.80 -4.13,0.31 -4.11,-0.18 -4.09,-0.68 -3.95,-1.16 -3.81,-1.64 -3.55,-2.07 -3.30,-2.50 -2.95,-2.86 -2.61,-3.22 -2.18,-3.49 -1.76,-3.75 -1.28,-3.91 -0.81,-4.06 -0.31,-4.10 0.18,-4.14 0.67,-4.06 1.17,-3.98 1.63,-3.78 2.09,-3.58 2.48,-3.28 2.88,-2.98 3.20,-2.59 3.51,-2.20 3.72,-1.74 3.94,-1.29 3.94,-1.29 L 3.94,-1.29 Z"></path></g><g transform="translate(322.85367348863474 593.2112668584323) rotate(0 9.693785072620813 51.605014500612924)" stroke="none"><path fill="#1e1e1e" d="M 4.22,-0.84 Q 4.22,-0.84 7.18,8.77 10.14,18.40 12.35,28.23 14.56,38.07 16.71,47.80 18.87,57.54 20.31,66.25 21.75,74.96 21.60,83.10 21.45,91.24 21.72,97.06 21.99,102.88 21.97,103.31 21.96,103.73 21.80,104.13 21.65,104.53 21.38,104.85 21.11,105.18 20.75,105.41 20.39,105.63 19.98,105.73 19.56,105.83 19.14,105.79 18.72,105.75 18.33,105.57 17.94,105.40 17.63,105.11 17.31,104.82 17.11,104.45 16.91,104.08 16.83,103.66 16.76,103.24 16.82,102.82 16.88,102.40 17.08,102.02 17.27,101.65 17.57,101.35 17.88,101.05 18.26,100.87 18.64,100.68 19.07,100.63 19.49,100.58 19.90,100.67 20.32,100.75 20.69,100.96 21.05,101.18 21.33,101.50 21.61,101.82 21.78,102.21 21.94,102.60 21.97,103.03 22.00,103.45 21.89,103.86 21.78,104.27 21.55,104.63 21.32,104.98 20.98,105.25 20.65,105.51 20.25,105.65 19.84,105.79 19.42,105.80 18.99,105.80 18.59,105.67 18.19,105.54 17.84,105.29 17.50,105.04 17.26,104.69 17.01,104.34 16.90,103.93 16.78,103.53 16.78,103.53 16.78,103.53 15.62,97.81 14.46,92.10 12.39,84.63 10.31,77.16 8.45,68.73 6.58,60.30 4.37,50.57 2.16,40.84 -0.05,30.86 -2.27,20.89 -3.25,10.86 -4.22,0.84 -4.26,0.32 -4.30,-0.18 -4.22,-0.70 -4.13,-1.21 -3.93,-1.69 -3.72,-2.17 -3.41,-2.58 -3.09,-2.99 -2.69,-3.32 -2.29,-3.65 -1.82,-3.87 -1.35,-4.09 -0.84,-4.19 -0.33,-4.30 0.18,-4.27 0.70,-4.25 1.20,-4.10 1.70,-3.96 2.15,-3.70 2.60,-3.43 2.97,-3.07 3.35,-2.71 3.62,-2.27 3.90,-1.83 4.06,-1.34 4.22,-0.84 4.22,-0.84 L 4.22,-0.84 Z"></path></g><g transform="translate(361.1590911770254 571.1435148071268) rotate(0 12.429228461284765 47.57553139441643)" stroke="none"><path fill="#1e1e1e" d="M 4.17,-1.27 Q 4.17,-1.27 6.03,2.85 7.90,6.98 9.39,11.11 10.89,15.24 15.18,26.99 19.48,38.75 22.48,47.96 25.49,57.18 26.84,64.95 28.19,72.72 27.71,79.34 27.22,85.96 26.55,90.52 25.89,95.07 25.83,95.49 25.77,95.92 25.58,96.30 25.39,96.68 25.09,96.98 24.79,97.28 24.41,97.47 24.03,97.66 23.61,97.71 23.19,97.77 22.77,97.69 22.36,97.61 21.99,97.40 21.62,97.19 21.33,96.88 21.05,96.56 20.88,96.17 20.71,95.78 20.68,95.36 20.64,94.93 20.74,94.52 20.85,94.11 21.08,93.75 21.30,93.39 21.63,93.13 21.97,92.86 22.36,92.71 22.76,92.57 23.19,92.56 23.61,92.54 24.02,92.67 24.43,92.79 24.77,93.04 25.12,93.29 25.36,93.63 25.61,93.98 25.74,94.38 25.86,94.79 25.85,95.21 25.84,95.64 25.69,96.04 25.55,96.44 25.28,96.77 25.02,97.10 24.66,97.33 24.30,97.56 23.89,97.66 23.47,97.76 23.05,97.73 22.63,97.70 22.24,97.53 21.85,97.36 21.53,97.08 21.21,96.79 21.00,96.42 20.80,96.05 20.71,95.64 20.63,95.22 20.63,95.22 20.63,95.22 19.71,90.71 18.79,86.20 17.97,80.55 17.14,74.91 15.53,67.95 13.93,60.98 10.89,51.91 7.85,42.83 3.79,30.82 -0.26,18.80 -1.45,14.50 -2.64,10.20 -3.41,5.74 -4.17,1.27 -4.26,0.75 -4.36,0.23 -4.32,-0.28 -4.29,-0.81 -4.13,-1.31 -3.97,-1.81 -3.69,-2.26 -3.42,-2.71 -3.04,-3.08 -2.67,-3.45 -2.22,-3.72 -1.77,-3.99 -1.26,-4.14 -0.76,-4.30 -0.23,-4.32 0.28,-4.35 0.80,-4.26 1.32,-4.16 1.80,-3.94 2.28,-3.72 2.69,-3.39 3.10,-3.07 3.42,-2.65 3.75,-2.23 3.96,-1.75 4.17,-1.27 4.17,-1.27 L 4.17,-1.27 Z"></path></g><g transform="translate(392.63050551730703 561.6569602942527) rotate(0 15.164671849947808 57.30155233188725)" stroke="none"><path fill="#1e1e1e" d="M 3.05,-2.43 Q 3.05,-2.43 7.84,2.25 12.64,6.94 16.49,15.13 20.34,23.32 23.28,32.80 26.22,42.29 28.94,54.16 31.66,66.03 32.98,75.54 34.30,85.05 34.57,92.30 34.85,99.55 33.39,104.27 31.94,108.99 30.83,112.00 29.72,115.01 29.59,115.41 29.46,115.82 29.20,116.16 28.94,116.50 28.59,116.74 28.24,116.98 27.83,117.09 27.43,117.21 27.00,117.19 26.58,117.17 26.18,117.01 25.79,116.86 25.46,116.58 25.14,116.31 24.91,115.95 24.69,115.58 24.60,115.17 24.51,114.75 24.55,114.33 24.59,113.91 24.77,113.52 24.95,113.13 25.24,112.82 25.53,112.51 25.90,112.31 26.28,112.11 26.70,112.04 27.12,111.97 27.54,112.04 27.95,112.10 28.33,112.30 28.71,112.50 29.00,112.81 29.30,113.11 29.48,113.50 29.66,113.88 29.70,114.31 29.75,114.73 29.66,115.14 29.57,115.56 29.36,115.92 29.14,116.29 28.82,116.57 28.49,116.84 28.10,117.00 27.71,117.16 27.28,117.19 26.86,117.21 26.45,117.10 26.04,116.99 25.68,116.75 25.33,116.51 25.07,116.18 24.81,115.84 24.68,115.44 24.54,115.04 24.54,114.61 24.53,114.19 24.53,114.19 24.53,114.19 24.41,110.98 24.29,107.77 24.17,104.08 24.06,100.39 23.15,93.62 22.24,86.86 20.78,77.85 19.32,68.83 16.72,57.33 14.13,45.84 11.68,36.94 9.22,28.04 6.55,20.91 3.88,13.78 0.41,8.10 -3.05,2.43 -3.29,2.03 -3.54,1.63 -3.68,1.18 -3.83,0.73 -3.86,0.26 -3.89,-0.20 -3.81,-0.66 -3.73,-1.12 -3.54,-1.55 -3.35,-1.98 -3.06,-2.36 -2.78,-2.73 -2.41,-3.02 -2.04,-3.32 -1.61,-3.51 -1.19,-3.71 -0.72,-3.80 -0.26,-3.89 0.20,-3.86 0.67,-3.84 1.12,-3.70 1.57,-3.57 1.97,-3.33 2.38,-3.09 2.71,-2.76 3.05,-2.43 3.05,-2.43 L 3.05,-2.43 Z"></path></g><g transform="translate(438.0093929784034 566.1607711260931) rotate(0 21.43224500141423 50.89582547392183)" stroke="none"><path fill="#1e1e1e" d="M 2.40,-1.31 Q 2.40,-1.31 8.50,6.25 14.59,13.82 19.78,23.05 24.98,32.29 30.04,41.49 35.10,50.69 38.96,61.28 42.83,71.87 44.12,79.56 45.42,87.26 44.85,91.75 44.28,96.24 43.41,99.07 42.53,101.89 42.44,102.31 42.36,102.72 42.14,103.09 41.93,103.46 41.61,103.74 41.29,104.02 40.90,104.18 40.50,104.34 40.08,104.37 39.66,104.40 39.24,104.29 38.83,104.19 38.48,103.95 38.12,103.72 37.86,103.38 37.60,103.05 37.46,102.65 37.32,102.25 37.31,101.82 37.31,101.40 37.44,100.99 37.57,100.59 37.82,100.25 38.07,99.91 38.42,99.66 38.77,99.42 39.17,99.30 39.58,99.18 40.01,99.20 40.43,99.21 40.83,99.37 41.23,99.52 41.55,99.79 41.88,100.06 42.11,100.42 42.33,100.78 42.43,101.19 42.52,101.61 42.48,102.03 42.44,102.45 42.27,102.84 42.10,103.23 41.81,103.54 41.52,103.86 41.15,104.06 40.78,104.26 40.36,104.34 39.94,104.41 39.52,104.35 39.10,104.29 38.72,104.09 38.34,103.90 38.05,103.60 37.75,103.29 37.57,102.91 37.38,102.52 37.33,102.10 37.28,101.68 37.28,101.68 37.28,101.68 36.63,98.80 35.98,95.91 35.72,92.67 35.46,89.44 33.49,82.80 31.51,76.16 27.68,66.51 23.84,56.85 18.79,47.65 13.75,38.45 8.75,29.09 3.76,19.74 0.67,10.53 -2.40,1.31 -2.53,1.01 -2.65,0.70 -2.69,0.37 -2.74,0.04 -2.71,-0.28 -2.67,-0.61 -2.56,-0.92 -2.45,-1.23 -2.26,-1.50 -2.08,-1.78 -1.84,-2.00 -1.59,-2.23 -1.30,-2.39 -1.01,-2.55 -0.69,-2.63 -0.37,-2.71 -0.04,-2.72 0.28,-2.73 0.60,-2.65 0.92,-2.58 1.22,-2.43 1.52,-2.28 1.77,-2.07 2.02,-1.85 2.21,-1.58 2.40,-1.31 2.40,-1.31 L 2.40,-1.31 Z"></path></g><g transform="translate(483.6093263698949 573.9894811609884) rotate(0 22.007885445157626 51.25041998726738)" stroke="none"><path fill="#1e1e1e" d="M 4.27,-2.22 Q 4.27,-2.22 7.38,2.22 10.49,6.68 13.95,13.91 17.41,21.14 21.89,29.89 26.38,38.64 31.29,48.06 36.20,57.47 39.89,66.26 43.58,75.04 45.28,82.21 46.97,89.37 44.39,93.76 41.80,98.16 40.97,100.71 40.14,103.27 39.95,103.65 39.76,104.03 39.46,104.33 39.16,104.63 38.77,104.82 38.39,105.01 37.97,105.06 37.55,105.12 37.13,105.04 36.72,104.96 36.35,104.75 35.98,104.54 35.69,104.22 35.41,103.91 35.24,103.51 35.08,103.12 35.04,102.70 35.01,102.28 35.11,101.86 35.22,101.45 35.45,101.09 35.68,100.74 36.01,100.47 36.34,100.21 36.74,100.06 37.14,99.92 37.56,99.90 37.99,99.89 38.39,100.02 38.80,100.15 39.15,100.39 39.49,100.64 39.74,100.99 39.98,101.33 40.11,101.74 40.23,102.15 40.22,102.57 40.21,103.00 40.06,103.40 39.91,103.79 39.64,104.12 39.38,104.46 39.02,104.68 38.66,104.91 38.25,105.01 37.83,105.11 37.41,105.08 36.99,105.04 36.60,104.87 36.21,104.71 35.89,104.42 35.58,104.14 35.37,103.77 35.16,103.40 35.08,102.98 35.00,102.56 35.06,102.14 35.12,101.72 35.12,101.72 35.12,101.72 35.88,99.14 36.64,96.56 36.20,94.00 35.77,91.44 33.89,85.77 32.01,80.10 28.24,71.85 24.46,63.60 19.50,54.12 14.54,44.65 9.99,35.60 5.44,26.54 2.45,19.48 -0.52,12.42 -2.39,7.32 -4.27,2.22 -4.47,1.68 -4.67,1.14 -4.74,0.56 -4.81,-0.01 -4.74,-0.58 -4.67,-1.16 -4.46,-1.70 -4.25,-2.24 -3.92,-2.72 -3.59,-3.20 -3.16,-3.58 -2.72,-3.97 -2.21,-4.23 -1.69,-4.50 -1.13,-4.64 -0.56,-4.78 0.01,-4.78 0.59,-4.77 1.15,-4.63 1.71,-4.49 2.23,-4.22 2.74,-3.95 3.18,-3.57 3.61,-3.18 3.94,-2.70 4.27,-2.22 4.27,-2.22 L 4.27,-2.22 Z"></path></g><g transform="translate(536.2919397811947 550.7428174808974) rotate(0 17.329079918418756 61.805363163727634)" stroke="none"><path fill="#1e1e1e" d="M 3.81,-0.12 Q 3.81,-0.12 5.34,5.60 6.87,11.34 8.92,18.84 10.98,26.34 14.98,35.98 18.99,45.62 23.65,56.19 28.31,66.75 31.58,79.60 34.85,92.45 35.53,101.41 36.22,110.36 36.73,116.75 37.24,123.14 37.24,123.57 37.25,123.99 37.12,124.40 36.99,124.80 36.74,125.14 36.49,125.49 36.14,125.73 35.79,125.97 35.38,126.09 34.97,126.21 34.55,126.20 34.13,126.18 33.73,126.03 33.33,125.88 33.00,125.61 32.68,125.33 32.45,124.97 32.23,124.61 32.13,124.20 32.03,123.79 32.07,123.36 32.11,122.94 32.29,122.55 32.46,122.16 32.75,121.85 33.03,121.54 33.41,121.33 33.78,121.13 34.20,121.05 34.62,120.98 35.04,121.04 35.46,121.10 35.83,121.30 36.21,121.49 36.51,121.80 36.81,122.10 36.99,122.48 37.17,122.87 37.23,123.29 37.28,123.71 37.19,124.13 37.11,124.54 36.89,124.91 36.68,125.28 36.36,125.56 36.04,125.84 35.65,126.00 35.25,126.16 34.83,126.19 34.41,126.22 34.00,126.11 33.58,126.01 33.23,125.77 32.87,125.54 32.61,125.20 32.35,124.87 32.21,124.47 32.07,124.07 32.07,124.07 32.07,124.07 30.33,117.90 28.59,111.72 26.24,103.68 23.88,95.63 20.00,83.89 16.11,72.14 11.34,61.43 6.58,50.72 2.29,40.17 -1.99,29.61 -4.04,20.72 -6.08,11.84 -4.95,5.98 -3.81,0.12 -3.77,-0.32 -3.73,-0.78 -3.58,-1.22 -3.43,-1.65 -3.18,-2.04 -2.94,-2.43 -2.60,-2.74 -2.27,-3.06 -1.87,-3.29 -1.47,-3.52 -1.03,-3.64 -0.58,-3.77 -0.12,-3.78 0.33,-3.80 0.78,-3.70 1.23,-3.61 1.64,-3.41 2.06,-3.21 2.41,-2.91 2.77,-2.62 3.04,-2.25 3.31,-1.88 3.49,-1.46 3.67,-1.03 3.74,-0.58 3.81,-0.12 3.81,-0.12 L 3.81,-0.12 Z"></path></g><g transform="translate(64.49703208997562 626.4326281476897) rotate(0 6.502434452512716 60.38237998679597)" stroke="none"><path fill="#1e1e1e" d="M 2.94,-0.26 Q 2.94,-0.26 5.24,7.64 7.54,15.54 8.30,30.95 9.05,46.37 10.31,60.99 11.57,75.62 12.82,88.38 14.06,101.15 14.83,110.75 15.59,120.34 15.59,120.77 15.59,121.19 15.45,121.60 15.32,122.00 15.06,122.34 14.80,122.67 14.45,122.91 14.09,123.15 13.68,123.26 13.27,123.37 12.85,123.35 12.43,123.32 12.03,123.16 11.64,123.01 11.31,122.73 10.99,122.45 10.77,122.09 10.56,121.72 10.47,121.31 10.38,120.89 10.42,120.47 10.47,120.05 10.65,119.66 10.83,119.28 11.12,118.97 11.42,118.66 11.79,118.47 12.17,118.27 12.59,118.20 13.01,118.13 13.43,118.20 13.85,118.27 14.22,118.47 14.60,118.67 14.89,118.98 15.18,119.29 15.36,119.68 15.53,120.07 15.58,120.49 15.62,120.91 15.53,121.33 15.44,121.74 15.22,122.10 15.00,122.47 14.67,122.74 14.35,123.02 13.95,123.17 13.55,123.33 13.13,123.35 12.71,123.37 12.30,123.25 11.89,123.14 11.54,122.90 11.19,122.66 10.93,122.32 10.67,121.98 10.54,121.58 10.41,121.17 10.41,121.18 10.41,121.18 8.13,111.82 5.86,102.47 3.00,89.60 0.13,76.73 -1.48,61.85 -3.10,46.98 -3.87,31.81 -4.65,16.64 -3.79,8.45 -2.94,0.26 -2.93,-0.09 -2.91,-0.44 -2.82,-0.79 -2.72,-1.13 -2.55,-1.44 -2.37,-1.75 -2.13,-2.01 -1.88,-2.27 -1.58,-2.46 -1.28,-2.65 -0.95,-2.77 -0.61,-2.88 -0.26,-2.91 0.09,-2.95 0.44,-2.89 0.79,-2.84 1.12,-2.70 1.45,-2.57 1.74,-2.35 2.02,-2.14 2.25,-1.87 2.48,-1.60 2.63,-1.28 2.79,-0.96 2.86,-0.61 2.94,-0.26 2.94,-0.26 L 2.94,-0.26 Z"></path></g></svg>