<?xml version="1.0" standalone="no"?>
<!DOCTYPE svg PUBLIC "-//W3C//DTD SVG 1.1//EN" "http://www.w3.org/Graphics/SVG/1.1/DTD/svg11.dtd">
<svg version="1.1" xmlns="http://www.w3.org/2000/svg" viewBox="0 0 388.0568423321565 625.3666777592061" width="388.0568423321565" height="625.3666777592061"><!-- svg-source:excalidraw --><metadata></metadata><defs><style class="style-fonts">
      </style></defs><g transform="translate(207.0442548203082 15.339149019680917) rotate(0 -12.535146302932844 290.29777834103606)" stroke="none"><path d="M0 0 C-3.27 -0.75, -16.15 -8.31, -19.61 -4.51 C-23.07 -0.72, -19.98 15.86, -20.74 22.78 C-21.5 29.7, -21.89 29.46, -24.17 37.02 C-26.45 44.57, -29.52 45.19, -34.43 68.09 C-39.33 90.99, -47.43 146.75, -53.59 174.4 C-59.74 202.04, -67.61 221.65, -71.37 233.95 C-75.13 246.25, -72.7 239.73, -76.16 248.19 C-79.62 256.65, -85.39 271.16, -92.12 284.73 C-98.85 298.29, -110.89 318.38, -116.52 329.57 C-122.14 340.76, -120.85 341.23, -125.87 351.87 C-130.88 362.51, -140.08 379.2, -146.62 393.4 C-153.15 407.59, -159.12 421.63, -165.08 437.05 C-171.05 452.48, -178.77 474.19, -182.42 485.93 C-186.07 497.68, -186.1 500.84, -186.98 507.52 C-187.85 514.21, -187.58 521.92, -187.66 526.03 C-187.73 530.15, -188.42 528.95, -187.43 532.2 C-186.44 535.44, -183.29 542.32, -181.74 545.49 C-180.18 548.65, -179.83 549.12, -178.08 551.18 C-176.33 553.23, -174.82 554.98, -171.25 557.83 C-167.67 560.68, -161.09 565.34, -156.65 568.26 C-152.2 571.19, -148.86 573.37, -144.56 575.38 C-140.27 577.4, -134.35 579.34, -130.89 580.37 C-127.43 581.39, -134.04 581.28, -123.81 581.55 C-113.59 581.83, -80.68 581.71, -69.55 582.02 C-58.41 582.34, -68.86 583.45, -57 583.45 C-45.14 583.45, -12.04 581.98, 1.6 582.02 C15.25 582.06, 11.37 583.22, 24.86 583.69 C38.35 584.16, 70.24 585.07, 82.55 584.87 C94.87 584.67, 94.07 583.41, 98.74 582.5 C103.42 581.59, 105.05 581.24, 110.6 579.42 C116.14 577.6, 126.97 573.64, 132.03 571.59 C137.08 569.53, 137.62 568.97, 140.93 567.07 C144.23 565.18, 149.02 563.08, 151.87 560.19 C154.72 557.31, 156.78 552.33, 158.03 549.76 C159.28 547.19, 158.71 547.9, 159.39 544.78 C160.08 541.65, 161.6 538.21, 162.13 531.02 C162.66 523.82, 162.74 507.72, 162.59 501.59 C162.44 495.46, 164.45 506.85, 161.22 494.23 C157.98 481.62, 147.12 442.94, 143.2 425.9 C139.29 408.86, 141.61 411.15, 137.73 391.97 C133.85 372.79, 125.68 335.07, 119.95 310.83 C114.21 286.59, 106.8 259.37, 103.3 246.52 C99.81 233.67, 104.44 245.81, 98.96 233.71 C93.49 221.61, 77 190.84, 70.47 173.92 C63.93 156.99, 64.38 148.53, 59.75 132.16 C55.11 115.79, 47.62 90.76, 42.64 75.69 C37.67 60.62, 33.6 52.87, 29.88 41.76 C26.15 30.65, 22.54 15.62, 20.3 9.02 C18.06 2.41, 18.32 4.31, 16.42 2.14 C14.52 -0.04, 14.41 -3.64, 8.9 -4.03 C3.39 -4.43, -15.16 -0.91, -16.64 -0.24 C-18.13 0.43, -2.77 -0.04, 0 0" stroke="none" stroke-width="0" fill="#1971c2" fill-rule="evenodd"></path><path fill="#1971c2" d="M -2.30,10.03 Q -2.30,10.03 -7.85,9.16 -13.39,8.28 -10.50,13.60 -7.61,18.91 -9.01,26.66 -10.41,34.40 -12.02,40.11 -13.62,45.81 -15.22,50.71 -16.83,55.62 -18.21,60.23 -19.59,64.85 -20.76,70.02 -21.94,75.19 -23.08,81.20 -24.23,87.20 -25.65,95.58 -27.08,103.95 -28.36,111.02 -29.63,118.09 -30.78,124.27 -31.92,130.45 -32.97,136.62 -34.02,142.78 -35.30,150.31 -36.57,157.83 -37.59,163.35 -38.61,168.87 -39.52,173.25 -40.43,177.63 -42.40,185.14 -44.37,192.65 -47.09,201.53 -49.82,210.41 -51.24,215.30 -52.66,220.20 -54.23,225.34 -55.79,230.49 -57.85,236.87 -59.91,243.25 -61.93,248.58 -63.95,253.90 -65.64,258.18 -67.33,262.46 -70.56,270.03 -73.80,277.59 -77.74,286.16 -81.68,294.73 -83.73,298.84 -85.78,302.95 -87.83,306.77 -89.88,310.59 -92.70,315.54 -95.51,320.49 -97.99,325.00 -100.46,329.51 -102.65,333.90 -104.85,338.30 -107.83,345.24 -110.81,352.19 -112.63,356.16 -114.45,360.14 -116.74,364.81 -119.03,369.48 -121.57,374.81 -124.11,380.13 -126.37,384.64 -128.62,389.15 -130.59,393.01 -132.55,396.86 -134.62,401.97 -136.69,407.07 -138.69,411.54 -140.69,416.02 -142.78,421.44 -144.87,426.87 -147.54,432.90 -150.22,438.93 -152.26,444.32 -154.30,449.72 -155.91,454.06 -157.52,458.40 -160.20,465.88 -162.88,473.35 -165.07,479.67 -167.27,485.98 -169.23,494.40 -171.18,502.83 -172.03,509.60 -172.88,516.37 -172.99,521.93 -173.09,527.50 -171.60,531.55 -170.10,535.60 -167.09,539.78 -164.07,543.96 -158.58,548.37 -153.09,552.79 -148.60,555.65 -144.12,558.50 -137.42,561.65 -130.71,564.79 -124.97,565.76 -119.22,566.74 -113.33,566.87 -107.44,567.01 -101.65,567.10 -95.86,567.19 -90.64,567.23 -85.43,567.27 -80.76,567.35 -76.08,567.43 -70.07,567.90 -64.06,568.36 -59.13,568.54 -54.20,568.71 -48.53,568.78 -42.85,568.85 -36.72,568.74 -30.59,568.63 -24.74,568.31 -18.89,567.99 -13.01,567.84 -7.13,567.69 -0.90,567.77 5.31,567.85 9.80,568.18 14.29,568.50 21.74,568.75 29.18,569.00 37.08,569.11 44.98,569.22 51.47,569.61 57.95,570.01 64.46,570.21 70.97,570.41 76.57,570.06 82.18,569.70 87.74,569.07 93.31,568.43 97.98,567.40 102.65,566.36 108.87,564.28 115.09,562.20 119.73,560.52 124.37,558.84 129.49,556.29 134.61,553.74 138.37,551.19 142.14,548.64 143.89,543.63 145.65,538.63 146.58,531.55 147.52,524.47 147.69,520.12 147.85,515.76 147.59,508.56 147.33,501.35 145.95,494.35 144.56,487.36 143.35,482.37 142.14,477.38 140.89,472.79 139.64,468.21 138.39,463.74 137.15,459.28 135.50,453.60 133.85,447.92 132.44,442.59 131.04,437.26 129.87,432.16 128.70,427.06 127.77,422.30 126.85,417.53 125.43,408.99 124.01,400.46 122.64,394.26 121.26,388.07 119.18,379.19 117.10,370.32 116.05,365.11 114.99,359.90 114.03,355.08 113.07,350.26 112.11,346.01 111.15,341.76 110.18,337.29 109.21,332.82 108.05,327.35 106.89,321.88 105.80,317.43 104.71,312.98 103.59,308.63 102.47,304.29 101.38,299.88 100.29,295.47 99.01,290.05 97.74,284.63 95.69,277.25 93.63,269.86 91.79,262.69 89.94,255.51 88.43,250.72 86.91,245.93 83.71,238.34 80.51,230.75 78.61,226.67 76.71,222.59 74.21,217.04 71.70,211.49 69.72,207.31 67.74,203.13 64.58,196.46 61.43,189.79 58.49,183.01 55.56,176.23 54.25,172.12 52.94,168.02 51.83,163.87 50.72,159.73 48.71,151.17 46.71,142.61 44.79,136.38 42.86,130.16 41.16,124.95 39.47,119.74 37.65,113.24 35.83,106.75 34.58,102.48 33.33,98.21 31.91,93.59 30.49,88.97 29.08,84.09 27.67,79.21 25.80,74.31 23.94,69.41 22.01,64.20 20.07,59.00 18.25,54.03 16.42,49.06 14.97,44.82 13.51,40.57 12.10,36.03 10.69,31.48 9.47,27.39 8.25,23.31 7.07,18.65 5.88,13.99 -1.85,10.23 -9.60,6.46 -10.52,6.44 -11.45,6.42 -12.35,6.18 -13.25,5.94 -14.06,5.49 -14.87,5.04 -15.56,4.40 -16.24,3.77 -16.75,3.00 -17.26,2.22 -17.57,1.34 -17.88,0.47 -17.97,-0.45 -18.06,-1.37 -17.93,-2.29 -17.79,-3.21 -17.44,-4.07 -17.10,-4.93 -16.55,-5.69 -16.01,-6.44 -15.30,-7.04 -14.59,-7.64 -13.75,-8.05 -12.92,-8.47 -12.01,-8.67 -11.11,-8.87 -5.25,-7.04 0.60,-5.21 1.42,-4.98 2.24,-4.75 2.94,-4.26 3.64,-3.78 4.15,-3.10 4.65,-2.42 4.92,-1.61 5.19,-0.81 5.18,0.03 5.17,0.88 4.90,1.69 4.62,2.49 4.10,3.16 3.58,3.84 2.87,4.31 2.17,4.78 1.34,5.00 0.52,5.22 -0.31,5.17 -1.16,5.12 -1.95,4.80 -2.74,4.48 -3.38,3.92 -4.02,3.37 -4.46,2.63 -4.89,1.90 -5.07,1.07 -5.24,0.24 -5.14,-0.59 -5.05,-1.44 -4.68,-2.21 -4.32,-2.98 -3.73,-3.59 -3.14,-4.20 -2.39,-4.59 -1.63,-4.99 -0.80,-5.12 0.03,-5.25 0.87,-5.10 1.71,-4.96 2.46,-4.56 3.21,-4.15 3.79,-3.53 4.37,-2.91 4.72,-2.14 5.07,-1.36 5.15,-0.52 5.24,0.32 5.05,1.15 4.86,1.98 4.42,2.70 3.97,3.43 3.32,3.97 2.67,4.52 1.88,4.83 1.09,5.13 0.24,5.17 -0.60,5.21 -0.60,5.21 -0.60,5.21 -5.10,5.84 -9.59,6.46 -10.52,6.44 -11.45,6.42 -12.35,6.18 -13.25,5.94 -14.06,5.49 -14.87,5.04 -15.55,4.40 -16.24,3.77 -16.75,3.00 -17.26,2.22 -17.57,1.34 -17.88,0.47 -17.97,-0.45 -18.06,-1.37 -17.93,-2.29 -17.79,-3.21 -17.45,-4.07 -17.10,-4.93 -16.55,-5.69 -16.01,-6.44 -15.30,-7.04 -14.59,-7.64 -13.76,-8.05 -12.92,-8.47 -12.02,-8.67 -11.11,-8.87 -5.99,-13.30 -0.87,-17.73 4.96,-18.09 10.80,-18.45 16.73,-15.71 22.66,-12.98 25.88,-9.38 29.11,-5.77 31.31,-1.85 33.51,2.06 35.41,8.09 37.31,14.12 38.52,18.40 39.73,22.68 41.34,27.80 42.95,32.93 44.40,37.02 45.86,41.11 47.32,45.17 48.78,49.23 50.47,53.73 52.15,58.24 54.38,64.19 56.62,70.13 58.02,75.02 59.43,79.91 60.91,84.70 62.38,89.50 63.70,93.99 65.02,98.49 66.68,104.44 68.34,110.39 70.05,115.64 71.77,120.89 73.95,128.12 76.14,135.36 78.06,143.64 79.99,151.92 81.93,158.65 83.87,165.38 86.26,170.90 88.64,176.43 91.90,183.29 95.16,190.16 97.24,194.58 99.33,199.01 101.77,204.39 104.20,209.77 106.21,214.08 108.22,218.39 110.19,222.84 112.16,227.28 113.99,232.09 115.83,236.90 118.44,246.05 121.05,255.21 122.92,262.07 124.79,268.94 125.95,273.36 127.12,277.78 128.33,283.01 129.54,288.24 130.60,292.53 131.66,296.82 132.81,301.37 133.97,305.92 135.14,310.85 136.31,315.78 137.40,321.15 138.49,326.51 139.42,330.86 140.35,335.20 141.38,339.81 142.41,344.42 143.36,349.20 144.30,353.99 145.28,358.86 146.26,363.72 148.23,372.46 150.19,381.20 151.73,388.72 153.28,396.24 154.50,404.14 155.71,412.04 156.51,416.31 157.30,420.58 158.34,425.21 159.37,429.83 160.68,434.84 161.98,439.86 163.63,445.68 165.28,451.50 166.54,456.13 167.81,460.75 169.08,465.67 170.35,470.59 172.49,480.25 174.64,489.91 175.40,494.30 176.15,498.70 176.54,503.41 176.92,508.13 176.83,512.54 176.74,516.95 176.53,521.99 176.31,527.03 174.82,536.88 173.33,546.74 170.59,554.00 167.84,561.26 165.17,565.18 162.50,569.11 157.59,573.01 152.68,576.91 148.19,579.39 143.70,581.88 138.74,584.11 133.77,586.34 129.32,587.96 124.87,589.58 117.26,592.12 109.64,594.66 103.09,596.03 96.54,597.41 91.00,598.07 85.45,598.72 77.92,599.16 70.39,599.60 63.06,599.35 55.73,599.11 50.05,598.74 44.37,598.37 36.50,598.25 28.64,598.12 23.83,598.01 19.03,597.90 11.97,597.41 4.91,596.91 -0.76,596.82 -6.44,596.74 -11.91,596.86 -17.39,596.99 -23.75,597.30 -30.12,597.61 -36.68,597.71 -43.25,597.81 -49.25,597.71 -55.25,597.62 -60.81,597.42 -66.37,597.21 -71.49,596.78 -76.60,596.36 -81.12,596.28 -85.64,596.20 -90.97,596.16 -96.29,596.12 -102.33,596.04 -108.37,595.95 -115.52,595.66 -122.67,595.38 -127.82,594.67 -132.96,593.97 -137.42,592.67 -141.89,591.36 -146.12,589.54 -150.36,587.72 -155.06,585.21 -159.77,582.69 -165.27,579.08 -170.78,575.47 -174.74,572.33 -178.69,569.19 -182.44,565.71 -186.19,562.22 -189.64,557.79 -193.10,553.35 -195.04,549.51 -196.98,545.66 -198.48,541.45 -199.98,537.24 -200.89,532.50 -201.79,527.76 -201.67,520.96 -201.54,514.17 -201.14,509.54 -200.75,504.90 -199.99,500.70 -199.22,496.50 -197.98,491.02 -196.74,485.53 -195.61,481.15 -194.48,476.78 -192.16,470.18 -189.84,463.58 -187.10,456.03 -184.35,448.48 -181.54,440.87 -178.72,433.26 -175.72,426.27 -172.71,419.29 -170.81,414.83 -168.90,410.37 -167.27,406.39 -165.64,402.42 -163.62,397.86 -161.59,393.30 -159.71,388.77 -157.83,384.23 -155.82,380.33 -153.80,376.42 -151.63,372.09 -149.45,367.76 -146.88,362.44 -144.32,357.12 -142.16,352.74 -140.01,348.37 -136.96,341.36 -133.90,334.36 -131.93,330.02 -129.97,325.67 -127.51,320.82 -125.06,315.97 -122.45,311.24 -119.84,306.52 -115.30,298.43 -110.76,290.34 -108.80,286.50 -106.85,282.67 -103.11,274.55 -99.37,266.43 -96.32,259.33 -93.28,252.24 -91.64,248.06 -89.99,243.89 -88.19,239.26 -86.38,234.63 -84.37,228.51 -82.36,222.39 -80.83,217.38 -79.29,212.37 -77.75,207.18 -76.21,201.99 -74.60,196.98 -72.98,191.97 -70.99,185.36 -69.01,178.75 -67.28,171.29 -65.55,163.83 -64.53,158.48 -63.52,153.13 -62.17,145.65 -60.83,138.18 -59.73,131.85 -58.64,125.53 -57.50,119.34 -56.36,113.15 -55.05,106.19 -53.73,99.23 -52.15,90.65 -50.57,82.08 -49.26,75.47 -47.95,68.87 -46.44,63.00 -44.94,57.14 -43.40,52.16 -41.86,47.18 -40.28,42.66 -38.71,38.15 -36.43,30.22 -34.14,22.29 -33.21,16.38 -32.27,10.46 -31.78,5.97 -31.29,1.48 -29.68,-2.45 -28.06,-6.38 -24.13,-9.49 -20.19,-12.60 -14.67,-13.04 -9.15,-13.47 -3.42,-11.75 2.30,-10.03 3.47,-9.61 4.64,-9.18 5.67,-8.49 6.70,-7.81 7.54,-6.89 8.38,-5.97 8.97,-4.88 9.56,-3.79 9.88,-2.59 10.19,-1.39 10.21,-0.15 10.23,1.08 9.95,2.29 9.68,3.50 9.12,4.60 8.56,5.71 7.75,6.65 6.94,7.59 5.93,8.32 4.92,9.04 3.77,9.49 2.61,9.95 1.38,10.12 0.15,10.29 -1.07,10.16 -2.31,10.03 -2.30,10.03 L -2.30,10.03 Z"></path></g><g transform="translate(140.25228612415776 497.5905363308939) rotate(0 52.845519581386725 43.66889772510058)" stroke="none"><path d="M-19.48 -2.06 C-13.33 -2.56, -1.26 -4.21, 17.44 -5.05 C36.14 -5.89, 68.91 -8.9, 92.72 -7.1 C116.53 -5.29, 144.49 2.14, 160.28 5.78 C176.07 9.42, 181.96 12.56, 187.47 14.74 C192.98 16.92, 191.02 16.35, 193.35 18.84 C195.69 21.33, 199.67 26.31, 201.47 29.67 C203.26 33.03, 203.63 35.86, 204.11 39 C204.58 42.15, 204.57 46.03, 204.3 48.52 C204.03 51.01, 204.71 51.32, 202.48 53.94 C200.25 56.55, 196.83 60.21, 190.91 64.19 C184.99 68.18, 173.47 74.74, 166.97 77.82 C160.48 80.9, 158.49 80.93, 151.96 82.68 C145.43 84.42, 138.47 86.5, 127.82 88.28 C117.17 90.05, 98.16 92.29, 88.05 93.31 C77.94 94.34, 78.65 94.25, 67.15 94.44 C55.65 94.62, 37.6 95.46, 19.07 94.44 C0.54 93.41, -31.35 89.71, -44.03 88.28 C-56.71 86.85, -52.86 87.06, -57.02 85.85 C-61.18 84.64, -64.19 83.36, -68.99 81 C-73.79 78.63, -81.94 74.15, -85.83 71.66 C-89.72 69.18, -90.3 68.46, -92.33 66.06 C-94.36 63.67, -96.96 60.65, -98 57.29 C-99.05 53.93, -98.78 48.8, -98.61 45.91 C-98.44 43.01, -98.14 42.42, -96.99 39.93 C-95.84 37.44, -93.64 33.65, -91.71 30.98 C-89.78 28.3, -87.15 25.5, -85.43 23.88 C-83.7 22.26, -85.22 22.85, -81.37 21.27 C-77.51 19.68, -71.73 17.16, -62.29 14.36 C-52.86 11.56, -31.72 6.4, -24.76 4.47 C-17.79 2.54, -20.46 3.29, -20.5 2.79 C-20.53 2.29, -25.13 2.3, -24.96 1.49 C-24.79 0.68, -20.39 -1.47, -19.48 -2.06" stroke="none" stroke-width="0" fill="#ffffff" fill-rule="evenodd"></path><path fill="#ffffff" d="M -19.90,-7.71 Q -19.90,-7.71 -15.05,-10.38 -10.21,-13.05 -4.60,-13.53 0.99,-14.00 5.34,-14.11 9.69,-14.21 15.46,-14.76 21.23,-15.31 25.58,-15.51 29.93,-15.70 34.89,-15.92 39.85,-16.14 45.82,-16.34 51.79,-16.55 56.85,-16.81 61.92,-17.07 68.13,-17.36 74.35,-17.66 79.67,-17.76 85.00,-17.86 89.42,-17.77 93.84,-17.67 99.10,-16.57 104.36,-15.47 109.24,-15.16 114.13,-14.84 120.19,-13.71 126.26,-12.58 130.90,-11.66 135.55,-10.73 140.27,-9.91 144.99,-9.09 150.30,-8.07 155.60,-7.05 161.03,-5.65 166.47,-4.24 172.09,-2.58 177.72,-0.93 182.40,0.44 187.07,1.83 191.51,3.65 195.95,5.48 199.95,8.93 203.96,12.37 207.04,16.15 210.13,19.92 212.12,24.41 214.11,28.91 215.21,33.27 216.31,37.63 216.51,42.35 216.70,47.06 215.69,51.81 214.67,56.56 212.24,60.29 209.82,64.01 205.80,67.71 201.78,71.41 198.18,73.93 194.57,76.44 190.35,78.92 186.14,81.40 181.29,84.16 176.45,86.91 171.15,89.12 165.85,91.32 160.16,93.04 154.47,94.76 149.13,96.02 143.79,97.28 139.01,98.40 134.23,99.53 128.80,100.41 123.37,101.29 118.25,102.18 113.12,103.07 107.99,103.52 102.86,103.97 97.93,104.59 93.00,105.21 88.61,105.54 84.22,105.87 79.59,106.16 74.96,106.46 69.72,106.68 64.48,106.90 58.56,106.91 52.64,106.91 47.90,106.93 43.15,106.95 38.11,106.93 33.07,106.92 27.95,106.93 22.83,106.95 17.78,106.68 12.74,106.41 7.58,105.83 2.42,105.26 -2.97,104.71 -8.38,104.16 -12.80,103.73 -17.23,103.29 -21.77,102.85 -26.30,102.40 -31.09,101.99 -35.87,101.57 -41.11,101.11 -46.35,100.65 -50.82,99.93 -55.29,99.21 -60.06,97.94 -64.82,96.66 -68.81,95.12 -72.81,93.57 -76.70,91.55 -80.59,89.54 -84.79,87.26 -89.00,84.99 -93.16,82.04 -97.33,79.09 -100.48,75.79 -103.63,72.48 -106.34,68.49 -109.05,64.50 -110.26,59.56 -111.47,54.62 -111.37,48.80 -111.26,42.97 -109.85,38.48 -108.43,33.99 -106.21,30.05 -103.98,26.10 -100.87,21.95 -97.76,17.80 -94.50,14.90 -91.23,11.99 -87.22,10.04 -83.20,8.08 -77.96,6.11 -72.72,4.15 -68.13,2.67 -63.55,1.19 -58.39,-0.24 -53.24,-1.69 -48.35,-3.05 -43.47,-4.41 -38.54,-5.58 -33.61,-6.74 -30.22,-7.78 -26.84,-8.82 -25.32,-9.23 -23.80,-9.63 -22.23,-9.66 -20.66,-9.69 -19.12,-9.35 -17.59,-9.00 -16.18,-8.29 -14.78,-7.59 -13.58,-6.57 -12.38,-5.55 -11.46,-4.27 -10.55,-2.99 -9.96,-1.54 -9.38,-0.08 -9.16,1.47 -8.94,3.03 -9.10,4.59 -9.26,6.16 -9.79,7.64 -10.32,9.12 -11.19,10.43 -12.06,11.74 -13.21,12.81 -14.37,13.87 -15.75,14.63 -17.13,15.39 -21.55,5.97 -25.98,-3.43 -25.26,-3.63 -24.55,-3.82 -23.81,-3.83 -23.07,-3.84 -22.35,-3.68 -21.63,-3.52 -20.97,-3.19 -20.31,-2.86 -19.74,-2.38 -19.18,-1.90 -18.75,-1.30 -18.32,-0.70 -18.04,-0.01 -17.77,0.67 -17.67,1.40 -17.56,2.13 -17.64,2.86 -17.71,3.60 -17.96,4.30 -18.21,4.99 -18.62,5.61 -19.03,6.22 -19.57,6.72 -20.12,7.22 -20.76,7.58 -21.41,7.93 -22.32,1.10 -23.23,-5.73 -22.55,-6.23 -21.86,-6.74 -21.05,-7.00 -20.24,-7.25 -19.39,-7.24 -18.54,-7.23 -17.74,-6.94 -16.94,-6.66 -16.27,-6.13 -15.60,-5.61 -15.14,-4.90 -14.67,-4.19 -14.46,-3.36 -14.24,-2.54 -14.30,-1.69 -14.36,-0.85 -14.69,-0.06 -15.02,0.71 -15.58,1.35 -16.14,1.99 -16.87,2.42 -17.61,2.84 -18.44,3.01 -19.28,3.18 -20.12,3.08 -20.96,2.97 -21.73,2.60 -22.49,2.23 -23.10,1.64 -23.71,1.04 -24.09,0.29 -24.48,-0.46 -24.60,-1.30 -24.73,-2.14 -24.58,-2.98 -24.43,-3.82 -24.01,-4.56 -23.60,-5.30 -22.98,-5.88 -22.35,-6.45 -21.57,-6.80 -20.80,-7.14 -19.95,-7.22 -19.10,-7.30 -18.28,-7.10 -17.45,-6.91 -16.73,-6.46 -16.01,-6.01 -15.47,-5.35 -14.93,-4.69 -14.63,-3.90 -14.33,-3.10 -14.29,-2.25 -14.26,-1.40 -14.50,-0.59 -14.74,0.22 -15.23,0.91 -15.72,1.61 -15.72,1.61 -15.72,1.61 -20.85,-0.91 -25.98,-3.43 -25.26,-3.63 -24.55,-3.82 -23.81,-3.83 -23.07,-3.84 -22.35,-3.68 -21.63,-3.52 -20.97,-3.19 -20.31,-2.86 -19.75,-2.38 -19.18,-1.90 -18.75,-1.30 -18.32,-0.70 -18.05,-0.01 -17.77,0.66 -17.67,1.40 -17.56,2.13 -17.64,2.86 -17.71,3.60 -17.96,4.29 -18.21,4.99 -18.62,5.61 -19.03,6.22 -19.57,6.72 -20.12,7.22 -20.76,7.58 -21.41,7.93 -24.13,-0.44 -26.84,-8.82 -25.32,-9.23 -23.80,-9.63 -22.23,-9.66 -20.66,-9.69 -19.12,-9.35 -17.59,-9.00 -16.18,-8.30 -14.78,-7.59 -13.58,-6.57 -12.38,-5.55 -11.47,-4.27 -10.55,-3.00 -9.96,-1.54 -9.38,-0.08 -9.16,1.47 -8.94,3.03 -9.10,4.59 -9.26,6.16 -9.79,7.64 -10.32,9.12 -11.19,10.43 -12.05,11.74 -13.21,12.81 -14.37,13.87 -15.75,14.63 -17.13,15.39 -18.14,15.71 -19.15,16.04 -24.00,17.51 -28.85,18.98 -34.19,20.17 -39.54,21.36 -43.86,22.68 -48.18,24.00 -53.23,25.42 -58.29,26.85 -62.46,28.28 -66.63,29.71 -71.37,31.46 -76.11,33.21 -79.08,36.86 -82.05,40.51 -83.75,44.70 -85.46,48.89 -83.79,53.18 -82.12,57.47 -78.14,60.34 -74.16,63.21 -70.29,65.31 -66.41,67.41 -62.38,69.35 -58.34,71.30 -53.46,72.97 -48.57,74.65 -43.28,75.35 -37.98,76.05 -33.50,76.48 -29.03,76.92 -24.76,77.24 -20.49,77.56 -14.65,78.17 -8.81,78.78 -4.31,79.33 0.18,79.89 5.39,80.43 10.61,80.96 15.63,81.44 20.66,81.91 25.23,81.92 29.80,81.92 34.98,81.93 40.15,81.93 44.96,81.92 49.78,81.92 54.94,81.91 60.10,81.90 65.17,81.79 70.24,81.67 75.58,81.31 80.93,80.95 85.80,80.65 90.67,80.34 95.85,79.69 101.04,79.03 106.18,78.58 111.32,78.12 115.67,77.35 120.02,76.58 124.55,75.87 129.07,75.15 133.88,73.99 138.70,72.83 143.30,71.78 147.91,70.72 152.92,69.20 157.93,67.68 162.02,65.94 166.11,64.19 170.06,61.90 174.00,59.60 178.62,56.88 183.25,54.15 187.23,51.33 191.21,48.51 191.32,43.96 191.43,39.40 189.40,35.06 187.36,30.71 184.02,28.01 180.67,25.30 176.44,23.86 172.20,22.41 167.16,20.74 162.12,19.08 157.79,17.82 153.46,16.57 148.71,15.51 143.95,14.44 139.41,13.61 134.87,12.78 129.98,11.69 125.09,10.60 120.34,9.72 115.59,8.84 111.04,7.98 106.50,7.13 101.53,6.19 96.55,5.25 91.78,4.47 87.02,3.69 82.67,3.73 78.32,3.77 73.03,3.97 67.74,4.17 63.26,4.13 58.78,4.08 53.47,4.33 48.17,4.59 42.54,4.61 36.91,4.64 31.34,4.83 25.76,5.03 20.23,5.36 14.69,5.70 8.44,6.12 2.19,6.55 -3.24,6.99 -8.68,7.43 -13.86,5.51 -19.05,3.59 -19.74,3.56 -20.42,3.52 -21.07,3.33 -21.73,3.14 -22.32,2.79 -22.91,2.44 -23.40,1.97 -23.89,1.49 -24.25,0.91 -24.61,0.33 -24.82,-0.31 -25.04,-0.96 -25.09,-1.64 -25.14,-2.32 -25.02,-2.99 -24.91,-3.67 -24.64,-4.29 -24.37,-4.92 -23.95,-5.47 -23.54,-6.01 -23.01,-6.44 -22.48,-6.87 -21.86,-7.16 -21.24,-7.45 -20.57,-7.58 -19.90,-7.71 -19.90,-7.71 L -19.90,-7.71 Z"></path></g><g transform="translate(191.2483928422862 98.13369283245629) rotate(0 1.902591116388976 258.6164924633749)" stroke="none"><path fill="#1e1e1e" d="M 3.91,-0.53 Q 3.91,-0.53 5.03,2.12 6.15,4.78 6.14,7.17 6.13,9.56 5.28,12.49 4.44,15.42 2.62,19.44 0.80,23.47 -0.83,27.07 -2.48,30.68 -4.25,34.36 -6.03,38.05 -7.84,41.94 -9.65,45.82 -12.07,51.36 -14.48,56.90 -16.67,61.83 -18.85,66.76 -21.07,71.45 -23.29,76.15 -25.93,80.93 -28.57,85.70 -31.67,90.58 -34.76,95.45 -38.97,101.52 -43.17,107.59 -46.66,112.62 -50.15,117.66 -52.97,122.22 -55.80,126.78 -58.09,131.25 -60.38,135.71 -63.08,141.94 -65.77,148.17 -68.23,154.05 -70.69,159.94 -72.98,165.51 -75.28,171.09 -77.54,176.27 -79.80,181.45 -81.93,186.28 -84.06,191.10 -86.77,197.17 -89.49,203.25 -92.11,208.60 -94.74,213.96 -97.39,219.12 -100.05,224.27 -102.92,229.43 -105.79,234.58 -109.66,241.27 -113.53,247.95 -116.68,253.70 -119.83,259.45 -122.61,264.93 -125.39,270.41 -127.90,276.10 -130.41,281.78 -132.77,287.48 -135.13,293.18 -138.01,299.76 -140.90,306.34 -143.05,311.58 -145.21,316.82 -146.89,321.41 -148.57,326.00 -149.99,330.20 -151.40,334.41 -152.91,339.23 -154.43,344.05 -155.57,347.91 -156.71,351.76 -157.65,355.13 -158.59,358.49 -159.36,361.53 -160.12,364.56 -160.67,367.21 -161.23,369.86 -161.74,372.89 -162.25,375.92 -162.59,378.27 -162.93,380.62 -163.56,384.49 -164.19,388.37 -164.58,391.25 -164.98,394.13 -165.26,396.54 -165.55,398.95 -165.92,401.26 -166.29,403.57 -167.05,406.63 -167.80,409.69 -168.47,412.34 -169.15,414.99 -169.90,417.53 -170.65,420.08 -171.49,422.07 -172.34,424.05 -173.21,426.06 -174.08,428.07 -172.31,430.84 -170.54,433.62 -169.11,435.21 -167.69,436.81 -165.72,439.28 -163.74,441.76 -162.26,444.09 -160.78,446.42 -159.01,449.34 -157.23,452.25 -155.33,454.92 -153.43,457.59 -151.20,460.11 -148.97,462.64 -146.57,464.92 -144.16,467.20 -141.10,469.59 -138.05,471.98 -134.94,473.97 -131.83,475.95 -128.25,477.70 -124.67,479.45 -122.01,480.74 -119.35,482.03 -117.11,483.09 -114.87,484.15 -112.80,485.03 -110.73,485.91 -108.62,486.59 -106.51,487.28 -103.38,488.12 -100.25,488.97 -97.36,489.68 -94.47,490.40 -91.90,491.01 -89.33,491.62 -86.94,492.26 -84.56,492.90 -82.37,493.52 -80.17,494.15 -77.51,494.82 -74.84,495.49 -72.28,496.13 -69.71,496.77 -67.09,497.37 -64.46,497.98 -61.70,498.53 -58.93,499.08 -56.11,499.57 -53.30,500.07 -49.79,500.67 -46.29,501.28 -43.39,501.80 -40.49,502.33 -37.93,502.82 -35.37,503.31 -32.85,503.83 -30.34,504.35 -26.88,504.98 -23.43,505.61 -20.13,506.04 -16.83,506.46 -13.38,506.82 -9.93,507.17 -6.48,507.55 -3.02,507.92 1.02,508.39 5.07,508.85 8.13,509.13 11.18,509.40 13.65,509.66 16.13,509.91 19.22,510.11 22.31,510.31 25.52,510.34 28.74,510.38 31.43,510.30 34.12,510.22 37.61,509.69 41.10,509.16 44.62,508.68 48.14,508.19 52.13,507.63 56.12,507.06 59.04,506.82 61.97,506.59 64.45,506.22 66.93,505.86 69.17,505.56 71.40,505.26 73.59,505.03 75.78,504.80 79.70,504.28 83.61,503.77 85.93,503.35 88.25,502.93 91.48,502.33 94.72,501.73 96.91,501.44 99.10,501.15 101.97,500.64 104.83,500.13 108.58,499.52 112.32,498.91 115.64,498.39 118.95,497.87 121.97,497.19 124.98,496.50 127.57,495.53 130.16,494.57 132.14,493.64 134.12,492.70 136.87,491.13 139.61,489.55 142.49,487.87 145.38,486.20 147.73,484.65 150.08,483.11 153.04,480.82 156.00,478.52 157.73,476.91 159.46,475.30 161.42,473.47 163.39,471.65 165.38,469.52 167.38,467.40 168.79,465.73 170.20,464.05 171.92,461.74 173.64,459.44 174.88,457.32 176.12,455.21 177.05,452.77 177.99,450.33 178.18,447.89 178.38,445.45 177.86,442.85 177.34,440.26 176.46,438.05 175.58,435.84 174.37,433.88 173.16,431.91 171.50,430.44 169.84,428.96 167.78,427.59 165.71,426.22 162.63,424.65 159.55,423.09 157.15,421.74 154.74,420.40 152.86,419.40 150.97,418.39 147.74,416.62 144.52,414.84 140.85,413.12 137.17,411.41 133.60,409.85 130.02,408.29 127.51,407.15 125.01,406.01 122.71,405.22 120.42,404.43 118.17,403.87 115.91,403.31 113.64,402.79 111.36,402.28 109.15,401.85 106.94,401.43 104.25,400.89 101.56,400.36 97.88,399.72 94.20,399.08 90.54,398.62 86.88,398.16 84.41,397.94 81.94,397.72 79.57,397.44 77.20,397.15 73.01,396.85 68.83,396.55 65.91,396.16 62.99,395.76 60.66,395.48 58.33,395.20 56.07,395.00 53.82,394.81 51.61,394.68 49.41,394.54 47.18,394.40 44.96,394.25 42.09,394.10 39.23,393.96 36.60,393.85 33.97,393.74 31.54,393.65 29.11,393.56 26.90,393.47 24.68,393.39 21.94,393.22 19.19,393.04 16.77,392.84 14.34,392.63 12.01,392.40 9.68,392.16 7.54,392.04 5.41,391.91 2.81,391.83 0.20,391.74 -2.08,391.70 -4.38,391.66 -6.61,391.63 -8.84,391.60 -12.76,391.59 -16.68,391.58 -18.99,391.58 -21.30,391.57 -25.14,391.66 -28.97,391.75 -33.14,392.07 -37.30,392.38 -39.88,392.70 -42.46,393.02 -44.95,393.33 -47.43,393.65 -49.80,393.92 -52.16,394.19 -56.32,394.90 -60.48,395.62 -63.71,396.18 -66.94,396.74 -70.57,397.23 -74.20,397.72 -76.34,397.96 -78.47,398.21 -82.46,398.71 -86.46,399.21 -90.14,399.70 -93.83,400.20 -97.58,400.94 -101.34,401.67 -105.61,402.56 -109.88,403.44 -112.16,403.92 -114.45,404.40 -117.07,405.07 -119.70,405.73 -123.29,406.60 -126.89,407.46 -129.49,408.01 -132.10,408.57 -134.36,409.23 -136.62,409.89 -139.87,411.39 -143.12,412.89 -145.77,414.11 -148.41,415.33 -151.36,416.95 -154.31,418.57 -156.90,420.16 -159.49,421.75 -161.53,423.59 -163.56,425.43 -166.47,427.26 -169.37,429.09 -169.56,429.47 -169.74,429.85 -170.04,430.15 -170.34,430.46 -170.72,430.65 -171.10,430.84 -171.52,430.90 -171.94,430.96 -172.36,430.88 -172.78,430.80 -173.15,430.60 -173.52,430.39 -173.80,430.07 -174.09,429.76 -174.26,429.37 -174.43,428.98 -174.47,428.56 -174.50,428.13 -174.40,427.72 -174.30,427.31 -174.08,426.95 -173.85,426.59 -173.52,426.32 -173.19,426.05 -172.79,425.90 -172.39,425.76 -171.97,425.74 -171.54,425.73 -171.14,425.85 -170.73,425.97 -170.38,426.22 -170.04,426.46 -169.79,426.81 -169.54,427.15 -169.41,427.56 -169.28,427.96 -169.29,428.39 -169.30,428.81 -169.45,429.21 -169.59,429.61 -169.86,429.95 -170.12,430.28 -170.48,430.51 -170.83,430.74 -171.25,430.84 -171.66,430.95 -172.08,430.92 -172.50,430.88 -172.90,430.72 -173.29,430.55 -173.60,430.27 -173.92,429.99 -174.13,429.62 -174.34,429.25 -174.43,428.83 -174.51,428.42 -174.45,428.00 -174.40,427.57 -174.40,427.57 -174.40,427.57 -174.19,422.86 -173.98,418.14 -171.86,415.90 -169.74,413.65 -167.82,412.25 -165.91,410.84 -163.33,409.27 -160.75,407.69 -158.65,406.45 -156.54,405.22 -153.85,403.95 -151.15,402.68 -148.46,401.40 -145.78,400.11 -143.18,398.99 -140.58,397.87 -137.79,397.05 -134.99,396.22 -132.33,395.67 -129.67,395.11 -126.10,394.24 -122.52,393.37 -119.98,392.74 -117.44,392.10 -114.93,391.55 -112.42,391.01 -110.24,390.57 -108.06,390.13 -105.95,389.68 -103.84,389.24 -99.80,388.46 -95.77,387.67 -91.98,387.15 -88.20,386.63 -84.05,386.11 -79.89,385.60 -77.74,385.35 -75.58,385.11 -72.36,384.69 -69.15,384.27 -65.92,383.70 -62.69,383.14 -60.37,382.73 -58.04,382.32 -55.82,381.97 -53.59,381.63 -51.30,381.37 -49.02,381.11 -46.50,380.79 -43.98,380.48 -41.11,380.13 -38.23,379.79 -36.10,379.63 -33.96,379.47 -31.74,379.29 -29.52,379.12 -25.41,379.03 -21.29,378.95 -18.98,378.95 -16.66,378.94 -12.70,378.96 -8.74,378.97 -6.44,378.98 -4.15,378.99 -1.73,379.03 0.68,379.07 3.43,379.19 6.18,379.30 8.52,379.45 10.87,379.60 13.14,379.80 15.42,380.01 17.70,380.20 19.98,380.40 22.57,380.56 25.15,380.71 27.36,380.79 29.57,380.87 32.02,380.96 34.47,381.04 37.17,381.15 39.88,381.25 42.83,381.41 45.79,381.56 47.97,381.70 50.14,381.84 52.55,381.98 54.95,382.11 57.41,382.34 59.86,382.57 62.29,382.86 64.71,383.16 67.23,383.51 69.75,383.86 71.90,384.02 74.05,384.17 76.38,384.35 78.72,384.52 80.89,384.78 83.07,385.05 85.75,385.29 88.43,385.53 92.22,386.02 96.01,386.51 100.04,387.20 104.08,387.88 106.71,388.43 109.34,388.97 111.75,389.43 114.15,389.89 116.60,390.45 119.04,391.00 121.75,391.70 124.47,392.39 127.34,393.34 130.22,394.29 134.46,396.16 138.70,398.02 142.52,399.71 146.34,401.40 148.55,402.44 150.75,403.49 153.89,405.21 157.04,406.93 159.06,408.00 161.08,409.07 163.33,410.33 165.58,411.58 169.07,413.38 172.55,415.18 175.27,416.97 177.99,418.76 179.94,420.45 181.88,422.13 183.88,424.62 185.87,427.11 187.27,430.13 188.67,433.15 189.60,435.62 190.54,438.10 191.10,441.06 191.67,444.02 191.64,446.51 191.61,449.00 191.29,451.36 190.97,453.71 189.76,457.03 188.55,460.35 187.37,462.51 186.18,464.66 184.76,466.75 183.34,468.84 182.03,470.63 180.71,472.42 179.09,474.37 177.46,476.32 175.80,478.15 174.13,479.99 172.48,481.55 170.83,483.10 168.87,484.96 166.91,486.83 164.15,489.17 161.40,491.51 158.17,493.84 154.94,496.18 152.14,497.84 149.34,499.50 146.14,501.40 142.93,503.29 140.36,504.67 137.78,506.05 135.05,507.21 132.32,508.38 128.67,509.48 125.02,510.59 121.78,511.20 118.54,511.81 114.72,512.42 110.90,513.03 107.24,513.64 103.58,514.25 100.46,514.71 97.33,515.17 94.02,515.78 90.71,516.39 88.23,516.85 85.75,517.30 83.59,517.64 81.43,517.98 77.34,518.41 73.26,518.84 71.03,519.15 68.80,519.46 65.85,519.85 62.91,520.24 60.42,520.44 57.92,520.65 55.80,520.93 53.67,521.21 50.08,521.72 46.48,522.24 42.96,522.73 39.43,523.21 37.17,523.55 34.90,523.88 31.76,523.96 28.63,524.04 25.12,524.00 21.61,523.96 18.17,523.72 14.72,523.49 12.33,523.24 9.95,522.99 6.72,522.70 3.50,522.41 -0.50,521.93 -4.50,521.46 -7.92,521.09 -11.34,520.72 -14.97,520.34 -18.59,519.95 -22.25,519.47 -25.91,518.99 -29.51,518.31 -33.11,517.64 -35.51,517.13 -37.92,516.63 -40.41,516.15 -42.91,515.67 -45.76,515.15 -48.61,514.63 -52.12,514.02 -55.62,513.41 -58.60,512.89 -61.59,512.37 -64.56,511.78 -67.53,511.19 -70.28,510.54 -73.02,509.90 -75.58,509.25 -78.14,508.59 -81.01,507.87 -83.87,507.15 -85.97,506.55 -88.07,505.96 -90.26,505.37 -92.45,504.78 -95.09,504.15 -97.73,503.53 -100.77,502.77 -103.81,502.02 -107.31,501.05 -110.81,500.08 -113.42,499.18 -116.03,498.28 -118.32,497.29 -120.62,496.30 -122.91,495.22 -125.20,494.14 -127.86,492.86 -130.52,491.57 -132.58,490.58 -134.64,489.58 -136.70,488.53 -138.75,487.47 -140.70,486.29 -142.64,485.11 -144.48,483.83 -146.32,482.55 -149.66,479.92 -153.00,477.29 -155.93,474.50 -158.86,471.70 -161.49,468.69 -164.12,465.69 -166.37,462.52 -168.61,459.36 -170.39,456.42 -172.18,453.48 -173.97,450.73 -175.75,447.97 -177.56,445.94 -179.36,443.91 -181.23,441.55 -183.11,439.19 -185.06,435.67 -187.02,432.15 -187.01,428.43 -187.00,424.72 -186.04,422.36 -185.07,420.01 -184.08,417.80 -183.10,415.58 -182.42,413.15 -181.74,410.72 -181.03,408.23 -180.32,405.75 -179.73,403.49 -179.14,401.24 -178.76,399.15 -178.38,397.05 -178.10,394.89 -177.82,392.73 -177.37,389.48 -176.92,386.23 -176.30,382.49 -175.68,378.75 -175.31,376.24 -174.93,373.73 -174.36,370.46 -173.78,367.20 -173.17,364.31 -172.55,361.43 -171.74,358.23 -170.93,355.04 -169.97,351.58 -169.00,348.12 -167.82,344.16 -166.64,340.19 -165.07,335.25 -163.50,330.31 -162.01,325.96 -160.53,321.61 -158.75,316.79 -156.98,311.96 -154.76,306.59 -152.54,301.21 -149.67,294.75 -146.81,288.30 -144.36,282.48 -141.91,276.67 -139.24,270.70 -136.57,264.73 -133.69,259.07 -130.81,253.40 -127.56,247.54 -124.32,241.69 -120.47,235.07 -116.61,228.46 -113.78,223.52 -110.94,218.58 -108.29,213.58 -105.64,208.59 -103.09,203.45 -100.55,198.30 -97.83,192.24 -95.12,186.19 -92.98,181.40 -90.85,176.61 -88.61,171.54 -86.38,166.47 -84.04,160.89 -81.69,155.31 -79.17,149.37 -76.64,143.42 -73.75,136.85 -70.86,130.28 -68.32,125.43 -65.78,120.57 -62.78,115.78 -59.79,110.99 -56.30,105.95 -52.81,100.91 -48.72,95.01 -44.63,89.11 -41.68,84.57 -38.72,80.02 -36.22,75.61 -33.72,71.21 -31.56,66.64 -29.39,62.08 -27.21,57.17 -25.03,52.26 -22.52,46.60 -20.00,40.95 -18.13,37.02 -16.26,33.09 -14.52,29.51 -12.77,25.93 -11.09,22.32 -9.40,18.72 -7.73,15.25 -6.06,11.77 -5.35,9.01 -4.64,6.24 -4.28,3.39 -3.91,0.53 -3.92,0.06 -3.93,-0.41 -3.82,-0.87 -3.72,-1.34 -3.50,-1.77 -3.29,-2.19 -2.98,-2.55 -2.66,-2.92 -2.28,-3.19 -1.89,-3.47 -1.45,-3.65 -1.00,-3.82 -0.53,-3.89 -0.06,-3.95 0.41,-3.90 0.88,-3.85 1.33,-3.69 1.78,-3.53 2.18,-3.26 2.57,-3.00 2.89,-2.65 3.22,-2.29 3.44,-1.87 3.67,-1.46 3.79,-0.99 3.91,-0.53 3.91,-0.53 L 3.91,-0.53 Z"></path></g><g transform="translate(378.0568423321565 526.0157993057092) rotate(0 -93.91532453241234 -258.0078996528546)" stroke="none"><path fill="#1e1e1e" d="M -2.73,1.18 Q -2.73,1.18 -5.74,-1.66 -8.75,-4.52 -9.73,-6.73 -10.71,-8.95 -11.73,-11.29 -12.74,-13.64 -14.20,-17.41 -15.65,-21.19 -16.63,-25.37 -17.61,-29.55 -18.14,-31.91 -18.68,-34.27 -20.02,-38.38 -21.35,-42.48 -22.19,-44.99 -23.03,-47.50 -23.96,-50.77 -24.89,-54.05 -25.56,-56.54 -26.23,-59.02 -26.86,-61.15 -27.49,-63.29 -28.97,-67.35 -30.44,-71.42 -31.56,-74.51 -32.68,-77.60 -33.56,-80.66 -34.44,-83.72 -35.08,-86.50 -35.72,-89.28 -36.27,-91.76 -36.82,-94.25 -37.49,-97.33 -38.15,-100.42 -38.75,-103.34 -39.34,-106.26 -39.78,-109.13 -40.22,-112.00 -40.55,-114.82 -40.88,-117.63 -41.07,-120.66 -41.26,-123.69 -41.67,-127.31 -42.07,-130.94 -42.62,-134.00 -43.16,-137.06 -43.84,-140.02 -44.52,-142.98 -45.17,-146.01 -45.82,-149.04 -46.51,-152.84 -47.20,-156.64 -47.73,-159.96 -48.27,-163.28 -48.75,-166.41 -49.23,-169.53 -49.73,-172.62 -50.23,-175.71 -50.77,-178.66 -51.31,-181.62 -52.11,-185.17 -52.90,-188.73 -53.67,-191.96 -54.43,-195.19 -55.28,-198.36 -56.13,-201.53 -56.98,-205.17 -57.84,-208.81 -58.96,-213.76 -60.08,-218.71 -61.17,-222.93 -62.25,-227.16 -63.43,-230.91 -64.60,-234.67 -65.93,-238.46 -67.25,-242.25 -68.67,-246.26 -70.08,-250.27 -72.10,-255.63 -74.11,-260.99 -76.02,-265.23 -77.93,-269.48 -79.76,-273.10 -81.59,-276.73 -83.32,-279.90 -85.05,-283.06 -87.01,-286.55 -88.96,-290.05 -90.48,-292.95 -92.00,-295.86 -93.21,-298.31 -94.42,-300.77 -95.40,-302.95 -96.38,-305.14 -97.91,-308.83 -99.45,-312.53 -100.22,-314.58 -100.99,-316.64 -101.83,-319.63 -102.67,-322.62 -103.41,-325.86 -104.15,-329.09 -105.04,-332.71 -105.94,-336.32 -106.68,-339.17 -107.41,-342.01 -108.14,-344.63 -108.86,-347.25 -109.62,-349.82 -110.38,-352.38 -111.15,-354.65 -111.91,-356.91 -112.90,-359.76 -113.89,-362.61 -114.72,-365.12 -115.56,-367.64 -116.72,-370.86 -117.89,-374.07 -119.04,-377.06 -120.19,-380.05 -120.76,-382.11 -121.33,-384.16 -121.83,-386.24 -122.34,-388.33 -123.57,-392.55 -124.80,-396.77 -126.11,-400.58 -127.43,-404.38 -128.55,-407.71 -129.68,-411.05 -130.48,-414.04 -131.27,-417.03 -131.80,-419.38 -132.33,-421.74 -132.74,-423.85 -133.15,-425.96 -133.59,-428.75 -134.02,-431.55 -134.29,-433.94 -134.56,-436.33 -135.20,-439.95 -135.84,-443.57 -136.43,-446.49 -137.03,-449.40 -137.68,-452.10 -138.33,-454.80 -138.99,-457.68 -139.65,-460.55 -140.74,-463.54 -141.83,-466.54 -142.47,-468.71 -143.10,-470.89 -144.12,-473.59 -145.15,-476.29 -146.16,-479.09 -147.18,-481.90 -148.16,-484.25 -149.13,-486.60 -149.82,-489.00 -150.51,-491.39 -151.16,-493.93 -151.81,-496.48 -152.44,-498.58 -153.08,-500.68 -153.84,-502.82 -154.60,-504.96 -155.31,-507.15 -156.03,-509.33 -156.81,-511.35 -157.59,-513.36 -157.73,-514.21 -157.88,-515.06 -157.81,-515.92 -157.75,-516.78 -157.48,-517.60 -157.22,-518.41 -156.76,-519.15 -156.31,-519.88 -155.69,-520.48 -155.07,-521.08 -154.33,-521.52 -153.59,-521.95 -152.76,-522.20 -151.93,-522.44 -151.07,-522.48 -150.21,-522.52 -149.37,-522.36 -148.52,-522.19 -147.74,-521.83 -146.96,-521.46 -146.29,-520.92 -145.62,-520.38 -145.10,-519.70 -144.57,-519.01 -144.23,-518.22 -143.89,-517.43 -145.19,-513.50 -146.50,-509.58 -147.48,-506.95 -148.46,-504.31 -150.14,-500.32 -151.82,-496.32 -153.34,-492.83 -154.87,-489.33 -156.57,-485.35 -158.28,-481.37 -159.46,-478.31 -160.63,-475.24 -161.54,-472.72 -162.45,-470.19 -163.48,-467.64 -164.50,-465.09 -165.51,-462.39 -166.52,-459.70 -167.59,-456.80 -168.66,-453.91 -169.62,-451.49 -170.57,-449.06 -171.68,-446.33 -172.78,-443.59 -173.81,-441.42 -174.85,-439.24 -175.89,-436.89 -176.93,-434.54 -177.91,-432.30 -178.90,-430.06 -179.51,-427.84 -180.12,-425.63 -182.26,-425.52 -184.40,-425.42 -184.25,-425.03 -184.09,-424.63 -184.07,-424.21 -184.05,-423.78 -184.16,-423.37 -184.27,-422.96 -184.51,-422.61 -184.75,-422.26 -185.09,-422.00 -185.43,-421.75 -185.83,-421.61 -186.24,-421.48 -186.66,-421.48 -187.09,-421.48 -187.49,-421.62 -187.89,-421.75 -188.23,-422.01 -188.57,-422.27 -188.80,-422.62 -189.04,-422.97 -189.15,-423.38 -189.27,-423.79 -189.24,-424.22 -189.22,-424.64 -189.06,-425.04 -188.90,-425.43 -188.63,-425.75 -188.35,-426.08 -187.99,-426.30 -187.62,-426.51 -187.21,-426.60 -186.79,-426.70 -186.37,-426.65 -185.95,-426.60 -185.56,-426.42 -185.18,-426.24 -184.87,-425.95 -184.56,-425.66 -184.36,-425.28 -184.16,-424.90 -184.10,-424.48 -184.03,-424.07 -184.10,-423.65 -184.17,-423.23 -184.37,-422.85 -184.57,-422.48 -184.88,-422.19 -185.19,-421.89 -185.57,-421.72 -185.96,-421.54 -186.38,-421.49 -186.80,-421.45 -187.22,-421.54 -187.63,-421.63 -188.00,-421.85 -188.36,-422.07 -188.64,-422.40 -188.91,-422.72 -188.91,-422.72 -188.91,-422.72 -191.53,-426.12 -194.15,-429.52 -193.50,-431.79 -192.85,-434.05 -191.79,-436.63 -190.73,-439.21 -189.71,-441.48 -188.69,-443.75 -187.62,-446.08 -186.55,-448.40 -185.59,-450.56 -184.63,-452.73 -183.76,-455.01 -182.89,-457.29 -182.02,-459.40 -181.16,-461.51 -180.07,-464.58 -178.98,-467.65 -178.08,-469.96 -177.17,-472.27 -176.36,-474.26 -175.56,-476.25 -174.80,-478.29 -174.03,-480.34 -172.81,-483.51 -171.59,-486.68 -169.78,-490.87 -167.96,-495.06 -166.46,-498.49 -164.95,-501.91 -164.05,-504.03 -163.15,-506.15 -161.58,-509.81 -160.02,-513.46 -158.30,-516.56 -156.59,-519.65 -157.09,-516.50 -157.59,-513.36 -157.73,-514.21 -157.88,-515.06 -157.81,-515.92 -157.75,-516.78 -157.48,-517.59 -157.22,-518.41 -156.76,-519.15 -156.31,-519.88 -155.69,-520.48 -155.07,-521.08 -154.33,-521.52 -153.59,-521.95 -152.76,-522.20 -151.93,-522.44 -151.07,-522.48 -150.21,-522.52 -149.37,-522.36 -148.52,-522.19 -147.74,-521.83 -146.96,-521.46 -146.29,-520.92 -145.62,-520.38 -145.10,-519.70 -144.57,-519.01 -144.23,-518.22 -143.89,-517.43 -143.27,-516.30 -142.66,-515.17 -141.81,-512.56 -140.97,-509.95 -140.13,-507.64 -139.29,-505.34 -138.48,-502.70 -137.68,-500.06 -137.04,-497.63 -136.40,-495.20 -135.69,-492.85 -134.98,-490.50 -133.87,-487.82 -132.76,-485.15 -131.98,-482.94 -131.20,-480.73 -130.34,-478.53 -129.49,-476.33 -128.73,-473.80 -127.97,-471.26 -127.18,-469.08 -126.39,-466.91 -125.49,-463.59 -124.58,-460.28 -124.05,-457.84 -123.52,-455.41 -122.81,-452.53 -122.10,-449.66 -121.43,-445.99 -120.76,-442.33 -120.43,-440.15 -120.09,-437.97 -119.84,-435.81 -119.60,-433.66 -119.05,-430.28 -118.51,-426.90 -118.03,-424.77 -117.56,-422.64 -117.08,-420.43 -116.60,-418.21 -115.67,-415.28 -114.75,-412.34 -113.53,-408.85 -112.31,-405.36 -111.60,-403.21 -110.88,-401.06 -110.11,-398.53 -109.34,-396.00 -108.77,-393.89 -108.21,-391.78 -107.37,-388.42 -106.54,-385.05 -105.48,-382.30 -104.42,-379.55 -103.10,-375.86 -101.78,-372.17 -100.99,-369.78 -100.21,-367.38 -99.18,-364.44 -98.15,-361.49 -97.33,-358.99 -96.50,-356.48 -95.71,-353.79 -94.92,-351.11 -94.16,-348.37 -93.40,-345.63 -92.64,-342.66 -91.88,-339.70 -90.95,-335.90 -90.01,-332.11 -89.32,-329.06 -88.63,-326.01 -87.73,-323.12 -86.84,-320.23 -85.76,-317.36 -84.69,-314.49 -83.08,-310.82 -81.46,-307.15 -80.33,-304.85 -79.19,-302.55 -77.77,-299.82 -76.35,-297.10 -74.36,-293.53 -72.36,-289.96 -70.54,-286.59 -68.72,-283.22 -66.75,-279.30 -64.78,-275.38 -62.69,-270.72 -60.60,-266.06 -58.55,-260.56 -56.49,-255.06 -55.07,-251.03 -53.65,-246.99 -52.25,-242.97 -50.85,-238.95 -49.57,-234.84 -48.29,-230.72 -47.17,-226.30 -46.05,-221.88 -44.94,-216.99 -43.84,-212.11 -43.03,-208.68 -42.22,-205.24 -41.32,-201.87 -40.42,-198.49 -39.64,-195.17 -38.87,-191.85 -38.02,-188.01 -37.17,-184.18 -36.62,-181.08 -36.06,-177.97 -35.57,-174.84 -35.08,-171.71 -34.61,-168.64 -34.13,-165.56 -33.61,-162.34 -33.10,-159.12 -32.49,-155.56 -31.89,-151.99 -31.27,-149.03 -30.65,-146.06 -29.93,-142.74 -29.22,-139.42 -28.66,-135.93 -28.10,-132.44 -27.69,-128.48 -27.27,-124.52 -27.12,-121.86 -26.97,-119.19 -26.70,-116.64 -26.43,-114.09 -26.05,-111.53 -25.67,-108.98 -25.12,-106.15 -24.57,-103.32 -23.93,-100.28 -23.29,-97.25 -22.74,-94.80 -22.20,-92.35 -21.66,-89.91 -21.11,-87.47 -20.39,-84.83 -19.66,-82.20 -18.60,-79.10 -17.53,-76.01 -16.74,-73.69 -15.94,-71.38 -15.25,-69.16 -14.56,-66.93 -13.96,-64.70 -13.36,-62.46 -12.72,-60.02 -12.08,-57.57 -11.29,-54.61 -10.50,-51.65 -9.68,-49.15 -8.86,-46.65 -8.09,-44.19 -7.32,-41.74 -6.70,-39.38 -6.07,-37.01 -5.54,-34.46 -5.00,-31.91 -4.30,-28.68 -3.60,-25.45 -2.34,-21.98 -1.08,-18.51 -0.17,-16.24 0.73,-13.98 1.71,-11.73 2.69,-9.48 2.71,-5.33 2.73,-1.18 2.83,-0.83 2.94,-0.49 2.95,-0.13 2.97,0.22 2.90,0.57 2.83,0.92 2.68,1.25 2.52,1.57 2.30,1.85 2.07,2.13 1.79,2.35 1.50,2.57 1.17,2.71 0.84,2.86 0.49,2.91 0.13,2.97 -0.22,2.95 -0.58,2.92 -0.92,2.81 -1.26,2.70 -1.56,2.51 -1.87,2.32 -2.12,2.06 -2.37,1.80 -2.55,1.49 -2.73,1.18 -2.73,1.18 L -2.73,1.18 Z"></path></g><g transform="translate(88.40802520023317 516.7332817782353) rotate(0 -21.578455767238665 20.624205875012194)" stroke="none"><path fill="#1e1e1e" d="M 2.12,2.29 Q 2.12,2.29 -0.59,6.35 -3.32,10.42 -6.16,13.26 -9.00,16.10 -11.87,18.99 -14.73,21.88 -16.91,24.02 -19.08,26.15 -24.20,30.41 -29.33,34.68 -32.34,37.38 -35.35,40.08 -38.12,41.53 -40.89,42.99 -41.22,43.25 -41.55,43.52 -41.95,43.67 -42.35,43.82 -42.77,43.83 -43.20,43.85 -43.60,43.73 -44.01,43.60 -44.36,43.36 -44.70,43.11 -44.95,42.77 -45.20,42.42 -45.33,42.02 -45.46,41.61 -45.45,41.19 -45.44,40.76 -45.29,40.36 -45.15,39.96 -44.89,39.63 -44.62,39.30 -44.26,39.07 -43.91,38.84 -43.50,38.73 -43.08,38.63 -42.66,38.66 -42.24,38.69 -41.85,38.86 -41.45,39.02 -41.14,39.30 -40.82,39.59 -40.61,39.95 -40.40,40.32 -40.31,40.74 -40.23,41.16 -40.29,41.58 -40.34,42.00 -40.53,42.38 -40.71,42.76 -41.01,43.07 -41.31,43.37 -41.69,43.56 -42.07,43.75 -42.49,43.81 -42.91,43.87 -43.33,43.79 -43.75,43.71 -44.12,43.51 -44.49,43.30 -44.78,42.99 -45.06,42.67 -45.23,42.28 -45.40,41.89 -45.44,41.47 -45.48,41.04 -45.38,40.63 -45.28,40.22 -45.05,39.86 -44.82,39.50 -44.82,39.50 -44.82,39.50 -43.44,36.27 -42.05,33.03 -39.04,30.00 -36.02,26.97 -31.33,22.71 -26.63,18.45 -24.51,16.36 -22.39,14.28 -19.50,11.38 -16.61,8.47 -13.62,5.50 -10.64,2.52 -6.38,0.11 -2.12,-2.29 -1.82,-2.51 -1.51,-2.73 -1.16,-2.87 -0.81,-3.02 -0.44,-3.07 -0.07,-3.12 0.30,-3.09 0.67,-3.05 1.03,-2.92 1.39,-2.80 1.70,-2.59 2.02,-2.38 2.27,-2.11 2.53,-1.83 2.71,-1.50 2.89,-1.17 2.99,-0.81 3.09,-0.44 3.10,-0.07 3.11,0.30 3.03,0.67 2.95,1.04 2.78,1.38 2.61,1.71 2.37,2.00 2.12,2.29 2.12,2.29 L 2.12,2.29 Z"></path></g><g transform="translate(142.53142466022837 507.75210632199196) rotate(0 -29.623107335446548 30.44145786221543)" stroke="none"><path fill="#1e1e1e" d="M 2.28,2.42 Q 2.28,2.42 -0.27,6.10 -2.83,9.79 -5.97,12.80 -9.11,15.81 -11.40,17.98 -13.69,20.16 -18.13,24.98 -22.57,29.80 -26.26,33.87 -29.96,37.93 -33.23,41.35 -36.50,44.76 -39.27,47.49 -42.04,50.21 -44.30,52.30 -46.56,54.40 -48.16,55.89 -49.77,57.38 -51.88,59.47 -54.00,61.57 -54.32,62.00 -54.63,62.43 -54.85,62.66 -55.06,62.89 -55.33,63.06 -55.59,63.23 -55.89,63.34 -56.19,63.44 -56.51,63.47 -56.82,63.50 -57.14,63.46 -57.45,63.41 -57.74,63.29 -58.03,63.17 -58.29,62.98 -58.55,62.80 -58.75,62.56 -58.95,62.31 -59.09,62.03 -59.23,61.74 -59.30,61.44 -59.37,61.13 -59.36,60.81 -59.35,60.49 -59.27,60.19 -59.18,59.88 -59.03,59.61 -58.88,59.33 -56.84,59.22 -54.81,59.11 -54.58,59.46 -54.35,59.82 -54.24,60.23 -54.14,60.64 -54.17,61.07 -54.20,61.49 -54.36,61.88 -54.53,62.27 -54.81,62.59 -55.09,62.91 -55.46,63.12 -55.83,63.34 -56.24,63.42 -56.66,63.50 -57.08,63.45 -57.50,63.40 -57.88,63.21 -58.27,63.02 -58.57,62.73 -58.87,62.43 -59.07,62.05 -59.26,61.67 -59.32,61.25 -59.38,60.83 -59.30,60.41 -59.23,59.99 -59.02,59.62 -58.82,59.25 -58.50,58.96 -58.19,58.68 -57.80,58.51 -57.41,58.33 -56.99,58.30 -56.56,58.26 -56.15,58.36 -55.74,58.46 -55.38,58.68 -55.02,58.91 -54.75,59.24 -54.48,59.57 -54.33,59.96 -54.18,60.36 -54.16,60.79 -54.15,61.21 -54.27,61.62 -54.39,62.02 -54.64,62.37 -54.88,62.72 -55.22,62.97 -55.57,63.22 -55.97,63.35 -56.38,63.48 -56.80,63.47 -57.23,63.46 -57.63,63.32 -58.03,63.18 -56.33,62.80 -54.63,62.43 -54.85,62.66 -55.06,62.89 -55.33,63.06 -55.59,63.23 -55.89,63.34 -56.19,63.44 -56.51,63.47 -56.82,63.50 -57.14,63.46 -57.45,63.41 -57.74,63.29 -58.03,63.17 -58.29,62.98 -58.55,62.80 -58.75,62.56 -58.95,62.31 -59.09,62.03 -59.23,61.75 -59.30,61.44 -59.37,61.13 -59.36,60.81 -59.35,60.49 -59.27,60.19 -59.18,59.88 -59.03,59.61 -58.88,59.33 -59.49,56.16 -60.10,52.98 -58.66,51.25 -57.22,49.52 -55.60,47.95 -53.99,46.39 -51.84,44.39 -49.68,42.39 -47.02,39.81 -44.36,37.23 -41.19,33.92 -38.02,30.61 -34.27,26.48 -30.52,22.35 -25.76,17.36 -21.00,12.38 -18.67,10.21 -16.33,8.04 -13.13,5.16 -9.94,2.27 -6.11,-0.07 -2.28,-2.42 -1.96,-2.66 -1.64,-2.89 -1.27,-3.05 -0.90,-3.20 -0.50,-3.26 -0.10,-3.33 0.29,-3.29 0.69,-3.25 1.07,-3.12 1.45,-2.99 1.79,-2.78 2.12,-2.56 2.40,-2.27 2.68,-1.97 2.87,-1.63 3.07,-1.28 3.18,-0.89 3.29,-0.50 3.30,-0.10 3.31,0.29 3.23,0.68 3.15,1.08 2.97,1.44 2.80,1.80 2.54,2.11 2.28,2.42 2.28,2.42 L 2.28,2.42 Z"></path></g><g transform="translate(200.02276491631528 501.20530210783545) rotate(0 -34.88773057986327 39.19514959802109)" stroke="none"><path fill="#1e1e1e" d="M 2.91,2.54 Q 2.91,2.54 -0.61,7.86 -4.14,13.18 -7.27,16.67 -10.41,20.16 -13.21,23.21 -16.01,26.27 -18.72,29.32 -21.43,32.37 -25.14,36.78 -28.86,41.20 -32.53,45.33 -36.19,49.47 -39.82,53.41 -43.45,57.35 -46.79,60.93 -50.13,64.52 -52.81,67.49 -55.50,70.45 -57.68,73.01 -59.85,75.56 -63.77,76.64 -67.69,77.71 -67.92,77.94 -68.14,78.16 -68.41,78.33 -68.68,78.49 -68.98,78.59 -69.28,78.69 -69.60,78.71 -69.91,78.73 -70.23,78.67 -70.54,78.62 -70.83,78.49 -71.12,78.36 -71.37,78.17 -71.62,77.97 -71.81,77.72 -72.01,77.48 -72.14,77.19 -72.27,76.90 -72.33,76.59 -72.39,76.28 -72.37,75.96 -72.36,75.65 -72.26,75.34 -72.17,75.04 -72.01,74.77 -71.85,74.50 -72.09,75.58 -72.34,76.66 -72.36,76.24 -72.38,75.81 -72.27,75.40 -72.15,75.00 -71.91,74.64 -71.67,74.29 -71.33,74.04 -71.00,73.78 -70.59,73.65 -70.19,73.51 -69.76,73.51 -69.34,73.51 -68.94,73.65 -68.53,73.79 -68.20,74.05 -67.86,74.30 -67.62,74.66 -67.38,75.01 -67.27,75.42 -67.16,75.83 -67.18,76.25 -67.21,76.68 -67.36,77.07 -67.52,77.46 -67.80,77.79 -68.08,78.11 -68.44,78.33 -68.80,78.55 -69.22,78.64 -69.64,78.73 -70.06,78.68 -70.48,78.63 -70.86,78.45 -71.25,78.27 -71.56,77.98 -71.87,77.69 -72.06,77.31 -72.26,76.94 -72.33,76.52 -72.40,76.10 -72.33,75.68 -72.26,75.26 -72.06,74.88 -71.86,74.51 -71.55,74.22 -71.24,73.93 -70.85,73.75 -70.47,73.57 -70.04,73.53 -69.62,73.48 -69.21,73.57 -68.79,73.67 -68.43,73.89 -68.06,74.11 -67.79,74.43 -67.52,74.76 -67.60,76.23 -67.69,77.71 -67.92,77.94 -68.14,78.16 -68.41,78.33 -68.68,78.49 -68.98,78.59 -69.28,78.69 -69.60,78.71 -69.91,78.73 -70.23,78.67 -70.54,78.62 -70.83,78.49 -71.12,78.36 -71.37,78.17 -71.62,77.97 -71.81,77.72 -72.01,77.48 -72.14,77.19 -72.27,76.90 -72.33,76.59 -72.39,76.28 -72.37,75.96 -72.36,75.65 -72.26,75.34 -72.17,75.04 -72.01,74.77 -71.85,74.50 -71.69,73.08 -71.53,71.66 -70.09,69.83 -68.65,67.99 -66.32,65.32 -64.00,62.65 -61.24,59.68 -58.48,56.72 -55.14,53.16 -51.80,49.60 -48.23,45.78 -44.66,41.95 -41.08,37.92 -37.51,33.89 -33.67,29.38 -29.84,24.87 -27.06,21.76 -24.28,18.64 -21.49,15.63 -18.70,12.62 -15.60,9.25 -12.50,5.89 -7.71,1.67 -2.91,-2.54 -2.57,-2.85 -2.22,-3.17 -1.81,-3.39 -1.39,-3.61 -0.94,-3.72 -0.49,-3.84 -0.02,-3.84 0.43,-3.84 0.89,-3.73 1.34,-3.63 1.76,-3.41 2.17,-3.20 2.52,-2.89 2.88,-2.58 3.14,-2.20 3.41,-1.82 3.58,-1.38 3.75,-0.95 3.81,-0.49 3.87,-0.02 3.81,0.43 3.76,0.89 3.60,1.33 3.44,1.77 3.17,2.16 2.91,2.54 2.91,2.54 L 2.91,2.54 Z"></path></g><g transform="translate(261.75652884186275 504.7032336013199) rotate(0 -33.791672654117065 38.05477666180104)" stroke="none"><path fill="#1e1e1e" d="M 3.11,2.29 Q 3.11,2.29 0.76,6.90 -1.59,11.50 -4.26,15.61 -6.94,19.71 -9.35,23.24 -11.76,26.76 -14.64,30.42 -17.52,34.09 -21.06,37.90 -24.61,41.70 -29.44,46.27 -34.26,50.83 -39.58,55.85 -44.90,60.87 -48.44,64.29 -51.98,67.72 -54.47,70.20 -56.96,72.69 -58.46,74.38 -59.95,76.07 -60.85,77.24 -61.75,78.40 -62.30,78.88 -62.84,79.36 -63.49,79.70 -64.13,80.03 -64.84,80.20 -65.55,80.38 -66.28,80.37 -67.00,80.37 -67.71,80.19 -68.41,80.01 -69.06,79.67 -69.70,79.33 -70.24,78.85 -70.78,78.36 -71.19,77.76 -71.60,77.16 -71.86,76.48 -72.11,75.80 -72.20,75.08 -72.28,74.36 -72.19,73.63 -72.10,72.91 -71.84,72.23 -71.58,71.55 -71.16,70.96 -70.75,70.36 -68.03,69.62 -65.32,68.88 -62.03,68.37 -58.75,67.86 -58.34,67.72 -57.94,67.58 -57.52,67.57 -57.09,67.57 -56.69,67.70 -56.29,67.83 -55.94,68.08 -55.60,68.34 -55.36,68.68 -55.12,69.03 -55.00,69.44 -54.88,69.85 -54.90,70.27 -54.91,70.70 -55.07,71.10 -55.22,71.49 -55.49,71.82 -55.76,72.15 -56.12,72.37 -56.48,72.59 -56.90,72.69 -57.31,72.79 -57.73,72.75 -58.16,72.71 -58.55,72.53 -58.93,72.36 -59.25,72.07 -59.56,71.78 -59.76,71.41 -59.96,71.04 -60.04,70.62 -60.11,70.20 -60.05,69.78 -59.99,69.36 -59.79,68.98 -59.60,68.60 -59.29,68.31 -58.99,68.01 -58.60,67.83 -58.22,67.64 -57.80,67.59 -57.38,67.54 -56.96,67.63 -56.54,67.71 -56.18,67.93 -55.81,68.14 -55.53,68.46 -55.25,68.78 -55.09,69.18 -54.93,69.57 -54.90,69.99 -54.87,70.42 -54.98,70.83 -55.09,71.24 -55.32,71.59 -55.56,71.95 -55.89,72.21 -56.23,72.47 -56.23,72.47 -56.23,72.47 -58.99,75.44 -61.75,78.40 -62.30,78.88 -62.84,79.36 -63.49,79.70 -64.13,80.03 -64.84,80.20 -65.55,80.38 -66.27,80.37 -67.00,80.37 -67.71,80.19 -68.41,80.02 -69.06,79.67 -69.70,79.33 -70.24,78.85 -70.78,78.36 -71.19,77.76 -71.60,77.16 -71.86,76.48 -72.11,75.80 -72.20,75.08 -72.28,74.36 -72.19,73.63 -72.10,72.91 -71.84,72.23 -71.58,71.56 -71.16,70.96 -70.75,70.36 -69.85,69.20 -68.95,68.03 -67.20,66.10 -65.45,64.17 -62.89,61.62 -60.33,59.07 -56.73,55.60 -53.14,52.12 -47.79,47.09 -42.44,42.06 -37.80,37.80 -33.16,33.55 -29.88,30.19 -26.60,26.83 -23.89,23.52 -21.19,20.21 -18.78,16.78 -16.37,13.36 -13.44,9.15 -10.51,4.95 -6.81,1.32 -3.11,-2.29 -2.79,-2.63 -2.47,-2.97 -2.08,-3.22 -1.69,-3.48 -1.25,-3.63 -0.81,-3.78 -0.34,-3.82 0.11,-3.87 0.57,-3.80 1.04,-3.73 1.47,-3.55 1.90,-3.37 2.27,-3.09 2.65,-2.81 2.95,-2.46 3.25,-2.10 3.45,-1.68 3.66,-1.26 3.75,-0.80 3.85,-0.35 3.84,0.11 3.82,0.58 3.70,1.03 3.57,1.48 3.34,1.88 3.11,2.29 3.11,2.29 L 3.11,2.29 Z"></path></g><g transform="translate(306.95783952624697 510.94869574424774) rotate(0 -29.182911564728784 35.313154680421576)" stroke="none"><path fill="#1e1e1e" d="M 2.43,2.00 Q 2.43,2.00 -0.95,8.03 -4.34,14.06 -8.53,20.02 -12.72,25.98 -16.47,31.22 -20.23,36.46 -24.05,41.30 -27.87,46.13 -31.59,50.47 -35.31,54.81 -38.51,58.48 -41.71,62.14 -44.59,65.44 -47.48,68.75 -50.25,70.93 -53.03,73.12 -55.88,71.65 -58.73,70.18 -59.13,70.05 -59.54,69.93 -59.88,69.68 -60.23,69.43 -60.47,69.08 -60.72,68.73 -60.84,68.33 -60.97,67.92 -60.95,67.49 -60.94,67.07 -60.79,66.67 -60.64,66.27 -60.37,65.94 -60.10,65.61 -59.75,65.39 -59.39,65.16 -58.97,65.06 -58.56,64.96 -58.14,65.00 -57.71,65.03 -57.32,65.20 -56.93,65.37 -56.62,65.66 -56.31,65.94 -56.10,66.31 -55.89,66.69 -55.81,67.10 -55.73,67.52 -55.79,67.94 -55.85,68.36 -56.04,68.74 -56.24,69.12 -56.54,69.42 -56.84,69.72 -57.22,69.91 -57.60,70.09 -58.02,70.15 -58.45,70.20 -58.86,70.12 -59.28,70.04 -59.65,69.83 -60.02,69.62 -60.30,69.30 -60.58,68.98 -60.75,68.59 -60.91,68.20 -60.95,67.78 -60.98,67.35 -60.87,66.94 -60.77,66.53 -60.54,66.17 -60.31,65.81 -59.97,65.55 -59.64,65.29 -59.24,65.14 -58.84,65.00 -58.42,64.99 -57.99,64.98 -57.99,64.98 -57.99,64.98 -57.41,62.62 -56.82,60.27 -53.88,57.15 -50.94,54.03 -47.75,50.43 -44.55,46.82 -40.95,42.69 -37.35,38.56 -33.65,33.97 -29.94,29.38 -26.08,24.19 -22.22,18.99 -17.60,12.96 -12.98,6.93 -7.71,2.46 -2.43,-2.00 -2.16,-2.27 -1.88,-2.53 -1.55,-2.72 -1.22,-2.91 -0.85,-3.01 -0.49,-3.11 -0.11,-3.13 0.27,-3.14 0.64,-3.06 1.01,-2.99 1.35,-2.82 1.70,-2.66 1.99,-2.41 2.28,-2.17 2.51,-1.87 2.74,-1.56 2.89,-1.21 3.03,-0.86 3.09,-0.48 3.15,-0.11 3.12,0.26 3.09,0.64 2.96,1.00 2.84,1.36 2.64,1.68 2.43,2.01 2.43,2.00 L 2.43,2.00 Z"></path></g><g transform="translate(344.554694413142 533.7797891409082) rotate(0 -19.235668880132835 19.71131665922985)" stroke="none"><path fill="#1e1e1e" d="M 3.38,3.12 Q 3.38,3.12 0.03,7.79 -3.32,12.46 -7.95,17.55 -12.58,22.63 -16.72,26.85 -20.86,31.07 -24.05,34.23 -27.24,37.39 -30.48,38.24 -33.71,39.08 -33.94,39.44 -34.17,39.79 -34.50,40.06 -34.83,40.33 -35.22,40.48 -35.62,40.62 -36.05,40.64 -36.47,40.65 -36.88,40.53 -37.29,40.40 -37.63,40.16 -37.98,39.91 -38.23,39.57 -38.48,39.22 -38.60,38.82 -38.73,38.41 -38.72,37.98 -38.71,37.56 -38.56,37.16 -38.42,36.76 -38.15,36.43 -37.89,36.10 -37.53,35.87 -37.17,35.64 -36.76,35.53 -36.35,35.43 -35.92,35.46 -35.50,35.50 -35.11,35.66 -34.72,35.83 -34.40,36.11 -34.08,36.39 -33.87,36.76 -33.66,37.13 -33.58,37.55 -33.50,37.97 -33.56,38.39 -33.61,38.81 -33.80,39.19 -33.99,39.57 -34.29,39.87 -34.59,40.18 -34.97,40.37 -35.35,40.56 -35.77,40.61 -36.19,40.67 -36.61,40.59 -37.02,40.52 -37.40,40.31 -37.77,40.10 -38.05,39.78 -38.34,39.47 -38.50,39.08 -38.67,38.69 -38.71,38.26 -38.75,37.84 -38.64,37.43 -38.54,37.02 -38.54,37.02 -38.54,37.02 -37.24,32.79 -35.94,28.56 -32.79,25.49 -29.65,22.41 -25.61,18.33 -21.58,14.26 -16.86,9.29 -12.15,4.33 -7.77,0.60 -3.38,-3.12 -2.96,-3.48 -2.54,-3.84 -2.04,-4.09 -1.54,-4.33 -1.00,-4.46 -0.46,-4.58 0.08,-4.57 0.64,-4.56 1.18,-4.41 1.71,-4.27 2.20,-4.00 2.69,-3.74 3.09,-3.36 3.50,-2.98 3.81,-2.52 4.12,-2.06 4.30,-1.53 4.49,-1.01 4.55,-0.46 4.60,0.08 4.52,0.63 4.45,1.18 4.24,1.70 4.03,2.22 3.71,2.67 3.38,3.12 3.38,3.12 L 3.38,3.12 Z"></path></g></svg>