<?xml version="1.0" standalone="no"?>
<!DOCTYPE svg PUBLIC "-//W3C//DTD SVG 1.1//EN" "http://www.w3.org/Graphics/SVG/1.1/DTD/svg11.dtd">
<svg version="1.1" xmlns="http://www.w3.org/2000/svg" viewBox="0 0 594.3285869800802 512.8386782651542" width="594.3285869800802" height="512.8386782651542"><!-- svg-source:excalidraw --><metadata></metadata><defs><style class="style-fonts">
      </style></defs><g transform="translate(191.5364223174438 12.702592942056071) rotate(0 95.70082209365228 243.75063725656673)" stroke="none"><path d="M0 0 C-1.43 2.15, -4.34 7.14, -8.6 12.89 C-12.85 18.63, -15.42 22.58, -25.53 34.47 C-35.64 46.35, -54.95 67.22, -69.28 84.19 C-83.61 101.16, -101.01 121.11, -111.5 136.29 C-121.99 151.46, -126.16 162.81, -132.23 175.21 C-138.3 187.62, -140.66 196, -147.91 210.73 C-155.16 225.47, -170.12 252.21, -175.73 263.61 C-181.33 275.01, -180.82 275.06, -181.54 279.14 C-182.25 283.21, -182.38 283.74, -180.02 288.08 C-177.67 292.42, -171.09 300.72, -167.38 305.19 C-163.67 309.66, -165.74 307.55, -157.77 314.92 C-149.81 322.29, -129.74 340.66, -119.59 349.39 C-109.43 358.11, -102.4 362.1, -96.83 367.27 C-91.27 372.44, -90.3 374.59, -86.21 380.42 C-82.13 386.26, -77.92 396.17, -72.31 402.27 C-66.71 408.36, -58.12 412.52, -52.59 416.99 C-47.07 421.47, -47.57 420.55, -39.19 429.1 C-30.8 437.65, -10.54 459.84, -2.28 468.3 C5.98 476.76, 6.32 476.63, 10.37 479.87 C14.41 483.12, 18.92 486.06, 22 487.77 C25.07 489.48, 25.28 489.83, 28.82 490.14 C32.36 490.44, 33.71 492.42, 43.24 489.62 C52.76 486.81, 60.01 481.41, 85.97 473.3 C111.93 465.18, 178.8 446.77, 198.99 440.94 C219.17 435.11, 202.99 440.19, 207.08 438.31 C211.16 436.42, 215.71 432.52, 223.51 429.63 C231.31 426.73, 243.86 430.02, 253.85 420.95 C263.84 411.87, 272.86 393.27, 283.44 375.16 C294.01 357.05, 307.66 328.64, 317.31 312.29 C326.96 295.93, 335.81 287.12, 341.33 277.03 C346.85 266.95, 346.27 261.64, 350.44 251.78 C354.61 241.91, 362.91 225.65, 366.36 217.84 C369.82 210.04, 370.08 208.8, 371.17 204.94 C372.27 201.08, 372.64 197.71, 372.94 194.69 C373.23 191.67, 373.4 189.08, 372.94 186.8 C372.48 184.52, 374.96 187.28, 370.16 181.01 C365.36 174.73, 350.02 156.67, 344.12 149.17 C338.22 141.68, 338.39 140.36, 334.76 136.02 C331.14 131.68, 325.74 126.99, 322.37 123.13 C318.99 119.27, 328.9 128.48, 314.53 112.87 C300.16 97.26, 249.89 44.02, 236.15 29.46 C222.42 14.91, 233.79 26.75, 232.11 25.52 C230.42 24.29, 229.03 23.24, 226.04 22.1 C223.05 20.96, 217.91 20.17, 214.15 18.68 C210.4 17.19, 208 16.53, 203.53 13.15 C199.07 9.78, 190.9 1.05, 187.36 -1.58 C183.82 -4.21, 187.23 -2.5, 182.3 -2.63 C177.37 -2.77, 163.88 -2.85, 157.77 -2.37 C151.66 -1.89, 154.53 -1.05, 145.64 0.27 C136.75 1.58, 115.3 3.81, 104.42 5.52 C93.55 7.24, 93.59 9.65, 80.4 10.53 C67.21 11.41, 37.42 10.26, 25.29 10.78 C13.15 11.31, 10.96 13.99, 7.59 13.68 C4.22 13.38, 5.98 9.78, 5.06 8.95 C4.13 8.11, 4.55 7.76, 2.02 8.68 C-0.51 9.6, -8.26 14.08, -10.11 14.47 C-11.96 14.87, -10.36 12.67, -9.1 11.05 C-7.84 9.43, -4.05 6.58, -2.53 4.74 C-1.02 2.9, -0.42 0.79, 0 0" stroke="none" stroke-width="0" fill="#1971c2" fill-rule="evenodd"></path><path fill="#1971c2" d="M 5.11,3.50 Q 5.11,3.50 4.11,9.83 3.12,16.16 0.37,19.88 -2.37,23.59 -6.36,28.82 -10.35,34.05 -14.17,38.74 -17.99,43.42 -21.34,47.44 -24.70,51.46 -27.78,55.14 -30.86,58.82 -33.64,62.09 -36.42,65.36 -39.77,69.27 -43.13,73.18 -46.40,76.76 -49.68,80.34 -52.73,83.74 -55.77,87.15 -58.84,90.80 -61.92,94.45 -65.10,98.22 -68.29,101.99 -71.71,106.10 -75.12,110.20 -79.72,115.94 -84.33,121.69 -89.32,127.94 -94.31,134.20 -97.62,138.98 -100.93,143.75 -103.64,148.69 -106.35,153.63 -109.72,159.82 -113.10,166.01 -115.99,171.40 -118.89,176.79 -121.80,182.93 -124.71,189.08 -126.82,194.10 -128.93,199.11 -130.88,203.67 -132.83,208.22 -134.97,212.70 -137.12,217.18 -139.81,222.14 -142.50,227.10 -145.13,232.05 -147.76,237.00 -150.82,242.83 -153.88,248.66 -156.40,253.58 -158.91,258.50 -161.85,264.45 -164.79,270.40 -166.46,274.46 -168.14,278.52 -164.58,285.24 -161.02,291.96 -157.53,295.92 -154.05,299.88 -149.83,303.90 -145.61,307.92 -140.03,313.25 -134.45,318.59 -129.80,322.91 -125.14,327.23 -121.10,330.80 -117.07,334.37 -113.54,337.28 -110.02,340.19 -105.74,343.44 -101.45,346.68 -97.68,349.75 -93.92,352.81 -90.39,356.13 -86.87,359.46 -83.58,363.27 -80.29,367.08 -77.26,371.41 -74.24,375.73 -71.28,380.37 -68.32,385.00 -65.07,389.00 -61.82,392.99 -58.03,395.91 -54.24,398.82 -48.50,403.35 -42.76,407.87 -38.16,411.94 -33.55,416.01 -29.52,420.10 -25.49,424.20 -20.91,429.10 -16.33,434.01 -13.17,437.29 -10.01,440.57 -5.36,445.41 -0.71,450.26 3.16,454.25 7.04,458.24 10.24,461.21 13.44,464.19 17.25,467.28 21.06,470.37 25.06,473.09 29.07,475.80 36.43,475.01 43.79,474.21 48.15,472.66 52.52,471.11 57.21,469.36 61.89,467.61 67.45,465.55 73.02,463.49 77.71,461.89 82.40,460.28 89.15,458.13 95.89,455.98 101.17,454.48 106.46,452.98 112.16,451.29 117.87,449.61 123.91,447.87 129.96,446.13 136.51,444.34 143.06,442.56 150.23,440.44 157.41,438.31 163.00,436.74 168.59,435.17 172.78,434.14 176.98,433.12 183.61,431.18 190.23,429.24 194.82,427.81 199.41,426.38 204.33,423.91 209.25,421.43 214.93,418.97 220.61,416.52 225.86,415.05 231.12,413.58 235.69,412.47 240.26,411.37 245.35,406.04 250.44,400.71 255.29,393.27 260.13,385.83 263.59,380.61 267.05,375.39 269.62,371.18 272.18,366.97 274.43,362.95 276.68,358.93 278.82,355.04 280.96,351.14 284.58,344.36 288.20,337.59 291.72,330.95 295.25,324.30 298.93,317.59 302.62,310.88 305.38,306.29 308.14,301.70 310.56,297.86 312.99,294.02 315.38,290.40 317.78,286.78 320.28,283.29 322.78,279.79 326.36,274.01 329.95,268.23 331.79,263.29 333.64,258.34 336.06,252.05 338.49,245.76 340.90,240.83 343.32,235.91 345.92,230.00 348.52,224.10 350.54,219.77 352.55,215.45 354.14,211.35 355.72,207.25 357.16,202.99 358.60,198.72 358.95,193.71 359.29,188.71 356.33,185.04 353.38,181.37 349.88,177.52 346.38,173.67 342.46,168.97 338.55,164.27 335.66,160.80 332.77,157.33 329.26,152.54 325.75,147.76 322.04,143.77 318.33,139.78 314.43,135.39 310.54,131.00 307.91,127.63 305.27,124.26 301.24,120.04 297.20,115.82 292.99,111.28 288.79,106.74 285.05,102.59 281.32,98.43 277.88,94.69 274.44,90.95 270.93,87.48 267.43,84.01 262.59,79.04 257.75,74.08 253.43,69.18 249.11,64.28 245.99,60.70 242.87,57.12 239.06,53.19 235.25,49.25 232.01,45.95 228.76,42.64 225.51,39.57 222.26,36.49 217.48,34.90 212.70,33.31 207.60,30.89 202.50,28.47 196.99,25.21 191.47,21.96 187.79,18.60 184.10,15.24 179.17,13.55 174.23,11.85 168.78,11.83 163.32,11.81 157.79,12.75 152.26,13.69 145.88,14.56 139.50,15.43 134.94,16.15 130.37,16.88 125.92,17.58 121.48,18.28 116.81,18.78 112.15,19.29 105.92,20.30 99.69,21.31 94.64,22.34 89.58,23.38 84.96,24.10 80.33,24.81 75.08,25.01 69.82,25.21 64.43,25.22 59.03,25.24 52.95,25.22 46.88,25.20 42.18,25.20 37.49,25.20 32.42,25.21 27.34,25.22 21.22,26.21 15.10,27.20 8.13,26.32 1.15,25.44 -1.88,22.10 -4.93,18.76 -0.71,21.28 3.51,23.81 0.73,25.05 -2.04,26.29 -3.66,26.98 -5.27,27.68 -7.01,27.97 -8.75,28.25 -10.51,28.11 -12.26,27.98 -13.94,27.42 -15.61,26.87 -17.10,25.93 -18.59,24.99 -19.81,23.72 -21.04,22.45 -21.92,20.93 -22.80,19.41 -23.30,17.72 -23.79,16.02 -23.87,14.26 -23.94,12.50 -23.59,10.78 -23.24,9.05 -22.49,7.46 -21.74,5.86 -20.63,4.50 -19.52,3.13 -18.11,2.07 -16.71,1.01 -20.14,5.57 -23.57,10.13 -21.46,5.56 -19.35,0.99 -11.88,-0.93 -4.40,-2.85 -3.83,-3.48 -3.26,-4.11 -2.52,-4.52 -1.78,-4.94 -0.94,-5.09 -0.11,-5.25 0.73,-5.13 1.57,-5.01 2.33,-4.63 3.09,-4.24 3.68,-3.64 4.28,-3.03 4.65,-2.27 5.03,-1.51 5.14,-0.66 5.25,0.17 5.08,1.00 4.91,1.84 4.49,2.57 4.07,3.31 3.43,3.88 2.80,4.44 2.01,4.77 1.23,5.10 0.38,5.16 -0.45,5.23 -1.28,5.02 -2.10,4.81 -2.81,4.35 -3.53,3.88 -4.06,3.22 -4.58,2.55 -4.87,1.75 -5.16,0.95 -5.18,0.10 -5.20,-0.74 -4.94,-1.55 -4.69,-2.36 -4.19,-3.05 -3.69,-3.73 -2.99,-4.22 -2.30,-4.72 -1.49,-4.96 -0.67,-5.20 0.17,-5.18 1.02,-5.15 1.81,-4.85 2.61,-4.55 3.27,-4.01 3.93,-3.48 4.38,-2.76 4.83,-2.04 5.03,-1.21 5.23,-0.39 5.16,0.45 5.08,1.30 4.74,2.07 4.40,2.85 4.40,2.85 4.40,2.85 4.77,8.51 5.14,14.17 1.55,20.23 -2.04,26.29 -3.65,26.98 -5.27,27.68 -7.01,27.96 -8.75,28.25 -10.51,28.11 -12.26,27.98 -13.93,27.42 -15.61,26.87 -17.10,25.93 -18.59,24.99 -19.81,23.72 -21.04,22.46 -21.92,20.93 -22.80,19.41 -23.30,17.72 -23.79,16.03 -23.87,14.27 -23.94,12.51 -23.59,10.78 -23.24,9.05 -22.49,7.46 -21.74,5.87 -20.63,4.50 -19.52,3.13 -18.11,2.07 -16.71,1.01 -13.69,-0.43 -10.68,-1.88 -4.91,-3.62 0.86,-5.36 4.92,-3.14 8.98,-0.91 13.47,-1.69 17.97,-2.48 22.64,-3.06 27.31,-3.65 32.40,-3.64 37.49,-3.63 42.18,-3.63 46.88,-3.63 52.95,-3.65 59.02,-3.67 64.22,-3.68 69.42,-3.69 74.80,-3.93 80.19,-4.17 84.55,-5.05 88.91,-5.94 93.87,-6.98 98.84,-8.02 103.10,-8.66 107.36,-9.30 112.16,-9.78 116.95,-10.25 121.25,-10.93 125.55,-11.61 131.25,-12.49 136.95,-13.36 141.83,-14.01 146.72,-14.66 153.07,-15.77 159.43,-16.89 165.63,-16.98 171.83,-17.07 177.45,-16.95 183.06,-16.82 188.65,-15.36 194.23,-13.89 198.36,-10.65 202.49,-7.41 206.28,-3.69 210.08,0.02 214.60,2.38 219.13,4.74 224.00,6.39 228.87,8.05 234.45,10.93 240.03,13.80 244.23,17.73 248.43,21.65 252.14,25.41 255.85,29.16 260.05,33.49 264.26,37.83 267.57,41.64 270.88,45.46 274.76,49.87 278.65,54.28 283.23,59.00 287.81,63.71 291.14,67.02 294.47,70.32 298.64,74.84 302.81,79.37 306.50,83.49 310.19,87.62 314.09,91.83 317.98,96.04 322.86,101.25 327.73,106.45 331.28,111.01 334.82,115.56 338.41,119.43 342.01,123.29 345.33,127.10 348.65,130.91 351.33,134.63 354.00,138.34 356.96,142.18 359.92,146.03 362.71,149.50 365.50,152.97 369.13,157.23 372.76,161.48 375.38,164.98 378.00,168.48 380.81,173.21 383.62,177.95 385.07,183.35 386.51,188.76 386.17,194.17 385.83,199.57 384.81,204.54 383.79,209.51 382.21,213.63 380.63,217.75 378.86,222.29 377.10,226.83 375.25,230.71 373.41,234.60 370.37,241.44 367.34,248.29 365.44,252.15 363.54,256.01 361.39,261.65 359.24,267.28 356.50,274.24 353.76,281.21 349.28,288.39 344.80,295.58 340.36,302.01 335.92,308.44 333.64,312.08 331.36,315.72 328.87,319.82 326.38,323.91 322.81,330.45 319.25,336.99 315.65,343.73 312.06,350.47 308.41,357.30 304.75,364.13 302.54,368.21 300.32,372.28 297.81,376.71 295.29,381.13 292.45,385.73 289.61,390.33 286.17,395.53 282.73,400.74 278.05,407.94 273.36,415.14 270.02,420.59 266.68,426.05 261.71,430.08 256.74,434.11 251.99,435.74 247.23,437.38 242.54,438.52 237.85,439.67 232.30,441.32 226.75,442.97 222.06,445.52 217.36,448.07 212.35,450.27 207.33,452.47 202.66,453.99 197.99,455.51 190.72,457.61 183.45,459.72 177.34,461.21 171.23,462.71 164.83,464.65 158.44,466.59 154.29,467.79 150.13,468.99 143.82,470.70 137.50,472.42 131.47,474.16 125.45,475.90 119.62,477.61 113.80,479.33 109.04,480.67 104.29,482.00 97.78,484.08 91.27,486.16 86.89,487.66 82.51,489.16 76.98,491.20 71.44,493.24 66.45,495.10 61.46,496.96 55.72,498.91 49.97,500.86 43.87,502.11 37.76,503.36 32.75,503.36 27.75,503.37 21.44,501.34 15.13,499.32 10.92,496.52 6.71,493.73 3.07,491.04 -0.56,488.35 -4.06,484.99 -7.55,481.63 -10.92,478.42 -14.29,475.21 -17.33,472.16 -20.37,469.12 -25.03,464.24 -29.69,459.37 -32.88,456.00 -36.07,452.64 -40.76,447.58 -45.44,442.52 -48.45,439.42 -51.46,436.32 -55.76,432.43 -60.07,428.53 -65.12,424.33 -70.18,420.13 -75.60,415.65 -81.02,411.16 -85.82,405.11 -90.61,399.06 -95.49,391.51 -100.37,383.95 -105.41,378.45 -110.44,372.95 -113.91,370.07 -117.38,367.20 -121.92,363.59 -126.46,359.99 -130.35,356.74 -134.24,353.50 -138.42,349.69 -142.59,345.89 -147.34,341.41 -152.09,336.94 -157.68,331.55 -163.26,326.15 -168.22,321.28 -173.18,316.42 -177.59,311.23 -182.01,306.04 -185.27,300.92 -188.53,295.81 -190.65,290.21 -192.77,284.61 -192.83,279.10 -192.89,273.59 -191.02,268.40 -189.16,263.21 -187.21,258.89 -185.26,254.57 -183.16,250.59 -181.05,246.61 -178.63,241.84 -176.20,237.07 -173.04,231.04 -169.87,225.00 -167.24,220.09 -164.61,215.17 -162.15,210.60 -159.69,206.03 -157.69,201.91 -155.69,197.79 -153.90,193.66 -152.12,189.53 -149.86,184.14 -147.61,178.76 -144.36,171.95 -141.12,165.14 -138.03,159.46 -134.94,153.77 -131.57,147.71 -128.19,141.65 -125.07,136.03 -121.95,130.41 -117.78,124.60 -113.61,118.78 -108.57,112.66 -103.52,106.54 -98.58,100.53 -93.65,94.51 -90.14,90.44 -86.64,86.38 -83.47,82.68 -80.30,78.97 -76.97,75.02 -73.63,71.06 -70.49,67.60 -67.34,64.13 -64.28,60.80 -61.22,57.46 -55.11,50.48 -49.00,43.51 -45.92,39.88 -42.84,36.26 -39.55,32.34 -36.25,28.42 -32.64,24.06 -29.02,19.69 -22.61,11.29 -16.20,2.89 -10.66,-0.30 -5.11,-3.50 -4.61,-4.06 -4.12,-4.62 -3.50,-5.05 -2.89,-5.48 -2.19,-5.74 -1.49,-6.01 -0.75,-6.10 -0.01,-6.19 0.72,-6.11 1.46,-6.02 2.16,-5.76 2.86,-5.49 3.48,-5.07 4.09,-4.65 4.59,-4.09 5.09,-3.53 5.44,-2.87 5.79,-2.21 5.97,-1.48 6.15,-0.76 6.15,-0.01 6.15,0.73 5.97,1.45 5.80,2.18 5.45,2.84 5.11,3.50 5.11,3.50 L 5.11,3.50 Z"></path></g><g transform="translate(160.68299550822667 73.16957026493401) rotate(0 63.488638340354555 171.77679793678817)" stroke="none"><path d="M0 0 C-0.78 2.26, -3.22 10.22, -4.68 13.55 C-6.14 16.87, -6.48 16.47, -8.77 19.94 C-11.07 23.42, -8.63 21.23, -18.43 34.4 C-28.23 47.57, -55.27 81.26, -67.58 98.94 C-79.9 116.62, -84.09 127.58, -92.31 140.5 C-100.52 153.41, -109.03 163.79, -116.88 176.42 C-124.73 189.05, -137.99 207.14, -139.41 216.3 C-140.82 225.46, -130.51 226.63, -125.36 231.37 C-120.22 236.12, -114.2 240.86, -108.54 244.77 C-102.89 248.67, -99.4 250.68, -91.43 254.81 C-83.46 258.95, -67.19 266.23, -60.71 269.58 C-54.22 272.93, -60.66 267.52, -52.52 274.9 C-44.37 282.28, -25.23 301.87, -11.85 313.87 C1.54 325.87, 17.9 339.22, 27.79 346.9 C37.69 354.59, 40.76 353.12, 47.54 359.99 C54.32 366.87, 61.54 386.78, 68.46 388.15 C75.39 389.52, 80.61 377.37, 89.09 368.21 C97.58 359.05, 108.94 344.52, 119.37 333.2 C129.81 321.89, 141.48 311.46, 151.7 300.33 C161.91 289.19, 170.98 276.66, 180.66 266.38 C190.34 256.11, 203.83 244.56, 209.78 238.67 C215.72 232.79, 209.58 241.54, 216.36 231.06 C223.14 220.59, 242.11 187.96, 250.44 175.81 C258.78 163.66, 269.87 165.92, 266.39 158.15 C262.9 150.39, 247.95 145.87, 229.52 129.23 C211.09 112.59, 181.2 80.85, 155.79 58.29 C130.39 35.74, 93.8 8.77, 77.1 -6.09 C60.4 -20.96, 61.68 -24.74, 55.59 -30.9 C49.49 -37.07, 44.54 -40.82, 40.52 -43.08 C36.5 -45.34, 37.35 -49.6, 31.45 -44.45 C25.55 -39.3, 10.17 -18.75, 5.12 -12.18 C0.08 -5.61, 1.66 -5.61, 1.17 -5.02 C0.68 -4.44, 2.39 -9.52, 2.19 -8.68 C2 -7.84, 0.37 -1.45, 0 0" stroke="none" stroke-width="0" fill="#fffefe" fill-rule="evenodd"></path><path fill="#1e1e1e" d="M 3.28,1.44 Q 3.28,1.44 1.77,7.62 0.25,13.80 -2.59,19.02 -5.44,24.24 -7.74,28.09 -10.04,31.93 -17.02,41.42 -24.00,50.91 -29.80,58.71 -35.60,66.51 -40.80,73.44 -45.99,80.36 -50.79,86.76 -55.60,93.16 -59.90,99.39 -64.21,105.62 -68.89,113.41 -73.57,121.19 -77.38,127.66 -81.20,134.13 -84.50,139.48 -87.79,144.83 -90.48,148.94 -93.17,153.06 -95.69,156.63 -98.22,160.19 -99.61,162.10 -101.01,164.02 -102.13,166.27 -103.24,168.52 -104.62,170.68 -105.99,172.83 -107.30,174.84 -108.62,176.86 -110.41,179.41 -112.21,181.96 -113.37,184.05 -114.53,186.13 -115.49,188.12 -116.44,190.11 -117.75,192.58 -119.05,195.04 -120.66,197.83 -122.26,200.61 -123.47,202.39 -124.67,204.17 -126.32,207.01 -127.96,209.85 -129.07,211.68 -130.18,213.52 -131.33,215.37 -132.49,217.23 -128.57,219.59 -124.65,221.95 -121.24,225.15 -117.82,228.34 -113.98,231.43 -110.13,234.51 -106.16,237.28 -102.18,240.05 -98.12,242.52 -94.05,245.00 -88.77,247.78 -83.49,250.57 -78.69,252.93 -73.89,255.30 -69.22,257.59 -64.54,259.88 -59.98,262.50 -55.43,265.12 -50.22,269.06 -45.01,273.00 -40.91,276.74 -36.81,280.48 -33.20,283.97 -29.59,287.47 -26.11,290.86 -22.63,294.25 -18.18,298.39 -13.73,302.53 -9.81,306.01 -5.90,309.50 -2.20,312.66 1.49,315.83 5.05,318.84 8.62,321.85 11.78,324.46 14.95,327.07 18.14,329.67 21.33,332.27 23.40,333.93 25.47,335.60 27.55,337.37 29.63,339.13 32.24,341.09 34.84,343.05 37.86,344.99 40.87,346.94 43.09,348.28 45.31,349.63 48.00,351.47 50.69,353.31 52.80,355.54 54.91,357.78 57.00,360.43 59.10,363.08 60.89,365.28 62.69,367.48 64.84,370.47 66.99,373.46 68.55,375.74 70.11,378.02 71.35,379.86 72.59,381.71 70.22,381.46 67.85,381.22 70.29,377.71 72.73,374.21 75.99,371.03 79.24,367.86 82.53,364.41 85.81,360.95 89.15,357.21 92.50,353.47 96.68,348.58 100.86,343.69 104.67,339.34 108.48,334.99 112.15,330.95 115.83,326.91 120.22,322.35 124.61,317.79 128.17,314.21 131.73,310.64 134.71,307.68 137.70,304.73 140.26,302.08 142.81,299.44 145.16,296.88 147.50,294.31 149.65,291.94 151.79,289.56 154.21,286.86 156.64,284.16 158.68,281.87 160.72,279.58 162.53,277.50 164.33,275.42 166.30,272.99 168.27,270.56 170.28,268.10 172.28,265.63 174.89,262.83 177.50,260.02 180.64,256.87 183.79,253.72 187.64,250.03 191.48,246.35 195.40,242.69 199.31,239.03 202.72,235.44 206.12,231.85 208.23,229.29 210.34,226.73 212.00,224.41 213.65,222.09 215.69,218.99 217.72,215.90 219.26,213.33 220.79,210.76 222.09,208.42 223.39,206.08 224.75,203.70 226.10,201.32 227.45,199.01 228.79,196.70 230.33,194.35 231.87,191.99 233.63,189.58 235.39,187.16 237.20,184.59 239.00,182.01 240.56,179.39 242.12,176.77 243.62,174.20 245.11,171.63 246.41,169.87 247.70,168.11 249.13,166.48 250.56,164.85 252.80,162.49 255.04,160.13 257.52,157.82 260.01,155.51 259.26,158.19 258.52,160.87 254.02,157.50 249.52,154.13 246.61,151.99 243.69,149.85 240.75,147.70 237.81,145.54 234.02,142.38 230.23,139.22 227.04,136.37 223.86,133.52 220.87,130.70 217.89,127.88 214.02,124.02 210.15,120.15 206.65,116.79 203.15,113.43 199.77,110.34 196.38,107.24 193.27,104.35 190.15,101.47 187.34,98.75 184.54,96.02 182.00,93.41 179.46,90.80 176.58,87.92 173.70,85.03 171.28,82.63 168.85,80.23 166.71,78.19 164.58,76.15 161.90,73.62 159.22,71.09 156.87,68.96 154.52,66.84 152.35,64.97 150.17,63.09 148.00,61.22 145.83,59.35 143.72,57.69 141.61,56.03 139.56,54.52 137.52,53.01 134.98,51.00 132.44,48.99 130.30,47.15 128.16,45.30 126.27,43.58 124.38,41.86 122.61,40.21 120.84,38.56 118.58,36.58 116.33,34.61 114.46,33.05 112.59,31.48 110.93,30.16 109.27,28.83 105.98,26.34 102.70,23.85 100.66,22.18 98.63,20.51 96.93,18.99 95.24,17.47 92.22,15.08 89.20,12.68 86.32,10.62 83.44,8.55 80.43,5.99 77.42,3.43 74.26,0.66 71.10,-2.10 68.86,-4.40 66.62,-6.71 64.08,-9.73 61.53,-12.75 60.11,-14.45 58.69,-16.15 57.06,-18.11 55.43,-20.07 53.97,-21.86 52.51,-23.65 50.06,-25.64 47.62,-27.64 44.70,-30.19 41.78,-32.74 39.46,-34.70 37.14,-36.67 34.92,-37.06 32.71,-37.46 30.71,-33.52 28.71,-29.58 27.22,-27.78 25.72,-25.98 23.30,-23.05 20.87,-20.12 19.42,-18.35 17.97,-16.59 15.60,-13.65 13.24,-10.72 11.41,-8.37 9.59,-6.02 8.86,-4.53 8.14,-3.04 7.68,-2.31 7.22,-1.58 6.61,-0.98 5.99,-0.38 5.24,0.04 4.50,0.48 3.68,0.72 2.85,0.96 1.99,1.00 1.13,1.04 0.29,0.87 -0.55,0.71 -1.33,0.34 -2.11,-0.01 -2.78,-0.55 -3.45,-1.09 -3.97,-1.78 -4.49,-2.47 -4.83,-3.26 -5.17,-4.05 -5.32,-4.89 -5.46,-5.74 -5.39,-6.60 -5.33,-7.46 -5.06,-8.28 -4.79,-9.10 0.05,-7.65 4.90,-6.20 4.69,-5.87 4.48,-5.54 4.20,-5.26 3.92,-4.99 3.59,-4.79 3.25,-4.60 2.88,-4.49 2.50,-4.38 2.11,-4.36 1.72,-4.34 1.34,-4.42 0.96,-4.49 0.60,-4.66 0.25,-4.82 -0.04,-5.07 -0.35,-5.31 -0.58,-5.62 -0.82,-5.93 -0.97,-6.29 -1.13,-6.65 -1.19,-7.04 -1.26,-7.42 -1.23,-7.81 -1.20,-8.20 -1.08,-8.57 -0.96,-8.94 0.79,-4.14 2.54,0.66 2.36,1.04 2.19,1.43 1.91,1.75 1.62,2.06 1.25,2.27 0.87,2.47 0.46,2.55 0.04,2.62 -0.37,2.56 -0.79,2.50 -1.17,2.30 -1.55,2.11 -1.85,1.81 -2.14,1.50 -2.33,1.12 -2.51,0.74 -2.57,0.32 -2.62,-0.09 -2.54,-0.51 -2.45,-0.93 -2.24,-1.30 -2.02,-1.66 -1.70,-1.94 -1.39,-2.22 -0.99,-2.39 -0.60,-2.55 -0.18,-2.58 0.24,-2.61 0.65,-2.50 1.06,-2.40 1.41,-2.16 1.77,-1.93 2.03,-1.60 2.30,-1.26 2.44,-0.86 2.58,-0.46 2.59,-0.04 2.59,0.38 2.46,0.78 2.34,1.19 2.08,1.53 1.83,1.87 1.48,2.12 1.14,2.36 0.73,2.48 0.32,2.60 -0.09,2.59 -0.52,2.57 -0.92,2.42 -1.31,2.27 -1.64,2.00 -1.97,1.73 -2.19,1.37 -2.42,1.01 -2.52,0.59 -2.62,0.18 -2.58,-0.23 -2.54,-0.66 -2.54,-0.66 -2.54,-0.66 1.18,-3.43 4.90,-6.20 4.69,-5.87 4.48,-5.54 4.20,-5.26 3.92,-4.99 3.59,-4.79 3.25,-4.60 2.88,-4.49 2.50,-4.38 2.11,-4.36 1.72,-4.34 1.34,-4.42 0.96,-4.49 0.60,-4.66 0.25,-4.82 -0.04,-5.07 -0.35,-5.31 -0.58,-5.62 -0.82,-5.93 -0.97,-6.29 -1.13,-6.65 -1.19,-7.03 -1.26,-7.42 -1.23,-7.81 -1.20,-8.20 -1.08,-8.57 -0.96,-8.94 3.59,-5.99 8.14,-3.04 7.68,-2.31 7.22,-1.58 6.61,-0.98 5.99,-0.38 5.25,0.04 4.50,0.47 3.68,0.72 2.85,0.96 1.99,1.00 1.13,1.04 0.29,0.87 -0.55,0.71 -1.33,0.34 -2.11,-0.01 -2.78,-0.55 -3.45,-1.09 -3.97,-1.78 -4.49,-2.46 -4.83,-3.25 -5.17,-4.05 -5.32,-4.89 -5.46,-5.74 -5.39,-6.60 -5.33,-7.46 -5.06,-8.28 -4.79,-9.10 -3.99,-10.77 -3.19,-12.45 -1.97,-14.29 -0.75,-16.12 0.81,-18.08 2.37,-20.03 4.73,-22.95 7.10,-25.86 8.45,-27.51 9.80,-29.17 12.26,-32.14 14.73,-35.12 16.27,-36.97 17.81,-38.82 19.74,-41.10 21.68,-43.37 24.33,-46.33 26.99,-49.28 29.39,-50.30 31.79,-51.32 35.28,-50.96 38.78,-50.60 41.11,-49.92 43.44,-49.25 45.53,-47.84 47.62,-46.43 49.42,-44.89 51.22,-43.35 53.70,-41.17 56.18,-38.99 57.95,-37.72 59.72,-36.45 61.54,-34.72 63.37,-32.99 65.02,-30.96 66.68,-28.94 68.16,-27.15 69.65,-25.36 71.07,-23.65 72.49,-21.94 74.88,-19.12 77.28,-16.30 79.07,-14.46 80.85,-12.61 83.84,-10.01 86.82,-7.40 89.38,-5.20 91.95,-3.00 94.93,-0.86 97.91,1.26 99.76,2.68 101.62,4.10 104.68,6.76 107.75,9.42 111.21,12.16 114.67,14.89 116.45,16.23 118.23,17.57 120.04,19.02 121.86,20.46 123.83,22.13 125.80,23.79 128.22,25.91 130.65,28.03 132.36,29.62 134.08,31.22 135.83,32.82 137.59,34.42 139.47,36.06 141.35,37.70 143.73,39.58 146.11,41.45 148.32,43.10 150.52,44.75 152.86,46.61 155.20,48.46 157.38,50.33 159.55,52.20 161.86,54.19 164.17,56.18 166.63,58.41 169.10,60.64 171.81,63.20 174.51,65.75 176.73,67.87 178.95,70.00 181.42,72.44 183.90,74.88 186.83,77.82 189.76,80.76 192.16,83.22 194.56,85.68 197.25,88.28 199.95,90.88 203.04,93.75 206.12,96.61 209.63,99.82 213.13,103.03 216.73,106.49 220.34,109.95 224.07,113.67 227.81,117.40 230.65,120.08 233.49,122.77 236.48,125.46 239.48,128.15 242.91,131.03 246.33,133.90 249.29,136.06 252.25,138.23 255.29,140.48 258.34,142.73 263.09,146.56 267.84,150.39 269.64,152.48 271.44,154.57 271.67,157.19 271.90,159.81 270.63,162.76 269.37,165.72 267.20,167.70 265.04,169.69 262.90,171.93 260.75,174.17 259.21,176.02 257.66,177.87 256.41,179.75 255.17,181.62 254.13,183.53 253.09,185.45 251.74,187.59 250.40,189.72 248.45,192.49 246.51,195.26 244.94,197.42 243.37,199.58 242.02,201.60 240.67,203.63 239.36,205.86 238.06,208.10 236.75,210.42 235.43,212.75 234.01,215.31 232.60,217.87 230.91,220.66 229.22,223.45 227.03,226.78 224.85,230.11 222.89,232.82 220.94,235.53 218.53,238.42 216.12,241.32 212.44,245.20 208.76,249.08 204.92,252.71 201.08,256.34 197.36,259.92 193.64,263.49 190.67,266.51 187.69,269.53 185.40,271.97 183.11,274.42 181.11,276.89 179.12,279.37 177.00,281.97 174.88,284.58 173.01,286.72 171.15,288.87 169.11,291.17 167.06,293.47 164.62,296.22 162.18,298.96 160.00,301.36 157.83,303.77 155.35,306.47 152.87,309.17 150.21,311.92 147.56,314.66 144.61,317.60 141.66,320.53 138.19,324.01 134.72,327.50 130.48,331.93 126.23,336.36 122.67,340.29 119.10,344.23 115.36,348.55 111.63,352.87 107.36,357.89 103.09,362.91 99.61,366.83 96.13,370.75 92.67,374.40 89.20,378.05 85.88,381.31 82.55,384.57 79.41,387.54 76.28,390.52 73.21,392.14 70.15,393.76 65.57,391.99 60.99,390.21 59.58,388.13 58.17,386.05 56.65,383.83 55.14,381.62 53.28,379.01 51.41,376.40 49.77,374.39 48.13,372.38 46.71,370.69 45.29,369.00 43.48,366.74 41.67,364.48 39.76,363.17 37.85,361.87 35.64,360.52 33.44,359.18 30.06,356.97 26.69,354.76 23.45,352.18 20.21,349.61 18.43,348.07 16.65,346.53 14.56,344.84 12.47,343.15 9.24,340.53 6.01,337.90 2.78,335.23 -0.44,332.55 -4.02,329.51 -7.61,326.47 -11.41,323.22 -15.21,319.97 -19.24,316.38 -23.28,312.80 -27.84,308.55 -32.40,304.30 -35.88,300.92 -39.36,297.54 -42.82,294.18 -46.29,290.82 -49.91,287.49 -53.53,284.15 -57.99,280.70 -62.44,277.26 -66.58,274.87 -70.71,272.48 -75.41,270.18 -80.10,267.88 -85.08,265.42 -90.06,262.95 -95.71,259.95 -101.35,256.94 -105.78,254.22 -110.21,251.50 -114.55,248.43 -118.89,245.36 -123.12,241.92 -127.36,238.49 -131.08,234.97 -134.80,231.46 -137.95,228.07 -141.10,224.69 -142.56,222.76 -144.02,220.83 -144.83,218.01 -145.64,215.19 -144.42,211.74 -143.21,208.29 -141.88,206.12 -140.55,203.94 -139.39,201.98 -138.22,200.01 -136.89,197.86 -135.55,195.71 -134.39,193.91 -133.23,192.12 -132.15,190.24 -131.06,188.37 -129.91,186.26 -128.76,184.14 -127.61,181.80 -126.46,179.46 -125.12,177.13 -123.77,174.80 -121.81,172.03 -119.85,169.26 -118.26,166.87 -116.66,164.48 -115.35,162.52 -114.04,160.55 -112.71,158.49 -111.38,156.43 -110.00,154.55 -108.62,152.67 -106.19,149.39 -103.76,146.11 -101.15,142.14 -98.53,138.17 -95.27,132.94 -92.00,127.70 -88.11,121.21 -84.22,114.73 -79.26,106.65 -74.31,98.57 -69.81,92.20 -65.31,85.83 -60.48,79.45 -55.64,73.08 -50.42,66.21 -45.21,59.34 -39.38,51.58 -33.56,43.82 -26.84,34.82 -20.11,25.82 -17.89,22.20 -15.66,18.58 -13.00,13.85 -10.34,9.13 -6.81,3.84 -3.28,-1.44 -3.06,-1.81 -2.84,-2.19 -2.54,-2.49 -2.23,-2.80 -1.86,-3.03 -1.50,-3.26 -1.08,-3.39 -0.67,-3.52 -0.24,-3.55 0.18,-3.58 0.61,-3.51 1.03,-3.43 1.43,-3.26 1.83,-3.08 2.17,-2.82 2.51,-2.56 2.78,-2.22 3.05,-1.88 3.23,-1.48 3.41,-1.09 3.50,-0.67 3.58,-0.24 3.55,0.18 3.53,0.61 3.41,1.03 3.28,1.44 3.28,1.44 L 3.28,1.44 Z"></path></g><g transform="translate(212.46656241514756 27.655100173195024) rotate(0 93.69670381406922 -8.827550086597512)" stroke="none"><path fill="#1e1e1e" d="M -0.57,-3.77 Q -0.57,-3.77 4.12,-5.70 8.82,-7.63 13.09,-8.27 17.37,-8.90 22.01,-9.59 26.65,-10.28 30.17,-10.79 33.69,-11.30 41.28,-12.23 48.87,-13.15 54.95,-13.79 61.04,-14.43 66.45,-14.97 71.86,-15.50 76.97,-15.99 82.09,-16.48 88.34,-17.00 94.59,-17.52 99.84,-17.88 105.10,-18.25 109.99,-18.54 114.88,-18.82 119.57,-19.08 124.26,-19.33 130.36,-19.85 136.46,-20.37 141.95,-20.91 147.44,-21.44 152.32,-21.89 157.21,-22.34 161.15,-22.62 165.10,-22.90 167.76,-23.02 170.41,-23.14 172.77,-23.21 175.13,-23.29 178.40,-23.67 181.67,-24.05 184.49,-22.16 187.31,-20.28 187.73,-20.22 188.15,-20.16 188.53,-19.98 188.91,-19.79 189.22,-19.49 189.52,-19.19 189.71,-18.81 189.90,-18.43 189.96,-18.01 190.01,-17.59 189.94,-17.17 189.86,-16.75 189.65,-16.38 189.44,-16.01 189.13,-15.73 188.81,-15.44 188.42,-15.27 188.03,-15.10 187.61,-15.07 187.18,-15.03 186.77,-15.13 186.36,-15.23 186.00,-15.46 185.64,-15.69 185.37,-16.02 185.11,-16.35 184.96,-16.75 184.81,-17.15 184.80,-17.57 184.78,-18.00 184.91,-18.40 185.03,-18.81 185.28,-19.16 185.53,-19.50 185.87,-19.75 186.21,-20.00 186.62,-20.13 187.03,-20.25 187.45,-20.24 187.88,-20.23 188.27,-20.09 188.67,-19.94 189.01,-19.68 189.34,-19.41 189.57,-19.05 189.80,-18.70 189.90,-18.28 190.01,-17.87 189.97,-17.45 189.94,-17.02 189.77,-16.63 189.61,-16.24 189.32,-15.93 189.04,-15.61 188.67,-15.40 188.30,-15.19 187.88,-15.11 187.47,-15.02 187.47,-15.02 187.47,-15.02 186.09,-12.95 184.71,-10.88 182.58,-10.71 180.44,-10.54 177.93,-10.33 175.41,-10.13 173.21,-10.06 171.01,-10.00 168.52,-9.88 166.03,-9.77 162.21,-9.50 158.39,-9.23 153.53,-8.80 148.66,-8.37 143.09,-7.87 137.51,-7.37 131.23,-6.89 124.95,-6.41 120.29,-6.16 115.62,-5.91 110.79,-5.64 105.96,-5.37 100.81,-5.03 95.65,-4.70 89.48,-4.19 83.32,-3.68 78.22,-3.19 73.11,-2.71 67.74,-2.18 62.37,-1.65 56.36,-1.03 50.34,-0.41 42.90,0.40 35.47,1.21 31.94,1.69 28.42,2.18 23.80,2.81 19.18,3.44 14.93,4.05 10.69,4.65 5.63,4.21 0.57,3.77 0.11,3.78 -0.34,3.80 -0.79,3.70 -1.24,3.60 -1.65,3.40 -2.07,3.20 -2.42,2.91 -2.77,2.61 -3.05,2.24 -3.32,1.87 -3.50,1.45 -3.67,1.02 -3.74,0.57 -3.81,0.11 -3.77,-0.34 -3.73,-0.80 -3.58,-1.23 -3.43,-1.67 -3.18,-2.05 -2.93,-2.44 -2.59,-2.75 -2.26,-3.07 -1.86,-3.29 -1.46,-3.52 -1.01,-3.64 -0.57,-3.77 -0.57,-3.77 L -0.57,-3.77 Z"></path></g><g transform="translate(435.1169923771049 228.5793576663309) rotate(0 65.46213347350294 -12.024139508852386)" stroke="none"><path fill="#1e1e1e" d="M -0.86,-4.79 Q -0.86,-4.79 7.06,-6.85 14.98,-8.92 23.40,-10.54 31.83,-12.15 41.15,-13.82 50.47,-15.48 59.96,-17.01 69.46,-18.53 78.43,-19.83 87.40,-21.13 96.93,-22.36 106.45,-23.60 112.76,-24.37 119.07,-25.15 122.26,-25.56 125.44,-25.98 126.21,-25.98 126.98,-25.98 127.73,-25.80 128.48,-25.61 129.16,-25.26 129.85,-24.90 130.43,-24.39 131.01,-23.87 131.44,-23.24 131.88,-22.61 132.16,-21.88 132.43,-21.16 132.53,-20.40 132.62,-19.63 132.53,-18.86 132.44,-18.10 132.16,-17.37 131.89,-16.65 131.45,-16.02 131.01,-15.38 130.44,-14.87 129.86,-14.36 129.18,-14.00 128.49,-13.64 127.74,-13.45 127.00,-13.27 124.46,-18.14 121.92,-23.02 121.82,-23.43 121.72,-23.84 121.75,-24.26 121.79,-24.69 121.96,-25.08 122.13,-25.47 122.42,-25.78 122.70,-26.10 123.07,-26.31 123.44,-26.51 123.86,-26.59 124.28,-26.67 124.70,-26.61 125.12,-26.55 125.50,-26.36 125.88,-26.17 126.18,-25.87 126.48,-25.57 126.66,-25.18 126.85,-24.80 126.91,-24.38 126.96,-23.96 126.88,-23.54 126.80,-23.13 126.59,-22.76 126.38,-22.39 126.06,-22.11 125.74,-21.82 125.35,-21.66 124.96,-21.49 124.54,-21.46 124.11,-21.43 123.70,-21.53 123.29,-21.64 122.93,-21.87 122.57,-22.10 122.31,-22.43 122.04,-22.76 121.90,-23.16 121.76,-23.56 121.75,-23.98 121.74,-24.41 121.86,-24.82 121.99,-25.22 122.24,-25.56 122.49,-25.91 122.83,-26.16 123.18,-26.40 123.59,-26.52 123.99,-26.65 124.42,-26.63 124.84,-26.62 125.24,-26.47 125.64,-26.32 125.97,-26.06 126.30,-25.79 126.53,-25.43 126.75,-25.07 126.75,-25.07 126.75,-25.07 126.10,-25.52 125.44,-25.98 126.21,-25.98 126.98,-25.98 127.73,-25.80 128.48,-25.61 129.16,-25.26 129.85,-24.90 130.43,-24.39 131.00,-23.88 131.44,-23.24 131.88,-22.61 132.16,-21.88 132.43,-21.16 132.53,-20.40 132.62,-19.63 132.53,-18.86 132.44,-18.10 132.16,-17.38 131.89,-16.65 131.45,-16.02 131.02,-15.38 130.44,-14.87 129.86,-14.36 129.18,-14.00 128.49,-13.64 127.75,-13.45 127.00,-13.27 123.81,-12.85 120.63,-12.43 114.35,-11.66 108.06,-10.89 98.63,-9.72 89.21,-8.55 80.31,-7.29 71.40,-6.03 62.00,-4.61 52.60,-3.19 43.37,-1.64 34.14,-0.09 25.64,1.52 17.15,3.14 9.00,3.96 0.86,4.79 0.27,4.82 -0.31,4.85 -0.88,4.75 -1.46,4.64 -1.99,4.40 -2.53,4.15 -2.99,3.79 -3.45,3.43 -3.81,2.96 -4.17,2.50 -4.41,1.96 -4.65,1.43 -4.75,0.85 -4.86,0.27 -4.82,-0.30 -4.78,-0.89 -4.60,-1.45 -4.43,-2.01 -4.12,-2.51 -3.82,-3.01 -3.40,-3.42 -2.98,-3.84 -2.48,-4.14 -1.98,-4.44 -1.42,-4.61 -0.86,-4.79 -0.86,-4.79 L -0.86,-4.79 Z"></path></g><g transform="translate(407.0271844040908 22.024139508852386) rotate(0 88.6507012879947 196.58729513466096)" stroke="none"><path fill="#1e1e1e" d="M 1.47,-5.51 Q 1.47,-5.51 4.64,-4.88 7.80,-4.25 10.57,-3.23 13.33,-2.21 15.68,-1.08 18.03,0.04 20.49,1.39 22.96,2.73 26.21,4.50 29.47,6.26 32.36,8.00 35.25,9.73 38.21,11.68 41.17,13.63 44.33,16.04 47.49,18.45 51.48,22.09 55.47,25.74 58.95,29.23 62.43,32.72 65.88,36.29 69.33,39.86 72.71,43.24 76.09,46.62 79.27,49.56 82.44,52.49 86.19,56.36 89.94,60.23 92.97,63.63 96.00,67.04 98.65,70.24 101.29,73.45 103.69,76.48 106.08,79.52 108.36,82.31 110.64,85.11 113.41,88.49 116.18,91.87 118.33,94.58 120.48,97.30 122.26,99.72 124.04,102.13 125.58,104.40 127.13,106.66 128.74,108.93 130.35,111.20 132.71,114.37 135.07,117.54 137.42,121.05 139.77,124.57 141.14,126.48 142.52,128.39 143.97,130.27 145.42,132.15 146.82,133.90 148.23,135.65 150.61,138.46 153.00,141.27 154.92,143.43 156.84,145.60 158.61,147.50 160.37,149.39 162.17,151.67 163.98,153.96 166.57,156.45 169.16,158.95 171.44,161.06 173.71,163.16 175.80,165.29 177.88,167.41 180.23,170.17 182.58,172.93 183.53,175.67 184.48,178.40 184.07,181.32 183.67,184.23 182.70,187.15 181.73,190.07 180.53,192.97 179.34,195.87 177.88,198.87 176.43,201.88 174.91,204.76 173.40,207.65 171.35,211.34 169.30,215.04 167.34,218.34 165.38,221.65 163.46,224.82 161.55,228.00 159.54,231.26 157.53,234.51 154.86,238.60 152.18,242.70 150.14,245.83 148.09,248.96 146.55,251.30 145.00,253.65 143.83,255.48 142.65,257.32 141.43,259.14 140.20,260.96 138.44,263.21 136.67,265.46 135.17,267.20 133.66,268.93 130.89,271.86 128.11,274.78 126.15,276.92 124.20,279.05 122.37,281.16 120.54,283.27 118.71,285.44 116.88,287.60 115.14,289.69 113.40,291.78 111.88,293.73 110.37,295.68 108.45,298.18 106.54,300.69 105.04,302.57 103.53,304.45 101.04,307.43 98.55,310.42 96.10,313.54 93.64,316.67 92.11,318.52 90.57,320.37 88.17,323.47 85.78,326.58 84.45,328.50 83.11,330.41 81.25,333.58 79.39,336.75 77.71,339.96 76.02,343.18 74.89,345.34 73.75,347.50 72.19,350.29 70.63,353.08 69.03,355.76 67.42,358.44 66.01,360.47 64.60,362.49 62.23,365.45 59.85,368.42 58.07,370.90 56.28,373.39 54.35,376.02 52.43,378.65 50.39,381.32 48.35,383.99 46.79,386.10 45.23,388.22 43.28,391.10 41.33,393.97 39.86,395.61 38.39,397.25 33.90,396.05 29.41,394.85 29.01,394.72 28.61,394.58 28.27,394.32 27.93,394.07 27.69,393.71 27.46,393.36 27.34,392.95 27.23,392.54 27.25,392.12 27.27,391.69 27.43,391.30 27.59,390.90 27.87,390.58 28.14,390.26 28.50,390.04 28.87,389.82 29.28,389.73 29.70,389.64 30.12,389.68 30.54,389.73 30.93,389.91 31.32,390.09 31.62,390.38 31.93,390.67 32.13,391.05 32.33,391.42 32.40,391.84 32.47,392.26 32.40,392.68 32.33,393.10 32.13,393.48 31.93,393.85 31.62,394.14 31.31,394.43 30.93,394.61 30.54,394.79 30.12,394.84 29.70,394.88 29.28,394.79 28.87,394.70 28.50,394.48 28.14,394.26 27.86,393.94 27.59,393.61 27.43,393.22 27.27,392.82 27.25,392.40 27.23,391.97 27.34,391.56 27.46,391.15 27.70,390.80 27.93,390.45 28.27,390.19 28.61,389.94 29.01,389.80 29.42,389.67 29.84,389.67 30.27,389.67 30.27,389.67 30.27,389.67 29.26,387.91 28.25,386.15 29.89,384.00 31.52,381.85 33.04,379.57 34.56,377.29 36.60,374.56 38.65,371.84 40.39,369.58 42.14,367.32 44.21,364.44 46.28,361.56 48.28,359.00 50.28,356.44 51.95,354.22 53.61,352.00 55.13,349.63 56.64,347.27 58.04,344.77 59.45,342.27 60.63,340.12 61.82,337.98 62.99,335.72 64.16,333.47 65.17,331.55 66.17,329.62 67.27,327.62 68.36,325.61 69.57,323.73 70.79,321.84 72.24,319.75 73.70,317.66 74.98,315.91 76.27,314.16 77.66,312.45 79.04,310.74 80.41,309.10 81.79,307.46 84.41,304.12 87.02,300.78 89.42,297.93 91.81,295.07 93.21,293.31 94.62,291.56 96.58,289.00 98.54,286.45 100.20,284.33 101.86,282.20 103.64,280.06 105.41,277.91 107.31,275.67 109.20,273.43 111.17,271.15 113.15,268.88 116.55,265.24 119.95,261.61 122.44,258.88 124.92,256.15 127.49,252.68 130.06,249.21 131.28,247.32 132.51,245.42 134.04,243.10 135.57,240.78 137.59,237.68 139.61,234.57 142.16,230.59 144.71,226.60 146.67,223.41 148.64,220.22 150.53,217.08 152.42,213.94 154.27,210.84 156.12,207.74 158.09,204.18 160.06,200.62 161.46,197.97 162.86,195.32 164.12,192.71 165.39,190.09 166.42,187.61 167.45,185.13 168.46,182.17 169.46,179.20 167.45,177.17 165.44,175.13 163.79,173.40 162.14,171.67 159.42,169.32 156.70,166.97 154.87,165.03 153.04,163.09 151.49,161.11 149.95,159.14 148.03,157.07 146.12,155.00 144.19,152.82 142.26,150.63 139.69,147.60 137.13,144.56 135.64,142.70 134.14,140.84 132.54,138.75 130.93,136.67 129.47,134.61 128.01,132.55 126.62,130.49 125.23,128.44 123.38,125.77 121.52,123.09 120.14,121.24 118.75,119.38 117.09,117.01 115.42,114.64 114.01,112.57 112.60,110.50 110.99,108.29 109.38,106.07 107.31,103.45 105.24,100.83 102.45,97.42 99.65,94.00 97.32,91.11 95.00,88.22 92.71,85.29 90.42,82.36 87.97,79.35 85.52,76.34 82.70,73.15 79.88,69.96 76.40,66.35 72.92,62.74 69.56,59.60 66.21,56.47 62.75,52.99 59.28,49.50 55.93,45.98 52.57,42.46 49.33,39.15 46.10,35.84 42.61,32.54 39.12,29.24 36.35,27.06 33.58,24.87 30.91,23.01 28.24,21.16 25.59,19.50 22.94,17.84 19.69,15.93 16.44,14.03 12.52,11.71 8.60,9.40 6.62,8.49 4.63,7.57 1.58,6.54 -1.47,5.51 -2.10,5.25 -2.74,4.99 -3.30,4.59 -3.86,4.19 -4.30,3.67 -4.75,3.14 -5.06,2.53 -5.37,1.91 -5.52,1.24 -5.67,0.57 -5.66,-0.10 -5.64,-0.79 -5.46,-1.46 -5.29,-2.12 -4.96,-2.72 -4.63,-3.32 -4.16,-3.83 -3.69,-4.34 -3.12,-4.72 -2.55,-5.09 -1.90,-5.33 -1.25,-5.56 -0.57,-5.63 0.10,-5.70 0.79,-5.60 1.47,-5.51 1.47,-5.51 L 1.47,-5.51 Z"></path></g><g transform="translate(447.6965466839101 256.2851022152299) rotate(0 52.80872081590678 -6.165695124072045)" stroke="none"><path fill="#1e1e1e" d="M -0.97,-3.97 Q -0.97,-3.97 5.21,-6.36 11.40,-8.74 18.75,-9.89 26.10,-11.03 37.03,-12.15 47.97,-13.26 57.93,-14.16 67.88,-15.07 76.20,-15.76 84.52,-16.44 90.13,-16.87 95.74,-17.29 98.45,-16.12 101.17,-14.95 101.49,-14.93 101.80,-14.92 102.11,-14.83 102.41,-14.74 102.69,-14.58 102.96,-14.42 103.19,-14.20 103.41,-13.98 103.58,-13.71 103.75,-13.44 103.85,-13.14 103.95,-12.84 103.97,-12.52 103.99,-12.21 103.94,-11.89 103.89,-11.58 103.76,-11.29 103.64,-11.00 103.45,-10.75 103.25,-10.50 103.01,-10.30 102.76,-10.10 102.48,-9.96 102.19,-9.83 101.88,-9.77 101.57,-9.71 100.17,-10.85 98.76,-12.00 98.78,-12.42 98.79,-12.84 98.95,-13.24 99.10,-13.64 99.36,-13.97 99.63,-14.30 99.99,-14.52 100.35,-14.75 100.77,-14.85 101.18,-14.95 101.60,-14.91 102.03,-14.87 102.42,-14.70 102.80,-14.53 103.12,-14.24 103.43,-13.95 103.64,-13.58 103.84,-13.21 103.92,-12.79 104.00,-12.37 103.94,-11.95 103.87,-11.53 103.68,-11.15 103.49,-10.77 103.19,-10.48 102.88,-10.18 102.50,-9.99 102.12,-9.81 101.70,-9.76 101.28,-9.70 100.86,-9.79 100.44,-9.87 100.07,-10.08 99.71,-10.29 99.42,-10.61 99.14,-10.93 98.98,-11.32 98.82,-11.72 98.78,-12.14 98.75,-12.56 98.86,-12.97 98.97,-13.39 99.20,-13.74 99.43,-14.10 99.76,-14.36 100.10,-14.62 100.50,-14.77 100.90,-14.91 101.32,-14.92 101.75,-14.93 102.15,-14.80 102.56,-14.67 102.90,-14.42 103.24,-14.17 103.49,-13.82 103.73,-13.47 102.45,-14.21 101.17,-14.95 101.49,-14.93 101.80,-14.92 102.11,-14.83 102.41,-14.74 102.69,-14.58 102.96,-14.42 103.19,-14.20 103.41,-13.98 103.58,-13.71 103.75,-13.44 103.85,-13.14 103.95,-12.84 103.97,-12.52 103.99,-12.21 103.94,-11.89 103.89,-11.58 103.76,-11.29 103.64,-11.00 103.45,-10.75 103.25,-10.50 103.01,-10.30 102.76,-10.10 102.48,-9.96 102.19,-9.83 101.88,-9.77 101.57,-9.71 99.10,-7.60 96.63,-5.50 91.06,-5.08 85.49,-4.66 77.22,-3.97 68.94,-3.29 59.03,-2.42 49.13,-1.54 38.48,-0.53 27.83,0.48 20.99,1.46 14.16,2.44 7.57,3.21 0.97,3.97 0.48,4.03 -0.00,4.09 -0.49,4.03 -0.98,3.97 -1.44,3.80 -1.90,3.62 -2.30,3.34 -2.71,3.06 -3.04,2.69 -3.37,2.32 -3.59,1.88 -3.82,1.45 -3.94,0.97 -4.06,0.49 -4.06,-0.00 -4.06,-0.49 -3.94,-0.97 -3.82,-1.45 -3.59,-1.88 -3.36,-2.32 -3.04,-2.69 -2.71,-3.06 -2.30,-3.34 -1.90,-3.62 -1.44,-3.80 -0.97,-3.97 -0.97,-3.97 L -0.97,-3.97 Z"></path></g><g transform="translate(415.65974844459924 295.406393462461) rotate(0 45.64150645510108 -8.600066366159808)" stroke="none"><path fill="#1e1e1e" d="M -0.69,-4.28 Q -0.69,-4.28 5.41,-6.02 11.51,-7.76 21.74,-9.53 31.97,-11.30 41.87,-12.80 51.77,-14.29 60.16,-15.44 68.55,-16.59 74.23,-17.48 79.90,-18.38 82.67,-18.85 85.44,-19.31 86.09,-18.30 86.75,-17.29 86.83,-17.70 86.92,-18.12 87.13,-18.49 87.34,-18.86 87.66,-19.14 87.98,-19.42 88.37,-19.58 88.76,-19.75 89.18,-19.78 89.61,-19.81 90.02,-19.71 90.43,-19.60 90.79,-19.37 91.14,-19.14 91.41,-18.80 91.67,-18.47 91.82,-18.07 91.96,-17.67 91.97,-17.25 91.98,-16.82 91.85,-16.42 91.72,-16.01 91.47,-15.67 91.22,-15.32 90.87,-15.08 90.52,-14.83 90.12,-14.71 89.71,-14.59 89.29,-14.60 88.86,-14.62 88.46,-14.77 88.07,-14.92 87.74,-15.19 87.41,-15.46 87.18,-15.82 86.95,-16.18 86.86,-16.59 86.76,-17.00 86.79,-17.42 86.83,-17.85 87.00,-18.24 87.17,-18.63 87.46,-18.94 87.75,-19.25 88.12,-19.46 88.49,-19.67 88.91,-19.74 89.32,-19.82 89.74,-19.76 90.17,-19.70 90.54,-19.51 90.92,-19.32 91.22,-19.01 91.52,-18.71 91.71,-18.33 91.89,-17.95 91.95,-17.53 92.00,-17.10 92.00,-17.10 92.00,-17.10 89.89,-12.27 87.77,-7.45 84.81,-6.86 81.85,-6.28 76.03,-5.33 70.21,-4.38 61.83,-3.24 53.45,-2.10 43.70,-0.89 33.94,0.31 23.66,2.02 13.37,3.73 7.03,4.01 0.69,4.28 0.17,4.30 -0.35,4.32 -0.86,4.22 -1.37,4.11 -1.84,3.89 -2.32,3.66 -2.72,3.33 -3.13,3.00 -3.44,2.58 -3.76,2.16 -3.96,1.68 -4.16,1.20 -4.25,0.68 -4.33,0.17 -4.29,-0.34 -4.25,-0.87 -4.08,-1.36 -3.91,-1.86 -3.64,-2.30 -3.36,-2.74 -2.98,-3.10 -2.60,-3.47 -2.15,-3.73 -1.69,-3.99 -1.19,-4.13 -0.69,-4.28 -0.69,-4.28 L -0.69,-4.28 Z"></path></g><g transform="translate(378.21061025928793 334.37405934004346) rotate(0 57.05114448536915 -8.67687905098228)" stroke="none"><path fill="#1e1e1e" d="M -0.64,-3.73 Q -0.64,-3.73 7.33,-6.18 15.31,-8.63 27.58,-10.53 39.85,-12.43 51.00,-14.03 62.15,-15.64 71.89,-16.96 81.62,-18.28 89.15,-19.31 96.69,-20.34 101.34,-20.92 105.99,-21.51 108.49,-22.08 110.99,-22.65 111.72,-22.66 112.44,-22.68 113.15,-22.52 113.86,-22.36 114.51,-22.04 115.17,-21.72 115.72,-21.25 116.28,-20.78 116.70,-20.19 117.13,-19.60 117.40,-18.93 117.67,-18.26 117.78,-17.54 117.88,-16.82 117.81,-16.10 117.74,-15.37 117.50,-14.69 117.26,-14.00 116.86,-13.40 116.46,-12.79 115.93,-12.29 115.39,-11.80 114.76,-11.45 114.12,-11.09 113.42,-10.90 112.72,-10.71 109.15,-12.72 105.59,-14.73 105.18,-14.82 104.76,-14.92 104.40,-15.14 104.04,-15.37 103.77,-15.69 103.49,-16.02 103.34,-16.42 103.19,-16.81 103.17,-17.24 103.15,-17.66 103.27,-18.07 103.39,-18.48 103.63,-18.83 103.87,-19.18 104.21,-19.43 104.56,-19.68 104.96,-19.81 105.36,-19.95 105.79,-19.94 106.21,-19.94 106.61,-19.80 107.02,-19.66 107.35,-19.39 107.69,-19.13 107.92,-18.78 108.16,-18.43 108.27,-18.01 108.37,-17.60 108.35,-17.18 108.32,-16.76 108.16,-16.36 108.00,-15.97 107.72,-15.65 107.44,-15.33 107.07,-15.11 106.71,-14.90 106.29,-14.81 105.87,-14.72 105.45,-14.78 105.03,-14.83 104.65,-15.01 104.26,-15.19 103.96,-15.49 103.65,-15.78 103.46,-16.16 103.26,-16.54 103.20,-16.96 103.13,-17.38 103.21,-17.80 103.28,-18.22 103.48,-18.59 103.69,-18.96 104.00,-19.25 104.31,-19.54 104.70,-19.71 105.09,-19.89 105.51,-19.93 105.93,-19.97 105.93,-19.97 105.93,-19.97 108.46,-21.31 110.99,-22.65 111.72,-22.66 112.44,-22.68 113.15,-22.52 113.86,-22.36 114.51,-22.04 115.16,-21.72 115.72,-21.25 116.27,-20.78 116.70,-20.19 117.13,-19.60 117.40,-18.93 117.67,-18.26 117.78,-17.54 117.88,-16.82 117.81,-16.10 117.74,-15.37 117.50,-14.69 117.26,-14.00 116.86,-13.40 116.46,-12.79 115.93,-12.29 115.39,-11.80 114.76,-11.45 114.12,-11.09 113.42,-10.90 112.72,-10.71 112.51,-10.40 112.31,-10.08 109.96,-9.66 107.62,-9.24 103.00,-8.60 98.39,-7.95 90.83,-6.91 83.28,-5.87 73.56,-4.59 63.83,-3.31 52.73,-1.88 41.64,-0.45 29.48,1.28 17.32,3.03 8.98,3.38 0.64,3.73 0.18,3.75 -0.27,3.77 -0.71,3.69 -1.16,3.60 -1.58,3.41 -1.99,3.22 -2.35,2.93 -2.70,2.64 -2.98,2.28 -3.26,1.92 -3.44,1.50 -3.62,1.08 -3.70,0.63 -3.78,0.18 -3.75,-0.26 -3.71,-0.72 -3.57,-1.15 -3.43,-1.59 -3.19,-1.98 -2.95,-2.36 -2.62,-2.68 -2.30,-3.00 -1.90,-3.24 -1.51,-3.47 -1.07,-3.60 -0.64,-3.73 -0.64,-3.73 L -0.64,-3.73 Z"></path></g><g transform="translate(330.0845088835613 386.5830503475245) rotate(0 54.4897368799202 -17.276945417142997)" stroke="none"><path fill="#1e1e1e" d="M -1.84,-4.53 Q -1.84,-4.53 8.08,-8.80 18.01,-13.06 27.44,-16.48 36.86,-19.90 46.33,-22.90 55.79,-25.89 64.75,-28.32 73.71,-30.75 80.90,-32.51 88.09,-34.27 93.55,-35.44 99.02,-36.61 101.52,-37.15 104.02,-37.69 104.38,-36.21 104.75,-34.73 104.85,-35.15 104.94,-35.56 105.17,-35.92 105.39,-36.28 105.72,-36.55 106.05,-36.82 106.45,-36.97 106.85,-37.12 107.27,-37.14 107.69,-37.16 108.10,-37.03 108.51,-36.91 108.86,-36.67 109.21,-36.43 109.46,-36.08 109.71,-35.74 109.84,-35.34 109.97,-34.93 109.96,-34.51 109.95,-34.08 109.81,-33.68 109.67,-33.28 109.40,-32.95 109.14,-32.61 108.79,-32.38 108.43,-32.15 108.02,-32.04 107.61,-31.93 107.18,-31.96 106.76,-31.99 106.37,-32.16 105.98,-32.32 105.66,-32.60 105.34,-32.88 105.12,-33.25 104.91,-33.62 104.83,-34.03 104.74,-34.45 104.80,-34.87 104.85,-35.29 105.03,-35.68 105.22,-36.06 105.52,-36.36 105.81,-36.67 106.19,-36.86 106.57,-37.05 106.99,-37.11 107.41,-37.18 107.83,-37.10 108.25,-37.02 108.62,-36.82 108.99,-36.61 109.28,-36.30 109.57,-35.99 109.74,-35.60 109.91,-35.21 109.95,-34.79 109.99,-34.36 109.99,-34.36 109.99,-34.36 108.26,-30.25 106.54,-26.14 104.04,-25.59 101.55,-25.05 96.24,-23.86 90.92,-22.67 83.84,-20.94 76.76,-19.22 67.98,-16.95 59.20,-14.67 49.87,-11.96 40.53,-9.24 31.28,-6.22 22.02,-3.21 11.93,0.66 1.84,4.53 1.27,4.68 0.70,4.84 0.11,4.85 -0.47,4.87 -1.05,4.74 -1.62,4.61 -2.15,4.35 -2.68,4.09 -3.13,3.71 -3.58,3.33 -3.93,2.85 -4.27,2.37 -4.50,1.82 -4.72,1.28 -4.80,0.69 -4.89,0.11 -4.83,-0.47 -4.77,-1.05 -4.58,-1.61 -4.38,-2.17 -4.06,-2.66 -3.73,-3.15 -3.30,-3.55 -2.87,-3.96 -2.35,-4.24 -1.84,-4.53 -1.84,-4.53 L -1.84,-4.53 Z"></path></g><g transform="translate(298.0477106442486 416.41591539921683) rotate(0 63.488638340354555 -13.699246904802749)" stroke="none"><path fill="#1e1e1e" d="M 0.01,-2.65 Q 0.01,-2.65 5.91,-3.89 11.80,-5.13 21.87,-6.96 31.95,-8.78 43.09,-11.25 54.24,-13.73 65.30,-16.31 76.36,-18.89 85.79,-21.25 95.22,-23.60 102.30,-25.52 109.39,-27.44 113.97,-28.75 118.56,-30.07 120.07,-29.42 121.58,-28.78 121.83,-29.11 122.09,-29.45 122.44,-29.69 122.79,-29.93 123.20,-30.04 123.61,-30.16 124.04,-30.14 124.46,-30.11 124.86,-29.96 125.25,-29.80 125.58,-29.52 125.90,-29.25 126.12,-28.89 126.34,-28.52 126.43,-28.11 126.52,-27.69 126.48,-27.27 126.43,-26.85 126.25,-26.46 126.07,-26.07 125.78,-25.77 125.49,-25.46 125.12,-25.26 124.74,-25.06 124.32,-24.99 123.90,-24.92 123.48,-24.99 123.06,-25.06 122.69,-25.26 122.31,-25.45 122.02,-25.76 121.73,-26.07 121.55,-26.46 121.37,-26.84 121.32,-27.27 121.28,-27.69 121.37,-28.10 121.46,-28.52 121.68,-28.88 121.90,-29.25 122.22,-29.52 122.54,-29.80 122.94,-29.95 123.33,-30.11 123.76,-30.14 124.18,-30.16 124.59,-30.05 125.00,-29.93 125.35,-29.69 125.70,-29.46 125.96,-29.12 126.22,-28.78 126.36,-28.38 126.49,-27.97 126.49,-27.55 126.49,-27.12 126.36,-26.72 126.22,-26.32 126.22,-26.32 126.22,-26.32 123.96,-22.68 121.69,-19.05 117.01,-17.77 112.33,-16.49 105.14,-14.56 97.95,-12.63 88.43,-10.26 78.91,-7.90 67.76,-5.34 56.61,-2.78 45.17,-0.37 33.73,2.03 22.74,3.67 11.74,5.31 5.86,3.98 -0.01,2.65 -0.33,2.61 -0.65,2.57 -0.95,2.45 -1.25,2.34 -1.51,2.15 -1.77,1.97 -1.98,1.73 -2.19,1.49 -2.34,1.20 -2.49,0.92 -2.56,0.61 -2.63,0.30 -2.63,-0.01 -2.63,-0.34 -2.55,-0.65 -2.47,-0.96 -2.32,-1.24 -2.17,-1.52 -1.96,-1.76 -1.74,-2.00 -1.48,-2.18 -1.21,-2.36 -0.91,-2.47 -0.61,-2.58 -0.29,-2.62 0.02,-2.65 0.02,-2.65 L 0.01,-2.65 Z"></path></g><g transform="translate(242.8962029412378 468.7785317763446) rotate(0 107.44617439740978 -30.367599511424487)" stroke="none"><path fill="#1e1e1e" d="M -0.66,-4.74 Q -0.66,-4.74 3.55,-6.11 7.78,-7.47 11.61,-8.17 15.44,-8.86 19.50,-9.60 23.56,-10.34 27.72,-11.05 31.88,-11.77 37.10,-12.78 42.33,-13.80 46.88,-14.75 51.43,-15.70 55.62,-16.62 59.80,-17.54 63.67,-18.38 67.54,-19.22 71.78,-20.03 76.02,-20.85 79.36,-21.38 82.70,-21.91 85.66,-22.32 88.62,-22.74 91.50,-23.29 94.38,-23.84 97.86,-24.49 101.35,-25.14 106.38,-26.03 111.41,-26.91 115.58,-27.68 119.74,-28.44 123.13,-29.15 126.52,-29.85 129.32,-30.53 132.12,-31.21 135.34,-32.06 138.57,-32.91 141.43,-33.64 144.29,-34.37 146.88,-34.99 149.47,-35.62 151.81,-36.18 154.15,-36.75 156.40,-37.29 158.66,-37.83 161.64,-38.51 164.62,-39.20 167.06,-39.92 169.51,-40.64 171.75,-41.38 173.99,-42.12 177.86,-43.40 181.74,-44.68 184.67,-45.64 187.59,-46.60 190.80,-47.59 194.00,-48.59 196.17,-49.18 198.34,-49.77 200.06,-51.40 201.77,-53.03 203.34,-54.95 204.92,-56.88 206.87,-58.71 208.83,-60.53 210.80,-61.40 212.76,-62.27 213.06,-62.57 213.37,-62.87 213.75,-63.06 214.13,-63.25 214.55,-63.30 214.97,-63.36 215.39,-63.27 215.81,-63.19 216.18,-62.98 216.54,-62.77 216.83,-62.45 217.11,-62.13 217.27,-61.74 217.44,-61.35 217.47,-60.93 217.50,-60.50 217.40,-60.09 217.29,-59.68 217.06,-59.32 216.83,-58.97 216.50,-58.70 216.17,-58.44 215.77,-58.29 215.37,-58.15 214.94,-58.14 214.52,-58.13 214.11,-58.26 213.71,-58.38 213.36,-58.63 213.02,-58.88 212.77,-59.23 212.53,-59.58 212.41,-59.98 212.28,-60.39 212.30,-60.82 212.31,-61.24 212.46,-61.64 212.61,-62.04 212.88,-62.37 213.14,-62.70 213.50,-62.92 213.86,-63.15 214.28,-63.25 214.69,-63.35 215.11,-63.31 215.54,-63.28 215.93,-63.11 216.31,-62.94 216.63,-62.65 216.94,-62.36 217.15,-61.99 217.36,-61.62 217.44,-61.20 217.51,-60.79 217.45,-60.37 217.39,-59.94 217.20,-59.57 217.01,-59.19 217.01,-59.19 217.01,-59.19 216.79,-57.05 216.57,-54.91 215.57,-52.66 214.56,-50.42 212.96,-47.00 211.35,-43.58 210.16,-41.82 208.96,-40.06 206.37,-38.90 203.78,-37.75 201.56,-37.04 199.35,-36.33 197.15,-35.72 194.95,-35.10 191.80,-34.08 188.65,-33.07 185.37,-32.02 182.09,-30.98 180.08,-30.28 178.07,-29.59 175.63,-28.80 173.18,-28.01 170.36,-27.20 167.54,-26.39 164.64,-25.73 161.75,-25.07 159.49,-24.52 157.23,-23.97 154.88,-23.40 152.53,-22.84 150.03,-22.24 147.52,-21.64 144.71,-20.93 141.91,-20.22 138.55,-19.34 135.19,-18.46 132.19,-17.74 129.19,-17.01 125.65,-16.28 122.11,-15.54 117.89,-14.77 113.68,-14.00 108.69,-13.13 103.69,-12.25 100.22,-11.64 96.75,-11.02 93.56,-10.45 90.36,-9.88 87.54,-9.51 84.72,-9.14 81.57,-8.64 78.43,-8.15 74.34,-7.38 70.26,-6.62 66.41,-5.79 62.56,-4.97 58.30,-4.03 54.03,-3.09 49.38,-2.14 44.72,-1.19 39.37,-0.21 34.02,0.77 29.92,1.46 25.82,2.16 21.74,2.89 17.65,3.62 13.60,4.32 9.54,5.03 5.10,4.88 0.66,4.74 0.09,4.75 -0.48,4.76 -1.04,4.63 -1.61,4.51 -2.12,4.25 -2.64,3.99 -3.08,3.62 -3.52,3.24 -3.86,2.77 -4.19,2.30 -4.41,1.77 -4.62,1.23 -4.70,0.66 -4.78,0.09 -4.73,-0.48 -4.67,-1.05 -4.47,-1.60 -4.28,-2.14 -3.96,-2.62 -3.64,-3.10 -3.22,-3.49 -2.79,-3.88 -2.29,-4.16 -1.78,-4.44 -1.22,-4.59 -0.66,-4.74 -0.66,-4.74 L -0.66,-4.74 Z"></path></g></svg>