<?xml version="1.0" standalone="no"?>
<!DOCTYPE svg PUBLIC "-//W3C//DTD SVG 1.1//EN" "http://www.w3.org/Graphics/SVG/1.1/DTD/svg11.dtd">
<svg version="1.1" xmlns="http://www.w3.org/2000/svg" viewBox="0 0 698.770061109808 822.4360361526942" width="698.770061109808" height="822.4360361526942"><!-- svg-source:excalidraw --><metadata></metadata><defs><style class="style-fonts">
      </style></defs><g transform="translate(23.263523806792364 812.4360361526942) rotate(0 324.5208647604304 -389.6354140795147)" stroke="none"><path d="M0 0 C2.11 -1.23, 6.03 -4.7, 12.64 -7.37 C19.26 -10.05, 32.78 -13.56, 39.7 -16.05 C46.61 -18.55, 49.94 -20.26, 54.12 -22.37 C58.29 -24.47, 61.23 -26.13, 64.73 -28.68 C68.22 -31.22, 69.61 -32.14, 75.09 -37.62 C80.57 -43.11, 89.51 -54.25, 97.6 -61.57 C105.69 -68.89, 113.91 -73.23, 123.64 -81.56 C133.38 -89.89, 146.31 -103.04, 156.01 -111.55 C165.7 -120.06, 172.82 -124.92, 181.79 -132.6 C190.77 -140.27, 202.57 -151.59, 209.86 -157.6 C217.15 -163.61, 219.42 -164.79, 225.53 -168.65 C231.64 -172.51, 232.65 -173.47, 246.52 -180.75 C260.38 -188.03, 293.17 -202.63, 308.72 -212.32 C324.27 -222.01, 328.82 -230.82, 339.82 -238.89 C350.82 -246.96, 367.21 -255.24, 374.72 -260.72 C382.22 -266.2, 382.63 -268.97, 384.83 -271.77 C387.02 -274.58, 384.53 -273.53, 387.86 -277.56 C391.19 -281.6, 400.12 -290.41, 404.8 -295.98 C409.48 -301.55, 412 -303.74, 415.92 -310.98 C419.84 -318.21, 425.23 -332.9, 428.31 -339.39 C431.39 -345.88, 429.82 -342.76, 434.38 -349.91 C438.93 -357.06, 449.93 -374.03, 455.62 -382.27 C461.31 -390.52, 460.55 -390.3, 468.52 -399.38 C476.48 -408.46, 494.51 -426.39, 503.4 -436.74 C512.29 -447.08, 516.6 -454.79, 521.87 -461.46 C527.13 -468.12, 531.64 -473, 535.01 -476.73 C538.38 -480.45, 536.36 -479, 542.09 -483.82 C547.82 -488.65, 563.07 -500.18, 569.39 -505.66 C575.72 -511.14, 569.99 -504.91, 580.02 -516.71 C590.05 -528.5, 620.09 -564.37, 629.58 -576.43 C639.06 -588.49, 635.48 -585.29, 636.91 -589.06 C638.34 -592.84, 636.52 -593.8, 638.17 -599.06 C639.81 -604.32, 644.95 -609.01, 646.76 -620.63 C648.58 -632.25, 649.29 -656.64, 649.04 -668.78 C648.79 -680.93, 647.53 -683.42, 645.25 -693.51 C642.98 -703.59, 637.62 -719.86, 635.39 -729.29 C633.15 -738.72, 634.08 -742.97, 631.84 -750.07 C629.61 -757.18, 624.01 -767.83, 621.99 -771.91 C619.97 -775.99, 621.02 -773.45, 619.71 -774.54 C618.4 -775.64, 615.62 -777.74, 614.15 -778.48 C612.67 -779.23, 617.6 -778.88, 610.86 -779.02 C604.12 -779.15, 581.24 -779.45, 573.69 -779.27 C566.15 -779.1, 569.82 -779.19, 565.61 -777.96 C561.39 -776.74, 553.89 -774.19, 548.41 -771.91 C542.93 -769.63, 538.76 -768.01, 532.73 -764.28 C526.71 -760.55, 519.04 -754.02, 512.26 -749.54 C505.47 -745.07, 501.47 -743.8, 492.03 -737.44 C482.59 -731.08, 466.07 -718.2, 455.62 -711.4 C445.17 -704.6, 437.5 -701.71, 429.32 -696.66 C421.15 -691.62, 414.11 -685.87, 406.57 -681.14 C399.03 -676.4, 393.09 -672.77, 384.07 -668.25 C375.05 -663.74, 364.56 -661.72, 352.46 -654.05 C340.37 -646.37, 323.76 -633.26, 311.5 -622.21 C299.24 -611.16, 288.57 -599.28, 278.88 -587.75 C269.19 -576.21, 261.19 -564.9, 253.35 -553.01 C245.51 -541.13, 239.23 -530.7, 231.85 -516.45 C224.48 -502.2, 218.24 -485.93, 209.1 -467.52 C199.96 -449.1, 184.03 -420.56, 176.99 -405.95 C169.96 -391.35, 170.93 -388.45, 166.88 -379.9 C162.84 -371.35, 156.55 -362.36, 152.72 -354.65 C148.88 -346.93, 146.61 -341.14, 143.87 -333.6 C141.13 -326.06, 139.45 -317.99, 136.29 -309.4 C133.12 -300.8, 128.07 -291.38, 124.91 -282.04 C121.75 -272.7, 124.4 -272.52, 117.32 -253.36 C110.24 -234.2, 90.01 -185.09, 82.42 -167.07 C74.84 -149.04, 76.95 -154.26, 71.81 -145.23 C66.67 -136.2, 60.14 -124.79, 51.58 -112.87 C43.03 -100.94, 27.4 -82.97, 20.49 -73.67 C13.58 -64.38, 12.65 -61.66, 10.12 -57.1 C7.59 -52.54, 6.32 -49.24, 5.31 -46.3 C4.3 -43.37, 4.26 -44.12, 4.05 -39.47 C3.84 -34.82, 3.13 -23.64, 4.05 -18.42 C4.98 -13.2, 8.68 -10.35, 9.61 -8.16 C10.54 -5.97, 10.33 -6.59, 9.61 -5.27 C8.89 -3.95, 4.64 1.09, 5.31 -0.27 C5.98 -1.62, 14.54 -13.46, 13.65 -13.42 C12.77 -13.37, 2.28 -2.24, 0 0" stroke="none" stroke-width="0" fill="#1971c2" fill-rule="evenodd"></path><path fill="#1971c2" d="M -2.53,-5.00 Q -2.53,-5.00 2.05,-10.36 6.64,-15.72 11.13,-17.72 15.61,-19.72 19.85,-21.16 24.09,-22.60 30.56,-24.90 37.02,-27.21 43.49,-30.14 49.95,-33.08 54.56,-36.02 59.16,-38.97 63.47,-42.77 67.78,-46.57 71.16,-49.97 74.53,-53.37 78.24,-57.36 81.96,-61.34 86.84,-66.17 91.73,-71.00 96.02,-74.36 100.31,-77.72 103.72,-80.38 107.13,-83.05 111.85,-86.76 116.58,-90.47 120.32,-93.87 124.07,-97.28 127.63,-100.64 131.18,-104.01 134.97,-107.56 138.76,-111.10 144.53,-116.28 150.30,-121.46 155.84,-125.98 161.37,-130.50 166.30,-134.61 171.22,-138.71 174.40,-141.58 177.58,-144.45 182.71,-149.23 187.84,-154.00 192.10,-157.78 196.37,-161.55 201.24,-165.43 206.12,-169.31 209.79,-171.95 213.46,-174.59 218.13,-177.46 222.81,-180.33 227.90,-183.38 232.99,-186.43 240.44,-190.60 247.90,-194.78 254.47,-198.25 261.04,-201.72 266.72,-204.58 272.39,-207.44 277.19,-209.74 281.98,-212.05 288.67,-215.27 295.35,-218.50 298.97,-220.77 302.58,-223.04 306.82,-226.69 311.06,-230.34 316.26,-234.89 321.46,-239.44 328.07,-244.42 334.68,-249.40 341.41,-253.59 348.14,-257.78 353.84,-261.34 359.55,-264.89 363.41,-267.70 367.28,-270.52 371.12,-274.77 374.96,-279.03 377.62,-283.26 380.29,-287.49 383.70,-291.29 387.11,-295.09 390.03,-298.39 392.96,-301.69 396.75,-306.54 400.55,-311.38 403.02,-315.52 405.49,-319.65 408.08,-325.48 410.67,-331.31 413.02,-336.39 415.37,-341.47 418.16,-346.69 420.94,-351.91 424.68,-358.08 428.42,-364.25 430.94,-368.00 433.46,-371.76 437.05,-377.17 440.64,-382.57 445.01,-388.77 449.39,-394.96 451.97,-398.42 454.54,-401.88 459.64,-407.97 464.73,-414.06 469.66,-419.48 474.60,-424.90 477.55,-428.00 480.51,-431.10 485.62,-436.45 490.73,-441.80 494.36,-446.33 497.99,-450.85 500.90,-454.77 503.80,-458.70 509.30,-465.66 514.81,-472.62 517.91,-476.26 521.02,-479.90 524.51,-483.60 528.00,-487.31 533.30,-492.05 538.59,-496.79 541.94,-499.64 545.29,-502.50 550.00,-506.29 554.72,-510.09 557.95,-512.97 561.19,-515.84 566.59,-521.48 572.00,-527.13 576.11,-531.84 580.21,-536.56 583.89,-540.93 587.56,-545.30 590.96,-549.38 594.36,-553.46 597.82,-557.82 601.28,-562.19 604.25,-565.77 607.23,-569.35 611.92,-575.01 616.62,-580.66 619.51,-584.59 622.40,-588.53 623.84,-594.03 625.28,-599.53 626.79,-604.02 628.31,-608.51 630.82,-614.75 633.32,-621.00 633.99,-625.21 634.65,-629.41 634.80,-633.89 634.95,-638.36 635.34,-644.62 635.73,-650.89 636.01,-656.26 636.28,-661.63 636.14,-666.52 636.00,-671.41 635.22,-676.44 634.44,-681.47 633.38,-687.00 632.32,-692.52 630.86,-698.71 629.40,-704.89 627.97,-709.82 626.53,-714.76 624.78,-720.90 623.03,-727.05 622.15,-732.64 621.27,-738.23 619.47,-743.37 617.66,-748.51 615.71,-752.98 613.75,-757.45 611.87,-761.33 609.98,-765.20 604.43,-765.56 598.88,-765.93 593.60,-765.94 588.33,-765.96 582.99,-765.97 577.64,-765.97 572.89,-765.10 568.13,-764.23 563.91,-762.92 559.70,-761.61 555.69,-760.04 551.69,-758.47 546.75,-756.14 541.81,-753.81 537.87,-751.43 533.92,-749.06 529.83,-746.10 525.73,-743.13 520.93,-739.82 516.12,-736.50 511.27,-733.45 506.41,-730.41 501.70,-727.51 496.99,-724.62 492.01,-721.08 487.03,-717.54 482.29,-714.02 477.55,-710.50 472.45,-706.99 467.34,-703.47 461.08,-699.64 454.83,-695.81 450.98,-693.65 447.13,-691.48 441.26,-688.12 435.39,-684.76 430.40,-681.42 425.40,-678.08 418.79,-673.85 412.18,-669.61 404.58,-665.20 396.98,-660.78 392.90,-658.66 388.82,-656.54 382.02,-653.28 375.22,-650.01 368.82,-647.21 362.42,-644.42 357.23,-640.89 352.03,-637.37 348.62,-634.68 345.21,-631.99 339.56,-627.87 333.92,-623.76 328.82,-619.60 323.72,-615.45 317.96,-609.93 312.21,-604.40 307.40,-599.28 302.59,-594.15 299.43,-590.98 296.27,-587.80 292.27,-582.96 288.27,-578.11 284.46,-572.85 280.65,-567.59 276.24,-561.92 271.82,-556.26 267.40,-549.97 262.98,-543.67 260.40,-539.49 257.82,-535.30 253.84,-528.40 249.86,-521.50 246.31,-515.19 242.76,-508.87 239.45,-501.89 236.15,-494.90 232.62,-487.39 229.10,-479.87 226.75,-474.75 224.41,-469.63 222.36,-465.57 220.30,-461.51 216.95,-454.84 213.60,-448.17 209.97,-441.37 206.33,-434.58 203.90,-429.98 201.47,-425.38 198.15,-418.81 194.84,-412.23 191.63,-405.75 188.43,-399.26 186.39,-394.59 184.34,-389.91 182.46,-384.73 180.58,-379.54 178.40,-374.86 176.21,-370.17 173.87,-365.94 171.54,-361.72 169.38,-357.85 167.22,-353.98 164.88,-349.13 162.55,-344.28 160.66,-339.86 158.78,-335.44 157.17,-331.08 155.56,-326.73 154.29,-322.60 153.02,-318.46 150.57,-311.38 148.13,-304.31 146.42,-299.99 144.71,-295.67 141.81,-288.81 138.91,-281.95 136.94,-276.00 134.97,-270.06 133.71,-264.57 132.45,-259.08 130.65,-253.44 128.86,-247.80 126.71,-242.23 124.55,-236.67 122.49,-231.67 120.43,-226.68 118.43,-221.97 116.44,-217.26 114.30,-211.93 112.17,-206.60 110.16,-201.24 108.16,-195.88 106.32,-191.33 104.49,-186.78 102.35,-181.75 100.21,-176.72 98.54,-172.45 96.88,-168.17 95.07,-163.96 93.27,-159.74 90.99,-154.90 88.72,-150.07 85.60,-143.87 82.49,-137.68 80.09,-133.46 77.69,-129.24 75.00,-125.17 72.31,-121.10 69.79,-117.13 67.27,-113.15 63.67,-107.74 60.07,-102.34 56.57,-97.85 53.06,-93.36 50.18,-89.58 47.30,-85.80 43.77,-81.42 40.23,-77.04 37.26,-73.40 34.28,-69.76 31.49,-65.84 28.69,-61.93 25.49,-56.77 22.29,-51.61 19.89,-46.46 17.50,-41.32 17.35,-37.05 17.19,-32.77 17.19,-27.75 17.19,-22.73 19.76,-15.54 22.33,-8.34 20.74,-3.02 19.15,2.29 18.43,3.72 17.72,5.15 16.69,6.37 15.65,7.59 14.36,8.53 13.06,9.46 11.58,10.06 10.10,10.66 8.52,10.89 6.93,11.11 5.34,10.95 3.75,10.80 2.25,10.26 0.74,9.73 -0.58,8.85 -1.92,7.97 -3.00,6.79 -4.09,5.62 -4.86,4.22 -5.64,2.82 -6.05,1.28 -6.47,-0.25 -6.50,-1.85 -6.54,-3.45 -6.19,-5.01 -5.84,-6.57 -2.31,-7.20 1.21,-7.84 1.24,-8.98 1.26,-10.13 1.55,-11.23 1.85,-12.34 2.40,-13.34 2.95,-14.34 3.72,-15.18 4.50,-16.03 5.45,-16.66 6.40,-17.29 7.48,-17.68 8.56,-18.06 9.70,-18.18 10.83,-18.29 11.97,-18.14 13.10,-17.98 14.16,-17.55 15.22,-17.12 16.15,-16.46 17.08,-15.79 17.82,-14.92 18.57,-14.05 19.08,-13.03 19.59,-12.00 19.84,-10.89 20.10,-9.77 11.72,-2.86 3.34,4.04 2.61,4.47 1.87,4.90 1.04,5.07 0.21,5.24 -0.62,5.14 -1.47,5.04 -2.23,4.67 -3.00,4.30 -3.61,3.71 -4.22,3.12 -4.61,2.36 -5.00,1.61 -5.12,0.76 -5.25,-0.07 -5.10,-0.90 -4.95,-1.74 -4.54,-2.48 -4.13,-3.23 -3.51,-3.81 -2.88,-4.38 -2.11,-4.73 -1.33,-5.08 -0.49,-5.16 0.35,-5.24 1.18,-5.04 2.01,-4.85 2.73,-4.40 3.45,-3.95 3.99,-3.30 4.53,-2.64 4.84,-1.85 5.14,-1.05 5.17,-0.21 5.21,0.63 4.97,1.45 4.73,2.27 4.25,2.96 3.76,3.66 3.08,4.16 2.39,4.67 1.58,4.93 0.77,5.19 -0.07,5.18 -0.92,5.17 -1.72,4.88 -2.52,4.60 -3.19,4.08 -3.86,3.56 -4.33,2.85 -4.79,2.14 -5.01,1.31 -5.22,0.49 -5.17,-0.35 -5.11,-1.19 -4.78,-1.98 -4.46,-2.76 -3.90,-3.40 -3.34,-4.05 -3.34,-4.04 -3.34,-4.04 -1.06,-5.94 1.22,-7.84 1.24,-8.98 1.26,-10.13 1.55,-11.23 1.85,-12.34 2.40,-13.34 2.95,-14.34 3.72,-15.18 4.50,-16.03 5.45,-16.66 6.40,-17.29 7.48,-17.68 8.56,-18.06 9.69,-18.18 10.83,-18.29 11.97,-18.14 13.10,-17.98 14.16,-17.55 15.22,-17.13 16.15,-16.46 17.08,-15.79 17.82,-14.92 18.56,-14.05 19.08,-13.03 19.59,-12.00 19.84,-10.89 20.10,-9.77 19.62,-3.74 19.15,2.29 18.44,3.72 17.72,5.15 16.69,6.37 15.66,7.59 14.36,8.52 13.06,9.46 11.58,10.06 10.10,10.66 8.52,10.89 6.94,11.11 5.35,10.95 3.76,10.80 2.25,10.26 0.74,9.73 -0.58,8.85 -1.92,7.97 -3.00,6.79 -4.09,5.62 -4.86,4.22 -5.63,2.82 -6.05,1.28 -6.47,-0.25 -6.50,-1.85 -6.54,-3.45 -6.19,-5.01 -5.84,-6.57 -5.74,-7.87 -5.64,-9.17 -7.35,-14.62 -9.06,-20.06 -9.06,-25.39 -9.06,-30.71 -8.98,-35.17 -8.90,-39.63 -7.97,-44.74 -7.05,-49.84 -4.98,-54.63 -2.91,-59.41 -0.26,-64.04 2.39,-68.67 5.17,-73.35 7.94,-78.04 11.09,-82.31 14.23,-86.58 16.94,-89.89 19.65,-93.20 23.16,-97.59 26.68,-101.99 29.67,-105.88 32.66,-109.76 35.70,-113.67 38.73,-117.58 41.67,-121.94 44.62,-126.30 47.62,-131.11 50.62,-135.92 53.72,-140.67 56.81,-145.42 59.23,-149.86 61.64,-154.30 64.12,-159.54 66.59,-164.78 68.88,-169.54 71.18,-174.30 72.88,-178.63 74.58,-182.96 76.51,-187.65 78.44,-192.33 80.21,-196.67 81.97,-201.01 83.86,-205.90 85.75,-210.79 87.93,-216.37 90.11,-221.96 92.24,-227.09 94.36,-232.22 96.47,-237.14 98.58,-242.07 100.34,-246.52 102.09,-250.97 103.96,-255.81 105.82,-260.66 107.12,-265.48 108.41,-270.30 110.30,-277.44 112.20,-284.58 114.88,-291.58 117.57,-298.59 120.62,-305.84 123.67,-313.09 125.94,-319.63 128.20,-326.17 129.71,-330.97 131.21,-335.78 133.05,-340.72 134.90,-345.65 137.03,-350.63 139.17,-355.60 141.86,-361.13 144.55,-366.65 148.63,-373.99 152.71,-381.32 155.44,-387.64 158.17,-393.97 160.17,-399.09 162.17,-404.20 165.12,-410.65 168.07,-417.09 171.34,-423.46 174.61,-429.84 176.53,-433.70 178.45,-437.56 182.73,-445.62 187.01,-453.68 190.33,-460.10 193.65,-466.52 197.19,-473.52 200.74,-480.52 203.10,-485.63 205.45,-490.74 209.03,-498.38 212.60,-506.02 214.58,-510.20 216.56,-514.37 220.00,-521.12 223.45,-527.86 227.33,-534.63 231.21,-541.40 233.45,-545.21 235.70,-549.01 238.58,-553.64 241.46,-558.26 243.91,-561.88 246.36,-565.49 251.37,-572.06 256.38,-578.63 259.90,-583.24 263.42,-587.85 268.08,-594.07 272.74,-600.28 278.19,-606.02 283.65,-611.76 288.77,-617.20 293.89,-622.65 296.93,-625.70 299.98,-628.75 306.49,-634.40 313.00,-640.05 318.29,-644.13 323.58,-648.22 327.92,-651.47 332.25,-654.72 337.70,-658.70 343.15,-662.69 350.65,-666.79 358.15,-670.88 364.24,-673.61 370.33,-676.33 377.18,-679.75 384.03,-683.17 391.30,-687.45 398.56,-691.73 404.26,-695.44 409.96,-699.16 413.71,-701.87 417.47,-704.58 422.62,-707.70 427.78,-710.81 434.60,-714.65 441.42,-718.49 446.90,-721.83 452.38,-725.17 457.29,-728.52 462.20,-731.88 467.03,-735.48 471.85,-739.08 477.15,-742.85 482.45,-746.62 487.45,-749.74 492.45,-752.86 497.05,-755.75 501.66,-758.64 505.76,-761.45 509.86,-764.26 514.70,-767.76 519.53,-771.26 525.26,-774.64 531.00,-778.02 535.89,-780.29 540.78,-782.55 546.25,-784.72 551.72,-786.89 556.80,-788.46 561.88,-790.03 569.76,-791.29 577.63,-792.55 583.01,-792.56 588.39,-792.56 593.83,-792.54 599.27,-792.51 603.92,-792.37 608.57,-792.23 613.13,-791.43 617.69,-790.64 622.53,-787.75 627.37,-784.87 631.62,-778.79 635.87,-772.72 637.96,-767.60 640.05,-762.47 641.78,-758.51 643.50,-754.55 645.21,-748.13 646.91,-741.71 647.52,-737.39 648.12,-733.06 649.65,-727.65 651.18,-722.24 652.79,-716.39 654.40,-710.54 655.87,-704.06 657.35,-697.59 658.47,-691.73 659.58,-685.88 660.53,-679.21 661.47,-672.55 661.58,-666.89 661.70,-661.23 661.38,-654.98 661.06,-648.72 660.73,-643.13 660.39,-637.53 660.11,-631.85 659.83,-626.18 658.41,-619.05 656.99,-611.93 654.63,-606.05 652.27,-600.17 650.42,-593.38 648.57,-586.58 645.91,-580.38 643.26,-574.18 639.62,-569.29 635.98,-564.40 631.33,-558.80 626.67,-553.20 623.85,-549.82 621.04,-546.43 617.39,-541.87 613.73,-537.31 610.31,-533.21 606.89,-529.10 603.07,-524.53 599.25,-519.96 594.95,-515.04 590.65,-510.11 587.55,-506.73 584.45,-503.34 581.20,-500.13 577.95,-496.92 574.24,-493.64 570.54,-490.37 562.96,-484.16 555.39,-477.95 550.90,-473.96 546.41,-469.97 543.30,-466.66 540.18,-463.35 537.34,-460.10 534.50,-456.84 531.52,-453.12 528.54,-449.40 525.09,-444.83 521.64,-440.27 517.88,-435.28 514.13,-430.30 509.18,-424.81 504.23,-419.33 498.90,-413.73 493.57,-408.13 490.67,-404.82 487.77,-401.50 483.65,-397.02 479.52,-392.54 474.70,-386.23 469.88,-379.91 467.15,-376.22 464.43,-372.53 461.42,-367.88 458.42,-363.23 454.25,-357.08 450.07,-350.94 446.63,-345.25 443.18,-339.57 440.97,-335.53 438.76,-331.48 436.71,-326.84 434.66,-322.19 432.40,-317.48 430.13,-312.77 428.41,-308.85 426.68,-304.93 423.66,-300.47 420.64,-296.01 416.21,-290.42 411.77,-284.83 407.38,-279.93 402.99,-275.03 399.69,-271.32 396.40,-267.61 392.41,-263.05 388.41,-258.50 385.27,-255.14 382.13,-251.79 377.14,-248.18 372.15,-244.58 366.33,-240.99 360.51,-237.41 354.44,-233.61 348.37,-229.81 342.62,-225.51 336.86,-221.20 331.74,-216.82 326.61,-212.43 321.87,-208.31 317.13,-204.20 311.35,-200.66 305.58,-197.12 298.91,-193.89 292.24,-190.66 287.64,-188.46 283.05,-186.26 277.57,-183.51 272.09,-180.76 265.76,-177.44 259.44,-174.11 252.28,-170.13 245.13,-166.14 240.13,-163.15 235.14,-160.16 227.70,-155.34 220.26,-150.53 216.15,-147.38 212.03,-144.23 207.72,-140.50 203.40,-136.76 198.26,-132.07 193.12,-127.37 189.49,-124.23 185.86,-121.09 180.85,-116.89 175.85,-112.69 170.53,-108.44 165.22,-104.19 159.65,-99.26 154.09,-94.33 150.53,-91.10 146.98,-87.86 143.26,-84.37 139.55,-80.88 135.13,-76.94 130.71,-73.01 125.83,-69.18 120.94,-65.35 117.51,-62.69 114.09,-60.03 108.37,-55.30 102.65,-50.56 98.16,-45.75 93.68,-40.93 90.35,-37.55 87.01,-34.17 82.59,-29.89 78.16,-25.61 72.09,-21.09 66.03,-16.56 59.44,-13.15 52.86,-9.74 45.42,-6.78 37.97,-3.83 31.24,-1.67 24.51,0.48 20.56,2.20 16.61,3.92 9.57,4.46 2.53,5.00 1.90,5.23 1.26,5.46 0.59,5.53 -0.07,5.60 -0.74,5.51 -1.41,5.42 -2.04,5.17 -2.67,4.93 -3.22,4.53 -3.77,4.14 -4.21,3.63 -4.66,3.12 -4.96,2.51 -5.27,1.91 -5.42,1.25 -5.57,0.59 -5.56,-0.07 -5.55,-0.75 -5.38,-1.40 -5.21,-2.06 -4.89,-2.65 -4.57,-3.25 -4.11,-3.75 -3.66,-4.25 -3.09,-4.62 -2.53,-5.00 -2.53,-5.00 L -2.53,-5.00 Z"></path></g><g transform="translate(389.17695562732115 259.9366590783611) rotate(0 -39.79192507241714 146.28384957760136)" stroke="none"><path fill="#1e1e1e" d="M 3.48,2.76 Q 3.48,2.76 1.17,6.62 -1.14,10.49 -2.82,13.24 -4.50,15.99 -5.86,18.18 -7.21,20.38 -10.11,25.15 -13.01,29.92 -16.27,34.96 -19.53,39.99 -24.21,47.13 -28.89,54.27 -33.41,61.11 -37.93,67.96 -42.37,74.65 -46.80,81.34 -52.42,88.99 -58.04,96.64 -62.69,102.77 -67.34,108.90 -71.41,114.46 -75.49,120.03 -79.36,125.35 -83.24,130.67 -87.01,135.94 -90.78,141.20 -94.33,146.50 -97.88,151.80 -101.84,158.00 -105.81,164.20 -109.34,169.32 -112.87,174.44 -116.49,179.23 -120.11,184.02 -124.69,189.78 -129.27,195.55 -132.87,200.06 -136.48,204.57 -139.45,208.24 -142.41,211.91 -144.91,215.06 -147.40,218.22 -149.57,221.04 -151.75,223.85 -153.77,226.58 -155.79,229.32 -158.53,233.27 -161.27,237.23 -164.01,241.01 -166.75,244.80 -169.32,248.20 -171.90,251.60 -174.94,255.45 -177.99,259.30 -180.80,262.52 -183.61,265.74 -186.06,268.54 -188.52,271.35 -190.70,274.14 -192.88,276.94 -194.94,280.00 -196.99,283.07 -198.95,286.39 -200.92,289.71 -203.40,294.08 -205.89,298.44 -208.13,302.02 -210.37,305.59 -212.38,308.65 -214.39,311.72 -216.70,315.05 -219.02,318.38 -220.74,320.96 -222.46,323.54 -224.05,326.05 -225.64,328.56 -227.19,331.21 -228.75,333.86 -230.58,336.96 -232.40,340.06 -234.35,343.38 -236.30,346.71 -238.84,350.91 -241.37,355.12 -243.48,358.65 -245.59,362.17 -247.39,365.25 -249.20,368.34 -250.96,371.66 -252.71,374.99 -254.05,377.64 -255.38,380.30 -256.62,382.66 -257.85,385.02 -259.10,387.35 -260.35,389.69 -261.82,392.21 -263.29,394.74 -265.68,398.36 -268.07,401.97 -270.07,404.79 -272.07,407.60 -273.56,409.72 -275.04,411.83 -277.64,415.51 -280.24,419.19 -281.62,420.90 -283.01,422.60 -285.68,425.72 -288.35,428.83 -291.48,432.29 -294.60,435.75 -297.56,438.76 -300.53,441.78 -302.10,443.24 -303.66,444.71 -305.26,446.31 -306.87,447.91 -308.62,449.87 -310.38,451.82 -311.87,455.00 -313.37,458.18 -314.61,460.96 -315.84,463.74 -317.13,466.26 -318.41,468.79 -319.38,470.70 -320.35,472.60 -321.67,474.70 -322.99,476.79 -324.56,478.65 -326.14,480.51 -327.98,482.83 -329.81,485.15 -331.63,487.35 -333.45,489.54 -335.00,492.15 -336.56,494.76 -337.93,496.68 -339.30,498.60 -340.84,500.39 -342.37,502.18 -344.52,504.27 -346.66,506.37 -348.25,508.03 -349.85,509.69 -351.36,511.29 -352.88,512.89 -354.89,515.07 -356.91,517.26 -358.20,519.11 -359.50,520.97 -360.97,522.75 -362.45,524.54 -364.22,526.69 -365.98,528.84 -367.56,530.51 -369.13,532.17 -370.00,534.49 -370.88,536.81 -371.34,538.95 -371.80,541.10 -373.01,539.27 -374.22,537.43 -372.14,536.10 -370.06,534.77 -368.17,533.63 -366.28,532.50 -363.79,530.56 -361.31,528.63 -359.46,526.87 -357.60,525.11 -356.01,523.61 -354.42,522.11 -352.05,520.14 -349.67,518.16 -347.65,516.02 -345.64,513.88 -343.98,512.30 -342.32,510.73 -339.65,508.17 -336.98,505.61 -335.48,503.79 -333.98,501.98 -332.01,499.20 -330.04,496.42 -328.03,494.15 -326.01,491.88 -323.97,489.84 -321.93,487.80 -320.14,486.04 -318.34,484.28 -316.13,482.19 -313.92,480.10 -312.37,478.32 -310.82,476.54 -309.31,474.91 -307.80,473.29 -305.88,471.26 -303.97,469.24 -302.50,467.57 -301.04,465.90 -299.32,463.86 -297.60,461.82 -296.34,460.04 -295.08,458.25 -293.54,456.24 -292.00,454.22 -290.17,451.76 -288.33,449.30 -286.27,447.29 -284.20,445.28 -282.09,443.39 -279.98,441.51 -278.04,439.70 -276.10,437.90 -274.44,436.50 -272.78,435.10 -270.47,433.69 -268.16,432.29 -265.77,431.00 -263.38,429.71 -261.07,428.87 -258.76,428.03 -256.39,427.16 -254.03,426.28 -251.82,425.64 -249.62,425.00 -246.84,424.35 -244.06,423.69 -241.79,422.99 -239.52,422.29 -237.03,421.42 -234.54,420.54 -232.17,419.69 -229.79,418.83 -226.93,418.04 -224.06,417.24 -221.65,416.66 -219.25,416.08 -216.95,415.53 -214.65,414.98 -212.37,414.44 -210.08,413.90 -208.02,413.31 -205.95,412.73 -202.54,411.70 -199.13,410.67 -196.67,410.02 -194.21,409.38 -190.72,408.49 -187.24,407.61 -184.82,406.91 -182.41,406.21 -179.05,405.06 -175.69,403.91 -173.29,402.93 -170.89,401.95 -168.28,400.71 -165.67,399.46 -163.57,398.49 -161.46,397.52 -159.09,396.53 -156.72,395.54 -153.25,394.25 -149.78,392.96 -147.16,392.01 -144.54,391.06 -142.22,389.96 -139.90,388.86 -136.30,387.28 -132.70,385.71 -129.58,384.49 -126.47,383.28 -123.77,382.06 -121.06,380.84 -118.82,379.52 -116.57,378.20 -114.46,377.05 -112.34,375.91 -109.28,374.06 -106.22,372.22 -103.88,370.76 -101.53,369.30 -99.66,368.01 -97.80,366.73 -94.63,364.75 -91.46,362.77 -88.87,361.40 -86.29,360.03 -83.66,358.55 -81.03,357.08 -79.13,355.87 -77.23,354.65 -74.22,352.49 -71.21,350.33 -68.41,348.39 -65.62,346.45 -63.54,344.81 -61.45,343.16 -59.45,341.38 -57.44,339.60 -55.73,338.29 -54.02,336.98 -50.80,334.81 -47.58,332.63 -45.64,331.42 -43.71,330.20 -41.10,328.46 -38.49,326.71 -35.66,324.65 -32.83,322.59 -29.63,320.53 -26.42,318.47 -23.39,316.42 -20.35,314.37 -18.41,313.00 -16.47,311.64 -13.78,309.65 -11.09,307.67 -9.48,306.14 -7.87,304.61 -5.36,302.29 -2.84,299.96 -0.50,297.91 1.84,295.85 3.63,293.77 5.43,291.68 7.63,288.81 9.84,285.95 11.68,283.27 13.53,280.60 15.62,277.45 17.72,274.30 20.17,271.18 22.62,268.05 24.57,265.73 26.51,263.41 27.89,261.40 29.28,259.38 30.87,257.36 32.46,255.34 30.35,254.73 28.24,254.11 25.26,254.08 22.28,254.05 19.91,254.02 17.54,253.98 14.14,253.48 10.74,252.98 8.90,251.58 7.05,250.18 6.47,245.89 5.90,241.60 7.22,239.61 8.54,237.63 11.29,235.17 14.05,232.71 16.65,230.69 19.26,228.67 21.70,226.83 24.15,224.99 28.17,222.44 32.18,219.90 36.58,216.55 40.98,213.20 43.34,211.18 45.71,209.17 47.48,207.59 49.26,206.02 51.38,203.92 53.51,201.82 55.83,198.48 58.16,195.13 59.56,193.24 60.96,191.35 63.31,188.91 65.66,186.47 67.67,184.63 69.68,182.79 71.49,181.19 73.30,179.58 75.00,178.06 76.71,176.53 78.62,174.82 80.54,173.11 82.79,171.26 85.04,169.40 87.94,167.02 90.83,164.64 93.11,162.55 95.39,160.45 97.24,158.54 99.10,156.63 101.06,154.31 103.01,152.00 104.73,149.84 106.44,147.68 108.24,145.50 110.04,143.32 111.64,141.48 113.24,139.64 115.13,137.33 117.01,135.02 117.84,133.07 118.68,131.11 119.17,130.53 119.66,129.96 120.27,129.51 120.88,129.07 121.59,128.79 122.29,128.50 123.04,128.40 123.79,128.29 124.54,128.36 125.29,128.44 126.01,128.69 126.72,128.95 127.35,129.36 127.99,129.78 128.50,130.33 129.01,130.89 129.38,131.55 129.75,132.22 129.94,132.95 130.14,133.68 130.16,134.44 130.17,135.19 130.01,135.93 129.84,136.67 129.50,137.35 129.17,138.03 125.54,139.52 121.91,141.00 119.48,141.58 117.04,142.15 114.55,142.67 112.07,143.20 109.93,143.61 107.78,144.01 104.28,144.45 100.77,144.89 97.67,145.11 94.57,145.32 91.23,145.15 87.88,144.99 85.42,141.98 82.96,138.96 84.19,135.39 85.43,131.82 87.28,130.24 89.13,128.66 91.02,127.27 92.91,125.88 95.55,124.08 98.19,122.28 100.59,120.66 102.99,119.05 105.28,117.57 107.57,116.10 109.75,114.81 111.94,113.53 114.00,112.36 116.07,111.18 118.76,109.86 121.46,108.53 123.86,107.39 126.25,106.25 128.70,105.13 131.15,104.02 133.61,102.95 136.08,101.88 138.85,100.56 141.62,99.24 144.10,97.97 146.57,96.69 149.09,95.29 151.61,93.88 154.26,92.34 156.90,90.79 159.53,89.10 162.17,87.41 164.65,85.58 167.14,83.76 170.33,81.07 173.52,78.39 176.36,75.92 179.21,73.45 181.97,71.01 184.73,68.57 187.87,65.52 191.01,62.47 193.48,59.88 195.95,57.28 198.03,54.91 200.11,52.53 202.22,50.15 204.34,47.76 206.39,45.50 208.44,43.24 210.19,41.24 211.94,39.24 213.75,37.09 215.57,34.94 218.11,31.82 220.65,28.70 221.93,26.98 223.21,25.26 225.07,22.52 226.94,19.77 228.30,17.48 229.67,15.18 230.53,13.04 231.39,10.90 233.09,13.30 234.78,15.69 231.72,17.99 228.66,20.30 225.94,20.76 223.22,21.22 220.85,21.31 218.47,21.40 215.06,21.03 211.65,20.65 208.30,19.48 204.94,18.31 203.51,15.95 202.08,13.59 202.52,11.16 202.95,8.73 204.51,6.99 206.06,5.25 208.03,3.73 210.00,2.21 212.62,0.35 215.25,-1.50 217.35,-2.91 219.45,-4.32 223.39,-7.01 227.33,-9.71 229.66,-11.20 231.98,-12.70 234.14,-14.15 236.29,-15.60 238.33,-17.11 240.37,-18.62 242.37,-20.40 244.38,-22.19 246.45,-24.72 248.53,-27.25 249.79,-29.29 251.05,-31.32 252.25,-33.49 253.44,-35.65 255.19,-38.50 256.94,-41.36 258.32,-43.37 259.70,-45.38 261.26,-48.19 262.83,-51.00 264.52,-54.03 266.22,-57.05 267.70,-59.00 269.17,-60.95 270.91,-63.71 272.65,-66.46 273.94,-68.42 275.24,-70.37 277.00,-72.75 278.76,-75.13 280.19,-77.66 281.61,-80.19 282.07,-82.96 282.53,-85.73 283.00,-88.49 283.47,-91.26 284.00,-93.49 284.53,-95.73 285.75,-98.88 286.97,-102.04 287.56,-104.13 288.16,-106.22 288.62,-108.87 289.07,-111.53 289.57,-114.12 290.07,-116.71 290.77,-119.28 291.48,-121.85 291.82,-124.06 292.17,-126.27 292.21,-128.42 292.25,-130.56 292.26,-133.10 292.28,-135.64 292.28,-138.03 292.28,-140.41 292.28,-143.38 292.28,-146.36 292.28,-149.12 292.28,-151.89 292.28,-154.71 292.27,-157.53 292.23,-160.16 292.19,-162.78 291.84,-165.14 291.49,-167.51 291.16,-169.95 290.82,-172.38 293.53,-172.30 296.24,-172.22 292.94,-170.54 289.63,-168.87 285.96,-167.32 282.29,-165.78 279.46,-164.57 276.64,-163.35 274.51,-162.56 272.39,-161.77 269.47,-161.04 266.54,-160.31 263.54,-159.78 260.53,-159.25 257.26,-158.94 253.99,-158.64 250.30,-159.90 246.61,-161.16 245.58,-163.26 244.55,-165.37 244.77,-167.80 244.98,-170.23 246.77,-173.19 248.56,-176.15 250.90,-178.74 253.25,-181.32 254.87,-183.38 256.49,-185.43 257.63,-187.34 258.77,-189.25 259.85,-191.96 260.92,-194.67 261.67,-196.97 262.42,-199.26 262.89,-201.75 263.36,-204.23 263.68,-206.98 264.00,-209.73 264.37,-212.53 264.73,-215.33 265.00,-217.44 265.27,-219.55 266.01,-222.37 266.76,-225.18 267.38,-227.82 267.99,-230.45 268.93,-233.89 269.87,-237.32 270.71,-239.91 271.55,-242.49 273.68,-240.82 275.82,-239.15 274.06,-237.19 272.30,-235.22 269.02,-233.43 265.74,-231.63 263.95,-230.49 262.15,-229.35 258.95,-227.60 255.75,-225.85 251.98,-225.56 248.22,-225.27 246.23,-226.10 244.25,-226.93 242.96,-228.75 241.66,-230.58 239.93,-234.51 238.19,-238.43 236.87,-240.66 235.54,-242.90 234.89,-239.98 234.24,-237.07 232.81,-235.44 231.38,-233.81 228.77,-231.18 226.16,-228.56 223.98,-227.05 221.79,-225.55 219.11,-224.53 216.44,-223.51 212.98,-222.64 209.53,-221.77 206.86,-221.39 204.19,-221.01 202.10,-216.60 200.02,-212.19 198.09,-209.32 196.16,-206.44 194.49,-203.82 192.83,-201.21 192.45,-200.45 192.07,-199.69 191.56,-199.04 191.05,-198.39 190.40,-197.88 189.74,-197.37 188.99,-197.03 188.23,-196.69 187.42,-196.54 186.60,-196.39 185.77,-196.44 184.95,-196.49 184.16,-196.74 183.36,-196.99 182.66,-197.42 181.95,-197.85 181.36,-198.43 180.78,-199.02 180.35,-199.73 179.92,-200.44 179.68,-201.23 179.43,-202.02 179.38,-202.85 179.33,-203.68 179.48,-204.49 179.63,-205.31 179.97,-206.06 180.31,-206.82 180.49,-202.93 180.66,-199.04 179.63,-200.95 178.60,-202.86 177.91,-206.02 177.21,-209.18 176.34,-213.40 175.47,-217.62 174.84,-219.69 174.21,-221.77 172.92,-224.46 171.63,-227.16 170.27,-229.31 168.91,-231.47 168.24,-233.05 167.57,-234.63 167.40,-235.45 167.23,-236.27 167.26,-237.11 167.29,-237.95 167.52,-238.75 167.75,-239.56 168.17,-240.29 168.59,-241.02 169.16,-241.62 169.74,-242.23 170.45,-242.68 171.16,-243.13 171.95,-243.40 172.75,-243.67 173.58,-243.74 174.42,-243.81 175.25,-243.68 176.08,-243.55 176.85,-243.22 177.62,-242.90 178.29,-242.40 178.97,-241.90 179.50,-241.25 180.03,-240.60 180.40,-239.84 180.76,-239.09 178.74,-234.67 176.73,-230.26 173.73,-226.84 170.73,-223.42 169.24,-221.76 167.74,-220.11 166.30,-218.50 164.87,-216.88 162.15,-213.40 159.43,-209.91 157.05,-206.94 154.66,-203.96 152.00,-201.01 149.34,-198.05 146.98,-195.86 144.61,-193.67 142.38,-191.89 140.14,-190.11 138.41,-188.80 136.67,-187.50 134.05,-185.55 131.43,-183.61 129.46,-181.84 127.48,-180.08 124.42,-177.37 121.35,-174.66 118.78,-172.46 116.22,-170.26 114.25,-168.58 112.27,-166.90 110.10,-165.18 107.92,-163.46 105.40,-161.56 102.87,-159.66 100.75,-158.11 98.64,-156.55 94.84,-155.10 91.04,-153.64 88.64,-154.28 86.24,-154.92 84.92,-156.78 83.60,-158.64 82.92,-162.46 82.24,-166.28 81.87,-168.83 81.50,-171.37 80.75,-175.54 80.00,-179.70 84.39,-180.66 88.78,-181.62 87.79,-179.16 86.79,-176.70 85.57,-174.64 84.34,-172.57 82.67,-170.04 81.00,-167.50 78.60,-164.21 76.20,-160.92 73.93,-158.03 71.65,-155.14 69.33,-152.42 67.01,-149.69 64.32,-146.98 61.64,-144.26 57.90,-141.13 54.16,-138.00 51.14,-135.53 48.12,-133.05 45.18,-130.76 42.24,-128.47 39.62,-126.32 37.00,-124.16 34.58,-122.06 32.16,-119.96 29.37,-117.54 26.58,-115.13 24.31,-113.09 22.03,-111.05 20.05,-109.26 18.07,-107.46 16.33,-105.85 14.59,-104.25 12.31,-102.08 10.03,-99.91 8.10,-98.18 6.17,-96.44 3.25,-93.82 0.32,-91.20 -2.48,-88.82 -5.30,-86.43 -7.52,-84.94 -9.75,-83.45 -12.77,-83.21 -15.80,-82.97 -18.32,-84.46 -20.85,-85.94 -23.01,-88.00 -25.17,-90.06 -27.19,-92.62 -29.21,-95.17 -30.30,-97.10 -31.40,-99.03 -32.99,-102.17 -34.59,-105.30 -35.15,-105.86 -35.72,-106.42 -35.98,-107.19 -36.24,-107.96 -36.31,-108.77 -36.38,-109.57 -36.25,-110.38 -36.13,-111.18 -35.81,-111.93 -35.50,-112.67 -35.01,-113.33 -34.53,-113.98 -33.90,-114.49 -33.28,-115.01 -32.55,-115.36 -31.82,-115.72 -31.02,-115.88 -30.23,-116.05 -29.42,-116.02 -28.61,-115.99 -27.83,-115.77 -27.05,-115.55 -26.34,-115.15 -25.64,-114.75 -25.05,-114.19 -24.46,-113.63 -24.02,-112.94 -23.58,-112.26 -24.42,-108.03 -25.25,-103.80 -27.25,-99.20 -29.25,-94.61 -30.73,-91.25 -32.20,-87.89 -33.80,-84.27 -35.40,-80.66 -37.72,-75.85 -40.03,-71.04 -42.29,-66.62 -44.54,-62.20 -46.85,-57.84 -49.16,-53.48 -51.33,-49.31 -53.51,-45.14 -55.67,-41.09 -57.83,-37.04 -60.85,-31.81 -63.87,-26.58 -66.66,-21.81 -69.44,-17.05 -72.24,-12.16 -75.04,-7.27 -77.97,-1.91 -80.91,3.43 -84.43,10.32 -87.96,17.22 -90.60,22.51 -93.23,27.81 -95.25,31.81 -97.27,35.80 -98.99,38.86 -100.72,41.93 -102.17,44.37 -103.63,46.82 -105.67,49.75 -107.72,52.69 -109.33,54.89 -110.94,57.08 -112.85,59.57 -114.76,62.07 -116.34,63.97 -117.91,65.88 -123.02,67.50 -128.12,69.12 -131.40,65.90 -134.68,62.69 -135.79,60.19 -136.89,57.69 -137.77,55.09 -138.66,52.50 -139.58,49.35 -140.51,46.20 -135.27,46.20 -130.03,46.21 -130.39,49.74 -130.74,53.28 -131.97,56.84 -133.20,60.40 -134.92,64.81 -136.65,69.23 -138.80,74.65 -140.95,80.08 -143.38,86.19 -145.81,92.30 -148.67,99.76 -151.54,107.22 -153.49,112.69 -155.44,118.17 -156.74,122.46 -158.03,126.76 -159.04,130.52 -160.04,134.28 -161.26,139.19 -162.48,144.10 -163.73,148.88 -164.99,153.66 -166.30,158.10 -167.62,162.54 -168.87,166.26 -170.12,169.98 -171.29,172.94 -172.46,175.90 -173.91,178.75 -175.36,181.61 -176.40,183.55 -177.45,185.50 -179.53,189.23 -181.61,192.95 -183.68,196.21 -185.76,199.47 -187.82,202.69 -189.89,205.90 -192.10,209.23 -194.31,212.56 -196.45,215.79 -198.60,219.02 -200.88,222.24 -203.15,225.45 -205.60,228.77 -208.05,232.09 -209.85,234.38 -211.65,236.67 -213.04,238.35 -214.42,240.02 -216.89,243.06 -219.35,246.09 -220.90,248.03 -222.46,249.96 -222.80,250.49 -223.15,251.02 -223.76,251.61 -224.37,252.19 -225.11,252.61 -225.84,253.03 -226.65,253.27 -227.47,253.50 -228.31,253.53 -229.16,253.56 -229.99,253.39 -230.81,253.22 -231.58,252.85 -232.34,252.49 -232.99,251.95 -233.65,251.41 -234.15,250.73 -234.66,250.06 -234.99,249.28 -235.32,248.50 -235.45,247.66 -235.58,246.83 -235.51,245.98 -235.44,245.14 -235.17,244.34 -234.90,243.54 -234.44,242.83 -233.99,242.11 -234.51,245.56 -235.03,249.01 -235.60,246.12 -236.17,243.24 -236.23,240.93 -236.29,238.62 -236.34,233.98 -236.40,229.34 -236.62,226.99 -236.84,224.63 -237.07,222.59 -237.30,220.55 -237.21,219.74 -237.12,218.93 -236.84,218.16 -236.57,217.39 -236.11,216.71 -235.66,216.03 -235.06,215.48 -234.45,214.93 -233.73,214.54 -233.02,214.15 -232.23,213.94 -231.44,213.74 -230.62,213.72 -229.80,213.71 -229.01,213.89 -228.21,214.08 -227.48,214.45 -226.75,214.82 -226.13,215.35 -225.51,215.88 -225.04,216.55 -224.57,217.21 -224.26,217.97 -223.96,218.73 -223.85,219.54 -223.74,220.35 -224.55,222.79 -225.35,225.22 -226.03,227.43 -226.71,229.64 -227.32,231.71 -227.94,233.77 -228.49,235.97 -229.05,238.17 -229.61,240.61 -230.17,243.06 -230.74,245.77 -231.30,248.47 -232.03,252.24 -232.76,256.00 -233.47,259.23 -234.17,262.46 -234.91,265.39 -235.64,268.32 -236.37,271.15 -237.09,273.98 -238.15,278.02 -239.21,282.05 -240.16,285.63 -241.11,289.22 -242.14,292.63 -243.17,296.05 -244.16,299.11 -245.15,302.18 -246.03,304.83 -246.91,307.48 -247.75,310.29 -248.60,313.11 -249.49,315.61 -250.38,318.11 -251.30,320.33 -252.23,322.55 -253.17,324.51 -254.12,326.47 -255.15,328.49 -256.19,330.50 -257.96,333.63 -259.72,336.77 -261.29,339.67 -262.85,342.57 -263.80,344.69 -264.74,346.81 -266.39,350.30 -268.03,353.79 -270.34,357.77 -272.64,361.74 -273.95,364.02 -275.26,366.29 -276.37,368.51 -277.48,370.73 -278.31,372.73 -279.14,374.74 -280.31,378.23 -281.48,381.72 -282.40,383.66 -283.31,385.59 -285.12,389.19 -286.94,392.79 -288.19,395.44 -289.43,398.09 -290.37,400.36 -291.31,402.64 -292.10,404.85 -292.88,407.07 -293.68,409.44 -294.49,411.82 -295.38,414.18 -296.28,416.55 -297.66,419.59 -299.03,422.64 -300.49,425.34 -301.95,428.04 -303.52,430.44 -305.08,432.84 -306.50,434.86 -307.93,436.88 -309.63,439.21 -311.32,441.54 -312.63,443.50 -313.93,445.47 -316.24,449.09 -318.55,452.72 -320.20,455.25 -321.86,457.79 -323.67,460.95 -325.49,464.10 -327.51,467.47 -329.53,470.84 -331.13,473.25 -332.74,475.65 -334.84,478.33 -336.95,481.00 -339.57,484.16 -342.20,487.32 -342.33,487.73 -342.46,488.13 -342.71,488.48 -342.96,488.82 -343.31,489.06 -343.66,489.31 -344.06,489.43 -344.47,489.55 -344.90,489.53 -345.32,489.51 -345.72,489.36 -346.11,489.21 -346.44,488.94 -346.77,488.67 -347.00,488.31 -347.22,487.95 -347.32,487.54 -347.42,487.12 -347.38,486.70 -347.34,486.28 -347.16,485.89 -346.99,485.50 -346.70,485.19 -346.42,484.87 -346.04,484.67 -345.67,484.46 -345.25,484.39 -344.84,484.31 -344.42,484.38 -344.00,484.44 -343.62,484.63 -343.24,484.82 -342.94,485.13 -342.64,485.43 -342.46,485.82 -342.28,486.20 -342.22,486.62 -342.17,487.04 -342.26,487.46 -342.34,487.87 -342.55,488.24 -342.77,488.61 -343.09,488.89 -343.41,489.17 -343.80,489.33 -344.19,489.50 -344.62,489.53 -345.04,489.56 -345.45,489.45 -345.86,489.34 -346.22,489.11 -346.57,488.87 -346.83,488.54 -347.10,488.21 -347.24,487.81 -347.38,487.40 -347.39,486.98 -347.39,486.55 -347.39,486.56 -347.39,486.56 -348.50,483.25 -349.61,479.94 -347.82,474.94 -346.04,469.95 -344.46,467.78 -342.89,465.62 -341.16,462.94 -339.42,460.26 -337.63,457.08 -335.84,453.90 -333.99,450.78 -332.14,447.65 -330.15,444.71 -328.15,441.76 -326.90,439.71 -325.64,437.65 -324.18,435.47 -322.71,433.28 -321.07,431.01 -319.42,428.74 -318.13,426.92 -316.84,425.10 -315.58,423.21 -314.31,421.32 -313.08,419.07 -311.85,416.82 -310.65,414.18 -309.45,411.55 -308.63,409.41 -307.82,407.28 -306.98,404.82 -306.14,402.36 -305.23,399.81 -304.32,397.25 -303.25,394.68 -302.18,392.11 -300.88,389.32 -299.57,386.54 -297.78,383.01 -296.00,379.49 -294.74,376.56 -293.48,373.63 -292.80,371.50 -292.13,369.36 -291.09,366.88 -290.06,364.40 -288.76,361.84 -287.47,359.27 -286.09,356.88 -284.71,354.48 -282.69,351.07 -280.67,347.66 -279.11,344.37 -277.55,341.07 -275.51,336.85 -273.48,332.62 -271.86,329.85 -270.23,327.07 -268.47,323.71 -266.72,320.34 -265.13,316.87 -263.54,313.40 -262.76,311.24 -261.98,309.07 -261.07,306.07 -260.16,303.06 -259.29,300.46 -258.42,297.86 -257.47,294.95 -256.52,292.05 -255.56,288.83 -254.59,285.61 -253.63,282.04 -252.67,278.46 -251.60,274.49 -250.53,270.53 -249.80,267.72 -249.07,264.91 -248.37,262.19 -247.68,259.46 -246.98,256.39 -246.28,253.32 -245.51,249.48 -244.73,245.63 -244.12,242.78 -243.51,239.93 -242.89,237.35 -242.28,234.77 -241.64,232.33 -241.00,229.89 -240.39,227.84 -239.79,225.79 -238.54,223.17 -237.30,220.55 -237.21,219.74 -237.12,218.93 -236.84,218.16 -236.57,217.39 -236.11,216.71 -235.66,216.03 -235.06,215.48 -234.45,214.93 -233.74,214.54 -233.02,214.15 -232.23,213.94 -231.44,213.74 -230.62,213.72 -229.80,213.71 -229.01,213.89 -228.21,214.08 -227.48,214.45 -226.75,214.81 -226.13,215.35 -225.51,215.88 -225.04,216.54 -224.57,217.21 -224.27,217.97 -223.96,218.73 -223.85,219.54 -223.74,220.35 -223.47,222.00 -223.19,223.65 -222.98,226.38 -222.78,229.10 -222.72,232.09 -222.67,235.09 -222.93,238.75 -223.20,242.41 -223.17,246.72 -223.15,251.02 -223.76,251.61 -224.37,252.19 -225.11,252.61 -225.84,253.03 -226.65,253.27 -227.47,253.50 -228.31,253.53 -229.16,253.56 -229.99,253.39 -230.81,253.22 -231.58,252.85 -232.34,252.49 -232.99,251.95 -233.65,251.41 -234.15,250.74 -234.66,250.06 -234.99,249.28 -235.32,248.50 -235.45,247.66 -235.58,246.83 -235.51,245.99 -235.44,245.14 -235.17,244.34 -234.90,243.54 -234.45,242.83 -233.99,242.11 -233.65,241.59 -233.30,241.06 -231.80,239.20 -230.29,237.35 -228.85,235.55 -227.40,233.74 -225.02,230.89 -222.64,228.03 -220.96,225.90 -219.27,223.76 -216.90,220.58 -214.52,217.39 -212.36,214.35 -210.21,211.32 -208.06,208.08 -205.92,204.85 -203.76,201.60 -201.60,198.35 -199.54,195.17 -197.48,191.98 -195.58,189.02 -193.68,186.07 -192.59,184.17 -191.51,182.27 -189.58,178.77 -187.65,175.27 -186.48,173.04 -185.30,170.80 -184.26,168.17 -183.21,165.53 -182.02,162.07 -180.84,158.61 -179.58,154.39 -178.32,150.16 -177.09,145.47 -175.86,140.77 -174.61,135.74 -173.35,130.72 -172.28,126.75 -171.22,122.78 -169.82,118.16 -168.42,113.54 -166.41,107.91 -164.40,102.28 -161.50,94.75 -158.60,87.22 -156.18,81.11 -153.76,75.00 -151.62,69.61 -149.48,64.21 -147.85,60.04 -146.21,55.87 -145.08,52.63 -143.94,49.38 -143.02,46.29 -142.09,43.19 -140.86,41.42 -139.63,39.66 -135.70,38.71 -131.77,37.76 -129.54,40.00 -127.31,42.23 -126.44,45.17 -125.57,48.11 -124.90,50.15 -124.23,52.19 -123.85,55.32 -123.47,58.45 -126.10,57.62 -128.73,56.80 -127.27,55.04 -125.81,53.27 -124.04,50.98 -122.28,48.69 -120.76,46.65 -119.23,44.61 -117.47,42.11 -115.70,39.61 -114.32,37.30 -112.93,34.99 -111.35,32.23 -109.77,29.47 -107.77,25.52 -105.76,21.57 -103.09,16.21 -100.42,10.84 -96.80,3.77 -93.18,-3.29 -90.18,-8.76 -87.18,-14.24 -84.34,-19.17 -81.50,-24.09 -78.72,-28.84 -75.95,-33.60 -73.02,-38.61 -70.09,-43.62 -67.95,-47.60 -65.80,-51.57 -63.59,-55.78 -61.37,-59.99 -59.09,-64.24 -56.81,-68.48 -54.61,-72.77 -52.40,-77.06 -50.16,-81.63 -47.91,-86.20 -46.31,-89.82 -44.70,-93.44 -43.18,-96.82 -41.66,-100.20 -40.39,-102.98 -39.12,-105.77 -37.79,-108.54 -36.46,-111.32 -36.09,-108.87 -35.71,-106.42 -35.98,-107.19 -36.24,-107.96 -36.31,-108.77 -36.38,-109.57 -36.25,-110.38 -36.13,-111.18 -35.81,-111.93 -35.50,-112.67 -35.01,-113.33 -34.53,-113.98 -33.91,-114.49 -33.28,-115.01 -32.55,-115.36 -31.82,-115.71 -31.02,-115.88 -30.23,-116.05 -29.42,-116.02 -28.61,-115.99 -27.83,-115.77 -27.05,-115.55 -26.34,-115.15 -25.64,-114.75 -25.05,-114.19 -24.46,-113.63 -24.02,-112.95 -23.58,-112.26 -23.10,-111.87 -22.62,-111.48 -21.11,-108.61 -19.61,-105.74 -18.04,-103.19 -16.46,-100.63 -15.27,-98.84 -14.07,-97.05 -11.42,-99.27 -8.77,-101.50 -5.88,-104.08 -3.00,-106.67 -1.20,-108.28 0.59,-109.89 2.93,-112.10 5.27,-114.30 7.07,-115.98 8.87,-117.65 10.88,-119.46 12.90,-121.27 15.26,-123.37 17.62,-125.48 20.40,-127.89 23.17,-130.29 25.73,-132.52 28.29,-134.75 31.07,-137.03 33.84,-139.31 36.64,-141.47 39.45,-143.64 42.44,-146.08 45.42,-148.53 48.70,-151.22 51.97,-153.90 54.30,-156.22 56.63,-158.54 58.79,-161.07 60.95,-163.61 63.08,-166.29 65.20,-168.98 67.44,-172.00 69.67,-175.03 71.17,-177.27 72.67,-179.51 75.02,-183.39 77.37,-187.27 79.69,-189.35 82.00,-191.43 87.00,-189.90 92.00,-188.36 92.75,-185.29 93.51,-182.22 93.92,-179.99 94.33,-177.76 94.70,-175.56 95.07,-173.35 94.85,-169.09 94.62,-164.82 92.40,-166.16 90.17,-167.50 92.25,-169.04 94.33,-170.59 96.84,-172.47 99.34,-174.35 101.31,-175.91 103.29,-177.46 105.24,-179.12 107.19,-180.78 111.30,-184.34 115.40,-187.89 118.04,-190.23 120.68,-192.57 123.16,-194.61 125.64,-196.64 128.58,-198.81 131.53,-200.98 133.38,-202.43 135.22,-203.88 137.31,-205.78 139.40,-207.69 141.65,-210.17 143.91,-212.65 146.15,-215.46 148.40,-218.27 150.09,-220.48 151.77,-222.70 153.15,-224.38 154.54,-226.06 156.03,-227.74 157.52,-229.42 159.14,-231.19 160.76,-232.96 162.34,-234.60 163.91,-236.24 166.36,-238.88 168.80,-241.51 168.19,-238.07 167.57,-234.63 167.40,-235.45 167.23,-236.27 167.26,-237.11 167.29,-237.95 167.52,-238.75 167.75,-239.56 168.17,-240.29 168.58,-241.02 169.16,-241.62 169.74,-242.23 170.45,-242.68 171.16,-243.13 171.95,-243.40 172.75,-243.67 173.58,-243.74 174.42,-243.81 175.25,-243.68 176.07,-243.55 176.85,-243.22 177.62,-242.90 178.29,-242.40 178.97,-241.90 179.50,-241.25 180.03,-240.60 180.39,-239.84 180.76,-239.09 181.70,-237.62 182.64,-236.14 184.24,-233.23 185.84,-230.32 186.77,-228.05 187.71,-225.78 188.48,-223.15 189.25,-220.52 189.81,-217.83 190.38,-215.14 190.48,-211.80 190.57,-208.46 191.32,-204.08 192.07,-199.69 191.56,-199.04 191.05,-198.39 190.40,-197.88 189.74,-197.37 188.99,-197.03 188.23,-196.69 187.42,-196.54 186.60,-196.39 185.77,-196.44 184.95,-196.49 184.16,-196.74 183.37,-196.99 182.66,-197.42 181.95,-197.85 181.36,-198.43 180.78,-199.02 180.35,-199.73 179.92,-200.44 179.68,-201.23 179.43,-202.02 179.38,-202.85 179.33,-203.68 179.48,-204.49 179.63,-205.31 179.97,-206.06 180.31,-206.82 180.70,-207.57 181.09,-208.32 182.95,-211.20 184.80,-214.08 186.66,-216.84 188.52,-219.60 190.88,-223.23 193.24,-226.87 194.81,-229.02 196.38,-231.18 198.82,-232.50 201.26,-233.82 203.85,-234.43 206.43,-235.03 209.49,-235.79 212.55,-236.55 214.81,-237.56 217.07,-238.57 219.24,-240.68 221.41,-242.79 224.01,-245.73 226.60,-248.66 228.64,-250.82 230.67,-252.97 232.95,-254.08 235.23,-255.19 237.98,-254.95 240.73,-254.71 242.67,-253.60 244.60,-252.49 246.40,-250.07 248.20,-247.65 249.31,-245.72 250.42,-243.79 250.09,-240.95 249.76,-238.11 252.31,-239.49 254.87,-240.88 256.88,-242.14 258.89,-243.40 261.30,-244.80 263.71,-246.19 265.94,-247.27 268.17,-248.36 270.15,-249.31 272.13,-250.27 274.54,-250.97 276.95,-251.66 279.40,-251.18 281.86,-250.69 283.28,-249.05 284.71,-247.40 285.26,-243.88 285.80,-240.35 284.90,-238.18 284.00,-236.01 283.06,-232.70 282.11,-229.40 281.45,-226.88 280.78,-224.36 280.16,-221.69 279.53,-219.02 279.04,-216.36 278.54,-213.70 278.25,-211.46 277.96,-209.22 277.55,-206.45 277.13,-203.67 276.62,-201.21 276.10,-198.75 275.38,-196.20 274.67,-193.64 273.57,-190.63 272.47,-187.61 271.52,-185.25 270.57,-182.89 269.07,-180.37 267.56,-177.85 266.20,-176.02 264.83,-174.18 262.97,-172.15 261.10,-170.12 259.22,-169.11 257.34,-168.09 255.23,-170.01 253.12,-171.92 255.55,-172.19 257.99,-172.46 260.72,-172.94 263.46,-173.42 266.40,-174.31 269.34,-175.20 271.66,-176.14 273.99,-177.08 277.09,-178.43 280.20,-179.77 284.20,-181.52 288.20,-183.26 290.44,-184.02 292.68,-184.77 295.05,-184.63 297.43,-184.50 301.37,-179.45 305.31,-174.41 305.63,-172.03 305.95,-169.65 306.38,-166.45 306.81,-163.25 306.86,-160.39 306.90,-157.53 306.90,-154.71 306.89,-151.89 306.89,-149.12 306.90,-146.36 306.90,-143.38 306.90,-140.41 306.90,-138.02 306.90,-135.64 306.91,-132.15 306.92,-128.67 306.77,-125.79 306.63,-122.91 305.99,-119.85 305.35,-116.79 304.65,-113.74 303.95,-110.68 303.36,-108.38 302.76,-106.07 301.93,-103.64 301.10,-101.21 300.35,-99.00 299.59,-96.80 298.45,-94.01 297.31,-91.23 296.61,-88.91 295.91,-86.59 295.57,-83.79 295.22,-80.98 294.70,-78.80 294.18,-76.62 293.29,-74.60 292.40,-72.58 290.78,-69.99 289.17,-67.41 287.61,-65.31 286.05,-63.22 283.87,-59.82 281.68,-56.43 279.47,-53.38 277.26,-50.33 275.78,-47.74 274.31,-45.14 272.32,-41.62 270.33,-38.10 268.22,-34.94 266.11,-31.78 264.75,-29.37 263.38,-26.95 262.02,-24.58 260.66,-22.20 258.46,-19.17 256.25,-16.14 254.55,-14.33 252.84,-12.53 250.41,-10.43 247.97,-8.32 245.68,-6.64 243.40,-4.97 241.12,-3.45 238.84,-1.93 236.68,-0.56 234.51,0.80 232.30,2.32 230.08,3.83 228.30,5.03 226.52,6.24 224.53,7.56 222.55,8.89 218.36,11.71 214.17,14.52 213.39,11.43 212.61,8.35 215.63,8.71 218.66,9.08 220.87,8.89 223.08,8.69 226.00,8.02 228.92,7.35 231.10,6.51 233.28,5.67 237.21,6.03 241.14,6.40 242.19,10.78 243.24,15.15 241.98,18.20 240.71,21.24 239.05,23.99 237.39,26.74 235.33,29.76 233.27,32.78 230.60,36.21 227.93,39.63 226.52,41.34 225.11,43.04 223.22,45.25 221.33,47.46 219.50,49.55 217.68,51.64 215.67,53.84 213.65,56.04 211.56,58.39 209.47,60.75 207.19,63.34 204.91,65.93 202.26,68.64 199.62,71.35 196.27,74.59 192.91,77.83 190.10,80.31 187.29,82.80 184.35,85.33 181.40,87.86 177.89,90.75 174.37,93.65 171.58,95.68 168.78,97.72 165.92,99.55 163.06,101.39 160.29,102.99 157.53,104.59 154.84,106.06 152.15,107.53 149.49,108.90 146.83,110.27 143.85,111.66 140.88,113.06 138.53,114.06 136.18,115.05 133.82,116.13 131.46,117.20 129.09,118.33 126.72,119.46 124.33,120.58 121.94,121.70 119.97,122.79 117.99,123.87 116.00,125.03 114.02,126.19 111.84,127.57 109.66,128.95 107.28,130.56 104.89,132.16 102.43,133.82 99.96,135.48 96.47,136.89 92.98,138.29 91.87,135.83 90.75,133.36 93.66,133.20 96.56,133.04 99.39,132.69 102.22,132.34 105.84,131.71 109.47,131.08 111.78,130.58 114.09,130.07 116.38,130.59 118.68,131.11 119.17,130.54 119.66,129.96 120.27,129.51 120.88,129.07 121.59,128.79 122.29,128.50 123.04,128.40 123.79,128.29 124.54,128.36 125.29,128.44 126.01,128.69 126.72,128.94 127.35,129.36 127.99,129.78 128.50,130.33 129.01,130.89 129.38,131.55 129.75,132.22 129.94,132.95 130.14,133.68 130.16,134.43 130.17,135.19 130.01,135.93 129.84,136.67 129.51,137.35 129.17,138.03 129.26,138.32 129.36,138.62 128.11,140.67 126.87,142.71 124.76,145.27 122.66,147.83 121.16,149.55 119.66,151.28 117.93,153.36 116.20,155.44 114.35,157.75 112.51,160.07 110.25,162.71 107.99,165.36 105.87,167.49 103.74,169.63 101.21,171.92 98.68,174.21 95.78,176.57 92.89,178.94 90.83,180.63 88.77,182.33 86.86,184.03 84.96,185.73 83.22,187.29 81.49,188.84 79.75,190.37 78.02,191.91 76.25,193.52 74.47,195.14 71.42,198.60 68.36,202.06 67.05,203.99 65.73,205.92 64.03,208.14 62.33,210.36 59.86,212.79 57.40,215.21 55.52,216.87 53.65,218.52 51.19,220.60 48.74,222.68 43.54,226.56 38.35,230.45 34.79,232.68 31.23,234.92 29.01,236.59 26.79,238.25 24.29,240.20 21.78,242.15 19.66,241.89 17.54,241.63 19.93,241.60 22.32,241.57 25.38,241.58 28.45,241.58 31.65,241.68 34.85,241.79 37.32,242.45 39.79,243.12 41.63,244.28 43.47,245.44 44.92,249.25 46.36,253.06 45.83,255.67 45.29,258.29 43.94,260.65 42.58,263.02 40.64,265.53 38.71,268.04 37.40,269.89 36.10,271.73 34.33,273.86 32.56,275.98 30.32,278.81 28.07,281.64 26.03,284.73 23.99,287.81 22.01,290.65 20.04,293.49 17.58,296.68 15.12,299.88 12.57,302.71 10.03,305.54 7.87,307.44 5.71,309.34 3.36,311.49 1.01,313.64 -1.19,315.68 -3.41,317.71 -6.31,319.85 -9.20,321.99 -11.17,323.37 -13.14,324.75 -16.44,326.97 -19.73,329.19 -22.59,331.00 -25.46,332.81 -28.31,334.89 -31.16,336.96 -34.08,338.93 -37.00,340.89 -38.81,342.02 -40.61,343.16 -43.49,345.09 -46.36,347.02 -48.79,348.93 -51.22,350.84 -53.50,352.83 -55.77,354.81 -58.58,356.85 -61.39,358.89 -64.07,360.77 -66.76,362.66 -68.60,363.96 -70.43,365.26 -74.11,367.50 -77.78,369.73 -80.47,371.18 -83.16,372.63 -85.46,373.94 -87.77,375.25 -90.31,376.94 -92.85,378.63 -95.14,380.18 -97.43,381.72 -99.73,383.06 -102.03,384.40 -105.00,386.11 -107.98,387.82 -110.19,389.05 -112.41,390.27 -115.13,391.85 -117.86,393.43 -119.99,394.27 -122.12,395.11 -124.94,396.21 -127.76,397.31 -131.07,398.75 -134.37,400.19 -137.16,401.49 -139.96,402.80 -142.79,403.82 -145.63,404.84 -148.69,405.97 -151.76,407.10 -155.05,408.47 -158.33,409.83 -160.51,410.89 -162.69,411.94 -165.76,413.32 -168.82,414.69 -171.66,415.70 -174.50,416.71 -176.62,417.45 -178.75,418.18 -181.50,418.97 -184.25,419.76 -187.64,420.62 -191.03,421.49 -193.48,422.12 -195.92,422.76 -199.08,423.71 -202.24,424.66 -204.70,425.35 -207.15,426.04 -210.36,426.81 -213.56,427.58 -215.82,428.13 -218.07,428.67 -220.63,429.29 -223.20,429.91 -225.92,430.80 -228.65,431.68 -231.03,432.55 -233.41,433.43 -235.91,434.25 -238.40,435.07 -241.16,435.73 -243.93,436.40 -246.16,436.97 -248.39,437.55 -250.76,438.40 -253.12,439.26 -255.67,440.18 -258.21,441.09 -260.14,442.15 -262.07,443.21 -264.09,444.51 -266.11,445.80 -268.23,447.72 -270.35,449.64 -272.42,451.46 -274.49,453.27 -276.09,454.71 -277.70,456.14 -279.23,457.95 -280.75,459.76 -282.03,461.49 -283.31,463.21 -284.93,465.40 -286.55,467.59 -288.14,469.76 -289.73,471.93 -291.15,473.55 -292.57,475.17 -294.18,476.97 -295.78,478.77 -297.85,480.91 -299.91,483.05 -301.40,484.71 -302.89,486.36 -305.07,488.60 -307.25,490.84 -309.47,493.05 -311.69,495.27 -313.63,497.07 -315.57,498.87 -317.77,501.26 -319.97,503.65 -321.88,506.37 -323.79,509.08 -326.13,511.87 -328.47,514.67 -330.25,516.35 -332.03,518.04 -334.30,520.21 -336.57,522.39 -338.15,524.08 -339.73,525.78 -342.23,528.03 -344.74,530.28 -346.59,531.92 -348.44,533.55 -350.25,535.40 -352.06,537.24 -353.75,538.54 -355.45,539.84 -357.21,541.27 -358.98,542.70 -361.99,544.59 -365.01,546.48 -367.40,547.15 -369.79,547.83 -373.61,548.21 -377.43,548.59 -379.87,547.49 -382.32,546.39 -383.60,543.92 -384.88,541.44 -384.62,538.53 -384.37,535.63 -383.70,532.90 -383.02,530.17 -382.18,528.17 -381.35,526.18 -379.56,523.86 -377.78,521.55 -375.96,519.57 -374.13,517.60 -372.73,515.84 -371.33,514.08 -369.83,512.13 -368.33,510.17 -366.97,508.48 -365.60,506.79 -363.45,504.43 -361.29,502.07 -359.61,500.28 -357.93,498.50 -356.10,496.69 -354.27,494.89 -352.17,492.63 -350.06,490.36 -348.82,488.61 -347.59,486.87 -346.49,484.89 -345.39,482.91 -343.44,480.38 -341.50,477.86 -339.81,475.81 -338.13,473.77 -336.74,472.07 -335.35,470.37 -334.06,468.50 -332.78,466.63 -331.66,464.54 -330.55,462.45 -329.43,460.24 -328.30,458.03 -327.20,455.57 -326.10,453.11 -324.90,450.29 -323.69,447.46 -322.34,445.28 -320.98,443.10 -318.78,440.64 -316.58,438.18 -313.37,435.09 -310.17,431.99 -307.39,429.16 -304.61,426.32 -303.05,424.67 -301.50,423.02 -298.83,419.92 -296.15,416.83 -293.80,413.97 -291.44,411.10 -290.11,409.26 -288.78,407.42 -287.57,405.64 -286.36,403.86 -284.86,401.73 -283.36,399.60 -281.48,396.95 -279.61,394.31 -277.44,391.05 -275.27,387.79 -273.92,385.47 -272.58,383.16 -271.37,380.89 -270.16,378.62 -268.98,376.32 -267.79,374.02 -266.39,371.27 -264.99,368.53 -263.10,364.92 -261.20,361.31 -259.36,358.15 -257.51,355.00 -255.38,351.48 -253.25,347.96 -250.76,343.82 -248.27,339.68 -246.31,336.35 -244.36,333.02 -242.54,329.92 -240.72,326.83 -239.03,323.97 -237.35,321.12 -235.68,318.49 -234.00,315.86 -232.20,313.14 -230.39,310.43 -228.17,307.27 -225.95,304.11 -224.02,301.18 -222.08,298.24 -219.99,294.91 -217.90,291.59 -215.35,287.12 -212.80,282.66 -210.62,279.01 -208.44,275.36 -206.10,271.89 -203.75,268.43 -201.32,265.34 -198.89,262.25 -196.44,259.45 -193.98,256.65 -191.37,253.68 -188.76,250.71 -185.77,247.00 -182.79,243.29 -180.29,240.03 -177.78,236.76 -175.10,233.10 -172.42,229.43 -169.52,225.34 -166.63,221.24 -164.50,218.41 -162.38,215.58 -160.14,212.72 -157.91,209.87 -155.35,206.68 -152.80,203.49 -149.84,199.84 -146.88,196.20 -143.27,191.75 -139.66,187.29 -135.17,181.65 -130.68,176.01 -127.23,171.45 -123.77,166.90 -120.35,161.97 -116.93,157.04 -112.84,150.73 -108.75,144.42 -105.03,139.02 -101.32,133.62 -97.49,128.32 -93.66,123.03 -89.75,117.73 -85.85,112.42 -81.69,106.78 -77.54,101.14 -72.93,95.10 -68.32,89.06 -62.84,81.67 -57.37,74.29 -52.90,67.64 -48.43,61.00 -43.89,54.17 -39.35,47.34 -34.60,40.22 -29.84,33.11 -26.52,28.28 -23.20,23.45 -20.12,18.81 -17.04,14.18 -15.60,11.96 -14.17,9.74 -12.06,6.62 -9.96,3.50 -6.72,0.37 -3.48,-2.76 -3.10,-3.14 -2.72,-3.51 -2.26,-3.79 -1.80,-4.06 -1.28,-4.22 -0.77,-4.37 -0.24,-4.40 0.29,-4.43 0.82,-4.33 1.34,-4.23 1.83,-4.01 2.32,-3.79 2.74,-3.45 3.16,-3.12 3.49,-2.70 3.81,-2.27 4.03,-1.78 4.25,-1.29 4.34,-0.77 4.44,-0.24 4.40,0.29 4.37,0.82 4.20,1.33 4.04,1.84 3.76,2.30 3.48,2.76 3.48,2.76 L 3.48,2.76 Z"></path></g><g transform="translate(570.6735125282648 120.49209278405033) rotate(0 -28.597953426461572 38.74018215714568)" stroke="none"><path d="M0 0 C-1.95 -1.04, -7.75 -5.2, -11.7 -6.24 C-15.65 -7.28, -18.91 -7.03, -23.69 -6.24 C-28.47 -5.45, -35.3 -3.48, -40.37 -1.52 C-45.45 0.43, -50.47 3.23, -54.12 5.48 C-57.78 7.74, -60 9.59, -62.31 12.02 C-64.63 14.46, -66.56 17.18, -68.02 20.1 C-69.48 23.01, -70.36 25.5, -71.09 29.53 C-71.82 33.57, -72.24 40.34, -72.41 44.3 C-72.58 48.26, -72.8 50.28, -72.12 53.28 C-71.43 56.27, -69.94 59.42, -68.31 62.26 C-66.68 65.1, -65.55 67.48, -62.31 70.32 C-59.07 73.17, -52.73 77.33, -48.86 79.31 C-44.98 81.28, -45.71 81.46, -39.06 82.2 C-32.4 82.93, -15.12 83.62, -8.92 83.72 C-2.73 83.82, -4.14 83.51, -1.9 82.8 C0.35 82.09, 2.51 81.49, 4.54 79.46 C6.56 77.43, 8.69 73.91, 10.25 70.63 C11.81 67.36, 13.09 62.94, 13.9 59.82 C14.7 56.7, 14.88 56.96, 15.07 51.91 C15.27 46.86, 15.37 35.59, 15.07 29.53 C14.78 23.47, 14.07 18.39, 13.31 15.53 C12.56 12.66, 12.95 13.98, 10.54 12.33 C8.12 10.68, 1.98 7.89, -1.17 5.63 C-4.32 3.37, -6.58 -0.02, -8.34 -1.22 C-10.09 -2.41, -13.09 -1.73, -11.7 -1.52 C-10.31 -1.32, -1.95 -0.25, 0 0" stroke="none" stroke-width="0" fill="#fffefe" fill-rule="evenodd"></path><path fill="#1e1e1e" d="M -1.20,3.25 Q -1.20,3.25 -6.40,2.44 -11.59,1.62 -15.16,1.00 -18.74,0.39 -22.18,0.65 -25.63,0.91 -29.27,1.81 -32.92,2.71 -38.12,5.05 -43.33,7.40 -47.68,10.17 -52.03,12.93 -55.13,16.08 -58.23,19.24 -60.12,22.80 -62.00,26.36 -63.05,31.59 -64.11,36.81 -64.52,41.52 -64.92,46.24 -64.07,50.10 -63.21,53.97 -61.41,57.44 -59.60,60.92 -55.52,64.41 -51.43,67.90 -47.22,70.15 -43.01,72.40 -38.66,73.63 -34.31,74.85 -29.64,75.47 -24.98,76.10 -20.35,76.37 -15.72,76.65 -11.96,76.52 -8.20,76.39 -5.41,75.52 -2.62,74.65 -0.04,72.14 2.54,69.62 3.94,66.36 5.34,63.11 6.29,59.59 7.23,56.07 7.63,52.66 8.03,49.26 8.17,45.76 8.32,42.27 8.30,38.64 8.29,35.01 8.01,30.88 7.74,26.74 7.37,23.86 7.01,20.99 5.33,19.07 3.64,17.15 1.33,15.71 -0.97,14.28 -3.39,12.44 -5.82,10.59 -7.66,8.94 -9.50,7.29 -10.67,4.42 -11.83,1.55 -12.08,1.25 -12.33,0.95 -12.50,0.61 -12.67,0.26 -12.76,-0.11 -12.84,-0.49 -12.83,-0.88 -12.82,-1.27 -12.72,-1.64 -12.62,-2.02 -12.43,-2.36 -12.24,-2.70 -11.98,-2.98 -11.71,-3.26 -11.39,-3.48 -11.06,-3.69 -10.70,-3.82 -10.33,-3.95 -9.94,-3.99 -9.56,-4.02 -9.17,-3.97 -8.79,-3.91 -8.43,-3.76 -8.07,-3.62 -7.75,-3.39 -7.44,-3.16 -3.61,-2.89 0.21,-2.61 0.63,-2.51 1.04,-2.41 1.40,-2.18 1.75,-1.95 2.02,-1.61 2.28,-1.28 2.43,-0.88 2.58,-0.48 2.59,-0.06 2.60,0.36 2.47,0.76 2.35,1.17 2.10,1.51 1.85,1.86 1.50,2.10 1.16,2.35 0.75,2.47 0.34,2.60 -0.07,2.59 -0.50,2.57 -0.89,2.43 -1.29,2.28 -1.62,2.01 -1.95,1.74 -2.18,1.39 -2.41,1.03 -2.51,0.61 -2.61,0.20 -2.58,-0.21 -2.54,-0.64 -2.37,-1.03 -2.20,-1.42 -1.92,-1.73 -1.64,-2.05 -1.27,-2.25 -0.89,-2.46 -0.48,-2.54 -0.06,-2.62 0.35,-2.56 0.77,-2.50 1.15,-2.31 1.53,-2.12 1.83,-1.82 2.13,-1.52 2.32,-1.14 2.51,-0.76 2.56,-0.34 2.62,0.07 2.54,0.49 2.46,0.91 2.25,1.28 2.04,1.65 1.72,1.93 1.40,2.21 1.01,2.38 0.62,2.55 0.20,2.58 -0.21,2.61 -0.21,2.61 -0.21,2.61 -6.02,2.08 -11.83,1.55 -12.08,1.25 -12.33,0.95 -12.50,0.61 -12.67,0.26 -12.76,-0.11 -12.84,-0.49 -12.83,-0.88 -12.82,-1.27 -12.72,-1.64 -12.62,-2.02 -12.43,-2.36 -12.24,-2.70 -11.98,-2.98 -11.71,-3.26 -11.39,-3.48 -11.06,-3.69 -10.70,-3.82 -10.33,-3.95 -9.94,-3.99 -9.56,-4.02 -9.17,-3.97 -8.79,-3.91 -8.43,-3.76 -8.07,-3.62 -7.75,-3.39 -7.44,-3.16 -4.90,-4.09 -2.35,-5.01 0.22,-2.81 2.81,-0.62 4.87,0.99 6.94,2.60 10.25,4.98 13.56,7.35 15.89,10.08 18.22,12.80 19.43,16.05 20.64,19.29 20.98,22.66 21.32,26.02 21.51,30.61 21.70,35.20 21.58,39.12 21.46,43.04 21.16,47.01 20.87,50.98 20.24,55.25 19.61,59.51 18.32,63.96 17.04,68.40 14.79,73.19 12.53,77.97 9.96,80.77 7.39,83.57 4.24,85.42 1.09,87.26 -3.29,88.43 -7.68,89.60 -12.12,89.73 -16.55,89.87 -21.68,89.53 -26.82,89.19 -32.46,88.36 -38.10,87.53 -43.75,85.74 -49.41,83.96 -54.88,80.78 -60.34,77.60 -65.78,72.24 -71.21,66.87 -73.60,61.65 -75.98,56.43 -76.87,50.76 -77.77,45.09 -77.14,39.50 -76.51,33.91 -74.73,27.06 -72.95,20.20 -69.94,15.32 -66.93,10.43 -62.68,6.47 -58.43,2.51 -53.21,-0.52 -47.98,-3.57 -41.74,-6.06 -35.49,-8.54 -30.80,-9.52 -26.11,-10.50 -21.41,-10.56 -16.72,-10.61 -12.23,-9.70 -7.75,-8.79 -3.27,-6.02 1.20,-3.25 1.58,-3.06 1.95,-2.87 2.26,-2.59 2.58,-2.32 2.82,-1.98 3.06,-1.63 3.21,-1.24 3.36,-0.85 3.42,-0.44 3.47,-0.02 3.42,0.39 3.38,0.80 3.23,1.20 3.08,1.59 2.85,1.93 2.61,2.28 2.30,2.56 1.99,2.84 1.62,3.04 1.25,3.24 0.85,3.34 0.44,3.44 0.02,3.45 -0.39,3.45 -0.80,3.35 -1.20,3.25 -1.20,3.25 L -1.20,3.25 Z"></path></g><g transform="translate(433.46242276188786 314.11323655092565) rotate(0 10.674008856384717 6.012069754426193)" stroke="none"><path d="M0 0 C-1.29 1.09, -6.64 4.39, -7.76 6.55 C-8.88 8.7, -7.61 11.16, -6.73 12.94 C-5.85 14.72, -4.19 15.93, -2.49 17.2 C-0.78 18.47, 1.29 19.74, 3.51 20.55 C5.73 21.36, 8.27 21.82, 10.82 22.07 C13.38 22.32, 16.4 22.45, 18.87 22.07 C21.33 21.69, 23.89 21.77, 25.6 19.79 C27.3 17.81, 28.67 13.07, 29.11 10.2 C29.55 7.33, 29.33 5, 28.23 2.59 C27.13 0.18, 25.45 -2.15, 22.52 -4.26 C19.6 -6.37, 14.07 -9.08, 10.68 -10.04 C7.29 -11.01, 4.41 -10.45, 2.19 -10.04 C-0.03 -9.64, -2.27 -9.28, -2.64 -7.61 C-3 -5.94, -0.44 -1.27, 0 0" stroke="none" stroke-width="0" fill="#fffefe" fill-rule="evenodd"></path><path fill="#1e1e1e" d="M 3.26,1.69 Q 3.26,1.69 1.62,5.31 -0.01,8.92 2.01,11.57 4.03,14.23 6.23,15.04 8.43,15.86 11.37,16.25 14.31,16.64 16.73,16.43 19.15,16.23 20.49,14.00 21.83,11.78 22.18,9.42 22.53,7.06 21.28,4.96 20.03,2.87 16.76,0.73 13.48,-1.39 10.26,-2.66 7.04,-3.92 4.79,-1.63 2.54,0.65 2.37,1.04 2.20,1.43 1.91,1.74 1.62,2.05 1.25,2.26 0.88,2.47 0.46,2.54 0.05,2.62 -0.36,2.56 -0.79,2.50 -1.16,2.31 -1.54,2.12 -1.84,1.81 -2.14,1.51 -2.33,1.13 -2.51,0.75 -2.57,0.33 -2.62,-0.09 -2.54,-0.50 -2.45,-0.92 -2.24,-1.29 -2.03,-1.66 -1.71,-1.94 -1.39,-2.22 -1.00,-2.38 -0.61,-2.55 -0.19,-2.58 0.23,-2.61 0.64,-2.51 1.05,-2.40 1.41,-2.17 1.76,-1.94 2.03,-1.60 2.29,-1.27 2.43,-0.87 2.58,-0.47 2.59,-0.04 2.59,0.37 2.47,0.78 2.34,1.18 2.09,1.52 1.84,1.87 1.49,2.11 1.14,2.36 0.74,2.48 0.33,2.60 -0.09,2.59 -0.51,2.57 -0.91,2.42 -1.31,2.27 -1.63,2.00 -1.96,1.73 -2.19,1.37 -2.42,1.01 -2.52,0.60 -2.61,0.19 -2.58,-0.23 -2.54,-0.65 -2.54,-0.65 -2.54,-0.65 -1.38,-4.97 -0.21,-9.29 4.65,-10.76 9.52,-12.23 14.54,-10.85 19.57,-9.47 24.21,-5.36 28.85,-1.25 30.20,3.50 31.56,8.26 30.31,12.77 29.06,17.28 25.46,20.92 21.86,24.55 17.39,25.17 12.93,25.79 8.77,25.03 4.62,24.27 1.00,22.38 -2.61,20.49 -4.99,17.28 -7.38,14.07 -7.55,10.01 -7.72,5.95 -5.49,2.12 -3.26,-1.69 -3.01,-2.06 -2.76,-2.42 -2.42,-2.72 -2.09,-3.01 -1.70,-3.22 -1.31,-3.43 -0.88,-3.53 -0.45,-3.64 -0.01,-3.64 0.42,-3.65 0.86,-3.54 1.29,-3.44 1.68,-3.23 2.07,-3.03 2.40,-2.74 2.74,-2.44 2.99,-2.08 3.24,-1.72 3.40,-1.30 3.56,-0.89 3.62,-0.45 3.67,-0.01 3.62,0.42 3.57,0.86 3.41,1.28 3.26,1.69 3.26,1.69 L 3.26,1.69 Z"></path></g><g transform="translate(282.7854784792089 540.3088673508737) rotate(0 7.093356010014759 8.523253681336428)" stroke="none"><path fill="#1e1e1e" d="M 2.46,3.43 Q 2.46,3.43 -0.13,5.94 -2.72,8.45 -3.03,11.00 -3.33,13.54 -0.20,14.99 2.92,16.44 5.29,16.58 7.66,16.71 9.83,15.53 12.00,14.35 14.31,12.24 16.62,10.13 18.02,7.53 19.41,4.94 19.35,1.94 19.28,-1.04 19.08,-3.75 18.88,-6.47 18.91,-6.89 18.94,-7.31 19.11,-7.71 19.27,-8.10 19.56,-8.41 19.84,-8.73 20.21,-8.94 20.58,-9.16 20.99,-9.24 21.41,-9.32 21.83,-9.27 22.25,-9.21 22.63,-9.02 23.02,-8.84 23.32,-8.54 23.62,-8.24 23.81,-7.86 24.00,-7.48 24.06,-7.06 24.12,-6.64 24.05,-6.22 23.97,-5.80 23.76,-5.43 23.55,-5.06 23.24,-4.78 22.92,-4.49 22.54,-4.32 22.15,-4.15 21.72,-4.11 21.30,-4.08 20.89,-4.18 20.47,-4.28 20.11,-4.50 19.75,-4.73 19.49,-5.06 19.22,-5.39 19.07,-5.79 18.92,-6.19 18.91,-6.61 18.89,-7.03 19.01,-7.44 19.14,-7.85 19.38,-8.20 19.63,-8.54 19.97,-8.79 20.32,-9.04 20.72,-9.17 21.13,-9.30 21.55,-9.29 21.98,-9.28 22.38,-9.13 22.78,-8.99 23.11,-8.73 23.44,-8.46 23.67,-8.10 23.90,-7.75 24.01,-7.34 24.11,-6.92 24.11,-6.92 24.11,-6.92 24.39,-4.22 24.66,-1.51 25.24,2.83 25.81,7.17 24.37,11.54 22.92,15.91 19.73,19.49 16.53,23.06 12.09,25.16 7.64,27.26 3.14,26.88 -1.34,26.50 -5.84,24.04 -10.33,21.59 -12.20,17.87 -14.06,14.15 -13.73,10.34 -13.40,6.53 -11.31,3.32 -9.21,0.12 -5.84,-1.65 -2.46,-3.43 -2.02,-3.68 -1.57,-3.92 -1.08,-4.05 -0.58,-4.19 -0.07,-4.20 0.43,-4.20 0.93,-4.09 1.42,-3.98 1.88,-3.75 2.33,-3.52 2.72,-3.19 3.11,-2.86 3.41,-2.44 3.71,-2.03 3.89,-1.56 4.08,-1.08 4.16,-0.58 4.23,-0.07 4.17,0.42 4.12,0.93 3.95,1.41 3.78,1.89 3.50,2.32 3.21,2.74 2.84,3.09 2.46,3.43 2.46,3.43 L 2.46,3.43 Z"></path></g></svg>