<?xml version="1.0" standalone="no"?>
<!DOCTYPE svg PUBLIC "-//W3C//DTD SVG 1.1//EN" "http://www.w3.org/Graphics/SVG/1.1/DTD/svg11.dtd">
<svg version="1.1" xmlns="http://www.w3.org/2000/svg" viewBox="0 0 637.03858062982 1268.3372416197944" width="637.03858062982" height="1268.3372416197944"><!-- svg-source:excalidraw --><metadata></metadata><defs><style class="style-fonts">
      </style></defs><g transform="translate(393.2248711356988 -10.772028893989045) rotate(23.7962521975795 34.93489167280313 507.83800586265943)" stroke="none"><path d="M0 0 C-0.41 3.96, -1.94 13.13, -2.46 23.77 C-2.98 34.41, -2.57 51.34, -3.13 63.85 C-3.69 76.35, -5.34 81.09, -5.82 98.79 C-6.31 116.5, -7.54 147.3, -6.04 170.09 C-4.55 192.89, 1.42 211.88, 3.14 235.57 C4.86 259.26, 3.48 296.46, 4.26 312.23 C5.04 328, 6.65 318.49, 7.84 330.17 C9.04 341.86, 10.83 369.39, 11.42 382.36 C12.02 395.33, 12.43 388.77, 11.42 407.99 C10.41 427.22, 6.42 457.43, 5.37 497.7 C4.33 537.97, 4.82 620.84, 5.16 649.62 C5.49 678.4, 6.57 657.74, 7.39 670.36 C8.21 682.98, 8.1 707.02, 10.08 725.35 C12.05 743.68, 16.76 763.64, 19.26 780.33 C21.76 797.03, 23.14 813.77, 25.08 825.54 C27.02 837.31, 29.23 840.72, 30.91 850.94 C32.58 861.15, 34.41 872.41, 35.16 886.82 C35.9 901.23, 35.79 925.31, 35.38 937.39 C34.97 949.46, 33.18 947.32, 32.7 959.28 C32.21 971.24, 32.17 999.59, 32.47 1009.15 C32.77 1018.7, 33.33 1014.28, 34.49 1016.61 C35.64 1018.94, 36.36 1021.65, 39.42 1023.13 C42.48 1024.6, 50.24 1025.15, 52.85 1025.46 C55.46 1025.77, 53.86 1025.81, 55.09 1024.99 C56.32 1024.18, 58.15 1022.86, 60.24 1020.57 C62.33 1018.28, 65.99 1014.16, 67.63 1011.24 C69.27 1008.33, 69.23 1008.33, 70.09 1003.09 C70.94 997.84, 72.33 986.5, 72.77 979.79 C73.22 973.07, 73.22 969.34, 72.77 962.78 C72.33 956.22, 70.53 952.8, 70.09 940.42 C69.64 928.03, 69.97 901.12, 70.09 888.45 C70.2 875.79, 69.83 879.13, 70.77 864.45 C71.7 849.77, 74.87 838.2, 75.69 800.38 C76.51 762.55, 76.17 671.09, 75.69 637.5 C75.2 603.91, 75.05 617.2, 72.77 598.83 C70.5 580.46, 64.3 544.15, 62.03 527.29 C59.75 510.44, 60.72 508.53, 59.12 497.7 C57.51 486.87, 54.53 477.05, 52.4 462.29 C50.28 447.53, 48.15 434.17, 46.35 409.16 C44.56 384.15, 42.51 334.75, 41.65 312.23 C40.79 289.71, 41.77 287.41, 41.21 274.02 C40.65 260.62, 38.44 253.47, 38.29 231.84 C38.15 210.21, 39.98 172.58, 40.31 144.23 C40.65 115.89, 40.61 78.91, 40.31 61.75 C40.01 44.58, 40.09 48.54, 38.52 41.24 C36.95 33.94, 33.07 25.79, 30.91 17.94 C28.74 10.1, 26.73 -1.2, 25.53 -5.82 C24.34 -10.45, 24.78 -9.17, 23.73 -9.79 C22.69 -10.41, 20.97 -9.98, 19.26 -9.55 C17.54 -9.12, 15.61 -9.9, 13.44 -7.22 C11.28 -4.54, 7.72 4.36, 6.27 6.53 C4.81 8.7, 4.96 6.6, 4.7 5.82 C4.44 5.05, 5.52 2.41, 4.7 1.86 C3.88 1.32, 0.56 2.88, -0.23 2.57 C-1.01 2.26, -0.04 0.43, 0 0" stroke="none" stroke-width="0" fill="#1971c2" fill-rule="evenodd"></path><path fill="#1971c2" d="M 6.86,0.63 Q 6.86,0.63 8.89,6.43 10.92,12.23 10.40,17.80 9.89,23.37 9.77,27.66 9.65,31.96 9.56,36.40 9.47,40.85 9.56,46.40 9.66,51.96 9.62,58.47 9.58,64.98 9.08,71.92 8.59,78.87 8.22,84.25 7.85,89.64 7.71,96.03 7.57,102.42 7.47,108.42 7.37,114.43 7.44,122.16 7.50,129.90 7.51,137.08 7.52,144.26 7.57,151.88 7.62,159.50 7.87,164.68 8.11,169.86 8.82,174.92 9.52,179.98 10.47,187.01 11.41,194.05 12.37,200.18 13.32,206.31 14.37,213.80 15.41,221.29 16.12,228.29 16.83,235.30 17.04,242.46 17.26,249.62 17.30,256.29 17.33,262.97 17.56,270.28 17.79,277.60 17.90,285.38 18.02,293.17 18.11,300.02 18.21,306.86 19.15,312.61 20.08,318.35 20.92,323.88 21.76,329.40 22.38,335.46 23.01,341.53 23.44,346.91 23.88,352.30 24.31,357.59 24.75,362.87 25.03,369.90 25.32,376.92 25.41,384.19 25.50,391.46 25.51,396.22 25.53,400.97 25.34,405.46 25.16,409.95 24.79,417.19 24.42,424.44 24.24,428.86 24.06,433.29 23.38,441.60 22.71,449.91 22.10,457.54 21.49,465.17 21.18,470.25 20.87,475.33 20.61,479.78 20.34,484.23 20.01,492.13 19.68,500.03 19.63,508.47 19.58,516.91 19.57,523.60 19.57,530.29 19.41,537.41 19.26,544.53 19.11,551.11 18.96,557.69 18.94,564.36 18.92,571.03 18.92,577.53 18.91,584.03 18.91,588.94 18.92,593.85 18.92,598.55 18.92,603.25 19.03,610.58 19.14,617.91 19.14,623.33 19.13,628.75 19.14,633.84 19.14,638.92 19.36,644.15 19.57,649.37 20.04,653.70 20.51,658.04 21.03,664.21 21.54,670.38 21.77,676.78 21.99,683.17 22.16,689.83 22.32,696.48 22.71,702.22 23.09,707.96 23.53,713.80 23.97,719.65 24.62,724.48 25.27,729.31 26.25,734.47 27.22,739.63 28.34,746.71 29.46,753.79 30.39,759.63 31.32,765.48 32.31,772.44 33.31,779.41 34.58,789.89 35.85,800.36 36.55,805.30 37.26,810.23 38.34,816.88 39.43,823.54 40.55,829.44 41.68,835.35 42.74,839.70 43.81,844.05 44.70,848.81 45.59,853.58 46.39,860.18 47.19,866.78 47.88,871.97 48.56,877.16 48.99,881.74 49.42,886.33 49.56,891.65 49.70,896.96 49.73,901.72 49.76,906.49 49.77,912.41 49.78,918.33 49.80,924.43 49.83,930.52 49.77,935.01 49.72,939.49 49.20,945.02 48.68,950.54 48.00,955.46 47.32,960.38 47.28,965.45 47.24,970.52 47.19,976.05 47.15,981.57 47.11,987.45 47.07,993.33 47.07,998.01 47.07,1002.68 47.82,1007.01 48.57,1011.33 51.43,1008.05 54.29,1004.76 55.28,999.37 56.27,993.99 57.00,989.05 57.73,984.10 57.97,978.59 58.20,973.08 58.00,967.73 57.79,962.39 57.01,955.14 56.23,947.90 55.95,940.60 55.66,933.30 55.62,928.96 55.58,924.63 55.55,918.00 55.52,911.38 55.52,905.40 55.51,899.42 55.63,891.82 55.75,884.22 55.89,876.86 56.03,869.51 56.55,860.60 57.08,851.70 57.39,847.01 57.71,842.31 58.12,837.67 58.53,833.02 58.89,828.61 59.24,824.20 59.91,815.37 60.58,806.55 60.84,798.86 61.10,791.18 61.14,786.28 61.19,781.37 61.21,776.72 61.23,772.06 61.24,767.54 61.25,763.02 61.25,758.48 61.25,753.95 61.25,749.48 61.25,745.00 61.24,739.22 61.23,733.43 61.23,727.75 61.23,722.08 61.23,716.39 61.23,710.69 61.23,705.12 61.22,699.55 61.22,694.17 61.22,688.79 61.22,682.15 61.21,675.51 61.20,670.01 61.20,664.51 61.13,659.52 61.07,654.53 61.04,649.63 61.01,644.74 60.74,638.95 60.48,633.16 60.18,628.14 59.87,623.13 59.56,618.76 59.24,614.40 58.42,606.51 57.60,598.62 56.17,589.03 54.74,579.44 54.05,574.27 53.35,569.11 52.68,564.48 52.02,559.86 51.30,555.37 50.58,550.87 49.67,544.66 48.76,538.45 48.10,532.76 47.44,527.07 46.95,521.66 46.47,516.26 45.91,511.50 45.34,506.75 44.49,501.30 43.63,495.84 42.78,491.55 41.94,487.25 40.40,478.95 38.86,470.65 38.33,465.00 37.79,459.35 37.33,455.04 36.86,450.74 35.98,443.38 35.09,436.03 34.06,429.23 33.02,422.42 32.45,415.64 31.88,408.86 31.42,402.07 30.96,395.27 30.69,387.54 30.42,379.80 30.13,373.23 29.84,366.65 29.41,358.26 28.99,349.86 28.58,343.89 28.18,337.91 27.79,330.65 27.41,323.38 27.15,317.23 26.89,311.07 26.84,306.47 26.78,301.88 26.75,294.02 26.72,286.16 26.38,279.38 26.04,272.60 25.67,265.89 25.31,259.17 25.06,253.01 24.81,246.84 24.31,239.18 23.81,231.51 23.71,224.88 23.62,218.24 23.69,211.03 23.76,203.82 24.11,197.14 24.45,190.46 24.79,184.83 25.12,179.19 25.22,173.99 25.32,168.79 25.33,162.76 25.35,156.72 25.42,152.25 25.49,147.78 25.53,142.31 25.56,136.84 25.57,132.01 25.58,127.17 25.58,122.72 25.58,118.27 25.59,113.18 25.59,108.09 25.59,103.78 25.59,99.48 25.59,95.07 25.59,90.66 25.58,83.94 25.58,77.22 25.58,72.83 25.58,68.45 25.37,62.28 25.16,56.12 24.61,50.56 24.06,45.01 22.47,39.99 20.87,34.96 19.22,29.72 17.58,24.49 15.88,18.44 14.19,12.38 13.07,7.39 11.94,2.41 16.04,3.80 20.13,5.19 16.57,10.93 13.01,16.67 5.87,16.39 -1.25,16.11 -2.79,9.54 -4.33,2.97 -4.69,2.20 -5.05,1.43 -5.15,0.59 -5.24,-0.25 -5.06,-1.08 -4.89,-1.91 -4.45,-2.64 -4.02,-3.37 -3.37,-3.93 -2.73,-4.48 -1.94,-4.80 -1.15,-5.12 -0.31,-5.17 0.53,-5.22 1.35,-5.00 2.17,-4.78 2.88,-4.30 3.59,-3.83 4.10,-3.16 4.62,-2.48 4.90,-1.68 5.17,-0.88 5.18,-0.03 5.18,0.81 4.92,1.62 4.65,2.43 4.14,3.11 3.63,3.79 2.93,4.27 2.23,4.75 1.41,4.98 0.59,5.21 -0.25,5.17 -1.09,5.13 -1.89,4.82 -2.68,4.51 -3.33,3.97 -3.98,3.42 -4.42,2.69 -4.86,1.97 -5.05,1.14 -5.24,0.31 -5.15,-0.53 -5.06,-1.37 -4.71,-2.14 -4.36,-2.92 -3.78,-3.54 -3.20,-4.16 -2.45,-4.56 -1.70,-4.96 -0.86,-5.11 -0.03,-5.25 0.80,-5.12 1.64,-4.98 2.40,-4.59 3.15,-4.20 3.74,-3.58 4.33,-2.97 4.33,-2.97 4.33,-2.97 4.20,-2.62 4.08,-2.27 8.22,-3.36 12.36,-4.44 4.58,-6.09 -3.19,-7.75 -0.12,-12.30 2.94,-16.85 8.69,-20.03 14.43,-23.21 19.63,-23.55 24.83,-23.90 31.25,-19.16 37.66,-14.43 39.06,-10.17 40.47,-5.91 41.53,-0.78 42.58,4.35 44.28,10.35 45.99,16.35 47.47,21.15 48.95,25.95 50.34,30.15 51.74,34.34 52.71,39.74 53.68,45.14 54.12,49.77 54.57,54.41 54.80,61.43 55.04,68.45 55.03,72.83 55.03,77.22 55.03,83.94 55.03,90.66 55.03,95.07 55.02,99.48 55.02,103.78 55.02,108.09 55.03,113.18 55.03,118.27 55.03,125.09 55.03,131.90 55.01,137.09 54.99,142.28 54.90,149.51 54.80,156.75 54.79,161.31 54.78,165.87 54.73,170.19 54.67,174.52 54.39,180.48 54.11,186.44 53.78,192.26 53.45,198.09 53.30,204.45 53.15,210.81 53.12,217.50 53.09,224.18 53.28,230.36 53.47,236.53 54.05,244.27 54.63,252.01 54.77,257.96 54.91,263.90 55.46,271.39 56.01,278.88 56.10,286.24 56.18,293.61 56.24,301.76 56.31,309.92 56.55,315.94 56.80,321.97 57.17,328.87 57.54,335.77 57.96,342.25 58.39,348.73 58.81,357.10 59.22,365.47 59.52,372.32 59.81,379.17 60.06,386.23 60.31,393.30 60.79,400.31 61.26,407.33 61.72,412.81 62.17,418.29 63.24,425.29 64.31,432.28 65.23,439.97 66.15,447.66 66.62,452.13 67.08,456.60 67.50,461.19 67.93,465.78 69.40,473.69 70.87,481.60 71.82,486.46 72.76,491.31 73.68,497.31 74.61,503.30 75.21,508.48 75.81,513.65 76.26,518.66 76.70,523.66 77.31,528.93 77.93,534.19 78.80,540.20 79.68,546.22 80.43,550.94 81.19,555.66 81.87,560.42 82.56,565.19 83.22,570.13 83.88,575.07 84.72,580.68 85.56,586.29 86.19,590.59 86.81,594.89 87.71,603.58 88.60,612.27 88.93,616.82 89.26,621.37 89.58,626.61 89.89,631.85 90.16,638.21 90.43,644.57 90.46,649.36 90.49,654.15 90.55,659.33 90.61,664.51 90.61,670.01 90.60,675.51 90.60,682.15 90.59,688.79 90.59,694.17 90.59,699.55 90.59,705.12 90.58,710.69 90.58,716.39 90.58,722.08 90.58,727.76 90.58,733.43 90.57,739.22 90.56,745.01 90.56,749.49 90.55,753.97 90.54,758.53 90.53,763.08 90.52,767.64 90.51,772.20 90.49,776.94 90.47,781.68 90.28,790.81 90.09,799.93 89.93,804.25 89.77,808.58 89.08,817.57 88.38,826.55 88.01,831.06 87.65,835.57 87.27,839.94 86.89,844.31 86.58,848.85 86.26,853.38 85.97,858.45 85.67,863.52 85.36,870.47 85.05,877.41 84.86,885.26 84.67,893.11 84.67,899.26 84.66,905.41 84.66,911.40 84.66,917.39 84.69,925.02 84.72,932.65 84.94,938.81 85.15,944.98 85.92,952.49 86.69,960.00 86.95,966.74 87.22,973.49 87.02,978.90 86.82,984.30 85.95,990.52 85.07,996.74 84.47,1001.85 83.87,1006.96 82.56,1011.14 81.25,1015.31 77.57,1020.77 73.90,1026.24 68.58,1031.25 63.26,1036.26 55.85,1038.05 48.43,1039.84 43.28,1038.82 38.12,1037.80 32.77,1034.64 27.41,1031.49 24.85,1027.98 22.30,1024.47 20.46,1019.44 18.61,1014.42 18.23,1009.87 17.85,1005.32 17.86,1000.84 17.87,996.36 17.89,990.74 17.92,985.12 18.03,979.27 18.14,973.41 18.17,969.03 18.19,964.65 18.46,959.56 18.73,954.48 19.61,948.54 20.49,942.60 20.71,936.56 20.93,930.52 20.95,924.43 20.98,918.33 20.98,912.44 20.97,906.55 20.97,901.93 20.96,897.31 20.77,890.99 20.57,884.67 19.75,878.31 18.94,871.96 18.34,866.48 17.75,860.99 17.01,856.25 16.28,851.51 14.98,846.27 13.68,841.02 12.50,834.82 11.31,828.62 10.15,821.42 8.99,814.22 8.27,809.03 7.54,803.85 6.61,796.31 5.68,788.78 4.99,783.01 4.31,777.25 3.28,770.77 2.24,764.29 1.25,758.06 0.26,751.83 -0.73,745.68 -1.74,739.53 -2.79,733.63 -3.85,727.73 -4.37,721.58 -4.90,715.42 -5.33,709.77 -5.77,704.12 -6.10,696.91 -6.43,689.71 -6.52,683.81 -6.60,677.91 -6.92,672.50 -7.23,667.09 -7.74,661.80 -8.26,656.51 -8.72,650.94 -9.17,645.38 -9.23,639.65 -9.28,633.93 -9.30,628.76 -9.31,623.59 -9.32,617.74 -9.33,611.89 -9.42,607.57 -9.52,603.25 -9.51,598.55 -9.51,593.85 -9.51,588.93 -9.50,584.02 -9.50,577.49 -9.49,570.97 -9.45,564.12 -9.42,557.28 -9.28,550.58 -9.13,543.88 -8.97,537.07 -8.81,530.26 -8.80,523.53 -8.78,516.80 -8.71,508.05 -8.63,499.31 -8.28,490.94 -7.92,482.58 -7.67,478.09 -7.41,473.61 -7.09,468.39 -6.77,463.17 -6.13,455.19 -5.48,447.22 -4.85,439.63 -4.22,432.05 -3.86,424.06 -3.51,416.07 -3.11,408.55 -2.71,401.03 -2.73,392.83 -2.75,384.64 -2.92,378.01 -3.08,371.39 -3.37,366.10 -3.67,360.82 -4.09,355.15 -4.52,349.47 -5.02,344.19 -5.52,338.91 -6.09,333.78 -6.67,328.65 -7.75,322.69 -8.83,316.73 -9.36,312.09 -9.90,307.45 -9.96,300.42 -10.03,293.39 -10.11,286.01 -10.19,278.62 -10.41,270.83 -10.63,263.04 -10.64,256.49 -10.66,249.94 -10.74,243.71 -10.82,237.48 -11.43,231.16 -12.03,224.83 -12.99,217.80 -13.94,210.77 -14.92,204.28 -15.89,197.79 -16.80,190.67 -17.72,183.54 -18.44,177.97 -19.16,172.39 -19.43,165.95 -19.71,159.50 -19.65,151.88 -19.60,144.26 -19.59,137.07 -19.57,129.87 -19.46,121.97 -19.35,114.07 -19.20,108.05 -19.05,102.02 -18.80,95.04 -18.56,88.07 -18.13,82.36 -17.69,76.65 -17.02,70.20 -16.35,63.75 -16.12,57.82 -15.89,51.88 -15.74,46.10 -15.59,40.32 -15.34,35.44 -15.10,30.55 -14.70,25.88 -14.30,21.20 -13.64,15.61 -12.97,10.01 -9.92,4.69 -6.86,-0.63 -6.69,-1.44 -6.51,-2.26 -6.14,-3.00 -5.78,-3.75 -5.25,-4.39 -4.71,-5.02 -4.04,-5.52 -3.37,-6.01 -2.60,-6.32 -1.84,-6.64 -1.01,-6.76 -0.19,-6.89 0.63,-6.81 1.45,-6.73 2.24,-6.46 3.02,-6.19 3.72,-5.74 4.42,-5.28 4.99,-4.68 5.56,-4.07 5.96,-3.35 6.37,-2.62 6.59,-1.82 6.81,-1.02 6.84,-0.19 6.86,0.63 6.86,0.63 L 6.86,0.63 Z"></path></g><g transform="translate(62.237109122821494 1221.4417703085728) rotate(11.663776516192126 177.46020506568766 -12.581083318283163)" stroke="none"><path d="M0 0 C-4.4 2.41, -19.52 10.13, -26.42 14.44 C-33.32 18.76, -38.14 22.88, -41.42 25.87 C-44.71 28.86, -45.31 30.14, -46.13 32.39 C-46.95 34.64, -46.54 37.36, -46.35 39.38 C-46.17 41.4, -46.13 41.87, -45.01 44.51 C-43.89 47.15, -42.88 52.04, -39.63 55.23 C-36.39 58.41, -30.41 61.24, -25.52 63.61 C-20.64 65.98, -14.56 68.27, -10.3 69.44 C-6.05 70.6, -5.67 70.56, 0 70.6 C5.67 70.64, 16.2 71.22, 23.74 69.67 C31.28 68.12, 33.81 64.63, 45.23 61.29 C56.65 57.95, 80.54 51.92, 92.26 49.63 C103.97 47.34, 105.65 48.82, 115.55 47.54 C125.44 46.26, 144.28 43.18, 151.6 41.94 C158.91 40.7, 156.86 40.97, 159.44 40.08 C162.01 39.18, 159.11 38.95, 167.05 36.59 C175 34.22, 197.5 28.97, 207.13 25.87 C216.76 22.76, 216.16 22.49, 224.82 17.94 C233.48 13.4, 251.02 2.92, 259.08 -1.39 C267.15 -5.7, 268.57 -5.2, 273.19 -7.92 C277.82 -10.64, 282.97 -13.09, 286.85 -17.71 C290.73 -22.33, 291.48 -29.63, 296.48 -35.64 C301.48 -41.66, 310.33 -49.36, 316.86 -53.82 C323.39 -58.29, 329.69 -60.12, 335.66 -62.44 C341.64 -64.77, 345.45 -64.58, 352.69 -67.8 C359.93 -71.02, 372.05 -78.33, 379.11 -81.78 C386.16 -85.24, 391.31 -86.29, 395.01 -88.54 C398.7 -90.79, 402.8 -94.09, 401.27 -95.29 C399.74 -96.5, 390.42 -95.88, 385.83 -95.76 C381.24 -95.65, 381.31 -96.31, 373.73 -94.6 C366.16 -92.89, 354.18 -88.73, 340.37 -85.51 C326.56 -82.29, 305.4 -78.52, 290.88 -75.26 C276.37 -72, 262.93 -68.54, 253.26 -65.94 C243.59 -63.33, 236.99 -60.97, 232.88 -59.65 C228.78 -58.33, 229.45 -58.67, 228.63 -58.01 C227.81 -57.35, 227.92 -56.97, 227.96 -55.69 C228 -54.41, 228.11 -51.88, 228.86 -50.32 C229.6 -48.77, 232.07 -48.03, 232.44 -46.36 C232.81 -44.69, 233.4 -42.6, 231.09 -40.31 C228.78 -38.02, 222.51 -34.56, 218.55 -32.61 C214.6 -30.67, 213.52 -30.13, 207.36 -28.65 C201.2 -27.18, 194 -26.75, 181.61 -23.76 C169.22 -20.77, 149.47 -14.29, 133.01 -10.72 C116.55 -7.15, 94.39 -3.96, 82.86 -2.32 C71.33 -0.69, 75.02 -1.16, 63.82 -0.93 C52.62 -0.7, 26.01 -1.71, 15.67 -0.93 C5.34 -0.16, 3.21 3.26, 1.79 3.73 C0.37 4.19, 7.46 2.48, 7.16 1.86 C6.86 1.24, 1.19 0.31, 0 0" stroke="none" stroke-width="0" fill="#1971c2" fill-rule="evenodd"></path><path fill="#1971c2" d="M 2.92,5.20 Q 2.92,5.20 -0.66,10.27 -4.24,15.35 -8.71,17.82 -13.18,20.29 -17.72,23.01 -22.26,25.74 -26.17,28.47 -30.08,31.19 -32.04,35.72 -34.00,40.24 -30.64,44.60 -27.28,48.97 -23.34,51.13 -19.41,53.28 -14.08,55.24 -8.75,57.21 -3.89,57.81 0.97,58.42 5.80,58.41 10.64,58.41 16.71,57.55 22.78,56.68 27.35,54.98 31.91,53.27 37.42,51.35 42.93,49.44 48.92,48.06 54.91,46.69 59.37,45.45 63.83,44.20 69.08,42.97 74.33,41.74 79.38,40.32 84.44,38.90 89.79,37.83 95.14,36.76 99.74,36.44 104.33,36.12 108.81,35.66 113.29,35.20 117.56,34.41 121.83,33.62 126.39,33.12 130.95,32.62 136.53,31.80 142.11,30.99 147.26,29.88 152.41,28.78 157.72,26.90 163.03,25.03 167.28,23.86 171.53,22.70 176.78,21.20 182.04,19.71 186.67,18.67 191.29,17.63 195.89,16.32 200.48,15.01 205.85,12.71 211.22,10.42 215.31,8.52 219.39,6.62 223.52,4.29 227.66,1.95 232.18,-0.65 236.71,-3.27 241.42,-5.53 246.14,-7.79 250.87,-10.51 255.59,-13.23 259.86,-15.19 264.13,-17.15 268.44,-19.86 272.74,-22.58 276.32,-27.06 279.89,-31.53 282.25,-35.69 284.61,-39.84 288.84,-44.24 293.06,-48.65 296.19,-51.81 299.32,-54.98 302.83,-58.11 306.34,-61.23 310.46,-63.97 314.57,-66.71 319.24,-68.82 323.91,-70.93 328.22,-72.55 332.53,-74.17 337.82,-75.80 343.10,-77.43 347.78,-79.56 352.46,-81.69 356.97,-84.00 361.48,-86.32 366.42,-88.91 371.36,-91.51 377.04,-94.09 382.72,-96.67 386.56,-98.71 390.40,-100.75 391.13,-101.80 391.86,-102.86 393.07,-103.72 394.27,-104.58 395.64,-105.13 397.02,-105.67 398.48,-105.88 399.95,-106.08 401.42,-105.93 402.89,-105.77 404.29,-105.27 405.68,-104.77 406.91,-103.95 408.14,-103.13 409.14,-102.03 410.14,-100.94 410.85,-99.64 411.56,-98.35 411.93,-96.91 412.31,-95.48 412.33,-94.00 412.36,-92.52 412.03,-91.08 411.70,-89.64 411.03,-88.32 410.36,-87.00 409.40,-85.87 408.44,-84.75 400.18,-84.69 391.93,-84.63 386.77,-83.75 381.60,-82.88 377.00,-82.08 372.39,-81.28 367.93,-80.04 363.46,-78.80 358.98,-77.61 354.50,-76.42 349.21,-75.08 343.92,-73.73 339.58,-72.80 335.23,-71.87 329.43,-70.55 323.62,-69.23 319.25,-68.26 314.89,-67.28 308.07,-65.93 301.25,-64.58 296.98,-63.70 292.71,-62.82 288.59,-61.70 284.47,-60.59 280.19,-59.63 275.91,-58.67 270.26,-57.21 264.61,-55.76 260.22,-54.80 255.83,-53.83 249.05,-51.75 242.27,-49.67 242.79,-44.81 243.32,-39.96 240.63,-35.34 237.95,-30.72 233.27,-27.53 228.59,-24.34 224.66,-22.40 220.73,-20.46 215.39,-18.78 210.05,-17.09 204.79,-16.01 199.53,-14.92 195.20,-14.13 190.88,-13.33 185.34,-12.17 179.80,-11.01 175.43,-9.72 171.07,-8.43 166.25,-6.88 161.43,-5.34 156.42,-4.27 151.40,-3.20 145.46,-1.61 139.52,-0.03 133.64,1.21 127.76,2.46 123.46,3.42 119.16,4.38 114.55,5.08 109.94,5.77 104.52,6.62 99.10,7.47 93.64,8.24 88.19,9.00 82.23,9.31 76.26,9.61 71.58,10.09 66.90,10.57 62.21,10.71 57.51,10.85 52.40,10.89 47.29,10.92 42.53,10.97 37.77,11.02 33.23,11.05 28.70,11.09 23.17,11.10 17.64,11.12 12.73,12.89 7.82,14.65 6.37,15.02 4.92,15.39 3.43,15.41 1.93,15.42 0.48,15.07 -0.97,14.73 -2.29,14.05 -3.62,13.36 -4.75,12.38 -5.88,11.40 -6.74,10.18 -7.60,8.95 -8.14,7.56 -8.68,6.17 -8.87,4.69 -9.07,3.20 -8.90,1.72 -8.73,0.23 -8.21,-1.16 -7.70,-2.56 -6.86,-3.80 -6.02,-5.03 -4.91,-6.04 -3.80,-7.04 -2.48,-7.74 -1.16,-8.45 4.20,2.15 9.56,12.76 8.26,13.09 6.96,13.42 5.62,13.43 4.28,13.45 2.98,13.14 1.67,12.83 0.48,12.21 -0.71,11.60 -1.72,10.72 -2.73,9.84 -3.50,8.74 -4.27,7.64 -4.76,6.39 -5.25,5.14 -5.42,3.81 -5.59,2.48 -5.44,1.15 -5.29,-0.18 -4.83,-1.43 -4.36,-2.69 -3.61,-3.80 -2.86,-4.91 -1.86,-5.81 -0.86,-6.71 0.31,-7.34 1.49,-7.98 -0.29,-1.58 -2.08,4.82 -2.79,4.36 -3.51,3.90 -4.04,3.24 -4.57,2.57 -4.86,1.77 -5.16,0.98 -5.18,0.13 -5.20,-0.71 -4.95,-1.52 -4.70,-2.34 -4.20,-3.03 -3.70,-3.72 -3.01,-4.21 -2.32,-4.71 -1.51,-4.95 -0.70,-5.20 0.14,-5.18 0.99,-5.15 1.79,-4.86 2.59,-4.56 3.25,-4.03 3.91,-3.50 4.37,-2.78 4.82,-2.06 5.03,-1.24 5.23,-0.41 5.16,0.42 5.09,1.27 4.75,2.05 4.42,2.83 3.85,3.46 3.28,4.10 2.54,4.51 1.80,4.93 0.96,5.09 0.13,5.25 -0.70,5.13 -1.55,5.01 -2.31,4.64 -3.07,4.26 -3.67,3.65 -4.27,3.05 -4.64,2.29 -5.02,1.53 -5.13,0.69 -5.25,-0.15 -5.08,-0.98 -4.92,-1.82 -4.50,-2.55 -4.08,-3.29 -3.45,-3.86 -2.82,-4.43 -2.03,-4.76 -1.25,-5.10 -0.41,-5.16 0.43,-5.23 1.26,-5.02 2.08,-4.82 2.08,-4.82 2.08,-4.82 5.82,3.97 9.56,12.76 8.26,13.09 6.96,13.42 5.62,13.43 4.28,13.45 2.98,13.14 1.67,12.83 0.48,12.21 -0.71,11.60 -1.72,10.72 -2.73,9.84 -3.50,8.74 -4.27,7.64 -4.76,6.39 -5.25,5.14 -5.42,3.81 -5.59,2.48 -5.44,1.15 -5.29,-0.18 -4.83,-1.43 -4.36,-2.69 -3.61,-3.80 -2.86,-4.91 -1.86,-5.81 -0.86,-6.71 0.31,-7.34 1.49,-7.98 4.66,3.33 7.82,14.65 6.37,15.02 4.92,15.39 3.43,15.41 1.93,15.42 0.48,15.07 -0.96,14.73 -2.29,14.05 -3.62,13.36 -4.75,12.38 -5.88,11.40 -6.74,10.18 -7.60,8.96 -8.14,7.56 -8.68,6.17 -8.87,4.69 -9.07,3.21 -8.90,1.72 -8.73,0.23 -8.21,-1.16 -7.70,-2.56 -6.86,-3.80 -6.02,-5.03 -4.91,-6.03 -3.80,-7.03 -2.48,-7.74 -1.16,-8.45 0.88,-9.19 2.93,-9.94 8.33,-11.30 13.74,-12.66 18.93,-12.84 24.13,-13.02 28.55,-12.97 32.96,-12.93 37.75,-12.91 42.53,-12.88 47.23,-12.81 51.93,-12.75 56.46,-12.77 60.99,-12.79 65.55,-13.12 70.12,-13.46 76.56,-13.87 83.01,-14.28 87.28,-14.85 91.55,-15.42 97.10,-16.39 102.65,-17.35 108.42,-18.19 114.19,-19.03 119.15,-20.12 124.11,-21.21 128.79,-22.21 133.47,-23.22 137.77,-24.30 142.07,-25.38 146.54,-26.40 151.02,-27.41 155.55,-28.67 160.09,-29.92 164.42,-31.26 168.74,-32.60 173.24,-33.81 177.74,-35.01 182.07,-35.89 186.40,-36.78 190.91,-37.60 195.42,-38.42 199.70,-39.35 203.97,-40.28 208.33,-41.79 212.68,-43.31 217.19,-41.97 221.69,-40.63 219.34,-44.83 217.00,-49.03 216.90,-53.48 216.80,-57.93 221.53,-63.99 226.26,-70.04 230.66,-71.60 235.06,-73.17 241.31,-75.11 247.56,-77.05 252.66,-78.24 257.76,-79.44 261.94,-80.56 266.12,-81.68 272.18,-83.09 278.24,-84.50 282.66,-85.70 287.09,-86.89 291.94,-87.90 296.78,-88.91 303.04,-90.14 309.30,-91.37 314.55,-92.53 319.80,-93.68 324.71,-94.81 329.61,-95.94 333.94,-96.87 338.26,-97.80 343.28,-99.06 348.30,-100.32 352.51,-101.44 356.72,-102.57 361.16,-103.71 365.60,-104.85 370.15,-105.90 374.70,-106.95 379.54,-107.28 384.39,-107.60 390.14,-107.65 395.90,-107.70 400.72,-106.33 405.54,-104.96 398.70,-103.91 391.86,-102.86 393.06,-103.72 394.27,-104.58 395.64,-105.13 397.02,-105.67 398.48,-105.88 399.95,-106.08 401.42,-105.93 402.89,-105.77 404.28,-105.27 405.68,-104.77 406.91,-103.95 408.14,-103.13 409.14,-102.03 410.14,-100.94 410.85,-99.64 411.55,-98.35 411.93,-96.92 412.31,-95.48 412.33,-94.01 412.36,-92.53 412.03,-91.08 411.70,-89.64 411.03,-88.32 410.37,-87.00 409.40,-85.88 408.44,-84.75 406.04,-82.38 403.65,-80.01 399.52,-77.78 395.38,-75.54 390.46,-73.43 385.54,-71.32 381.72,-69.40 377.91,-67.48 373.69,-65.20 369.46,-62.91 364.91,-60.56 360.36,-58.21 355.43,-56.15 350.51,-54.10 345.55,-52.56 340.58,-51.02 335.50,-49.08 330.42,-47.15 326.00,-44.57 321.58,-41.98 318.00,-38.69 314.42,-35.39 310.83,-31.88 307.25,-28.37 304.73,-24.81 302.22,-21.24 300.24,-17.17 298.26,-13.09 295.42,-9.90 292.58,-6.71 288.64,-3.90 284.69,-1.10 280.76,1.43 276.84,3.96 271.81,6.31 266.78,8.66 262.03,11.43 257.28,14.21 251.31,17.18 245.34,20.16 241.25,22.61 237.17,25.07 232.22,27.74 227.27,30.41 222.19,32.58 217.11,34.75 212.75,36.64 208.39,38.53 204.26,39.78 200.13,41.04 194.52,42.32 188.90,43.61 183.74,45.08 178.58,46.54 173.85,47.87 169.12,49.19 164.59,50.90 160.05,52.61 155.40,53.66 150.74,54.71 146.53,55.49 142.32,56.27 136.55,56.98 130.78,57.70 126.22,58.31 121.66,58.93 116.61,59.61 111.56,60.30 106.11,60.78 100.65,61.26 95.65,62.08 90.66,62.91 85.18,64.40 79.70,65.88 74.63,67.04 69.56,68.21 65.08,69.45 60.61,70.69 55.32,71.85 50.04,73.01 45.55,74.55 41.07,76.08 35.28,78.19 29.49,80.30 22.94,81.54 16.39,82.78 11.39,82.74 6.39,82.70 1.26,82.51 -3.86,82.32 -8.32,81.63 -12.77,80.94 -16.86,79.57 -20.95,78.20 -26.95,75.58 -32.95,72.96 -37.07,70.58 -41.19,68.20 -44.91,65.31 -48.62,62.41 -51.33,57.92 -54.04,53.43 -55.41,49.20 -56.79,44.96 -57.24,39.73 -57.69,34.49 -56.75,30.25 -55.82,26.01 -52.54,21.86 -49.26,17.72 -45.10,14.44 -40.93,11.15 -37.38,8.61 -33.82,6.07 -29.02,3.33 -24.22,0.59 -19.77,-1.88 -15.31,-4.36 -9.11,-4.78 -2.92,-5.20 -2.25,-5.47 -1.59,-5.74 -0.87,-5.85 -0.16,-5.96 0.54,-5.89 1.26,-5.82 1.94,-5.59 2.62,-5.35 3.22,-4.96 3.82,-4.57 4.31,-4.05 4.81,-3.52 5.16,-2.89 5.51,-2.27 5.70,-1.57 5.89,-0.88 5.91,-0.16 5.93,0.55 5.78,1.25 5.63,1.95 5.31,2.60 5.00,3.24 4.54,3.80 4.07,4.35 3.49,4.77 2.91,5.20 2.91,5.20 L 2.92,5.20 Z"></path></g><g transform="translate(140.9913415163428 1023.6776256694848) rotate(23.7962521975795 7.837173756501215 96.80922019931177)" stroke="none"><path d="M0 0 C-3.28 1.55, -12.58 4.97, -19.71 9.32 C-26.84 13.66, -37.85 21.71, -42.77 26.09 C-47.7 30.48, -45.79 31.76, -49.27 35.64 C-52.74 39.53, -60.17 45.74, -63.6 49.39 C-67.04 53.04, -68.04 54.37, -69.87 57.55 C-71.7 60.74, -72.6 65.44, -74.57 68.5 C-76.55 71.57, -79.12 70.95, -81.74 75.96 C-84.35 80.97, -88.79 93.39, -90.25 98.56 C-91.7 103.72, -91.22 104.15, -90.47 106.94 C-89.73 109.74, -89.65 110.52, -85.77 115.34 C-81.89 120.15, -71.62 130.6, -67.18 135.84 C-62.74 141.08, -61.63 142.63, -59.12 146.79 C-56.62 150.94, -48.6 159.72, -52.18 160.77 C-55.76 161.82, -75.17 156.26, -80.61 153.08 C-86.06 149.9, -84.16 145.86, -84.87 141.67 C-85.58 137.47, -84.65 130.44, -84.87 127.92 C-85.1 125.39, -85.5 125.97, -86.21 126.52 C-86.92 127.06, -88.6 129, -89.13 131.17 C-89.65 133.35, -89.58 137.28, -89.35 139.57 C-89.13 141.86, -90.47 139.48, -87.79 144.92 C-85.1 150.36, -76.25 167.1, -73.23 172.19 C-70.2 177.28, -75.32 173.86, -69.64 175.45 C-63.97 177.04, -47.66 179.34, -39.19 181.74 C-30.72 184.15, -23.81 188.18, -18.81 189.89 C-13.81 191.6, -12.66 191.64, -9.19 191.99 C-5.72 192.34, 3.65 191.76, 2.01 191.99 C0.37 192.22, -16.02 193.04, -19.04 193.39 C-22.06 193.74, -20.49 193.97, -16.13 194.09 C-11.76 194.2, 1.3 193.78, 7.16 194.09 C13.02 194.4, 13.28 195.84, 19.03 195.95 C24.78 196.07, 36.54 195.56, 41.65 194.79 C46.76 194.01, 43.78 194.63, 49.71 191.29 C55.64 187.95, 70.31 180.03, 77.25 174.75 C84.19 169.47, 86.51 164.03, 91.36 159.6 C96.21 155.17, 107.82 147.25, 106.36 148.19 C104.91 149.12, 87.81 162.48, 82.62 165.2 C77.43 167.92, 76.76 164.96, 75.23 164.49 C73.7 164.03, 74.08 163.3, 73.44 162.41 C72.81 161.51, 71.87 161.47, 71.43 159.14 C70.98 156.81, 70.34 152.15, 70.76 148.42 C71.17 144.69, 73.34 140.58, 73.89 136.77 C74.45 132.97, 73.7 129, 74.11 125.58 C74.52 122.17, 76.88 120.58, 76.35 116.27 C75.83 111.96, 72.7 103.96, 70.98 99.73 C69.27 95.49, 68.78 97.82, 66.05 90.87 C63.33 83.92, 56.98 66.56, 54.63 58.01 C52.28 49.47, 54.74 45.74, 51.94 39.61 C49.15 33.47, 41.24 25.01, 37.84 21.2 C34.45 17.39, 33.99 17.89, 31.57 16.77 C29.14 15.64, 26.79 14.87, 23.28 14.44 C19.77 14.02, 13.35 14.17, 10.52 14.21 C7.68 14.25, 8.1 14.1, 6.27 14.68 C4.44 15.26, 0.48 17.75, -0.45 17.71 C-1.39 17.67, -1.05 16.54, 0.67 14.44 C2.39 12.35, 10.89 6.79, 9.85 5.12 C8.8 3.45, -2.61 5.66, -5.6 4.42 C-8.58 3.18, -9 -1.6, -8.07 -2.33 C-7.13 -3.07, -1.34 -0.39, 0 0" stroke="none" stroke-width="0" fill="#ffffff" fill-rule="evenodd"></path><path fill="#ffffff" d="M 3.07,6.48 Q 3.07,6.48 -1.18,10.63 -5.44,14.78 -9.50,16.83 -13.55,18.89 -17.77,21.88 -21.98,24.87 -25.83,27.51 -29.67,30.15 -32.96,33.34 -36.24,36.54 -39.03,40.38 -41.81,44.22 -45.71,48.02 -49.61,51.82 -53.02,55.75 -56.44,59.68 -59.02,64.10 -61.60,68.53 -64.32,72.97 -67.04,77.42 -69.98,81.41 -72.93,85.39 -74.85,90.94 -76.77,96.49 -77.64,100.73 -78.52,104.96 -74.75,108.94 -70.98,112.93 -67.15,116.85 -63.33,120.77 -60.16,124.81 -56.99,128.86 -54.38,132.60 -51.77,136.35 -49.25,140.02 -46.73,143.70 -45.95,155.21 -45.18,166.73 -49.76,169.38 -54.34,172.04 -59.11,170.98 -63.88,169.93 -68.74,168.32 -73.60,166.71 -78.72,165.47 -83.85,164.22 -88.40,159.33 -92.96,154.44 -94.61,148.52 -96.27,142.60 -96.43,137.28 -96.60,131.96 -97.09,129.91 -97.58,127.87 -97.41,126.44 -97.24,125.01 -96.74,123.66 -96.23,122.31 -95.42,121.12 -94.61,119.94 -93.54,118.98 -92.46,118.02 -91.19,117.34 -89.92,116.67 -88.52,116.32 -87.13,115.97 -85.69,115.96 -84.25,115.95 -82.85,116.29 -81.45,116.63 -80.17,117.29 -78.90,117.96 -77.82,118.91 -76.73,119.86 -75.91,121.04 -75.09,122.22 -74.57,123.56 -74.06,124.91 -73.88,126.33 -73.70,127.76 -76.40,132.88 -79.10,138.00 -75.88,142.49 -72.67,146.98 -70.05,151.48 -67.42,155.99 -65.19,160.43 -62.95,164.87 -56.40,165.78 -49.86,166.69 -44.33,167.78 -38.80,168.87 -33.73,170.73 -28.66,172.60 -24.17,174.17 -19.67,175.74 -14.97,177.07 -10.26,178.40 -5.91,178.85 -1.57,179.30 -0.15,179.45 1.26,179.61 2.76,179.80 4.26,179.98 5.66,180.52 7.07,181.06 8.31,181.93 9.55,182.79 10.54,183.92 11.54,185.05 12.23,186.39 12.93,187.73 13.28,189.20 13.64,190.66 13.63,192.17 13.62,193.68 13.26,195.14 12.89,196.60 12.18,197.94 11.48,199.27 10.47,200.39 9.47,201.52 8.22,202.37 6.98,203.22 5.56,203.75 4.15,204.28 2.65,204.45 1.16,204.63 -4.06,204.73 -9.28,204.83 -12.85,205.14 -16.42,205.46 -17.90,205.40 -19.38,205.34 -20.80,204.93 -22.22,204.52 -23.51,203.78 -24.79,203.04 -25.86,202.02 -26.93,200.99 -27.72,199.74 -28.51,198.49 -28.98,197.09 -29.45,195.69 -29.57,194.21 -29.69,192.73 -29.46,191.27 -29.22,189.81 -28.64,188.45 -28.06,187.09 -27.18,185.90 -26.29,184.72 -25.14,183.78 -24.00,182.84 -22.66,182.21 -21.32,181.57 -19.87,181.28 -18.42,180.98 -14.11,181.31 -9.81,181.64 -5.49,181.65 -1.17,181.66 3.53,181.73 8.23,181.80 13.70,182.58 19.16,183.36 24.60,183.32 30.04,183.29 34.66,182.86 39.28,182.44 43.19,180.33 47.09,178.22 51.60,175.45 56.11,172.68 61.94,169.34 67.76,166.00 71.39,162.36 75.02,158.73 78.08,155.59 81.14,152.46 84.68,149.60 88.21,146.75 92.22,143.57 96.23,140.39 97.16,139.37 98.08,138.35 99.39,137.59 100.70,136.82 102.16,136.40 103.61,135.97 105.12,135.90 106.64,135.83 108.12,136.13 109.61,136.43 110.98,137.07 112.35,137.71 113.53,138.67 114.71,139.62 115.62,140.83 116.54,142.03 117.14,143.43 117.74,144.82 117.99,146.31 118.24,147.81 118.12,149.32 118.01,150.83 117.53,152.27 117.06,153.71 116.25,154.99 115.45,156.27 114.36,157.33 113.27,158.38 108.00,162.01 102.73,165.64 98.44,168.83 94.16,172.02 90.12,174.19 86.07,176.36 80.82,176.45 75.56,176.53 70.10,173.25 64.64,169.97 62.26,165.48 59.88,160.99 59.35,156.22 58.82,151.45 59.62,146.08 60.42,140.71 61.03,136.27 61.63,131.83 61.89,127.33 62.15,122.82 62.40,118.48 62.65,114.13 61.05,109.72 59.46,105.31 56.74,100.01 54.02,94.71 52.36,89.93 50.69,85.16 49.44,81.09 48.18,77.01 46.51,72.59 44.84,68.17 43.10,61.73 41.35,55.30 40.72,50.87 40.09,46.44 37.50,42.34 34.91,38.24 31.85,34.48 28.80,30.72 24.78,29.05 20.77,27.38 15.34,27.41 9.90,27.44 4.53,27.75 -0.83,28.06 -5.29,24.38 -9.74,20.70 -9.30,13.70 -8.87,6.70 -5.76,3.31 -2.65,-0.08 -1.16,6.68 0.32,13.44 -4.32,14.33 -8.97,15.21 -7.72,12.70 -6.47,10.19 -7.62,10.02 -8.77,9.85 -9.84,9.41 -10.92,8.97 -11.86,8.29 -12.80,7.60 -13.54,6.71 -14.29,5.83 -14.81,4.78 -15.32,3.74 -15.57,2.61 -15.82,1.47 -15.79,0.31 -15.76,-0.84 -15.45,-1.96 -15.15,-3.08 -14.58,-4.10 -14.01,-5.11 -13.22,-5.96 -12.43,-6.81 -11.46,-7.45 -10.48,-8.08 -9.39,-8.47 -8.29,-8.85 -7.14,-8.96 -5.98,-9.07 -3.22,-7.15 -0.46,-5.23 0.37,-5.17 1.22,-5.10 2.01,-4.77 2.79,-4.44 3.43,-3.88 4.06,-3.32 4.49,-2.58 4.91,-1.85 5.08,-1.01 5.25,-0.18 5.14,0.65 5.03,1.50 4.66,2.26 4.29,3.03 3.69,3.63 3.09,4.24 2.34,4.62 1.58,5.00 0.74,5.13 -0.10,5.25 -0.93,5.09 -1.77,4.94 -2.51,4.53 -3.25,4.12 -3.83,3.49 -4.40,2.86 -4.74,2.08 -5.08,1.30 -5.16,0.46 -5.23,-0.38 -5.04,-1.21 -4.84,-2.03 -4.38,-2.75 -3.93,-3.47 -3.27,-4.01 -2.62,-4.55 -1.82,-4.85 -1.03,-5.15 -0.18,-5.18 0.66,-5.21 1.48,-4.96 2.29,-4.72 2.99,-4.23 3.68,-3.74 4.18,-3.05 4.68,-2.37 4.94,-1.56 5.19,-0.74 5.18,0.09 5.16,0.94 4.87,1.74 4.59,2.54 4.06,3.21 3.53,3.88 2.82,4.34 2.11,4.80 1.29,5.02 0.46,5.23 0.46,5.23 0.46,5.23 -3.00,7.71 -6.47,10.19 -7.62,10.02 -8.77,9.85 -9.84,9.41 -10.92,8.97 -11.86,8.29 -12.80,7.60 -13.54,6.71 -14.29,5.83 -14.81,4.78 -15.32,3.74 -15.57,2.61 -15.82,1.47 -15.79,0.31 -15.76,-0.84 -15.45,-1.96 -15.15,-3.08 -14.58,-4.10 -14.02,-5.11 -13.22,-5.96 -12.43,-6.81 -11.46,-7.45 -10.49,-8.08 -9.39,-8.47 -8.29,-8.85 -7.14,-8.96 -5.98,-9.07 0.39,-8.85 6.76,-8.63 12.08,-5.60 17.39,-2.58 18.86,3.71 20.33,10.00 16.12,15.50 11.91,21.01 11.22,16.52 10.54,12.03 4.76,8.07 -1.01,4.11 3.40,2.81 7.82,1.51 12.68,1.36 17.53,1.21 22.20,1.65 26.87,2.09 31.70,3.53 36.53,4.98 41.72,8.55 46.92,12.11 49.79,15.52 52.66,18.93 55.72,22.64 58.79,26.34 61.03,30.22 63.27,34.10 64.42,40.15 65.57,46.19 66.67,51.65 67.77,57.12 69.70,62.10 71.63,67.08 73.16,71.83 74.69,76.58 76.31,81.31 77.92,86.03 80.12,89.98 82.32,93.92 84.28,99.21 86.25,104.50 87.50,109.50 88.75,114.50 88.22,119.51 87.69,124.52 86.92,129.02 86.15,133.53 85.63,138.02 85.12,142.51 82.13,147.24 79.14,151.97 83.34,148.83 87.55,145.69 92.82,142.02 98.08,138.35 99.39,137.59 100.70,136.83 102.15,136.40 103.61,135.97 105.12,135.90 106.63,135.83 108.12,136.13 109.61,136.43 110.98,137.07 112.35,137.71 113.53,138.67 114.71,139.62 115.62,140.83 116.54,142.03 117.14,143.42 117.74,144.82 117.99,146.31 118.24,147.80 118.12,149.31 118.01,150.83 117.53,152.26 117.06,153.70 116.25,154.99 115.45,156.27 114.36,157.33 113.27,158.38 112.55,158.95 111.83,159.51 107.57,162.83 103.31,166.14 99.80,169.10 96.29,172.05 93.32,175.36 90.35,178.67 85.24,182.99 80.12,187.32 76.38,189.50 72.64,191.68 68.56,194.03 64.47,196.37 60.50,198.90 56.54,201.43 51.84,203.54 47.14,205.65 41.66,206.55 36.19,207.45 31.42,207.89 26.66,208.33 20.95,208.14 15.23,207.95 10.21,207.22 5.19,206.49 -0.24,206.46 -5.68,206.43 -11.05,205.94 -16.42,205.46 -17.90,205.40 -19.38,205.34 -20.80,204.93 -22.22,204.52 -23.51,203.78 -24.79,203.04 -25.86,202.02 -26.93,200.99 -27.72,199.74 -28.51,198.49 -28.98,197.09 -29.45,195.69 -29.57,194.21 -29.69,192.74 -29.46,191.27 -29.22,189.81 -28.64,188.45 -28.06,187.09 -27.18,185.90 -26.29,184.72 -25.14,183.78 -24.00,182.85 -22.66,182.21 -21.32,181.57 -19.87,181.28 -18.42,180.98 -14.37,180.64 -10.32,180.30 -4.52,179.95 1.26,179.61 2.76,179.79 4.25,179.98 5.66,180.52 7.07,181.06 8.31,181.93 9.54,182.79 10.54,183.92 11.54,185.05 12.23,186.39 12.93,187.73 13.28,189.20 13.64,190.66 13.63,192.17 13.62,193.68 13.26,195.14 12.89,196.60 12.18,197.94 11.48,199.27 10.47,200.39 9.47,201.52 8.22,202.37 6.98,203.22 5.57,203.75 4.15,204.28 2.66,204.45 1.16,204.63 -1.53,204.61 -4.24,204.60 -9.21,204.20 -14.19,203.80 -19.51,202.60 -24.83,201.40 -30.20,199.27 -35.56,197.13 -41.16,195.07 -46.76,193.01 -50.96,192.20 -55.15,191.38 -59.34,190.52 -63.53,189.66 -68.53,188.23 -73.54,186.79 -78.47,182.90 -83.41,179.01 -85.67,174.69 -87.93,170.37 -90.35,165.57 -92.77,160.76 -95.36,155.49 -97.95,150.23 -99.59,143.42 -101.22,136.62 -99.40,132.24 -97.58,127.87 -97.41,126.44 -97.24,125.01 -96.74,123.66 -96.23,122.31 -95.42,121.13 -94.61,119.94 -93.54,118.98 -92.46,118.02 -91.19,117.34 -89.92,116.67 -88.53,116.32 -87.13,115.97 -85.69,115.96 -84.25,115.95 -82.85,116.29 -81.45,116.63 -80.18,117.29 -78.90,117.96 -77.82,118.91 -76.73,119.86 -75.91,121.04 -75.09,122.22 -74.57,123.56 -74.06,124.90 -73.88,126.33 -73.70,127.76 -73.37,132.25 -73.05,136.74 -70.30,140.18 -67.55,143.62 -64.18,147.46 -60.81,151.30 -63.87,155.03 -66.92,158.77 -69.43,154.97 -71.93,151.18 -75.03,146.58 -78.13,141.98 -81.48,137.88 -84.83,133.78 -88.12,130.53 -91.42,127.27 -94.41,123.33 -97.40,119.39 -99.73,114.33 -102.05,109.27 -102.17,104.33 -102.29,99.40 -101.01,94.83 -99.73,90.27 -98.17,85.94 -96.61,81.60 -94.35,76.34 -92.10,71.08 -88.48,66.87 -84.86,62.66 -83.07,58.57 -81.28,54.47 -78.33,50.17 -75.38,45.87 -72.05,41.92 -68.72,37.97 -64.70,34.04 -60.67,30.10 -57.50,26.28 -54.32,22.46 -51.26,19.23 -48.21,16.01 -43.95,12.90 -39.70,9.80 -35.49,7.04 -31.29,4.28 -27.75,1.87 -24.21,-0.54 -19.55,-2.84 -14.89,-5.14 -8.98,-5.81 -3.07,-6.48 -2.25,-6.76 -1.43,-7.03 -0.57,-7.10 0.29,-7.17 1.14,-7.03 2.00,-6.89 2.79,-6.55 3.59,-6.21 4.28,-5.69 4.97,-5.17 5.52,-4.50 6.07,-3.83 6.44,-3.05 6.81,-2.27 6.98,-1.42 7.15,-0.57 7.12,0.29 7.08,1.15 6.84,1.98 6.60,2.81 6.17,3.56 5.73,4.31 5.13,4.94 4.53,5.56 3.80,6.02 3.07,6.48 3.07,6.48 L 3.07,6.48 Z"></path></g><g transform="translate(84.31131207341969 1054.623274435311) rotate(23.7962521975795 67.28754086726622 67.33728634408135)" stroke="none"><path fill="#1e1e1e" d="M 2.04,3.70 Q 2.04,3.70 -3.51,8.21 -9.08,12.71 -14.33,17.18 -19.58,21.64 -23.40,25.76 -27.21,29.87 -30.24,33.74 -33.27,37.62 -35.49,41.25 -37.72,44.88 -39.33,49.44 -40.95,54.00 -41.81,58.66 -42.67,63.31 -43.03,68.54 -43.40,73.76 -43.56,79.61 -43.72,85.46 -43.33,90.73 -42.95,96.01 -41.24,101.46 -39.53,106.92 -37.37,111.57 -35.20,116.21 -32.52,120.65 -29.85,125.08 -26.68,129.17 -23.51,133.26 -18.25,137.69 -12.98,142.13 -7.64,145.73 -2.30,149.33 2.84,152.31 7.99,155.29 13.11,157.85 18.22,160.41 23.51,162.82 28.81,165.23 34.02,167.28 39.23,169.33 45.56,170.96 51.89,172.60 57.30,173.34 62.71,174.07 67.87,174.39 73.03,174.70 79.51,174.38 85.99,174.06 91.61,173.03 97.23,172.01 102.82,170.30 108.41,168.60 114.28,166.55 120.15,164.49 126.62,161.63 133.10,158.76 138.08,156.30 143.05,153.83 146.71,151.52 150.37,149.21 153.21,146.68 156.06,144.15 158.75,141.11 161.44,138.07 164.51,133.27 167.59,128.47 170.08,124.03 172.58,119.59 174.28,116.32 175.98,113.05 177.06,110.64 178.14,108.22 179.54,111.32 180.95,114.43 178.63,115.92 176.32,117.42 172.42,118.55 168.52,119.67 165.88,119.85 163.24,120.04 160.83,119.83 158.42,119.62 155.55,118.99 152.67,118.36 150.49,117.67 148.32,116.97 145.12,115.03 141.92,113.09 139.89,110.90 137.86,108.71 136.67,106.91 135.48,105.10 133.84,101.39 132.19,97.68 131.49,94.93 130.78,92.18 130.37,89.93 129.97,87.68 129.77,85.33 129.58,82.97 129.45,80.71 129.32,78.45 129.26,75.92 129.20,73.38 129.11,70.44 129.02,67.50 128.87,65.25 128.71,63.00 128.46,60.63 128.21,58.27 127.95,55.32 127.70,52.37 127.34,48.07 126.98,43.77 126.41,40.43 125.84,37.09 125.12,34.12 124.40,31.15 123.53,28.12 122.66,25.09 121.69,21.57 120.72,18.04 119.55,14.07 118.38,10.10 117.52,7.40 116.65,4.69 115.25,1.53 113.84,-1.63 112.01,-3.66 110.19,-5.69 108.10,-7.61 106.01,-9.52 103.39,-11.52 100.78,-13.52 97.64,-15.69 94.50,-17.87 89.30,-21.35 84.09,-24.82 79.22,-28.05 74.35,-31.28 70.01,-33.81 65.67,-36.35 62.97,-37.56 60.28,-38.76 56.43,-39.15 52.59,-39.53 48.16,-37.81 43.72,-36.10 40.09,-33.42 36.46,-30.74 32.76,-27.01 29.05,-23.27 25.09,-18.90 21.12,-14.54 16.67,-9.63 12.22,-4.72 9.61,-1.87 7.01,0.98 3.79,3.94 0.57,6.91 0.34,7.20 0.11,7.50 -0.17,7.73 -0.47,7.97 -0.81,8.12 -1.15,8.28 -1.52,8.35 -1.89,8.42 -2.26,8.40 -2.64,8.37 -3.00,8.26 -3.36,8.15 -3.68,7.96 -4.00,7.77 -4.27,7.50 -4.54,7.24 -4.73,6.92 -4.93,6.60 -5.04,6.24 -5.15,5.88 -5.18,5.51 -5.20,5.13 -5.14,4.76 -5.07,4.39 -4.92,4.05 -4.77,3.71 -3.60,1.37 -2.44,-0.96 -2.22,-1.32 -2.00,-1.69 -1.68,-1.97 -1.36,-2.24 -0.96,-2.40 -0.57,-2.56 -0.14,-2.58 0.27,-2.61 0.68,-2.49 1.09,-2.38 1.44,-2.15 1.80,-1.91 2.05,-1.57 2.31,-1.23 2.45,-0.83 2.59,-0.43 2.59,-0.00 2.59,0.41 2.45,0.81 2.32,1.22 2.06,1.56 1.81,1.90 1.46,2.14 1.11,2.38 0.70,2.49 0.29,2.61 -0.13,2.58 -0.55,2.56 -0.95,2.41 -1.34,2.25 -1.67,1.98 -1.99,1.70 -2.21,1.34 -2.43,0.97 -2.52,0.56 -2.62,0.15 -2.57,-0.27 -2.53,-0.69 -2.35,-1.08 -2.17,-1.46 -1.88,-1.77 -1.59,-2.08 -1.22,-2.28 -0.84,-2.48 -0.42,-2.55 -0.00,-2.62 0.41,-2.55 0.83,-2.49 1.20,-2.29 1.58,-2.09 1.87,-1.78 2.16,-1.48 2.34,-1.09 2.52,-0.71 2.57,-0.28 2.62,0.13 2.53,0.54 2.44,0.96 2.44,0.96 2.44,0.96 1.51,3.93 0.57,6.91 0.34,7.20 0.11,7.50 -0.17,7.73 -0.47,7.97 -0.81,8.12 -1.15,8.28 -1.52,8.35 -1.89,8.42 -2.26,8.40 -2.64,8.37 -3.00,8.26 -3.36,8.15 -3.68,7.96 -4.00,7.77 -4.27,7.50 -4.54,7.24 -4.73,6.92 -4.93,6.60 -5.04,6.24 -5.15,5.88 -5.18,5.51 -5.20,5.13 -5.14,4.76 -5.07,4.39 -4.92,4.05 -4.77,3.71 -5.49,0.60 -6.21,-2.50 -5.00,-5.56 -3.79,-8.63 -1.21,-11.57 1.37,-14.51 5.82,-19.46 10.26,-24.41 14.50,-29.07 18.73,-33.72 23.42,-38.27 28.12,-42.83 33.63,-46.43 39.14,-50.03 46.53,-52.03 53.92,-54.04 60.04,-53.11 66.16,-52.18 69.62,-50.59 73.08,-49.01 77.77,-46.25 82.46,-43.49 87.35,-40.25 92.23,-37.00 97.54,-33.44 102.86,-29.88 106.29,-27.49 109.72,-25.09 112.87,-22.64 116.02,-20.18 118.72,-17.59 121.41,-15.01 124.97,-9.82 128.53,-4.64 129.51,-2.18 130.49,0.27 131.41,3.14 132.32,6.00 133.52,10.09 134.72,14.18 135.67,17.64 136.63,21.10 137.58,24.43 138.52,27.76 139.35,31.23 140.17,34.70 140.81,38.63 141.45,42.56 141.81,46.86 142.17,51.16 142.39,53.95 142.62,56.74 142.89,59.36 143.17,61.99 143.35,64.53 143.52,67.07 143.61,70.06 143.70,73.06 143.75,75.33 143.80,77.60 144.04,81.37 144.28,85.14 144.98,88.71 145.67,92.29 146.73,94.81 147.80,97.34 149.31,99.45 150.82,101.55 152.83,102.70 154.84,103.85 157.33,104.45 159.82,105.05 162.08,105.18 164.34,105.30 166.91,104.78 169.48,104.26 171.94,103.33 174.40,102.39 176.93,101.69 179.46,100.98 182.62,101.03 185.78,101.08 188.07,103.15 190.36,105.23 191.09,108.88 191.83,112.54 190.30,116.11 188.77,119.68 186.96,123.17 185.16,126.66 182.44,131.50 179.73,136.34 175.99,142.04 172.26,147.73 168.92,151.42 165.59,155.10 161.83,158.30 158.07,161.50 153.78,164.16 149.48,166.81 144.21,169.42 138.94,172.02 131.93,175.10 124.92,178.17 118.74,180.33 112.56,182.48 106.16,184.36 99.76,186.25 93.22,187.38 86.68,188.50 79.40,188.82 72.12,189.14 66.40,188.75 60.69,188.37 54.46,187.47 48.22,186.56 41.09,184.66 33.95,182.75 28.39,180.55 22.82,178.35 17.29,175.82 11.76,173.29 6.26,170.53 0.76,167.77 -4.82,164.52 -10.41,161.27 -16.40,157.16 -22.40,153.05 -28.65,147.55 -34.90,142.04 -38.53,137.24 -42.17,132.44 -45.20,127.29 -48.23,122.15 -50.72,116.56 -53.21,110.97 -55.16,104.00 -57.11,97.02 -57.48,91.03 -57.84,85.03 -57.63,78.86 -57.42,72.68 -56.91,66.65 -56.41,60.62 -55.22,54.86 -54.03,49.10 -51.75,43.34 -49.47,37.59 -46.75,33.33 -44.03,29.08 -40.59,24.80 -37.14,20.53 -32.70,15.87 -28.26,11.22 -21.95,6.08 -15.64,0.94 -8.84,-1.37 -2.04,-3.70 -1.57,-3.89 -1.10,-4.08 -0.59,-4.15 -0.09,-4.23 0.41,-4.18 0.92,-4.12 1.40,-3.95 1.88,-3.78 2.31,-3.50 2.73,-3.22 3.08,-2.85 3.42,-2.47 3.67,-2.03 3.92,-1.58 4.05,-1.09 4.18,-0.60 4.20,-0.09 4.21,0.41 4.09,0.91 3.98,1.41 3.76,1.87 3.53,2.32 3.20,2.71 2.87,3.10 2.46,3.40 2.04,3.70 2.04,3.70 L 2.04,3.70 Z"></path></g><g transform="translate(74.82204332565561 1112.245980217007) rotate(23.7962521975795 45.34526327549338 44.62169270363029)" stroke="none"><path fill="#1e1e1e" d="M 3.83,0.69 Q 3.83,0.69 4.02,7.70 4.21,14.72 4.16,22.13 4.11,29.55 5.36,35.51 6.60,41.48 8.62,46.87 10.64,52.27 13.11,57.35 15.58,62.43 18.22,66.59 20.86,70.75 23.37,73.81 25.88,76.86 24.52,78.61 23.16,80.37 22.37,73.69 21.58,67.00 21.34,59.81 21.10,52.62 21.06,44.32 21.01,36.01 20.97,31.84 20.94,27.66 20.92,25.20 20.91,22.74 21.02,21.98 21.12,21.22 21.22,20.42 21.31,19.62 21.59,18.86 21.87,18.11 22.32,17.44 22.77,16.77 23.37,16.24 23.97,15.70 24.68,15.32 25.39,14.94 26.17,14.74 26.95,14.54 27.76,14.53 28.56,14.53 29.35,14.71 30.13,14.90 30.85,15.27 31.56,15.64 32.17,16.17 32.78,16.70 33.24,17.36 33.70,18.02 33.99,18.77 34.29,19.52 34.39,20.32 34.49,21.12 36.25,25.53 38.00,29.94 39.32,34.18 40.64,38.41 41.98,42.88 43.32,47.35 45.55,53.21 47.78,59.07 49.79,63.27 51.81,67.46 53.31,69.93 54.81,72.41 56.12,73.99 57.44,75.56 57.81,76.30 58.17,77.03 58.35,77.83 58.53,78.63 58.51,79.45 58.50,80.27 58.28,81.07 58.07,81.86 57.67,82.57 57.28,83.29 56.72,83.89 56.16,84.50 55.48,84.95 54.79,85.40 54.02,85.67 53.25,85.95 52.43,86.03 51.61,86.11 50.80,85.99 49.99,85.88 49.23,85.57 48.47,85.26 47.81,84.78 47.14,84.30 46.61,83.68 46.08,83.05 45.80,78.64 45.51,74.22 45.21,70.14 44.91,66.05 43.57,60.38 42.24,54.71 40.74,49.44 39.24,44.17 38.38,41.25 37.53,38.33 37.40,37.52 37.27,36.72 37.34,35.91 37.41,35.09 37.67,34.32 37.93,33.55 38.37,32.86 38.80,32.17 39.39,31.61 39.98,31.04 40.69,30.64 41.40,30.23 42.18,30.01 42.97,29.78 43.78,29.75 44.60,29.72 45.40,29.89 46.19,30.05 46.93,30.40 47.67,30.76 48.30,31.27 48.93,31.79 49.42,32.44 49.90,33.10 50.22,33.85 50.54,34.60 48.83,32.72 47.12,30.83 51.49,35.37 55.86,39.91 59.33,43.84 62.81,47.77 66.08,51.13 69.34,54.49 72.05,56.94 74.76,59.40 77.27,61.31 79.77,63.22 80.32,63.83 80.87,64.43 81.25,65.15 81.64,65.87 81.84,66.66 82.04,67.45 82.05,68.27 82.05,69.09 81.86,69.88 81.68,70.67 81.30,71.40 80.93,72.12 80.39,72.74 79.86,73.36 79.19,73.82 78.52,74.29 77.76,74.59 77.00,74.88 76.19,74.99 75.38,75.09 74.57,75.00 73.76,74.91 73.00,74.63 72.23,74.35 71.55,73.89 70.88,73.43 70.41,68.63 69.93,63.83 69.88,61.63 69.82,59.42 69.46,55.49 69.09,51.56 68.48,47.69 67.86,43.81 67.89,43.00 67.92,42.19 68.14,41.41 68.37,40.63 68.77,39.93 69.17,39.22 69.73,38.64 70.29,38.05 70.97,37.61 71.66,37.18 72.43,36.92 73.19,36.66 74.00,36.59 74.81,36.52 75.61,36.65 76.41,36.77 77.16,37.09 77.91,37.40 78.56,37.89 79.21,38.37 79.72,39.00 80.24,39.62 80.59,40.35 80.94,41.09 81.10,41.88 81.27,42.67 81.83,45.88 82.39,49.08 83.79,52.40 85.19,55.73 87.63,58.91 90.06,62.09 91.61,63.72 93.16,65.34 90.93,65.98 88.70,66.62 88.05,62.53 87.39,58.44 87.01,52.83 86.64,47.21 85.94,43.08 85.25,38.95 87.91,36.28 90.58,33.62 90.55,33.31 90.52,32.99 90.57,32.68 90.62,32.36 90.74,32.07 90.86,31.78 91.05,31.53 91.24,31.27 91.49,31.07 91.73,30.87 92.01,30.73 92.30,30.59 92.61,30.53 92.92,30.46 93.24,30.47 93.55,30.49 93.86,30.57 94.16,30.66 94.44,30.81 94.71,30.97 94.94,31.19 95.17,31.41 95.34,31.67 95.51,31.94 95.61,32.24 95.72,32.54 95.27,31.80 94.83,31.07 95.11,31.39 95.39,31.71 95.55,32.10 95.71,32.50 95.73,32.92 95.76,33.34 95.65,33.76 95.54,34.17 95.30,34.52 95.07,34.87 94.73,35.13 94.39,35.39 93.99,35.53 93.59,35.67 93.16,35.67 92.74,35.68 92.34,35.54 91.93,35.41 91.59,35.16 91.25,34.90 91.01,34.55 90.77,34.20 90.65,33.79 90.54,33.38 90.56,32.96 90.58,32.53 90.73,32.14 90.89,31.74 91.16,31.42 91.43,31.09 91.79,30.87 92.16,30.65 92.57,30.55 92.98,30.46 93.41,30.50 93.83,30.54 94.22,30.72 94.60,30.90 94.91,31.19 95.23,31.48 95.43,31.85 95.63,32.22 95.70,32.64 95.77,33.06 95.71,33.48 95.64,33.90 95.44,34.28 95.25,34.65 94.94,34.95 94.64,35.24 94.25,35.42 93.87,35.61 93.44,35.66 93.02,35.70 92.61,35.62 92.19,35.53 91.38,34.57 90.58,33.62 90.55,33.31 90.52,32.99 90.57,32.68 90.62,32.36 90.74,32.07 90.86,31.78 91.05,31.53 91.24,31.27 91.48,31.07 91.73,30.87 92.01,30.73 92.30,30.59 92.61,30.53 92.92,30.46 93.24,30.47 93.55,30.49 93.86,30.57 94.16,30.66 94.44,30.81 94.71,30.97 94.94,31.19 95.17,31.41 95.34,31.67 95.51,31.94 95.61,32.24 95.72,32.54 96.67,32.40 97.62,32.27 98.19,34.50 98.75,36.73 99.52,41.56 100.30,46.38 100.66,53.02 101.02,59.66 99.72,66.72 98.42,73.78 96.04,75.40 93.66,77.01 88.47,75.84 83.27,74.66 81.17,72.33 79.06,70.00 75.95,65.44 72.83,60.88 71.16,56.72 69.49,52.55 68.68,48.18 67.86,43.81 67.89,43.00 67.92,42.19 68.14,41.41 68.37,40.63 68.77,39.93 69.17,39.22 69.73,38.64 70.29,38.05 70.97,37.61 71.66,37.18 72.43,36.92 73.19,36.66 74.00,36.59 74.81,36.52 75.61,36.65 76.41,36.77 77.16,37.09 77.91,37.40 78.56,37.89 79.21,38.37 79.72,39.00 80.24,39.62 80.59,40.35 80.94,41.09 81.10,41.88 81.27,42.67 81.88,46.55 82.49,50.42 82.87,55.29 83.25,60.15 82.83,64.44 82.42,68.74 81.09,65.98 79.77,63.22 80.32,63.83 80.87,64.43 81.25,65.15 81.64,65.87 81.84,66.66 82.04,67.45 82.05,68.27 82.05,69.08 81.86,69.88 81.68,70.67 81.30,71.40 80.93,72.12 80.39,72.74 79.86,73.35 79.19,73.82 78.52,74.29 77.76,74.59 77.00,74.88 76.19,74.99 75.38,75.09 74.57,75.00 73.76,74.91 73.00,74.63 72.23,74.35 71.56,73.89 70.88,73.43 69.89,72.85 68.89,72.27 67.22,70.81 65.54,69.35 62.58,66.55 59.61,63.75 56.20,60.10 52.80,56.44 49.35,52.38 45.90,48.32 43.98,45.40 42.06,42.49 39.79,40.41 37.53,38.33 37.40,37.53 37.27,36.72 37.34,35.91 37.41,35.09 37.67,34.32 37.93,33.55 38.36,32.86 38.80,32.17 39.39,31.61 39.98,31.04 40.69,30.64 41.40,30.23 42.18,30.01 42.97,29.78 43.78,29.75 44.60,29.72 45.40,29.89 46.19,30.05 46.93,30.40 47.67,30.76 48.30,31.27 48.93,31.79 49.42,32.44 49.90,33.10 50.22,33.85 50.54,34.60 51.40,37.52 52.26,40.44 53.88,46.07 55.50,51.70 56.99,58.45 58.47,65.20 57.96,70.38 57.44,75.56 57.81,76.30 58.17,77.03 58.35,77.83 58.53,78.63 58.51,79.45 58.50,80.27 58.28,81.06 58.07,81.86 57.67,82.57 57.28,83.29 56.72,83.89 56.16,84.50 55.48,84.95 54.79,85.40 54.02,85.67 53.25,85.95 52.43,86.03 51.62,86.11 50.80,85.99 49.99,85.88 49.23,85.57 48.47,85.26 47.81,84.78 47.14,84.30 46.61,83.68 46.08,83.05 44.42,81.37 42.77,79.69 40.91,76.62 39.06,73.55 36.81,68.79 34.56,64.04 32.19,57.67 29.83,51.30 28.57,46.85 27.30,42.40 26.11,38.26 24.92,34.12 23.88,30.70 22.85,27.28 21.99,24.25 21.12,21.22 21.22,20.42 21.31,19.62 21.59,18.86 21.87,18.11 22.32,17.44 22.77,16.77 23.37,16.24 23.97,15.70 24.68,15.32 25.39,14.94 26.17,14.74 26.95,14.54 27.76,14.53 28.56,14.53 29.35,14.71 30.13,14.90 30.85,15.27 31.56,15.64 32.17,16.17 32.78,16.70 33.24,17.36 33.70,18.01 33.99,18.77 34.28,19.52 34.39,20.32 34.49,21.12 34.36,21.89 34.22,22.67 34.25,25.10 34.27,27.52 34.32,31.68 34.38,35.84 34.54,44.00 34.70,52.15 34.96,59.41 35.22,66.68 35.36,72.57 35.50,78.47 34.24,83.22 32.98,87.97 30.03,89.69 27.08,91.41 21.15,88.47 15.23,85.54 12.24,81.81 9.24,78.09 6.21,73.25 3.18,68.40 0.46,62.69 -2.25,56.99 -4.55,50.55 -6.85,44.12 -8.20,36.75 -9.54,29.38 -9.32,20.86 -9.10,12.34 -6.47,5.82 -3.83,-0.69 -3.69,-1.14 -3.56,-1.59 -3.31,-1.99 -3.07,-2.39 -2.74,-2.73 -2.41,-3.06 -2.01,-3.30 -1.60,-3.55 -1.16,-3.69 -0.71,-3.83 -0.24,-3.86 0.22,-3.89 0.68,-3.81 1.15,-3.72 1.58,-3.53 2.00,-3.34 2.38,-3.05 2.75,-2.76 3.04,-2.39 3.33,-2.02 3.52,-1.59 3.72,-1.16 3.80,-0.70 3.89,-0.24 3.86,0.22 3.83,0.69 3.83,0.69 L 3.83,0.69 Z"></path></g><g transform="translate(166.72602033128715 1025.114401136072) rotate(23.7962521975795 24.076810778769868 -28.42727884210217)" stroke="none"><path fill="#1e1e1e" d="M -2.08,2.70 Q -2.08,2.70 -6.57,1.34 -11.06,-0.01 -12.86,-1.47 -14.67,-2.93 -17.10,-6.09 -19.52,-9.24 -20.65,-12.15 -21.79,-15.06 -22.14,-18.35 -22.49,-21.64 -22.53,-23.87 -22.57,-26.10 -22.33,-28.99 -22.09,-31.88 -21.05,-34.47 -20.01,-37.06 -19.01,-38.96 -18.02,-40.86 -16.85,-43.12 -15.68,-45.38 -14.51,-47.30 -13.33,-49.21 -11.84,-50.88 -10.35,-52.54 -8.20,-54.13 -6.05,-55.72 -3.34,-57.29 -0.64,-58.86 2.08,-60.01 4.80,-61.17 7.57,-61.67 10.33,-62.17 12.55,-62.60 14.76,-63.03 17.49,-63.30 20.21,-63.57 22.60,-63.63 24.99,-63.68 27.39,-63.70 29.78,-63.71 32.12,-63.73 34.45,-63.74 37.84,-63.06 41.23,-62.38 43.85,-61.28 46.47,-60.17 49.05,-59.08 51.64,-57.99 54.09,-56.45 56.54,-54.91 58.37,-53.17 60.20,-51.43 62.00,-48.55 63.80,-45.66 65.10,-43.06 66.40,-40.46 68.08,-37.23 69.76,-34.01 70.38,-30.74 71.00,-27.47 71.08,-25.00 71.16,-22.52 71.17,-20.10 71.19,-17.69 70.48,-14.15 69.78,-10.61 68.74,-8.63 67.71,-6.65 65.37,-3.83 63.03,-1.01 58.19,-1.77 53.36,-2.52 52.95,-2.65 52.55,-2.78 52.21,-3.03 51.86,-3.28 51.62,-3.63 51.37,-3.98 51.25,-4.39 51.13,-4.79 51.15,-5.22 51.16,-5.64 51.31,-6.04 51.46,-6.44 51.73,-6.77 52.00,-7.10 52.36,-7.32 52.72,-7.55 53.14,-7.64 53.55,-7.74 53.97,-7.70 54.40,-7.67 54.79,-7.49 55.17,-7.32 55.49,-7.04 55.80,-6.75 56.01,-6.38 56.21,-6.00 56.29,-5.59 56.36,-5.17 56.30,-4.75 56.24,-4.33 56.05,-3.95 55.86,-3.57 55.55,-3.27 55.25,-2.97 54.87,-2.79 54.48,-2.60 54.06,-2.55 53.64,-2.50 53.22,-2.58 52.81,-2.67 52.44,-2.88 52.07,-3.09 51.79,-3.41 51.51,-3.73 51.35,-4.12 51.18,-4.52 51.15,-4.94 51.12,-5.36 51.23,-5.77 51.34,-6.19 51.57,-6.54 51.80,-6.90 52.13,-7.16 52.47,-7.42 52.87,-7.57 53.27,-7.71 53.69,-7.71 54.12,-7.72 54.12,-7.72 54.12,-7.72 53.47,-9.36 52.82,-10.99 54.55,-13.19 56.28,-15.38 56.58,-17.59 56.88,-19.79 56.83,-22.99 56.78,-26.19 55.97,-28.70 55.16,-31.22 54.25,-33.18 53.34,-35.14 52.19,-37.46 51.04,-39.79 49.82,-41.63 48.60,-43.47 46.11,-44.94 43.61,-46.40 40.33,-47.80 37.05,-49.20 34.52,-49.59 31.98,-49.97 29.70,-49.98 27.42,-49.98 24.21,-49.96 21.00,-49.94 18.14,-49.63 15.27,-49.32 12.77,-48.90 10.28,-48.49 8.02,-47.73 5.76,-46.96 3.71,-45.81 1.66,-44.65 -0.61,-42.68 -2.90,-40.71 -4.03,-38.58 -5.16,-36.45 -6.23,-34.41 -7.29,-32.36 -8.25,-30.39 -9.20,-28.42 -9.16,-25.37 -9.11,-22.32 -8.83,-19.95 -8.56,-17.58 -7.37,-15.49 -6.17,-13.39 -4.50,-12.04 -2.84,-10.69 -0.37,-6.70 2.08,-2.70 2.38,-2.41 2.67,-2.13 2.89,-1.77 3.10,-1.42 3.23,-1.03 3.35,-0.64 3.38,-0.23 3.41,0.17 3.34,0.58 3.27,0.99 3.10,1.36 2.94,1.74 2.68,2.07 2.43,2.39 2.11,2.65 1.79,2.91 1.41,3.08 1.04,3.25 0.63,3.33 0.23,3.41 -0.17,3.38 -0.58,3.36 -0.98,3.24 -1.37,3.12 -1.73,2.91 -2.08,2.70 -2.08,2.70 L -2.08,2.70 Z"></path></g><g transform="translate(384.40076998728364 1016.5869888295501) rotate(23.7962521975795 15.678869829076575 -516.9278611716986)" stroke="none"><path fill="#1e1e1e" d="M -2.70,-0.45 Q -2.70,-0.45 -3.41,-5.26 -4.12,-10.07 -3.86,-12.73 -3.59,-15.40 -3.52,-17.63 -3.45,-19.87 -3.40,-22.70 -3.35,-25.53 -3.24,-28.04 -3.14,-30.56 -3.17,-32.81 -3.20,-35.05 -3.50,-37.97 -3.80,-40.89 -4.36,-44.32 -4.91,-47.76 -5.27,-51.13 -5.63,-54.49 -5.93,-57.17 -6.23,-59.84 -6.58,-62.02 -6.93,-64.21 -7.45,-67.20 -7.97,-70.18 -9.09,-73.28 -10.21,-76.37 -11.19,-79.58 -12.17,-82.78 -13.07,-85.59 -13.97,-88.40 -14.65,-91.38 -15.33,-94.37 -15.80,-96.61 -16.26,-98.85 -17.22,-101.72 -18.18,-104.59 -19.05,-106.93 -19.93,-109.28 -20.56,-111.99 -21.20,-114.69 -21.60,-117.01 -22.00,-119.33 -23.27,-123.36 -24.54,-127.39 -25.42,-130.33 -26.30,-133.27 -27.35,-136.45 -28.41,-139.63 -28.96,-143.08 -29.51,-146.54 -29.66,-149.03 -29.81,-151.52 -29.87,-153.91 -29.93,-156.30 -29.96,-158.52 -29.99,-160.74 -30.01,-164.89 -30.03,-169.04 -29.83,-172.50 -29.63,-175.96 -29.27,-178.96 -28.91,-181.97 -28.65,-184.38 -28.38,-186.80 -28.14,-189.82 -27.90,-192.85 -27.54,-197.03 -27.19,-201.21 -26.76,-203.88 -26.34,-206.55 -26.12,-208.78 -25.90,-211.02 -25.82,-213.31 -25.73,-215.61 -25.69,-218.00 -25.65,-220.39 -25.64,-223.67 -25.62,-226.96 -25.62,-230.24 -25.61,-233.52 -25.60,-236.85 -25.60,-240.19 -25.60,-243.22 -25.61,-246.24 -25.62,-248.87 -25.63,-251.49 -25.63,-254.88 -25.64,-258.28 -25.64,-261.39 -25.64,-264.51 -25.71,-267.51 -25.78,-270.50 -26.00,-273.43 -26.23,-276.37 -26.39,-280.55 -26.55,-284.74 -26.68,-288.35 -26.82,-291.96 -26.94,-295.44 -27.07,-298.92 -27.24,-302.49 -27.42,-306.06 -27.68,-309.73 -27.95,-313.40 -28.51,-317.75 -29.06,-322.11 -29.51,-326.10 -29.95,-330.09 -30.40,-333.88 -30.84,-337.68 -31.28,-341.44 -31.73,-345.20 -32.25,-349.91 -32.78,-354.62 -33.13,-358.92 -33.49,-363.21 -33.83,-367.20 -34.17,-371.19 -34.39,-375.21 -34.61,-379.23 -34.76,-383.15 -34.92,-387.07 -35.05,-392.32 -35.18,-397.57 -35.24,-402.30 -35.29,-407.04 -35.38,-411.48 -35.47,-415.92 -35.63,-419.96 -35.79,-423.99 -36.00,-429.09 -36.20,-434.19 -36.41,-438.60 -36.62,-443.01 -36.91,-447.25 -37.19,-451.49 -37.56,-455.65 -37.93,-459.80 -38.35,-463.98 -38.77,-468.16 -39.27,-474.08 -39.77,-480.01 -40.12,-485.61 -40.47,-491.20 -40.62,-496.75 -40.77,-502.30 -41.02,-507.75 -41.27,-513.21 -41.64,-520.49 -42.00,-527.78 -42.16,-534.19 -42.32,-540.61 -42.45,-546.11 -42.59,-551.61 -42.64,-556.81 -42.70,-562.01 -42.72,-567.03 -42.74,-572.06 -42.75,-578.61 -42.76,-585.17 -42.77,-590.77 -42.77,-596.37 -42.78,-601.43 -42.78,-606.49 -42.85,-611.67 -42.91,-616.86 -42.94,-622.26 -42.96,-627.66 -43.04,-634.54 -43.12,-641.43 -43.15,-647.26 -43.18,-653.10 -43.26,-658.15 -43.34,-663.20 -43.37,-667.93 -43.40,-672.67 -43.41,-678.37 -43.43,-684.07 -43.43,-688.70 -43.44,-693.33 -43.45,-697.37 -43.45,-701.42 -43.45,-704.88 -43.45,-708.34 -43.45,-711.62 -43.45,-714.90 -43.45,-717.17 -43.45,-719.43 -43.45,-722.28 -43.45,-725.12 -43.44,-727.31 -43.44,-729.51 -43.45,-731.87 -43.45,-734.23 -43.31,-737.91 -43.18,-741.59 -42.91,-743.84 -42.64,-746.09 -42.20,-749.28 -41.76,-752.47 -41.40,-755.90 -41.03,-759.33 -40.75,-762.11 -40.47,-764.89 -40.22,-767.13 -39.97,-769.36 -39.67,-771.86 -39.38,-774.35 -39.31,-776.51 -39.25,-778.67 -39.16,-782.23 -39.08,-785.80 -39.04,-790.59 -39.00,-795.38 -38.99,-798.16 -38.99,-800.93 -38.99,-803.58 -38.99,-806.24 -38.99,-809.64 -38.99,-813.05 -39.05,-815.96 -39.10,-818.86 -39.38,-821.39 -39.65,-823.92 -39.90,-826.61 -40.16,-829.30 -40.39,-831.85 -40.63,-834.40 -40.91,-836.95 -41.20,-839.50 -41.46,-842.06 -41.71,-844.62 -42.01,-847.03 -42.31,-849.43 -42.68,-852.77 -43.06,-856.11 -43.18,-859.10 -43.30,-862.09 -43.35,-864.36 -43.39,-866.63 -43.42,-870.66 -43.45,-874.70 -43.46,-879.57 -43.46,-884.45 -43.46,-887.07 -43.46,-889.69 -43.40,-892.30 -43.34,-894.91 -43.25,-898.34 -43.15,-901.76 -43.05,-904.85 -42.95,-907.93 -42.91,-910.58 -42.87,-913.22 -42.85,-915.81 -42.83,-918.40 -42.75,-921.20 -42.68,-923.99 -42.37,-927.27 -42.06,-930.55 -41.55,-934.69 -41.03,-938.83 -40.56,-942.39 -40.08,-945.94 -39.70,-949.26 -39.31,-952.57 -38.95,-955.85 -38.59,-959.13 -38.30,-961.51 -38.02,-963.90 -37.31,-969.04 -36.60,-974.18 -36.18,-977.81 -35.77,-981.43 -35.54,-984.35 -35.30,-987.28 -35.14,-989.85 -34.97,-992.43 -34.63,-995.88 -34.29,-999.34 -34.09,-1001.88 -33.90,-1004.43 -33.75,-1006.77 -33.60,-1009.10 -33.40,-1011.29 -33.19,-1013.47 -33.09,-1016.17 -32.99,-1018.86 -32.27,-1022.31 -31.55,-1025.76 -30.73,-1028.15 -29.90,-1030.53 -28.80,-1033.19 -27.70,-1035.85 -25.63,-1038.65 -23.55,-1041.46 -21.14,-1042.58 -18.73,-1043.71 -15.40,-1043.76 -12.08,-1043.82 -9.41,-1042.98 -6.75,-1042.14 -3.86,-1039.86 -0.96,-1037.57 0.44,-1035.84 1.84,-1034.10 2.97,-1031.16 4.10,-1028.23 4.57,-1025.35 5.03,-1022.47 5.62,-1019.31 6.22,-1016.15 6.65,-1013.69 7.08,-1011.23 7.91,-1008.05 8.73,-1004.86 9.13,-1002.05 9.53,-999.24 9.75,-996.88 9.97,-994.53 10.45,-991.29 10.93,-988.05 11.13,-985.49 11.33,-982.93 11.60,-980.23 11.87,-977.54 12.15,-974.75 12.42,-971.96 12.70,-969.41 12.97,-966.86 13.20,-964.23 13.42,-961.60 13.62,-958.56 13.81,-955.53 13.93,-953.01 14.06,-950.49 14.34,-947.33 14.62,-944.17 14.82,-941.44 15.01,-938.70 15.13,-936.19 15.25,-933.67 15.27,-930.51 15.30,-927.35 15.46,-924.03 15.62,-920.71 15.74,-917.05 15.86,-913.38 16.00,-910.60 16.15,-907.81 16.35,-904.69 16.56,-901.57 16.61,-899.23 16.66,-896.89 16.92,-894.06 17.19,-891.23 17.64,-888.58 18.10,-885.93 18.45,-882.89 18.81,-879.86 19.04,-876.71 19.27,-873.57 19.37,-869.81 19.47,-866.05 19.51,-863.52 19.55,-860.98 19.56,-858.70 19.57,-856.41 19.58,-854.10 19.59,-851.79 19.59,-849.53 19.59,-847.28 19.65,-844.73 19.71,-842.18 19.74,-839.81 19.77,-837.44 19.78,-835.29 19.79,-833.15 19.80,-829.60 19.81,-826.06 19.81,-823.70 19.80,-821.34 19.99,-818.09 20.17,-814.85 20.63,-810.83 21.09,-806.81 21.39,-803.52 21.69,-800.23 21.79,-798.00 21.90,-795.76 22.11,-792.13 22.33,-788.50 22.70,-784.06 23.08,-779.62 23.35,-776.68 23.63,-773.74 23.87,-771.36 24.11,-768.99 24.54,-765.66 24.96,-762.33 25.27,-760.00 25.58,-757.67 25.96,-754.70 26.34,-751.73 26.74,-749.33 27.14,-746.93 27.81,-743.38 28.49,-739.83 28.92,-736.67 29.36,-733.50 29.64,-730.77 29.92,-728.04 30.19,-723.50 30.45,-718.96 30.49,-716.31 30.52,-713.66 30.54,-710.92 30.55,-708.18 30.63,-704.88 30.70,-701.57 30.79,-698.92 30.88,-696.26 30.92,-693.98 30.96,-691.70 30.98,-689.52 30.99,-687.33 31.00,-685.13 31.01,-682.93 31.01,-680.58 31.01,-678.24 31.08,-674.28 31.15,-670.31 31.24,-668.15 31.33,-666.00 31.54,-661.46 31.76,-656.92 31.92,-654.68 32.09,-652.45 32.23,-649.06 32.38,-645.67 32.44,-642.87 32.51,-640.06 32.59,-637.75 32.68,-635.43 32.89,-633.31 33.11,-631.18 33.39,-628.77 33.68,-626.37 33.94,-623.71 34.20,-621.05 34.39,-617.29 34.57,-613.54 34.77,-610.25 34.97,-606.97 35.24,-603.98 35.51,-600.99 35.88,-597.45 36.25,-593.91 36.65,-591.19 37.05,-588.47 37.68,-584.78 38.30,-581.09 38.52,-578.83 38.75,-576.58 38.90,-574.37 39.06,-572.16 39.14,-569.08 39.21,-566.00 39.24,-563.38 39.27,-560.76 39.34,-556.86 39.42,-552.95 39.45,-550.05 39.49,-547.14 39.50,-543.97 39.51,-540.81 39.64,-537.11 39.78,-533.41 40.02,-529.54 40.27,-525.67 40.56,-522.04 40.85,-518.41 41.35,-514.15 41.85,-509.89 42.38,-506.40 42.91,-502.91 43.34,-499.72 43.77,-496.52 44.31,-493.53 44.84,-490.54 45.66,-486.30 46.47,-482.05 47.43,-478.12 48.38,-474.19 49.59,-470.15 50.80,-466.11 51.80,-462.51 52.80,-458.91 53.40,-455.87 54.01,-452.83 54.46,-450.14 54.90,-447.45 55.18,-444.86 55.45,-442.28 55.69,-439.61 55.93,-436.94 56.10,-432.72 56.27,-428.49 56.41,-424.67 56.54,-420.85 56.78,-417.77 57.02,-414.70 57.31,-411.80 57.60,-408.90 57.86,-405.99 58.12,-403.08 58.29,-400.22 58.46,-397.36 58.55,-393.16 58.64,-388.95 58.66,-384.71 58.69,-380.47 58.70,-376.19 58.71,-371.91 58.71,-368.08 58.72,-364.26 58.71,-360.28 58.71,-356.31 58.71,-353.28 58.71,-350.26 58.65,-347.55 58.58,-344.84 58.42,-342.36 58.25,-339.89 58.12,-337.66 57.99,-335.43 57.81,-331.37 57.62,-327.31 57.54,-322.98 57.45,-318.65 57.41,-314.25 57.36,-309.86 57.35,-305.59 57.34,-301.32 57.93,-296.86 58.52,-292.41 59.14,-289.27 59.76,-286.13 60.38,-283.85 60.99,-281.58 61.62,-279.49 62.26,-277.41 62.95,-275.01 63.64,-272.62 64.43,-268.83 65.23,-265.04 66.00,-261.16 66.77,-257.27 67.60,-253.34 68.43,-249.40 69.07,-245.78 69.70,-242.16 70.00,-238.91 70.30,-235.65 70.42,-233.47 70.54,-231.29 70.61,-227.44 70.69,-223.58 70.70,-220.37 70.71,-217.17 70.71,-215.02 70.72,-212.87 70.72,-210.56 70.72,-208.24 71.20,-204.31 71.68,-200.38 72.29,-196.55 72.91,-192.73 73.33,-189.51 73.76,-186.29 74.04,-182.73 74.31,-179.17 74.36,-176.62 74.40,-174.06 74.41,-170.98 74.42,-167.90 74.42,-165.25 74.42,-162.59 74.29,-159.89 74.16,-157.18 73.99,-154.26 73.82,-151.34 73.79,-147.51 73.76,-143.69 73.62,-140.93 73.49,-138.17 73.30,-135.76 73.11,-133.36 72.51,-129.61 71.92,-125.86 70.71,-122.45 69.51,-119.03 67.80,-115.79 66.08,-112.56 64.40,-109.76 62.71,-106.96 61.37,-104.47 60.04,-101.99 58.56,-98.85 57.09,-95.71 56.48,-92.87 55.87,-90.04 55.63,-86.93 55.39,-83.82 55.22,-81.29 55.06,-78.75 55.01,-76.61 54.95,-74.47 54.95,-72.24 54.94,-70.02 54.94,-66.48 54.93,-62.95 54.93,-59.62 54.93,-56.30 55.39,-54.14 55.85,-51.98 56.43,-49.00 57.02,-46.03 57.40,-43.04 57.78,-40.04 57.82,-37.68 57.87,-35.32 57.81,-32.87 57.74,-30.42 56.96,-26.83 56.17,-23.24 55.42,-20.43 54.68,-17.61 54.29,-14.78 53.91,-11.95 53.88,-9.82 53.85,-7.69 53.90,-5.48 53.94,-3.27 52.93,-1.21 51.92,0.84 52.19,1.18 52.45,1.51 52.59,1.91 52.74,2.31 52.75,2.73 52.76,3.16 52.63,3.56 52.50,3.97 52.25,4.31 52.00,4.66 51.66,4.90 51.31,5.15 50.90,5.27 50.50,5.39 50.07,5.38 49.65,5.37 49.25,5.22 48.85,5.07 48.52,4.80 48.19,4.53 47.96,4.17 47.74,3.81 47.64,3.40 47.54,2.99 47.57,2.57 47.61,2.14 47.78,1.75 47.95,1.36 48.24,1.05 48.52,0.73 48.89,0.53 49.26,0.32 49.68,0.24 50.10,0.16 50.52,0.22 50.94,0.28 51.32,0.47 51.70,0.67 52.00,0.97 52.30,1.27 52.49,1.65 52.67,2.03 52.73,2.45 52.78,2.88 52.70,3.29 52.62,3.71 52.41,4.08 52.19,4.45 51.88,4.73 51.56,5.01 51.17,5.18 50.78,5.34 50.35,5.37 49.93,5.41 49.52,5.30 49.10,5.20 48.75,4.97 48.39,4.73 48.39,4.74 48.39,4.74 45.11,2.63 41.83,0.53 41.47,-2.39 41.11,-5.32 41.12,-7.73 41.13,-10.14 41.21,-12.67 41.29,-15.19 41.74,-17.80 42.19,-20.42 42.93,-23.21 43.66,-26.01 44.39,-29.53 45.11,-33.04 45.09,-36.19 45.07,-39.35 44.77,-41.68 44.47,-44.01 43.97,-46.59 43.47,-49.17 42.64,-52.70 41.81,-56.23 41.80,-59.59 41.80,-62.95 41.80,-66.49 41.79,-70.04 41.80,-72.31 41.81,-74.58 41.82,-76.95 41.84,-79.32 42.04,-82.28 42.24,-85.25 42.42,-88.31 42.59,-91.37 43.15,-94.51 43.72,-97.64 45.02,-101.08 46.32,-104.53 47.74,-107.38 49.15,-110.23 50.19,-112.11 51.23,-113.98 52.75,-116.51 54.26,-119.04 55.63,-121.64 57.00,-124.24 57.82,-126.48 58.63,-128.72 59.09,-131.58 59.55,-134.44 59.73,-136.65 59.91,-138.87 60.04,-141.31 60.17,-143.75 60.20,-147.79 60.23,-151.84 60.40,-154.85 60.57,-157.87 60.70,-160.23 60.82,-162.59 60.82,-165.23 60.82,-167.88 60.81,-170.90 60.80,-173.93 60.76,-176.21 60.71,-178.49 60.49,-181.49 60.26,-184.49 59.86,-187.48 59.46,-190.46 58.74,-194.61 58.01,-198.76 57.46,-203.49 56.91,-208.23 56.91,-210.55 56.91,-212.86 56.90,-216.87 56.90,-220.88 56.87,-224.19 56.84,-227.50 56.70,-230.97 56.55,-234.44 56.33,-237.11 56.11,-239.78 55.52,-243.17 54.93,-246.55 54.08,-250.57 53.23,-254.59 52.48,-258.41 51.72,-262.23 51.05,-265.52 50.37,-268.82 49.72,-271.10 49.06,-273.39 48.36,-275.71 47.65,-278.03 46.94,-280.75 46.22,-283.47 45.52,-287.05 44.83,-290.63 44.15,-295.99 43.47,-301.35 43.49,-305.66 43.50,-309.97 43.52,-314.43 43.55,-318.89 43.62,-323.41 43.69,-327.93 43.87,-332.09 44.05,-336.24 44.18,-338.53 44.31,-340.83 44.46,-343.00 44.61,-345.17 44.67,-347.71 44.73,-350.25 44.73,-353.28 44.73,-356.30 44.72,-360.27 44.71,-364.24 44.70,-368.05 44.69,-371.87 44.68,-376.12 44.66,-380.37 44.63,-384.53 44.59,-388.69 44.53,-392.59 44.47,-396.49 44.30,-399.16 44.13,-401.82 43.87,-404.66 43.62,-407.50 43.31,-410.55 43.00,-413.61 42.75,-416.98 42.49,-420.35 42.35,-424.14 42.22,-427.92 42.06,-431.81 41.91,-435.70 41.68,-438.26 41.46,-440.83 41.24,-442.99 41.02,-445.15 40.61,-447.63 40.20,-450.11 39.72,-452.62 39.23,-455.13 38.26,-458.60 37.29,-462.08 35.98,-466.47 34.67,-470.87 33.64,-475.13 32.61,-479.40 31.78,-483.73 30.95,-488.05 30.36,-491.34 29.77,-494.64 29.36,-497.73 28.94,-500.81 28.39,-504.53 27.83,-508.25 27.31,-512.76 26.78,-517.27 26.47,-521.03 26.17,-524.78 25.91,-528.85 25.66,-532.91 25.52,-536.83 25.38,-540.75 25.37,-543.87 25.36,-546.99 25.33,-549.71 25.30,-552.43 25.22,-556.52 25.13,-560.61 25.10,-563.15 25.08,-565.68 24.88,-570.45 24.68,-575.21 24.34,-578.43 23.99,-581.64 23.53,-584.04 23.07,-586.43 22.63,-589.44 22.20,-592.44 21.81,-596.08 21.43,-599.73 21.14,-602.92 20.86,-606.11 20.65,-609.49 20.45,-612.87 20.29,-616.27 20.14,-619.67 19.89,-622.19 19.65,-624.71 19.35,-627.25 19.05,-629.78 18.80,-632.35 18.55,-634.91 18.46,-637.33 18.37,-639.75 18.32,-642.41 18.26,-645.07 18.13,-648.23 18.00,-651.40 17.81,-653.86 17.63,-656.32 17.42,-660.86 17.21,-665.41 17.11,-667.67 17.02,-669.94 16.95,-674.08 16.89,-678.22 16.88,-680.55 16.88,-682.88 16.86,-687.17 16.83,-691.45 16.80,-693.61 16.76,-695.78 16.66,-698.53 16.57,-701.27 16.50,-704.69 16.43,-708.11 16.42,-710.80 16.41,-713.48 16.38,-716.02 16.35,-718.56 16.11,-722.59 15.87,-726.62 15.62,-729.10 15.37,-731.58 14.96,-734.58 14.55,-737.58 13.91,-740.95 13.27,-744.32 12.78,-747.37 12.29,-750.42 11.94,-753.12 11.58,-755.82 11.27,-758.15 10.97,-760.49 10.52,-764.02 10.08,-767.55 9.83,-769.99 9.58,-772.42 9.30,-775.43 9.01,-778.44 8.81,-780.87 8.61,-783.30 8.32,-787.24 8.03,-791.18 7.82,-795.27 7.61,-799.35 7.34,-802.24 7.08,-805.13 6.60,-809.34 6.12,-813.54 5.92,-817.44 5.71,-821.33 5.70,-825.77 5.70,-830.20 5.68,-833.74 5.66,-837.27 5.64,-839.56 5.62,-841.84 5.55,-844.55 5.48,-847.26 5.48,-849.51 5.48,-851.75 5.47,-854.04 5.47,-856.33 5.45,-858.56 5.44,-860.80 5.41,-863.21 5.38,-865.63 5.28,-869.28 5.18,-872.94 4.99,-875.62 4.81,-878.30 4.50,-881.00 4.19,-883.70 3.69,-886.68 3.20,-889.66 2.96,-891.83 2.72,-894.00 2.61,-897.47 2.51,-900.94 2.29,-904.15 2.08,-907.36 1.95,-910.02 1.81,-912.69 1.69,-916.38 1.57,-920.07 1.41,-923.68 1.24,-927.28 1.22,-930.28 1.20,-933.27 1.08,-935.66 0.96,-938.04 0.78,-940.48 0.61,-942.92 0.45,-945.26 0.28,-947.60 0.06,-949.78 -0.15,-951.96 -0.28,-955.21 -0.41,-958.47 -0.55,-960.61 -0.69,-962.75 -1.02,-965.38 -1.35,-968.01 -1.57,-970.87 -1.79,-973.73 -2.12,-976.51 -2.45,-979.30 -2.66,-981.66 -2.87,-984.02 -3.12,-986.32 -3.36,-988.62 -3.69,-990.91 -4.02,-993.21 -4.30,-996.35 -4.57,-999.49 -5.21,-1002.62 -5.84,-1005.75 -6.52,-1008.52 -7.20,-1011.29 -7.66,-1013.55 -8.13,-1015.82 -8.62,-1018.97 -9.12,-1022.11 -9.48,-1024.38 -9.85,-1026.64 -12.16,-1028.46 -14.48,-1030.27 -15.43,-1028.01 -16.37,-1025.75 -17.28,-1023.04 -18.19,-1020.33 -18.43,-1018.01 -18.68,-1015.70 -18.95,-1011.94 -19.23,-1008.19 -19.38,-1005.75 -19.54,-1003.31 -19.75,-1000.62 -19.97,-997.92 -20.28,-994.71 -20.60,-991.51 -20.77,-988.82 -20.94,-986.13 -21.20,-982.95 -21.45,-979.78 -21.89,-976.00 -22.33,-972.22 -23.02,-967.20 -23.71,-962.18 -23.99,-959.87 -24.26,-957.56 -24.63,-954.23 -24.99,-950.90 -25.39,-947.46 -25.80,-944.03 -26.27,-940.53 -26.74,-937.04 -27.24,-933.11 -27.73,-929.18 -28.01,-926.39 -28.28,-923.60 -28.35,-920.95 -28.42,-918.30 -28.44,-915.64 -28.45,-912.98 -28.50,-910.21 -28.55,-907.44 -28.65,-904.41 -28.76,-901.38 -28.85,-897.97 -28.94,-894.56 -29.00,-892.13 -29.06,-889.69 -29.06,-887.07 -29.06,-884.45 -29.06,-879.61 -29.05,-874.76 -29.02,-870.84 -29.00,-866.93 -28.95,-864.79 -28.91,-862.65 -28.81,-859.99 -28.71,-857.33 -28.35,-854.25 -28.00,-851.17 -27.69,-848.62 -27.38,-846.06 -27.13,-843.58 -26.88,-841.10 -26.58,-838.41 -26.28,-835.72 -26.05,-833.19 -25.82,-830.65 -25.57,-828.01 -25.33,-825.37 -25.03,-822.27 -24.73,-819.18 -24.66,-816.11 -24.59,-813.04 -24.59,-809.63 -24.59,-806.23 -24.60,-803.56 -24.60,-800.90 -24.61,-798.11 -24.61,-795.32 -24.63,-792.36 -24.65,-789.40 -24.74,-785.58 -24.84,-781.77 -24.89,-778.69 -24.94,-775.62 -25.19,-773.00 -25.44,-770.39 -25.64,-768.07 -25.84,-765.75 -26.13,-763.31 -26.43,-760.86 -26.79,-757.37 -27.15,-753.87 -27.60,-750.32 -28.06,-746.76 -28.45,-743.79 -28.84,-740.81 -28.96,-737.52 -29.08,-734.23 -29.08,-731.87 -29.09,-729.51 -29.08,-727.31 -29.08,-725.12 -29.08,-722.28 -29.08,-719.43 -29.08,-717.17 -29.07,-714.90 -29.07,-711.63 -29.07,-708.35 -29.07,-704.89 -29.07,-701.43 -29.07,-697.39 -29.07,-693.35 -29.06,-688.72 -29.06,-684.10 -29.05,-678.43 -29.03,-672.76 -29.00,-668.09 -28.96,-663.41 -28.89,-658.30 -28.81,-653.18 -28.78,-647.38 -28.75,-641.59 -28.67,-634.66 -28.59,-627.73 -28.57,-622.38 -28.54,-617.04 -28.47,-611.76 -28.40,-606.49 -28.40,-601.44 -28.41,-596.38 -28.40,-590.79 -28.39,-585.19 -28.38,-578.66 -28.37,-572.12 -28.35,-567.14 -28.33,-562.16 -28.27,-557.06 -28.21,-551.95 -28.09,-546.46 -27.96,-540.96 -27.81,-534.73 -27.66,-528.50 -27.29,-521.18 -26.92,-513.87 -26.67,-508.27 -26.41,-502.68 -26.27,-497.38 -26.13,-492.09 -25.80,-486.66 -25.47,-481.23 -24.97,-475.40 -24.47,-469.57 -24.05,-465.33 -23.63,-461.08 -23.25,-456.76 -22.87,-452.44 -22.58,-448.07 -22.30,-443.71 -22.08,-439.23 -21.86,-434.75 -21.67,-429.66 -21.47,-424.57 -21.30,-420.39 -21.13,-416.20 -21.04,-411.70 -20.96,-407.20 -20.90,-402.56 -20.84,-397.93 -20.72,-392.78 -20.59,-387.63 -20.45,-383.81 -20.30,-379.99 -20.10,-376.20 -19.90,-372.40 -19.56,-368.40 -19.22,-364.39 -18.88,-360.29 -18.54,-356.18 -18.04,-351.53 -17.54,-346.87 -17.10,-343.10 -16.65,-339.32 -16.21,-335.48 -15.77,-331.65 -15.35,-327.76 -14.93,-323.87 -14.36,-319.14 -13.79,-314.42 -13.51,-310.59 -13.23,-306.76 -13.05,-303.09 -12.87,-299.41 -12.75,-295.94 -12.64,-292.48 -12.50,-288.88 -12.37,-285.28 -12.22,-281.33 -12.07,-277.37 -11.85,-274.08 -11.63,-270.79 -11.58,-267.65 -11.52,-264.51 -11.52,-261.39 -11.52,-258.28 -11.53,-254.88 -11.54,-251.49 -11.55,-248.86 -11.56,-246.23 -11.57,-243.20 -11.57,-240.18 -11.58,-236.83 -11.58,-233.48 -11.59,-230.18 -11.60,-226.88 -11.62,-223.50 -11.64,-220.13 -11.69,-217.58 -11.74,-215.02 -11.87,-212.31 -11.99,-209.60 -12.27,-206.98 -12.54,-204.35 -13.20,-200.62 -13.86,-196.89 -13.91,-194.45 -13.96,-192.01 -14.23,-188.64 -14.51,-185.26 -14.79,-182.77 -15.07,-180.27 -15.39,-177.70 -15.71,-175.14 -15.89,-169.99 -16.07,-164.85 -16.04,-160.75 -16.01,-156.65 -15.96,-154.49 -15.90,-152.33 -15.50,-148.00 -15.09,-143.68 -14.15,-140.77 -13.22,-137.85 -12.13,-134.12 -11.05,-130.39 -10.37,-127.91 -9.69,-125.43 -8.86,-122.22 -8.03,-119.01 -7.63,-116.45 -7.23,-113.90 -6.37,-111.38 -5.50,-108.87 -4.69,-106.48 -3.88,-104.10 -3.31,-101.74 -2.75,-99.38 -2.30,-97.27 -1.86,-95.15 -1.22,-92.51 -0.57,-89.87 0.60,-86.34 1.77,-82.81 2.60,-80.19 3.42,-77.58 4.18,-75.35 4.94,-73.12 5.48,-69.56 6.01,-66.00 6.32,-63.74 6.62,-61.49 6.92,-58.71 7.22,-55.93 7.44,-53.75 7.66,-51.56 7.90,-49.23 8.15,-46.90 8.68,-43.62 9.21,-40.35 9.33,-37.65 9.45,-34.94 9.34,-32.43 9.24,-29.91 8.94,-27.60 8.65,-25.29 8.53,-22.23 8.41,-19.18 8.20,-16.61 7.99,-14.04 7.60,-11.09 7.21,-8.15 4.95,-3.84 2.70,0.45 2.61,0.77 2.51,1.09 2.35,1.37 2.18,1.66 1.95,1.90 1.72,2.13 1.44,2.31 1.16,2.48 0.84,2.59 0.53,2.69 0.20,2.71 -0.12,2.74 -0.45,2.68 -0.78,2.63 -1.08,2.50 -1.38,2.36 -1.65,2.16 -1.91,1.96 -2.12,1.70 -2.33,1.45 -2.47,1.15 -2.61,0.85 -2.67,0.52 -2.73,0.20 -2.72,-0.12 -2.70,-0.45 -2.70,-0.45 L -2.70,-0.45 Z"></path></g><g transform="translate(138.58132677384674 1104.4175085611687) rotate(23.7962521975795 0.00004999999964638846 0.00005000000010113581)" stroke="none"><path fill="#ffffff" d="M 6.28,-6.28 Q 6.28,-6.28 7.11,-5.11 7.95,-3.94 8.37,-2.57 8.80,-1.19 8.76,0.23 8.72,1.67 8.22,3.02 7.73,4.37 6.83,5.49 5.93,6.61 4.72,7.38 3.50,8.15 2.11,8.50 0.72,8.85 -0.71,8.73 -2.14,8.61 -3.46,8.05 -4.78,7.48 -5.85,6.52 -6.92,5.56 -7.63,4.31 -8.33,3.06 -8.60,1.65 -8.87,0.23 -8.68,-1.18 -8.49,-2.60 -7.85,-3.89 -7.21,-5.18 -6.19,-6.19 -5.18,-7.21 -3.89,-7.85 -2.60,-8.49 -1.18,-8.68 0.24,-8.87 1.65,-8.60 3.06,-8.33 4.31,-7.62 5.56,-6.92 6.52,-5.85 7.48,-4.78 8.05,-3.46 8.62,-2.14 8.73,-0.70 8.85,0.72 8.50,2.11 8.15,3.51 7.38,4.72 6.61,5.93 5.49,6.83 4.36,7.73 3.02,8.22 1.67,8.72 0.23,8.76 -1.20,8.80 -2.57,8.37 -3.94,7.95 -5.11,7.11 -6.28,6.27 -6.28,6.28 -6.28,6.28 -6.94,5.43 -7.60,4.59 -8.04,3.61 -8.48,2.64 -8.67,1.58 -8.86,0.53 -8.80,-0.53 -8.73,-1.60 -8.41,-2.62 -8.09,-3.64 -7.54,-4.56 -6.99,-5.47 -6.23,-6.23 -5.47,-6.99 -4.56,-7.54 -3.64,-8.10 -2.62,-8.41 -1.60,-8.73 -0.53,-8.80 0.53,-8.86 1.59,-8.67 2.64,-8.48 3.61,-8.04 4.59,-7.60 5.43,-6.94 6.28,-6.28 6.28,-6.28 L 6.28,-6.28 Z"></path></g></svg>