<?xml version="1.0" standalone="no"?>
<!DOCTYPE svg PUBLIC "-//W3C//DTD SVG 1.1//EN" "http://www.w3.org/Graphics/SVG/1.1/DTD/svg11.dtd">
<svg version="1.1" xmlns="http://www.w3.org/2000/svg" viewBox="0 0 949.9600328558918 1112.5169338668084" width="949.9600328558918" height="1112.5169338668084"><!-- svg-source:excalidraw --><metadata></metadata><defs><style class="style-fonts">
      </style></defs><g transform="translate(535.7554221484388 147.4150962290969) rotate(0 -219.90214142157856 404.61161915412913)" stroke="none"><path d="M0 0 C2.61 -3.57, 9.63 -13.98, 15.67 -21.44 C21.72 -28.89, 30.48 -39.03, 36.27 -44.73 C42.05 -50.44, 45.38 -51.07, 50.38 -55.69 C55.38 -60.31, 63.11 -67.65, 66.28 -72.47 C69.45 -77.28, 68.86 -79.27, 69.42 -84.59 C69.98 -89.91, 70.27 -99.53, 69.63 -104.38 C69 -109.24, 66.73 -111.73, 65.61 -113.71 C64.49 -115.69, 65.05 -115.26, 62.92 -116.27 C60.8 -117.28, 63.48 -118.02, 52.85 -119.77 C42.21 -121.52, 13.7 -125.24, -0.9 -126.75 C-15.49 -128.26, -20.08 -128.5, -34.71 -128.85 C-49.34 -129.2, -74.79 -129.24, -88.67 -128.85 C-102.56 -128.46, -110.44 -127.5, -118.01 -126.53 C-125.59 -125.55, -128.68 -124.7, -134.13 -123.03 C-139.58 -121.35, -144.13 -119.69, -150.7 -116.5 C-157.27 -113.32, -168.17 -107.69, -173.55 -103.92 C-178.92 -100.16, -179.56 -98.83, -182.95 -93.9 C-186.35 -88.97, -190.83 -79.18, -193.93 -74.33 C-197.02 -69.47, -200.08 -68.31, -201.53 -64.78 C-202.99 -61.24, -204.41 -56.24, -202.65 -53.13 C-200.9 -50.02, -193.29 -47.73, -191.01 -46.14 C-188.74 -44.54, -189.44 -44.77, -189 -43.57 C-188.55 -42.36, -186.83 -40.77, -188.33 -38.91 C-189.82 -37.05, -189.96 -35.42, -197.95 -32.39 C-205.94 -29.36, -228.3 -23.46, -236.25 -20.74 C-244.2 -18.02, -241.62 -18.49, -245.65 -16.08 C-249.68 -13.67, -254.24 -9.79, -260.43 -6.3 C-266.63 -2.8, -278.46 2.83, -282.83 4.89 C-287.19 6.95, -280.95 5.94, -286.62 6.06 C-292.3 6.18, -309.13 5.12, -316.86 5.59 C-324.59 6.06, -328.35 8.23, -332.98 8.85 C-337.61 9.48, -337.61 9.63, -344.63 9.32 C-351.64 9.01, -364.22 7.42, -375.08 6.99 C-385.94 6.56, -400.46 7.81, -409.79 6.76 C-419.11 5.71, -426.02 1.71, -431.06 0.7 C-436.1 -0.31, -433.45 -0.7, -440.02 0.7 C-446.59 2.1, -463.61 6.84, -470.47 9.09 C-477.34 11.34, -477.82 12.04, -481.22 14.21 C-484.62 16.38, -487.16 19.45, -490.85 22.13 C-494.55 24.81, -500.59 28.19, -503.39 30.29 C-506.19 32.39, -506.74 33.47, -507.64 34.71 C-508.53 35.96, -508.46 33.82, -508.76 37.74 C-509.06 41.67, -510.15 51.68, -509.44 58.25 C-508.73 64.81, -506.45 71.18, -504.51 77.12 C-502.57 83.07, -500.44 88.23, -497.79 93.9 C-495.14 99.57, -491.89 103.88, -488.61 111.14 C-485.32 118.4, -480.81 131.57, -478.08 137.47 C-475.36 143.37, -474.91 140.42, -472.27 146.56 C-469.62 152.7, -465.85 165.44, -462.19 174.29 C-458.53 183.14, -452.63 192.58, -450.31 199.69 C-448 206.79, -448.9 200.03, -448.31 216.93 C-447.71 233.82, -448.9 278.75, -446.73 301.04 C-444.57 323.33, -438.19 339.45, -435.32 350.67 C-432.44 361.89, -431.62 362.83, -429.49 368.38 C-427.36 373.93, -425.68 378.2, -422.55 383.99 C-419.41 389.78, -416.5 392.15, -410.68 403.1 C-404.86 414.05, -392.21 440.88, -387.62 449.7 C-383.03 458.51, -387.73 447.72, -383.14 455.99 C-378.55 464.27, -367.47 486.59, -360.08 499.33 C-352.69 512.06, -344.77 522.59, -338.8 532.41 C-332.83 542.24, -331.83 546.94, -324.25 558.28 C-316.67 569.62, -300.14 590.44, -293.34 600.46 C-286.55 610.47, -287.04 612.6, -283.49 618.39 C-279.95 624.18, -274.98 629.77, -272.07 635.17 C-269.16 640.57, -267.15 641.96, -266.03 650.78 C-264.91 659.59, -264.64 679.71, -265.35 688.06 C-266.06 696.41, -268.68 697.19, -270.28 700.88 C-271.89 704.57, -273.42 707.76, -274.98 710.2 C-276.55 712.65, -278.01 712.64, -279.69 715.56 C-281.37 718.47, -283.53 722.05, -285.06 727.68 C-286.59 733.31, -287.9 740.57, -288.87 749.35 C-289.84 758.12, -290.47 770.16, -290.88 780.33 C-291.29 790.51, -292.11 802.23, -291.33 810.39 C-290.54 818.55, -288.2 823.32, -286.18 829.27 C-284.17 835.21, -281.74 841.07, -279.23 846.04 C-276.73 851.01, -275.17 854.47, -271.18 859.09 C-267.18 863.71, -259.08 869.92, -255.28 873.77 C-251.47 877.61, -250.06 879.98, -248.34 882.16 C-246.62 884.33, -247.33 882.16, -244.97 886.82 C-242.62 891.48, -236.62 905.42, -234.23 910.12 C-231.84 914.81, -234.01 912.8, -230.65 915.01 C-227.29 917.22, -225.54 919.9, -214.08 923.39 C-202.62 926.89, -173.39 933.54, -161.9 935.98 C-150.4 938.43, -149.06 938.27, -145.1 938.07 C-141.15 937.88, -140.37 936.64, -138.17 934.82 C-135.96 932.99, -133.91 930.47, -131.9 927.13 C-129.88 923.79, -131.9 930.66, -126.07 914.77 C-120.25 898.89, -104.8 851.86, -96.96 831.83 C-89.12 811.79, -97.3 845.22, -79.05 794.54 C-60.8 743.87, -4.07 577.34, 12.54 527.75 C29.14 478.16, 17.76 511.68, 20.59 497 C23.43 482.32, 26.01 458.36, 29.56 439.68 C33.1 421, 38.96 403.48, 41.87 384.92 C44.78 366.36, 45.57 349.16, 47.02 328.3 C48.48 307.45, 50.01 274.83, 50.6 259.8 C51.2 244.77, 51.05 246.09, 50.6 238.13 C50.16 230.17, 49.45 221.24, 47.92 212.03 C46.39 202.83, 42.81 197.9, 41.42 182.91 C40.04 167.92, 40.57 135.84, 39.63 122.09 C38.7 108.35, 37.43 107.3, 35.83 100.42 C34.22 93.55, 33.4 88.5, 30 80.85 C26.6 73.2, 19.59 62.68, 15.45 54.52 C11.31 46.37, 7.2 37.67, 5.15 31.92 C3.09 26.17, 3.47 24.23, 3.13 20.03 C2.79 15.84, 3.91 8.97, 3.13 6.76 C2.35 4.54, -1.05 7.88, -1.57 6.76 C-2.1 5.63, -0.26 1.13, 0 0" stroke="none" stroke-width="0" fill="#ffffff" fill-rule="evenodd"></path><path fill="#ffffff" d="M -6.95,-5.54 Q -6.95,-5.54 -1.12,-15.69 4.70,-25.83 9.50,-31.65 14.30,-37.47 18.81,-43.07 23.32,-48.66 28.44,-53.46 33.56,-58.26 38.47,-62.39 43.39,-66.52 47.48,-70.47 51.57,-74.42 53.95,-79.38 56.33,-84.33 56.60,-90.41 56.87,-96.49 55.93,-101.13 54.99,-105.76 50.42,-106.24 45.85,-106.73 36.84,-108.31 27.83,-109.90 21.89,-110.69 15.95,-111.48 10.58,-112.24 5.20,-112.99 -0.87,-113.50 -6.94,-114.00 -12.35,-114.34 -17.75,-114.68 -22.97,-115.13 -28.19,-115.58 -34.20,-115.73 -40.22,-115.88 -45.73,-115.96 -51.23,-116.03 -56.46,-116.07 -61.69,-116.10 -71.24,-116.13 -80.79,-116.17 -86.23,-115.84 -91.67,-115.52 -97.55,-115.11 -103.42,-114.71 -111.28,-113.93 -119.14,-113.16 -125.27,-111.60 -131.40,-110.04 -135.56,-108.52 -139.73,-107.00 -147.44,-102.98 -155.16,-98.96 -161.03,-95.69 -166.90,-92.41 -170.06,-88.87 -173.22,-85.34 -176.08,-80.44 -178.93,-75.54 -181.73,-70.76 -184.53,-65.99 -187.41,-62.33 -190.28,-58.67 -186.06,-56.38 -181.83,-54.08 -179.32,-47.03 -176.80,-39.98 -178.60,-35.23 -180.40,-30.48 -184.00,-27.51 -187.60,-24.54 -194.65,-21.37 -201.69,-18.20 -206.54,-16.78 -211.38,-15.36 -215.49,-14.23 -219.60,-13.10 -224.40,-11.61 -229.21,-10.13 -233.17,-8.32 -237.13,-6.52 -243.09,-2.79 -249.05,0.93 -254.96,4.21 -260.87,7.49 -264.77,9.56 -268.68,11.63 -273.06,13.64 -277.44,15.64 -282.36,16.80 -287.29,17.96 -293.24,18.05 -299.19,18.14 -304.21,18.02 -309.22,17.91 -316.72,18.76 -324.22,19.61 -329.86,20.42 -335.50,21.24 -340.97,21.35 -346.44,21.47 -353.13,21.00 -359.82,20.53 -365.77,20.07 -371.73,19.61 -377.71,19.51 -383.70,19.41 -388.95,19.37 -394.21,19.34 -398.87,19.35 -403.54,19.37 -408.89,18.63 -414.23,17.90 -419.40,16.58 -424.56,15.26 -429.10,14.33 -433.64,13.39 -438.82,14.13 -444.01,14.86 -449.10,16.08 -454.19,17.30 -460.30,19.27 -466.41,21.25 -470.71,23.32 -475.01,25.38 -480.72,29.52 -486.43,33.65 -490.25,36.25 -494.06,38.85 -495.43,43.41 -496.80,47.97 -496.60,53.68 -496.39,59.38 -495.18,63.56 -493.96,67.74 -492.09,73.27 -490.22,78.79 -488.08,83.59 -485.94,88.39 -483.66,92.88 -481.38,97.38 -478.97,102.45 -476.56,107.52 -474.58,112.20 -472.60,116.88 -470.61,121.75 -468.62,126.62 -465.77,131.68 -462.93,136.73 -460.06,143.00 -457.20,149.27 -455.47,153.65 -453.74,158.03 -451.61,163.86 -449.48,169.69 -447.40,173.99 -445.33,178.28 -442.64,184.22 -439.96,190.16 -438.88,194.56 -437.79,198.95 -437.02,203.68 -436.24,208.41 -435.64,216.19 -435.04,223.98 -434.75,230.35 -434.46,236.72 -434.40,243.38 -434.34,250.03 -434.32,257.77 -434.31,265.51 -434.31,270.30 -434.31,275.09 -434.29,280.20 -434.28,285.32 -433.47,293.14 -432.66,300.96 -431.22,308.48 -429.78,316.01 -427.82,323.75 -425.87,331.49 -424.81,336.28 -423.75,341.07 -421.35,349.24 -418.95,357.42 -415.92,364.99 -412.89,372.56 -409.25,379.01 -405.62,385.46 -401.36,393.46 -397.10,401.46 -393.55,408.46 -390.01,415.46 -388.04,419.43 -386.08,423.39 -382.40,430.59 -378.72,437.79 -374.31,445.25 -369.90,452.72 -367.64,456.93 -365.39,461.15 -362.90,466.12 -360.41,471.09 -358.21,475.03 -356.01,478.97 -353.82,482.96 -351.62,486.95 -349.18,491.15 -346.75,495.35 -344.37,499.42 -342.00,503.49 -338.69,508.34 -335.37,513.18 -331.24,519.81 -327.12,526.43 -323.60,532.40 -320.09,538.37 -317.77,542.30 -315.46,546.24 -312.96,550.18 -310.45,554.12 -307.18,558.70 -303.92,563.28 -301.13,567.32 -298.34,571.36 -295.49,575.35 -292.63,579.34 -289.85,582.93 -287.06,586.52 -283.80,591.10 -280.54,595.67 -277.37,601.23 -274.21,606.80 -271.84,610.69 -269.46,614.59 -266.10,619.62 -262.75,624.65 -259.73,631.08 -256.71,637.51 -254.81,642.73 -252.90,647.94 -252.41,653.09 -251.92,658.23 -251.83,663.26 -251.73,668.28 -251.62,673.54 -251.51,678.80 -252.30,685.84 -253.08,692.89 -256.12,700.56 -259.15,708.23 -262.57,714.18 -265.98,720.13 -268.65,725.23 -271.33,730.33 -272.60,736.46 -273.87,742.58 -274.41,747.27 -274.95,751.96 -275.37,757.68 -275.79,763.41 -276.10,767.66 -276.41,771.91 -276.83,778.09 -277.25,784.28 -277.40,789.65 -277.55,795.02 -277.58,800.51 -277.60,806.01 -276.48,811.99 -275.36,817.98 -273.52,823.00 -271.68,828.02 -269.30,833.66 -266.93,839.30 -264.21,843.70 -261.50,848.11 -257.48,852.50 -253.45,856.89 -248.94,861.34 -244.43,865.78 -240.55,870.43 -236.66,875.07 -233.77,880.35 -230.89,885.64 -228.62,890.08 -226.35,894.52 -223.76,899.45 -221.17,904.38 -216.31,906.98 -211.45,909.58 -206.61,911.06 -201.77,912.53 -196.37,913.86 -190.98,915.20 -184.90,916.56 -178.82,917.93 -173.04,919.27 -167.26,920.62 -162.30,921.53 -157.35,922.44 -152.47,923.27 -147.58,924.10 -144.64,919.34 -141.70,914.58 -139.42,909.29 -137.13,903.99 -134.84,898.22 -132.56,892.45 -130.55,886.70 -128.55,880.96 -125.89,873.66 -123.23,866.37 -120.80,859.36 -118.37,852.36 -115.83,845.16 -113.29,837.97 -109.68,829.44 -106.07,820.92 -101.73,811.63 -97.40,802.33 -93.89,793.46 -90.38,784.59 -86.46,773.43 -82.54,762.27 -78.03,748.98 -73.52,735.68 -69.57,724.39 -65.61,713.10 -60.64,699.23 -55.67,685.36 -50.99,672.20 -46.30,659.05 -42.52,647.21 -38.73,635.38 -33.64,620.89 -28.54,606.41 -23.13,590.91 -17.71,575.41 -12.66,560.50 -7.60,545.59 -3.22,530.65 1.15,515.70 4.39,499.86 7.64,484.01 10.14,470.61 12.64,457.20 15.22,444.64 17.80,432.08 20.96,417.66 24.12,403.23 26.23,390.39 28.33,377.54 29.84,363.14 31.35,348.74 32.38,333.59 33.40,318.45 34.16,305.60 34.91,292.75 35.56,283.00 36.21,273.24 36.44,266.16 36.67,259.08 36.76,251.28 36.85,243.47 36.30,237.50 35.75,231.52 35.30,226.18 34.85,220.85 33.65,214.64 32.45,208.43 31.12,201.90 29.80,195.38 28.88,188.55 27.96,181.72 27.53,174.05 27.09,166.39 26.84,160.11 26.59,153.83 26.37,148.01 26.15,142.19 26.08,137.71 26.00,133.23 25.21,126.53 24.41,119.82 23.65,114.84 22.89,109.87 21.99,105.59 21.10,101.32 19.42,95.46 17.74,89.61 15.38,84.31 13.02,79.02 9.49,72.87 5.97,66.72 4.00,62.86 2.03,59.01 -0.15,54.91 -2.33,50.82 -4.54,45.72 -6.75,40.62 -8.09,36.11 -9.43,31.59 -10.20,25.74 -10.96,19.89 -8.10,10.08 -5.24,0.28 -5.15,-0.55 -5.06,-1.40 -4.70,-2.17 -4.34,-2.94 -3.76,-3.56 -3.18,-4.18 -2.42,-4.57 -1.67,-4.97 -0.84,-5.11 -0.00,-5.25 0.83,-5.11 1.67,-4.97 2.42,-4.58 3.17,-4.18 3.76,-3.56 4.34,-2.94 4.70,-2.17 5.06,-1.40 5.15,-0.56 5.24,0.28 5.06,1.11 4.88,1.94 4.44,2.67 4.00,3.39 3.35,3.95 2.70,4.50 1.92,4.81 1.13,5.13 0.28,5.17 -0.56,5.22 -1.38,4.99 -2.20,4.76 -2.90,4.29 -3.61,3.81 -4.12,3.13 -4.64,2.46 -4.91,1.65 -5.18,0.85 -5.18,0.00 -5.18,-0.84 -4.91,-1.65 -4.64,-2.45 -4.12,-3.13 -3.61,-3.81 -2.90,-4.29 -2.20,-4.76 -1.38,-4.99 -0.56,-5.22 0.27,-5.17 1.12,-5.13 1.91,-4.81 2.70,-4.50 3.35,-3.95 4.00,-3.40 4.44,-2.67 4.87,-1.94 5.06,-1.11 5.24,-0.28 5.24,-0.28 5.24,-0.28 9.99,2.17 14.73,4.63 16.15,9.21 17.57,13.80 17.88,19.01 18.19,24.22 19.78,28.98 21.37,33.73 23.28,37.80 25.18,41.88 27.97,47.14 30.75,52.40 34.68,59.34 38.62,66.29 41.83,73.90 45.05,81.51 46.98,88.53 48.91,95.55 49.94,100.57 50.98,105.60 51.72,110.52 52.46,115.44 53.40,124.12 54.34,132.80 54.40,137.12 54.45,141.43 54.55,147.15 54.64,152.87 54.81,158.95 54.98,165.03 55.24,171.61 55.50,178.20 56.21,184.10 56.93,190.00 58.23,196.71 59.53,203.42 60.88,211.01 62.23,218.60 63.04,227.85 63.84,237.11 63.94,244.31 64.04,251.51 63.87,255.81 63.71,260.11 63.39,267.57 63.07,275.04 62.42,284.70 61.77,294.35 60.99,307.32 60.20,320.28 59.13,335.93 58.05,351.57 56.42,366.74 54.79,381.90 52.55,395.44 50.30,408.98 47.17,423.22 44.04,437.47 41.51,449.80 38.98,462.13 36.42,475.78 33.85,489.43 30.33,506.33 26.81,523.24 22.24,538.70 17.67,554.16 12.58,569.19 7.48,584.23 2.04,599.76 -3.40,615.30 -8.41,629.40 -13.41,643.49 -17.34,655.72 -21.27,667.94 -25.95,681.14 -30.63,694.33 -35.55,708.10 -40.48,721.87 -44.37,733.06 -48.26,744.25 -52.82,757.67 -57.38,771.10 -61.47,782.78 -65.56,794.46 -69.39,804.04 -73.21,813.61 -77.35,822.48 -81.50,831.36 -84.80,839.11 -88.11,846.87 -90.63,854.00 -93.16,861.14 -95.66,868.32 -98.17,875.50 -100.78,882.66 -103.39,889.82 -105.59,896.03 -107.79,902.23 -110.27,908.51 -112.74,914.78 -115.88,921.74 -119.02,928.71 -123.09,934.76 -127.16,940.81 -132.18,944.75 -137.20,948.69 -144.61,949.92 -152.01,951.16 -157.16,950.30 -162.32,949.44 -167.91,948.41 -173.49,947.39 -179.19,946.06 -184.88,944.73 -191.25,943.27 -197.62,941.82 -203.65,940.30 -209.68,938.79 -216.00,936.78 -222.32,934.76 -228.05,931.75 -233.77,928.73 -238.92,924.15 -244.07,919.57 -246.63,915.13 -249.20,910.70 -251.00,906.79 -252.80,902.88 -255.58,897.48 -258.36,892.07 -261.46,888.32 -264.55,884.57 -268.63,880.61 -272.71,876.64 -276.15,873.17 -279.60,869.70 -282.43,865.94 -285.26,862.18 -287.67,858.29 -290.09,854.41 -292.19,850.03 -294.29,845.66 -297.33,837.84 -300.38,830.01 -301.93,824.27 -303.47,818.52 -304.25,812.23 -305.02,805.94 -304.99,800.26 -304.95,794.58 -304.78,788.78 -304.61,782.98 -304.16,776.67 -303.71,770.37 -303.34,765.71 -302.97,761.05 -302.58,755.56 -302.19,750.07 -301.43,743.79 -300.67,737.52 -299.56,732.07 -298.45,726.63 -296.40,720.80 -294.34,714.98 -291.68,710.21 -289.03,705.43 -286.46,701.16 -283.89,696.89 -281.39,690.37 -278.90,683.85 -278.90,678.70 -278.91,673.56 -279.03,666.81 -279.15,660.06 -279.73,655.77 -280.30,651.49 -281.91,647.53 -283.51,643.58 -285.76,639.60 -288.00,635.62 -290.79,631.48 -293.58,627.33 -295.83,623.49 -298.07,619.64 -300.63,615.00 -303.18,610.36 -305.81,606.71 -308.44,603.05 -311.35,599.23 -314.27,595.41 -317.47,590.91 -320.67,586.41 -324.01,581.42 -327.35,576.43 -330.23,572.55 -333.11,568.68 -335.44,564.93 -337.76,561.19 -340.50,556.58 -343.24,551.97 -346.80,545.93 -350.35,539.88 -353.77,534.34 -357.19,528.80 -361.15,522.91 -365.11,517.03 -367.55,512.88 -369.98,508.73 -372.51,504.31 -375.04,499.89 -377.25,495.91 -379.47,491.92 -381.89,487.48 -384.32,483.04 -386.63,478.39 -388.95,473.74 -391.05,469.81 -393.15,465.88 -395.41,461.87 -397.67,457.87 -400.06,453.94 -402.46,450.02 -406.24,442.63 -410.02,435.24 -413.67,428.01 -417.33,420.77 -419.25,416.96 -421.17,413.15 -424.88,406.15 -428.59,399.14 -433.03,391.10 -437.47,383.06 -439.39,378.56 -441.30,374.07 -442.86,369.78 -444.42,365.50 -446.00,360.50 -447.58,355.50 -448.71,351.17 -449.84,346.83 -450.78,342.54 -451.73,338.25 -453.82,329.86 -455.92,321.47 -457.49,313.14 -459.06,304.82 -459.75,299.97 -460.44,295.12 -460.71,290.22 -460.97,285.32 -460.96,280.21 -460.94,275.09 -460.94,270.31 -460.94,265.53 -460.95,257.84 -460.95,250.15 -460.99,243.82 -461.03,237.48 -461.29,231.34 -461.56,225.20 -461.99,218.90 -462.41,212.59 -463.40,206.45 -464.39,200.32 -466.81,194.93 -469.24,189.54 -471.60,184.52 -473.97,179.51 -476.15,173.42 -478.33,167.33 -480.76,161.03 -483.19,154.74 -485.54,150.18 -487.89,145.63 -490.23,140.96 -492.56,136.28 -494.94,130.20 -497.31,124.11 -499.48,119.00 -501.65,113.88 -504.29,108.89 -506.94,103.89 -509.21,99.02 -511.48,94.15 -513.64,88.58 -515.80,83.00 -517.66,77.01 -519.52,71.01 -520.46,66.47 -521.40,61.92 -521.62,56.97 -521.84,52.02 -521.56,46.00 -521.28,39.99 -519.78,34.73 -518.28,29.47 -513.43,24.11 -508.59,18.75 -504.21,15.77 -499.84,12.78 -495.87,10.01 -491.90,7.24 -487.62,4.39 -483.34,1.53 -479.16,-0.24 -474.98,-2.02 -467.86,-4.32 -460.74,-6.62 -452.88,-8.41 -445.02,-10.21 -437.99,-10.76 -430.97,-11.30 -424.58,-9.94 -418.19,-8.57 -413.46,-7.37 -408.74,-6.17 -403.88,-5.77 -399.02,-5.37 -394.04,-5.35 -389.06,-5.33 -382.34,-5.29 -375.63,-5.25 -369.91,-4.97 -364.18,-4.68 -358.26,-4.22 -352.34,-3.75 -345.26,-3.49 -338.18,-3.23 -333.60,-3.83 -329.02,-4.44 -321.24,-5.54 -313.46,-6.65 -308.81,-6.61 -304.17,-6.56 -299.32,-6.47 -294.46,-6.38 -289.58,-7.14 -284.70,-7.91 -278.69,-11.02 -272.67,-14.14 -267.60,-16.87 -262.53,-19.61 -257.57,-22.77 -252.62,-25.94 -247.71,-28.47 -242.81,-31.01 -237.56,-33.00 -232.32,-34.99 -225.23,-37.00 -218.15,-39.00 -211.25,-39.38 -204.35,-39.76 -207.86,-42.72 -211.36,-45.67 -213.01,-50.07 -214.65,-54.47 -214.38,-58.80 -214.10,-63.12 -211.92,-68.82 -209.73,-74.51 -206.45,-79.08 -203.17,-83.65 -200.23,-88.73 -197.28,-93.81 -193.39,-99.61 -189.49,-105.42 -185.05,-109.53 -180.60,-113.64 -173.87,-117.47 -167.14,-121.29 -162.00,-124.04 -156.87,-126.79 -152.63,-128.80 -148.39,-130.82 -139.69,-133.71 -131.00,-136.59 -126.74,-137.45 -122.48,-138.30 -113.82,-139.15 -105.16,-140.00 -99.14,-140.41 -93.12,-140.82 -86.94,-141.16 -80.76,-141.50 -75.41,-141.50 -70.05,-141.50 -65.79,-141.50 -61.54,-141.50 -56.21,-141.46 -50.89,-141.43 -45.20,-141.36 -39.51,-141.28 -32.81,-141.08 -26.12,-140.87 -21.11,-140.49 -16.11,-140.10 -10.50,-139.73 -4.88,-139.36 1.94,-138.81 8.77,-138.27 14.06,-137.52 19.36,-136.76 25.81,-135.89 32.26,-135.01 37.12,-134.16 41.99,-133.31 46.60,-132.51 51.21,-131.71 57.37,-130.18 63.53,-128.65 71.14,-121.87 78.75,-115.10 80.51,-107.97 82.27,-100.84 82.19,-95.20 82.11,-89.56 81.39,-83.73 80.66,-77.91 78.51,-71.88 76.37,-65.84 72.79,-61.27 69.22,-56.69 64.57,-52.22 59.92,-47.74 54.95,-43.60 49.99,-39.46 46.32,-36.13 42.66,-32.80 38.07,-27.19 33.48,-21.57 28.81,-15.95 24.14,-10.33 15.54,-2.39 6.95,5.54 6.19,6.29 5.42,7.04 4.50,7.59 3.58,8.14 2.55,8.45 1.52,8.76 0.45,8.81 -0.61,8.87 -1.66,8.67 -2.71,8.47 -3.69,8.02 -4.66,7.57 -5.50,6.90 -6.34,6.23 -6.99,5.38 -7.65,4.53 -8.08,3.55 -8.51,2.57 -8.69,1.51 -8.88,0.46 -8.80,-0.60 -8.73,-1.67 -8.40,-2.69 -8.08,-3.72 -7.51,-4.63 -6.95,-5.54 -6.95,-5.54 L -6.95,-5.54 Z"></path></g><g transform="translate(611.40698655915 131.3970527934216) rotate(0 9.91065577968402 480.66679454446466)" stroke="none"><path d="M-25.7 -0.17 C-27.61 -0.86, -34.37 -2.96, -37.17 -4.29 C-39.98 -5.63, -40.93 -7.31, -42.51 -8.19 C-44.09 -9.07, -44.59 -9.3, -46.67 -9.56 C-48.75 -9.83, -52.44 -10.47, -54.98 -9.79 C-57.52 -9.1, -59.76 -7.35, -61.91 -5.44 C-64.05 -3.53, -65.99 -1.13, -67.84 1.66 C-69.68 4.44, -71.13 5.82, -72.98 11.27 C-74.83 16.73, -77.04 20.62, -78.92 34.39 C-80.8 48.17, -83.37 74.72, -84.26 93.91 C-85.15 113.1, -84.49 136.03, -84.26 149.54 C-84.03 163.04, -83.3 154.38, -82.87 174.94 C-82.45 195.51, -81.65 243.62, -81.68 272.92 C-81.72 302.22, -80.96 317.75, -83.07 350.75 C-85.18 383.76, -91.45 444.76, -94.35 470.94 C-97.25 497.11, -93.62 479.68, -100.48 507.8 C-107.34 535.92, -128.38 613.71, -135.5 639.65 C-142.62 665.6, -141.3 656.75, -143.21 663.46 C-145.12 670.18, -144.27 671.32, -146.98 679.94 C-149.68 688.57, -156.24 705.35, -159.43 715.19 C-162.63 725.04, -162.9 729.35, -166.16 739 C-169.43 748.65, -174.14 759.23, -179.02 773.11 C-183.9 787, -189.14 800.69, -195.44 822.32 C-201.74 843.96, -212.75 886.81, -216.81 902.91 C-220.86 919.01, -219.15 912.45, -219.77 918.93 C-220.4 925.42, -220.53 936.94, -220.56 941.82 C-220.6 946.71, -220.47 946.09, -219.97 948.23 C-219.48 950.37, -220.99 951.82, -217.6 954.65 C-214.2 957.47, -204.8 962.96, -199.59 965.18 C-194.38 967.39, -196.26 966.93, -186.34 967.92 C-176.41 968.91, -166.23 970.85, -140.05 971.12 C-113.87 971.39, -49.71 970.21, -29.26 969.52 C-8.82 968.83, -20.39 968, -17.39 967.01 C-14.39 966.01, -15.05 966.54, -11.26 963.57 C-7.47 960.59, 1.2 953.76, 5.36 949.14 C9.52 944.53, 12.09 939.99, 13.67 935.87 C15.25 931.75, 14.75 927.48, 14.85 924.42 C14.95 921.37, 16.34 921.9, 14.26 917.56 C12.19 913.21, 5.46 902.79, 2.4 898.33 C-0.67 893.86, -2.02 894.36, -4.13 890.77 C-6.24 887.19, -9.12 887.08, -10.27 876.81 C-11.42 866.55, -12.12 840.56, -11.06 829.19 C-10.01 817.82, -7.21 815.92, -3.94 808.6 C-0.68 801.27, 2.29 794.4, 8.52 785.24 C14.76 776.09, 27.19 762.24, 33.46 753.65 C39.72 745.07, 41.76 739.77, 46.11 733.74 C50.47 727.71, 50.4 726.72, 59.57 717.49 C68.74 708.25, 88.85 690.85, 101.11 678.34 C113.38 665.82, 123.7 653.85, 133.16 642.4 C142.63 630.96, 152.38 617.45, 157.89 609.66 C163.39 601.88, 157.62 614.81, 166.2 595.7 C174.77 576.58, 198.15 526.79, 209.32 494.97 C220.5 463.15, 228.45 424.12, 233.26 404.78 C238.08 385.44, 237.02 388.6, 238.21 378.91 C239.4 369.22, 240.02 361.9, 240.38 346.64 C240.75 331.38, 241.04 304.02, 240.38 287.34 C239.72 270.67, 237.78 256.41, 236.43 246.6 C235.08 236.8, 233.69 233.48, 232.27 228.52 C230.86 223.56, 230.2 226, 227.93 216.84 C225.65 207.68, 226.24 196.89, 218.62 173.58 C211.01 150.26, 189.38 95.43, 182.23 76.97 C175.07 58.5, 178.27 67.62, 175.7 62.78 C173.13 57.93, 170.25 52.4, 166.79 47.9 C163.33 43.4, 162.74 42.59, 154.92 35.76 C147.11 28.93, 127.82 13.4, 119.91 6.92 C111.99 0.43, 110.44 -1.09, 107.44 -3.15 C104.44 -5.21, 111.27 -4.79, 101.9 -5.44 C92.54 -6.09, 64.12 -7.5, 51.26 -7.04 C38.4 -6.58, 36.98 -3.11, 24.75 -2.7 C12.51 -2.28, -14.68 -4.41, -22.14 -4.53 C-29.59 -4.64, -19.37 -4.11, -19.96 -3.38 C-20.56 -2.65, -24.74 -0.71, -25.7 -0.17" stroke="none" stroke-width="0" fill="#1971c2" fill-rule="evenodd"></path><path fill="#1971c2" d="M -29.08,6.92 Q -29.08,6.92 -34.71,6.28 -40.34,5.65 -45.13,4.12 -49.93,2.59 -54.39,7.66 -58.85,12.73 -61.42,21.08 -63.98,29.44 -65.00,35.32 -66.01,41.20 -67.12,50.41 -68.22,59.62 -69.04,69.71 -69.86,79.79 -70.21,90.87 -70.56,101.95 -70.70,115.61 -70.84,129.28 -70.49,142.21 -70.15,155.14 -69.93,170.69 -69.71,186.24 -69.53,200.73 -69.36,215.23 -69.04,231.72 -68.72,248.22 -68.57,265.00 -68.41,281.77 -68.73,301.74 -69.05,321.71 -70.35,341.47 -71.65,361.23 -72.96,380.29 -74.28,399.36 -76.11,420.33 -77.95,441.30 -80.50,461.05 -83.06,480.80 -87.05,501.04 -91.05,521.28 -95.34,538.99 -99.64,556.69 -104.24,574.54 -108.84,592.38 -112.67,606.99 -116.50,621.59 -120.41,634.83 -124.32,648.07 -126.98,658.16 -129.64,668.26 -131.98,676.23 -134.32,684.21 -136.90,691.97 -139.48,699.73 -141.48,705.51 -143.48,711.28 -145.20,717.00 -146.92,722.71 -148.64,728.51 -150.36,734.31 -153.15,742.15 -155.93,749.98 -158.84,758.00 -161.75,766.02 -165.73,777.43 -169.71,788.84 -173.31,799.69 -176.90,810.53 -180.04,820.65 -183.18,830.78 -186.23,842.00 -189.27,853.22 -191.63,862.64 -193.99,872.05 -196.69,882.03 -199.39,892.00 -201.30,900.50 -203.21,909.01 -204.19,915.60 -205.17,922.20 -205.74,929.47 -206.30,936.74 -205.82,941.58 -205.33,946.42 -201.24,948.35 -197.15,950.28 -188.93,952.13 -180.72,953.98 -175.38,954.46 -170.03,954.95 -165.60,955.19 -161.16,955.43 -153.08,956.02 -145.00,956.60 -140.32,956.76 -135.64,956.93 -128.92,957.01 -122.19,957.08 -115.15,957.12 -108.11,957.16 -98.97,957.10 -89.83,957.05 -81.23,956.90 -72.62,956.74 -63.85,956.68 -55.08,956.62 -47.91,956.35 -40.74,956.09 -34.80,955.39 -28.85,954.70 -23.14,952.25 -17.43,949.81 -12.15,945.80 -6.87,941.79 -3.49,937.26 -0.10,932.72 0.32,927.59 0.76,922.46 -1.21,918.58 -3.18,914.70 -6.45,909.90 -9.72,905.09 -13.19,899.69 -16.67,894.30 -18.39,890.41 -20.11,886.52 -21.26,882.19 -22.40,877.85 -22.89,873.06 -23.38,868.27 -23.65,863.48 -23.92,858.69 -24.04,854.16 -24.17,849.64 -24.22,841.84 -24.27,834.04 -22.69,826.45 -21.12,818.85 -19.72,814.53 -18.32,810.21 -16.36,805.40 -14.40,800.60 -12.08,796.27 -9.76,791.94 -5.16,783.91 -0.55,775.88 1.84,772.37 4.25,768.86 8.08,764.23 11.90,759.61 15.11,755.60 18.32,751.59 21.23,747.08 24.14,742.56 27.37,737.86 30.61,733.16 34.38,728.22 38.15,723.28 41.39,719.20 44.63,715.12 47.72,711.71 50.80,708.30 54.76,704.17 58.72,700.05 63.77,695.42 68.82,690.79 75.52,684.50 82.22,678.21 88.13,672.00 94.05,665.80 100.02,659.38 105.99,652.97 111.01,647.44 116.02,641.91 120.05,636.80 124.08,631.69 128.07,626.38 132.06,621.07 136.59,615.39 141.12,609.70 145.06,603.77 149.00,597.83 151.88,592.28 154.76,586.73 157.58,580.35 160.39,573.97 163.45,567.27 166.51,560.58 170.05,552.82 173.59,545.05 176.39,538.49 179.19,531.93 182.73,523.99 186.27,516.06 189.33,508.61 192.39,501.17 194.71,493.76 197.03,486.35 199.53,477.01 202.03,467.67 205.04,457.49 208.05,447.32 211.44,434.15 214.84,420.99 217.69,408.15 220.53,395.31 222.23,381.08 223.93,366.86 224.59,353.38 225.25,339.90 225.47,324.80 225.70,309.70 225.27,297.26 224.84,284.81 224.09,274.22 223.35,263.62 221.90,254.41 220.45,245.19 218.68,238.31 216.92,231.43 215.28,224.27 213.64,217.10 212.25,210.35 210.85,203.61 209.12,195.94 207.38,188.27 205.39,181.74 203.39,175.22 200.94,168.44 198.49,161.66 196.10,154.93 193.71,148.21 191.27,141.33 188.83,134.46 186.02,127.17 183.21,119.88 180.85,113.66 178.49,107.44 176.60,102.64 174.71,97.85 172.99,93.21 171.27,88.58 169.50,84.51 167.73,80.45 164.31,73.24 160.89,66.03 157.24,60.50 153.59,54.96 148.53,50.38 143.47,45.79 139.46,42.46 135.46,39.14 131.20,35.45 126.95,31.77 122.26,27.78 117.57,23.79 114.15,20.96 110.74,18.13 107.18,15.22 103.63,12.30 97.28,10.44 90.93,8.58 86.36,8.34 81.80,8.10 74.06,7.74 66.32,7.39 60.81,7.31 55.31,7.24 50.86,7.74 46.41,8.23 42.13,9.02 37.85,9.81 30.90,10.48 23.95,11.15 17.51,11.24 11.07,11.34 6.74,11.17 2.40,11.00 -1.88,10.42 -6.18,9.85 -11.68,9.82 -17.18,9.79 -18.61,9.81 -20.04,9.82 -21.76,9.61 -23.48,9.40 -25.10,8.78 -26.71,8.17 -28.13,7.18 -29.56,6.20 -30.70,4.90 -31.84,3.60 -32.65,2.07 -33.45,0.53 -33.86,-1.14 -34.27,-2.82 -34.26,-4.55 -34.26,-6.28 -33.84,-7.96 -33.43,-9.63 -32.62,-11.17 -31.81,-12.70 -30.66,-13.99 -29.51,-15.28 -28.09,-16.26 -26.66,-17.24 -25.04,-17.85 -23.42,-18.46 -21.70,-18.67 -19.99,-18.87 -14.59,-8.60 -9.20,1.66 -16.02,2.95 -22.84,4.23 -23.62,4.57 -24.40,4.91 -25.25,4.99 -26.09,5.06 -26.92,4.86 -27.75,4.66 -28.46,4.21 -29.18,3.75 -29.72,3.09 -30.25,2.43 -30.55,1.64 -30.85,0.84 -30.88,-0.00 -30.90,-0.85 -30.66,-1.66 -30.41,-2.48 -29.92,-3.17 -29.43,-3.86 -28.74,-4.36 -28.05,-4.86 -27.24,-5.11 -26.43,-5.37 -25.58,-5.35 -24.73,-5.33 -23.93,-5.04 -23.13,-4.75 -22.47,-4.22 -21.80,-3.69 -21.34,-2.98 -20.88,-2.27 -20.67,-1.44 -20.46,-0.62 -20.53,0.22 -20.59,1.07 -20.92,1.85 -21.25,2.63 -21.82,3.27 -22.38,3.90 -23.12,4.32 -23.86,4.75 -24.69,4.91 -25.53,5.07 -26.37,4.96 -27.21,4.85 -27.98,4.48 -28.74,4.11 -29.34,3.51 -29.95,2.91 -30.33,2.15 -30.71,1.39 -30.83,0.55 -30.95,-0.28 -30.79,-1.12 -30.64,-1.95 -30.22,-2.70 -29.81,-3.44 -29.18,-4.01 -28.55,-4.58 -28.55,-4.58 -28.55,-4.58 -29.66,-6.98 -30.76,-9.39 -25.40,0.21 -20.04,9.82 -21.76,9.61 -23.48,9.40 -25.09,8.78 -26.71,8.17 -28.13,7.18 -29.55,6.20 -30.70,4.90 -31.84,3.60 -32.65,2.07 -33.45,0.54 -33.86,-1.13 -34.27,-2.82 -34.26,-4.55 -34.26,-6.28 -33.84,-7.95 -33.43,-9.63 -32.62,-11.16 -31.81,-12.69 -30.66,-13.99 -29.51,-15.28 -28.09,-16.26 -26.66,-17.24 -25.04,-17.85 -23.42,-18.46 -21.71,-18.67 -19.99,-18.87 -18.56,-18.85 -17.13,-18.83 -12.31,-18.74 -7.49,-18.66 -3.15,-18.06 1.18,-17.46 5.98,-17.14 10.78,-16.82 16.54,-16.94 22.31,-17.06 27.56,-17.58 32.80,-18.11 37.75,-18.99 42.69,-19.87 49.09,-20.57 55.48,-21.27 61.27,-21.22 67.06,-21.17 75.20,-20.84 83.35,-20.52 88.23,-20.25 93.12,-19.98 97.84,-19.55 102.55,-19.13 106.84,-17.92 111.13,-16.71 116.49,-13.30 121.85,-9.90 125.47,-6.93 129.08,-3.96 132.64,-1.00 136.20,1.95 140.95,6.02 145.71,10.09 149.76,13.59 153.82,17.10 157.85,20.47 161.89,23.84 165.78,27.16 169.67,30.49 173.23,34.34 176.79,38.19 179.41,41.87 182.03,45.56 184.24,49.31 186.45,53.06 190.24,61.10 194.02,69.13 196.06,73.90 198.09,78.67 199.70,83.05 201.30,87.43 203.24,92.37 205.17,97.32 207.51,103.49 209.85,109.67 212.76,117.30 215.66,124.93 218.10,131.79 220.53,138.65 222.93,145.35 225.32,152.05 227.97,159.52 230.62,166.99 232.86,174.47 235.11,181.96 236.92,189.91 238.73,197.85 240.06,204.31 241.39,210.76 242.95,217.63 244.52,224.49 246.54,232.67 248.56,240.84 250.14,251.25 251.71,261.65 252.47,272.76 253.23,283.87 253.64,297.10 254.06,310.32 253.61,325.90 253.16,341.49 252.23,355.90 251.30,370.31 249.26,385.78 247.22,401.26 244.21,414.62 241.20,427.99 237.51,441.50 233.82,455.01 230.85,464.85 227.89,474.69 225.17,484.58 222.45,494.47 219.71,502.88 216.98,511.29 213.76,519.08 210.55,526.87 207.09,534.65 203.63,542.42 200.67,549.29 197.70,556.16 194.10,563.90 190.50,571.63 187.46,578.18 184.42,584.73 181.18,591.85 177.95,598.97 174.36,605.68 170.77,612.39 166.17,619.20 161.58,626.00 157.27,631.41 152.96,636.81 148.74,642.41 144.51,648.01 139.91,653.70 135.31,659.40 130.19,665.05 125.07,670.69 118.98,677.26 112.89,683.82 106.48,690.51 100.07,697.19 93.29,703.58 86.51,709.97 82.06,714.10 77.61,718.24 71.38,724.89 65.15,731.53 62.07,735.36 58.98,739.19 55.63,743.58 52.28,747.96 49.21,752.50 46.13,757.03 42.49,762.48 38.85,767.92 35.48,772.18 32.10,776.43 29.02,780.11 25.94,783.79 21.64,790.31 17.35,796.82 15.35,800.69 13.34,804.55 10.01,811.49 6.68,818.42 4.76,824.89 2.84,831.36 2.39,836.13 1.93,840.89 2.03,849.08 2.13,857.28 2.51,864.67 2.88,872.07 4.22,876.60 5.55,881.12 8.22,885.16 10.88,889.20 13.64,892.82 16.40,896.44 18.51,900.17 20.63,903.89 22.44,908.06 24.25,912.23 25.50,918.18 26.76,924.13 26.24,929.26 25.72,934.39 21.38,944.20 17.05,954.01 10.59,960.60 4.12,967.20 -0.04,970.22 -4.20,973.23 -9.13,975.86 -14.07,978.49 -19.68,980.15 -25.30,981.81 -32.47,982.80 -39.64,983.80 -47.26,984.12 -54.87,984.44 -63.50,984.51 -72.13,984.57 -80.91,984.73 -89.68,984.88 -98.96,984.93 -108.25,984.97 -115.38,984.94 -122.51,984.91 -129.58,984.83 -136.66,984.75 -142.24,984.54 -147.82,984.33 -155.23,983.82 -162.64,983.31 -167.70,983.05 -172.75,982.79 -179.58,982.08 -186.40,981.38 -192.30,980.13 -198.19,978.89 -208.43,974.38 -218.68,969.87 -222.45,967.05 -226.23,964.23 -229.56,957.69 -232.89,951.16 -233.57,943.26 -234.24,935.36 -234.00,931.03 -233.76,926.70 -233.27,922.37 -232.77,918.03 -231.61,910.44 -230.44,902.85 -228.38,893.77 -226.31,884.69 -223.67,874.96 -221.02,865.24 -218.57,855.57 -216.12,845.90 -212.91,834.20 -209.71,822.50 -206.46,812.14 -203.20,801.77 -199.51,790.74 -195.82,779.71 -191.77,768.15 -187.71,756.59 -184.83,748.64 -181.94,740.69 -179.38,733.57 -176.82,726.44 -175.07,720.58 -173.33,714.72 -171.43,708.49 -169.53,702.25 -167.58,696.63 -165.63,691.01 -163.20,683.72 -160.76,676.43 -158.51,668.83 -156.27,661.22 -153.50,650.76 -150.73,640.29 -146.95,627.44 -143.18,614.59 -139.36,600.03 -135.54,585.48 -130.97,567.84 -126.40,550.20 -122.24,533.06 -118.08,515.92 -114.23,496.58 -110.37,477.23 -107.85,458.06 -105.32,438.89 -103.49,418.14 -101.66,397.39 -100.25,378.37 -98.83,359.35 -97.45,340.29 -96.06,321.24 -95.68,301.60 -95.30,281.97 -95.40,265.33 -95.49,248.69 -95.74,232.09 -96.00,215.49 -96.10,201.03 -96.21,186.58 -96.39,171.19 -96.56,155.80 -96.87,142.38 -97.18,128.97 -96.99,115.01 -96.81,101.06 -96.39,89.28 -95.96,77.51 -94.97,66.95 -93.98,56.40 -92.69,46.46 -91.40,36.53 -90.00,29.27 -88.60,22.00 -86.41,15.40 -84.23,8.79 -81.62,3.63 -79.01,-1.53 -75.15,-6.33 -71.30,-11.13 -66.65,-14.61 -61.99,-18.08 -53.16,-19.16 -44.32,-20.24 -37.36,-17.73 -30.39,-15.21 -26.35,-11.24 -22.31,-7.26 -21.51,-6.75 -20.71,-6.24 -20.06,-5.56 -19.40,-4.88 -18.93,-4.05 -18.46,-3.23 -18.20,-2.32 -17.94,-1.41 -17.90,-0.47 -17.86,0.47 -18.06,1.40 -18.25,2.33 -18.65,3.18 -19.06,4.04 -19.66,4.77 -20.26,5.50 -21.02,6.07 -21.78,6.64 -22.65,7.01 -23.52,7.37 -24.46,7.52 -25.39,7.68 -26.34,7.60 -27.28,7.52 -28.18,7.22 -29.08,6.92 -29.08,6.92 L -29.08,6.92 Z"></path></g><g transform="translate(309.16025293711755 1020.0773844255209) rotate(0 159.55183341205793 -422.32100890049696)" stroke="none"><path fill="#1e1e1e" d="M -6.69,0.55 Q -6.69,0.55 -9.55,-3.86 -12.40,-8.27 -12.67,-12.95 -12.93,-17.63 -13.01,-22.35 -13.09,-27.07 -13.10,-31.54 -13.11,-36.01 -13.14,-41.45 -13.17,-46.88 -13.19,-51.64 -13.22,-56.40 -13.25,-62.38 -13.27,-68.35 -13.87,-75.08 -14.47,-81.81 -15.19,-86.54 -15.92,-91.28 -16.57,-95.85 -17.22,-100.42 -17.54,-105.80 -17.85,-111.18 -17.99,-115.77 -18.12,-120.37 -18.44,-125.18 -18.76,-129.99 -19.49,-137.82 -20.22,-145.65 -20.87,-149.86 -21.52,-154.06 -23.33,-160.49 -25.13,-166.91 -28.30,-174.99 -31.46,-183.07 -33.12,-187.63 -34.79,-192.20 -36.75,-197.90 -38.71,-203.60 -40.50,-208.79 -42.29,-213.98 -44.15,-218.79 -46.00,-223.60 -48.61,-228.91 -51.22,-234.22 -53.93,-239.16 -56.63,-244.10 -60.01,-248.86 -63.38,-253.63 -68.48,-259.63 -73.58,-265.63 -77.86,-270.08 -82.15,-274.52 -86.61,-279.34 -91.07,-284.16 -95.50,-289.40 -99.93,-294.64 -104.94,-301.72 -109.94,-308.80 -114.45,-315.56 -118.95,-322.32 -124.13,-329.28 -129.31,-336.24 -134.29,-342.14 -139.27,-348.03 -144.80,-354.21 -150.32,-360.39 -155.17,-366.07 -160.02,-371.75 -164.61,-377.84 -169.20,-383.92 -172.82,-389.09 -176.44,-394.26 -179.51,-398.39 -182.57,-402.52 -185.50,-406.12 -188.43,-409.72 -191.23,-413.50 -194.04,-417.27 -198.07,-423.16 -202.11,-429.05 -206.34,-436.85 -210.57,-444.64 -212.83,-449.56 -215.09,-454.47 -216.84,-458.54 -218.58,-462.61 -220.50,-467.34 -222.42,-472.07 -224.12,-476.23 -225.82,-480.40 -227.75,-485.45 -229.68,-490.51 -231.29,-494.90 -232.89,-499.30 -234.32,-503.95 -235.75,-508.61 -236.95,-513.96 -238.15,-519.32 -239.59,-528.55 -241.04,-537.79 -241.62,-542.06 -242.19,-546.33 -242.83,-551.22 -243.46,-556.10 -243.89,-561.53 -244.31,-566.96 -244.50,-573.96 -244.69,-580.96 -244.76,-587.43 -244.82,-593.90 -244.65,-600.54 -244.48,-607.19 -243.66,-614.94 -242.84,-622.69 -241.68,-630.25 -240.53,-637.82 -238.60,-646.61 -236.67,-655.41 -234.61,-663.44 -232.54,-671.46 -230.29,-679.46 -228.04,-687.46 -225.88,-694.39 -223.72,-701.32 -220.58,-708.67 -217.44,-716.01 -214.40,-722.22 -211.36,-728.43 -208.09,-734.31 -204.82,-740.19 -200.90,-746.36 -196.98,-752.54 -193.81,-757.60 -190.63,-762.66 -187.20,-768.12 -183.78,-773.58 -180.18,-779.03 -176.58,-784.49 -172.41,-789.88 -168.23,-795.28 -165.00,-799.02 -161.77,-802.76 -158.04,-806.48 -154.31,-810.20 -148.97,-814.99 -143.64,-819.78 -137.18,-824.97 -130.73,-830.16 -127.11,-833.23 -123.48,-836.30 -119.25,-839.94 -115.01,-843.57 -108.74,-848.34 -102.48,-853.10 -98.72,-855.82 -94.96,-858.54 -89.53,-862.29 -84.10,-866.04 -78.37,-869.38 -72.64,-872.72 -69.05,-875.01 -65.46,-877.31 -59.67,-880.78 -53.89,-884.25 -48.59,-887.30 -43.30,-890.34 -38.17,-892.64 -33.04,-894.94 -28.63,-896.79 -24.22,-898.65 -18.48,-901.33 -12.75,-904.00 -6.27,-906.85 0.19,-909.70 6.15,-911.64 12.11,-913.59 17.97,-915.37 23.83,-917.16 29.76,-918.62 35.69,-920.09 42.04,-921.32 48.38,-922.55 55.58,-923.82 62.79,-925.09 68.35,-925.92 73.91,-926.74 78.65,-927.24 83.40,-927.74 89.31,-928.29 95.23,-928.83 101.75,-929.94 108.26,-931.05 114.99,-932.22 121.73,-933.39 128.86,-934.39 136.00,-935.39 143.74,-936.04 151.49,-936.70 157.57,-937.03 163.65,-937.36 169.71,-937.52 175.77,-937.68 180.72,-937.74 185.67,-937.81 191.86,-937.71 198.05,-937.61 204.30,-937.28 210.54,-936.96 217.76,-936.28 224.98,-935.61 231.49,-934.85 237.99,-934.09 245.03,-933.39 252.06,-932.70 260.73,-931.79 269.39,-930.88 276.92,-929.79 284.45,-928.70 292.39,-926.96 300.33,-925.22 307.55,-923.59 314.76,-921.96 323.20,-920.11 331.64,-918.25 339.38,-916.09 347.11,-913.93 354.68,-911.13 362.25,-908.34 368.31,-905.56 374.37,-902.77 379.36,-899.94 384.36,-897.12 389.16,-893.89 393.96,-890.66 397.88,-888.18 401.81,-885.70 406.16,-883.05 410.52,-880.39 414.91,-877.16 419.30,-873.93 423.84,-870.09 428.37,-866.25 431.98,-862.84 435.60,-859.44 439.53,-855.24 443.47,-851.04 447.00,-847.04 450.53,-843.05 453.78,-839.26 457.03,-835.47 460.60,-830.90 464.17,-826.33 467.36,-822.03 470.55,-817.74 474.23,-812.31 477.91,-806.88 481.44,-800.66 484.96,-794.44 487.97,-788.43 490.98,-782.41 494.11,-775.86 497.25,-769.30 500.42,-763.11 503.60,-756.91 506.45,-750.75 509.30,-744.60 511.96,-738.44 514.61,-732.29 517.87,-725.50 521.13,-718.70 524.41,-712.35 527.69,-705.99 531.42,-698.03 535.14,-690.07 538.53,-682.63 541.91,-675.18 545.40,-666.30 548.89,-657.42 551.59,-648.92 554.29,-640.41 556.42,-631.17 558.55,-621.93 559.95,-612.70 561.35,-603.46 562.21,-594.43 563.06,-585.40 563.44,-575.30 563.82,-565.19 563.84,-556.48 563.86,-547.77 563.08,-538.58 562.29,-529.39 560.99,-521.78 559.70,-514.16 557.65,-506.02 555.60,-497.89 553.47,-490.91 551.33,-483.93 548.91,-476.82 546.50,-469.71 544.04,-463.44 541.57,-457.18 538.69,-451.18 535.80,-445.18 532.17,-439.11 528.54,-433.04 525.98,-428.77 523.41,-424.50 520.09,-419.66 516.77,-414.81 513.39,-410.23 510.00,-405.65 505.98,-400.40 501.95,-395.15 499.16,-391.54 496.37,-387.94 493.34,-384.21 490.31,-380.49 486.85,-376.82 483.39,-373.14 479.92,-369.42 476.44,-365.71 472.10,-361.36 467.76,-357.00 464.60,-353.39 461.43,-349.77 457.06,-344.40 452.69,-339.03 448.51,-334.86 444.33,-330.70 440.55,-327.43 436.77,-324.16 433.48,-321.44 430.19,-318.72 424.95,-314.03 419.72,-309.35 413.95,-304.33 408.18,-299.32 404.88,-296.49 401.57,-293.65 398.11,-291.08 394.66,-288.51 391.09,-286.17 387.53,-283.83 381.41,-279.72 375.29,-275.60 371.62,-273.10 367.95,-270.59 362.85,-266.06 357.76,-261.52 353.00,-257.12 348.25,-252.72 344.54,-249.00 340.84,-245.29 335.59,-240.42 330.34,-235.54 327.30,-231.82 324.25,-228.10 321.93,-224.22 319.61,-220.33 317.36,-215.64 315.12,-210.95 312.76,-204.88 310.39,-198.81 308.41,-193.10 306.43,-187.38 304.08,-179.20 301.72,-171.02 300.24,-165.31 298.77,-159.59 297.34,-153.03 295.91,-146.48 294.99,-141.32 294.08,-136.16 292.82,-131.03 291.56,-125.90 289.64,-118.37 287.72,-110.84 286.22,-104.43 284.72,-98.01 283.49,-91.24 282.25,-84.48 280.54,-76.86 278.83,-69.24 277.45,-62.75 276.08,-56.26 274.27,-48.98 272.47,-41.70 271.46,-35.92 270.44,-30.13 268.92,-22.43 267.39,-14.73 266.09,-7.38 264.80,-0.03 263.63,6.20 262.47,12.44 260.95,17.30 259.43,22.16 255.06,28.09 250.69,34.03 246.13,38.26 241.58,42.48 236.52,46.26 231.46,50.03 226.50,53.32 221.55,56.61 215.50,60.01 209.46,63.40 204.14,65.87 198.82,68.35 193.25,70.47 187.69,72.59 180.50,75.11 173.32,77.62 166.06,79.77 158.81,81.92 153.30,83.45 147.79,84.97 141.60,85.96 135.42,86.95 129.43,87.81 123.45,88.67 118.54,89.61 113.62,90.54 109.36,91.20 105.10,91.86 99.28,92.72 93.45,93.58 87.96,93.82 82.48,94.05 76.25,94.11 70.01,94.16 63.99,94.16 57.97,94.16 51.58,94.17 45.19,94.18 38.82,93.12 32.45,92.06 28.33,90.98 24.22,89.91 19.44,88.89 14.67,87.87 10.04,86.40 5.41,84.94 0.83,82.39 -3.74,79.85 -7.49,76.33 -11.24,72.80 -14.37,67.69 -17.49,62.57 -19.56,57.79 -21.64,53.02 -23.13,48.91 -24.62,44.80 -25.41,40.30 -26.20,35.80 -26.37,30.43 -26.53,25.06 -26.48,20.28 -26.44,15.51 -25.41,9.54 -24.39,3.57 -21.15,-2.92 -17.91,-9.42 -17.70,-9.86 -17.48,-10.29 -16.17,-11.39 -14.86,-12.49 -13.33,-13.24 -11.79,-14.00 -10.12,-14.36 -8.46,-14.72 -6.75,-14.68 -5.04,-14.63 -3.39,-14.18 -1.75,-13.73 -0.25,-12.89 1.23,-12.06 2.47,-10.89 3.72,-9.72 4.65,-8.29 5.59,-6.86 6.15,-5.25 6.71,-3.63 6.87,-1.93 7.03,-0.23 6.78,1.45 6.53,3.14 5.88,4.72 5.23,6.30 4.22,7.68 3.21,9.06 -4.47,10.85 -12.17,12.65 -17.74,12.81 -23.31,12.98 -28.14,12.86 -32.97,12.75 -37.39,12.55 -41.81,12.34 -46.97,11.06 -52.12,9.78 -57.76,7.19 -63.39,4.59 -68.57,0.42 -73.74,-3.73 -76.66,-6.95 -79.58,-10.17 -84.35,-17.01 -89.12,-23.85 -92.22,-30.06 -95.32,-36.27 -96.73,-40.71 -98.14,-45.15 -99.98,-53.58 -101.82,-62.01 -102.68,-67.92 -103.54,-73.83 -104.05,-79.79 -104.56,-85.74 -104.66,-90.73 -104.76,-95.72 -104.77,-100.61 -104.78,-105.50 -104.33,-110.36 -103.88,-115.23 -102.68,-120.81 -101.48,-126.39 -99.91,-130.58 -98.34,-134.77 -96.32,-139.49 -94.31,-144.20 -91.85,-149.07 -89.39,-153.94 -86.36,-158.71 -83.32,-163.48 -79.37,-167.92 -75.43,-172.36 -71.36,-175.71 -67.28,-179.06 -62.90,-182.05 -58.51,-185.04 -54.90,-187.78 -51.30,-190.52 -45.93,-192.41 -40.56,-194.30 -35.24,-190.52 -29.92,-186.74 -29.07,-186.66 -28.23,-186.59 -27.45,-186.24 -26.67,-185.90 -26.05,-185.32 -25.42,-184.75 -25.01,-184.00 -24.60,-183.26 -24.45,-182.42 -24.30,-181.58 -24.42,-180.74 -24.55,-179.90 -24.94,-179.15 -25.32,-178.39 -25.93,-177.79 -26.54,-177.20 -27.30,-176.83 -28.07,-176.46 -28.91,-176.36 -29.76,-176.25 -30.59,-176.42 -31.42,-176.59 -32.16,-177.02 -32.89,-177.45 -33.45,-178.09 -34.01,-178.73 -34.34,-179.51 -34.67,-180.29 -34.72,-181.14 -34.78,-181.99 -34.57,-182.81 -34.35,-183.63 -33.89,-184.35 -33.42,-185.06 -32.75,-185.58 -32.08,-186.11 -31.28,-186.39 -30.48,-186.67 -29.63,-186.69 -28.78,-186.70 -27.97,-186.44 -27.16,-186.18 -26.48,-185.68 -25.80,-185.17 -25.31,-184.48 -24.82,-183.78 -24.58,-182.97 -24.34,-182.15 -24.37,-181.30 -24.41,-180.45 -24.71,-179.66 -25.01,-178.86 -25.55,-178.21 -26.09,-177.55 -26.81,-177.10 -27.53,-176.65 -28.36,-176.46 -29.19,-176.26 -29.19,-176.26 -29.19,-176.26 -32.05,-172.26 -34.91,-168.26 -39.12,-164.99 -43.33,-161.72 -48.03,-158.27 -52.74,-154.82 -55.94,-151.90 -59.15,-148.98 -61.79,-144.86 -64.42,-140.74 -66.36,-136.83 -68.29,-132.92 -70.39,-128.18 -72.48,-123.44 -74.00,-118.78 -75.52,-114.11 -76.05,-109.83 -76.57,-105.55 -76.56,-100.77 -76.54,-96.00 -76.35,-89.59 -76.17,-83.18 -75.57,-77.83 -74.98,-72.47 -73.87,-66.18 -72.76,-59.89 -71.31,-54.16 -69.86,-48.44 -67.45,-43.51 -65.04,-38.58 -61.71,-33.71 -58.38,-28.85 -54.08,-24.53 -49.77,-20.20 -45.75,-18.18 -41.73,-16.15 -37.19,-15.81 -32.66,-15.47 -27.96,-15.39 -23.27,-15.30 -18.36,-15.28 -13.45,-15.26 -8.81,-14.89 -4.18,-14.52 -10.83,-12.41 -17.48,-10.29 -16.17,-11.39 -14.86,-12.49 -13.33,-13.24 -11.80,-14.00 -10.13,-14.36 -8.46,-14.72 -6.75,-14.68 -5.04,-14.63 -3.39,-14.18 -1.75,-13.73 -0.26,-12.89 1.23,-12.06 2.47,-10.89 3.72,-9.72 4.65,-8.29 5.59,-6.86 6.15,-5.25 6.71,-3.63 6.87,-1.93 7.03,-0.23 6.78,1.45 6.53,3.14 5.88,4.72 5.23,6.30 4.22,7.68 3.22,9.06 2.52,9.94 1.82,10.81 1.40,15.58 0.98,20.34 1.02,24.75 1.07,29.16 1.76,33.91 2.46,38.66 4.04,43.06 5.61,47.47 7.75,51.43 9.89,55.40 13.86,57.70 17.83,60.01 22.07,61.02 26.31,62.03 30.85,63.22 35.40,64.40 40.29,65.50 45.19,66.59 51.58,66.60 57.97,66.61 63.96,66.60 69.96,66.60 75.92,66.58 81.88,66.56 88.10,66.18 94.33,65.81 101.58,64.67 108.84,63.52 114.58,62.47 120.32,61.42 126.17,60.58 132.03,59.74 136.43,59.06 140.83,58.37 145.98,56.95 151.12,55.54 158.09,53.44 165.05,51.34 171.20,49.16 177.34,46.97 182.35,45.06 187.35,43.15 191.81,41.07 196.26,38.99 201.25,36.16 206.24,33.34 210.86,30.30 215.47,27.27 219.26,24.46 223.04,21.65 226.48,18.51 229.93,15.37 232.52,11.15 235.11,6.94 236.23,0.89 237.36,-5.15 238.69,-12.61 240.02,-20.06 241.45,-27.11 242.88,-34.15 244.19,-41.38 245.50,-48.61 247.21,-55.46 248.93,-62.30 250.38,-68.98 251.84,-75.66 253.42,-82.64 255.01,-89.63 256.37,-96.80 257.73,-103.98 259.34,-110.78 260.95,-117.58 262.06,-121.94 263.16,-126.29 264.83,-132.55 266.49,-138.80 267.41,-143.60 268.32,-148.40 269.25,-152.87 270.18,-157.35 271.20,-161.92 272.23,-166.50 273.77,-172.39 275.31,-178.27 277.88,-187.13 280.46,-195.99 282.60,-202.15 284.75,-208.31 287.59,-215.49 290.42,-222.66 293.20,-228.36 295.97,-234.06 299.29,-239.39 302.60,-244.73 306.89,-249.86 311.18,-254.99 316.48,-259.92 321.78,-264.85 325.51,-268.58 329.23,-272.31 334.40,-277.12 339.57,-281.92 345.77,-287.35 351.98,-292.78 356.06,-295.55 360.14,-298.31 366.39,-302.53 372.64,-306.74 378.23,-310.57 383.81,-314.40 387.07,-317.19 390.33,-319.98 395.87,-324.78 401.40,-329.58 407.07,-334.64 412.73,-339.69 418.94,-344.94 425.15,-350.19 430.08,-355.39 435.02,-360.58 437.96,-364.21 440.91,-367.84 444.66,-372.08 448.41,-376.32 452.46,-380.37 456.51,-384.42 462.80,-391.05 469.10,-397.68 471.91,-401.16 474.72,-404.65 477.48,-408.23 480.24,-411.82 484.12,-416.87 487.99,-421.92 491.10,-426.11 494.20,-430.31 497.06,-434.46 499.92,-438.62 502.50,-442.91 505.07,-447.21 508.10,-452.15 511.12,-457.09 513.57,-462.18 516.03,-467.27 518.27,-472.91 520.51,-478.55 522.80,-485.27 525.09,-491.99 527.04,-498.32 529.00,-504.65 530.83,-511.76 532.66,-518.86 533.81,-525.36 534.97,-531.85 535.71,-539.79 536.46,-547.72 536.45,-555.98 536.44,-564.23 536.13,-573.55 535.82,-582.87 535.07,-591.17 534.31,-599.47 533.13,-607.70 531.96,-615.92 530.14,-624.11 528.33,-632.31 526.00,-639.93 523.66,-647.55 520.45,-655.78 517.23,-664.02 513.94,-671.33 510.65,-678.63 507.15,-686.15 503.65,-693.66 500.22,-700.39 496.79,-707.12 493.35,-714.40 489.91,-721.69 487.42,-727.53 484.93,-733.37 482.32,-739.05 479.71,-744.74 476.40,-751.26 473.10,-757.78 470.07,-764.14 467.05,-770.50 464.36,-775.94 461.66,-781.38 458.73,-786.67 455.79,-791.97 452.46,-796.93 449.13,-801.89 446.13,-805.97 443.13,-810.04 440.00,-814.13 436.86,-818.21 433.74,-821.86 430.63,-825.52 427.34,-829.26 424.05,-833.00 420.74,-836.61 417.42,-840.22 414.28,-843.20 411.14,-846.18 403.96,-852.05 396.79,-857.92 392.25,-860.69 387.71,-863.47 383.43,-866.19 379.14,-868.91 375.22,-871.62 371.31,-874.34 367.31,-876.66 363.32,-878.98 358.22,-881.38 353.12,-883.77 346.55,-886.23 339.99,-888.69 332.93,-890.69 325.88,-892.69 317.42,-894.64 308.96,-896.59 301.84,-898.24 294.72,-899.89 287.72,-901.47 280.72,-903.04 273.70,-904.07 266.68,-905.09 258.07,-906.00 249.45,-906.90 242.20,-907.65 234.95,-908.40 228.73,-909.15 222.50,-909.89 215.85,-910.56 209.20,-911.22 203.39,-911.53 197.58,-911.83 191.78,-911.95 185.98,-912.06 181.18,-912.01 176.38,-911.96 170.73,-911.84 165.07,-911.72 159.33,-911.40 153.60,-911.08 146.57,-910.52 139.53,-909.95 132.81,-909.02 126.09,-908.09 119.28,-906.93 112.48,-905.77 105.03,-904.55 97.57,-903.32 87.61,-902.36 77.65,-901.39 72.42,-900.63 67.20,-899.86 60.24,-898.65 53.29,-897.44 47.51,-896.31 41.74,-895.17 33.15,-892.93 24.56,-890.68 19.71,-889.21 14.86,-887.75 9.45,-885.67 4.03,-883.60 -1.49,-881.05 -7.01,-878.51 -13.53,-875.54 -20.04,-872.56 -25.39,-870.28 -30.73,-867.99 -35.66,-865.18 -40.59,-862.37 -45.99,-859.14 -51.40,-855.91 -55.65,-853.19 -59.90,-850.47 -64.83,-847.63 -69.76,-844.79 -74.85,-841.26 -79.93,-837.73 -83.61,-835.07 -87.28,-832.42 -92.60,-828.42 -97.91,-824.42 -102.39,-820.56 -106.87,-816.69 -110.64,-813.50 -114.40,-810.32 -120.71,-805.29 -127.02,-800.26 -131.55,-796.17 -136.08,-792.08 -141.91,-785.77 -147.75,-779.45 -151.32,-774.82 -154.89,-770.19 -158.31,-764.99 -161.73,-759.78 -165.13,-754.33 -168.54,-748.89 -171.72,-743.74 -174.90,-738.60 -178.38,-733.04 -181.87,-727.49 -184.80,-722.17 -187.72,-716.85 -190.48,-711.21 -193.24,-705.57 -195.88,-699.53 -198.51,-693.50 -200.54,-686.91 -202.56,-680.33 -204.71,-672.60 -206.86,-664.87 -208.80,-657.32 -210.73,-649.78 -212.45,-641.80 -214.16,-633.82 -215.21,-626.82 -216.26,-619.82 -216.99,-613.16 -217.72,-606.50 -217.87,-600.35 -218.02,-594.20 -217.94,-587.92 -217.87,-581.64 -217.72,-575.35 -217.57,-569.05 -217.20,-564.32 -216.83,-559.59 -216.19,-554.76 -215.55,-549.93 -214.95,-545.52 -214.35,-541.11 -213.12,-533.12 -211.90,-525.13 -209.75,-516.83 -207.61,-508.53 -206.07,-504.32 -204.54,-500.12 -202.71,-495.33 -200.88,-490.54 -199.19,-486.37 -197.49,-482.20 -194.06,-473.95 -190.62,-465.70 -188.62,-461.34 -186.62,-456.97 -184.63,-453.09 -182.64,-449.21 -179.42,-444.04 -176.20,-438.87 -171.82,-432.75 -167.44,-426.64 -164.20,-422.59 -160.96,-418.54 -157.69,-414.13 -154.42,-409.71 -151.02,-404.87 -147.63,-400.04 -143.57,-394.56 -139.52,-389.08 -134.95,-383.62 -130.37,-378.16 -124.62,-371.67 -118.88,-365.19 -113.38,-358.63 -107.89,-352.08 -102.36,-344.56 -96.84,-337.03 -92.51,-330.52 -88.18,-324.01 -83.93,-317.85 -79.67,-311.68 -75.64,-306.87 -71.61,-302.05 -67.37,-297.40 -63.12,-292.76 -58.44,-287.85 -53.76,-282.94 -47.78,-275.74 -41.80,-268.54 -39.10,-264.57 -36.39,-260.60 -33.56,-255.51 -30.73,-250.42 -28.35,-245.65 -25.97,-240.89 -24.09,-236.79 -22.22,-232.68 -20.24,-227.45 -18.26,-222.22 -16.49,-217.03 -14.72,-211.83 -12.84,-206.34 -10.96,-200.85 -9.36,-196.42 -7.76,-191.99 -6.09,-187.52 -4.42,-183.05 -2.81,-178.98 -1.19,-174.90 0.20,-170.48 1.61,-166.06 2.46,-161.83 3.31,-157.61 3.97,-152.61 4.64,-147.62 5.21,-139.55 5.79,-131.48 6.17,-121.99 6.55,-112.50 6.77,-108.12 6.98,-103.73 7.58,-99.20 8.17,-94.66 9.15,-85.83 10.13,-76.99 10.36,-69.10 10.59,-61.21 10.57,-56.35 10.56,-51.48 10.52,-46.82 10.47,-42.16 10.47,-36.84 10.46,-31.52 10.47,-27.12 10.48,-22.71 10.67,-16.46 10.86,-10.21 8.78,-5.38 6.69,-0.55 6.66,0.25 6.63,1.06 6.41,1.84 6.19,2.61 5.78,3.32 5.38,4.02 4.82,4.61 4.26,5.19 3.58,5.63 2.89,6.06 2.12,6.32 1.36,6.58 0.55,6.65 -0.25,6.71 -1.05,6.58 -1.85,6.46 -2.60,6.14 -3.34,5.83 -3.99,5.34 -4.64,4.85 -5.15,4.23 -5.67,3.60 -6.02,2.87 -6.37,2.14 -6.53,1.35 -6.69,0.55 -6.69,0.55 L -6.69,0.55 Z"></path></g><g transform="translate(589.516715637923 834.1378367208017) rotate(0 31.800926633416566 77.94211753796162)" stroke="none"><path fill="#1e1e1e" d="M -2.52,-5.27 Q -2.52,-5.27 0.75,-8.87 4.03,-12.46 10.23,-14.24 16.43,-16.03 22.53,-15.70 28.64,-15.37 33.02,-13.86 37.40,-12.35 41.63,-10.77 45.87,-9.20 50.49,-6.78 55.10,-4.36 60.70,-0.05 66.29,4.26 71.13,9.77 75.97,15.29 79.89,22.23 83.81,29.18 86.63,36.37 89.45,43.56 90.66,49.64 91.87,55.72 92.56,60.66 93.25,65.60 93.72,73.60 94.20,81.61 93.68,86.32 93.17,91.03 92.09,98.64 91.00,106.25 89.05,113.21 87.10,120.18 84.83,123.82 82.57,127.46 78.01,131.88 73.46,136.30 69.38,139.43 65.30,142.57 58.86,145.59 52.42,148.62 48.30,150.30 44.18,151.98 39.73,153.72 35.28,155.45 30.03,157.48 24.79,159.50 20.79,161.01 16.79,162.51 11.84,164.15 6.89,165.79 1.12,167.90 -4.64,170.01 -12.38,167.93 -20.13,165.86 -20.85,165.41 -21.58,164.96 -22.12,164.31 -22.66,163.65 -22.97,162.86 -23.27,162.07 -23.31,161.22 -23.35,160.37 -23.11,159.55 -22.87,158.74 -22.39,158.04 -21.90,157.34 -21.22,156.84 -20.54,156.33 -19.73,156.07 -18.92,155.80 -18.07,155.81 -17.22,155.82 -16.42,156.11 -15.62,156.39 -14.94,156.91 -14.27,157.43 -13.81,158.14 -13.34,158.85 -13.12,159.67 -12.90,160.49 -12.96,161.34 -13.01,162.19 -13.34,162.97 -13.66,163.76 -14.22,164.40 -14.78,165.04 -15.51,165.47 -16.24,165.90 -17.07,166.07 -17.91,166.25 -18.75,166.15 -19.59,166.04 -20.36,165.68 -21.13,165.31 -21.74,164.72 -22.35,164.13 -22.74,163.37 -23.13,162.62 -23.25,161.78 -23.38,160.94 -23.24,160.10 -23.09,159.26 -22.68,158.52 -22.27,157.77 -21.65,157.19 -21.03,156.62 -20.25,156.27 -19.48,155.92 -18.63,155.84 -17.78,155.76 -16.96,155.95 -16.13,156.14 -16.13,156.14 -16.13,156.14 -14.38,151.20 -12.63,146.25 -8.27,144.69 -3.91,143.13 1.98,140.90 7.87,138.66 13.05,136.73 18.23,134.79 22.37,133.14 26.52,131.48 32.36,129.17 38.21,126.86 42.42,125.13 46.64,123.40 51.78,120.09 56.92,116.79 60.89,112.40 64.86,108.01 65.98,101.68 67.10,95.34 68.12,88.63 69.13,81.91 68.97,75.40 68.82,68.88 68.27,64.56 67.71,60.23 66.91,55.55 66.11,50.86 63.99,45.03 61.87,39.19 59.99,35.02 58.11,30.84 54.19,26.07 50.27,21.29 45.38,17.08 40.49,12.87 36.02,10.70 31.54,8.53 26.86,6.06 22.18,3.59 17.18,4.14 12.18,4.69 7.35,4.98 2.52,5.27 1.85,5.49 1.18,5.72 0.48,5.78 -0.21,5.84 -0.91,5.73 -1.60,5.62 -2.25,5.34 -2.90,5.07 -3.47,4.65 -4.03,4.23 -4.48,3.68 -4.93,3.14 -5.23,2.50 -5.53,1.87 -5.68,1.18 -5.82,0.49 -5.80,-0.21 -5.77,-0.91 -5.58,-1.59 -5.38,-2.27 -5.03,-2.88 -4.68,-3.49 -4.20,-4.00 -3.71,-4.51 -3.11,-4.89 -2.52,-5.27 -2.52,-5.27 L -2.52,-5.27 Z"></path></g><g transform="translate(362.686385990748 111.1280320501246) rotate(0 106.13423594420692 -50.5640160250623)" stroke="none"><path fill="#1e1e1e" d="M -1.68,5.66 Q -1.68,5.66 -7.89,6.74 -14.10,7.83 -18.11,6.36 -22.12,4.89 -26.80,3.10 -31.48,1.32 -36.28,-0.79 -41.08,-2.91 -46.10,-4.35 -51.13,-5.79 -55.22,-8.04 -59.32,-10.29 -62.05,-13.98 -64.78,-17.67 -65.60,-22.97 -66.41,-28.26 -64.86,-35.50 -63.31,-42.73 -59.95,-47.90 -56.59,-53.07 -52.81,-57.77 -49.02,-62.47 -45.66,-65.98 -42.30,-69.49 -37.78,-73.27 -33.26,-77.05 -28.83,-79.98 -24.39,-82.92 -18.46,-85.78 -12.54,-88.64 -6.15,-91.37 0.23,-94.09 7.66,-97.05 15.09,-100.00 20.26,-101.66 25.43,-103.31 29.77,-104.35 34.10,-105.38 41.75,-106.66 49.39,-107.95 53.74,-108.57 58.10,-109.19 62.98,-109.69 67.87,-110.20 78.04,-111.11 88.20,-112.02 93.92,-112.22 99.65,-112.42 106.10,-112.68 112.54,-112.93 117.89,-113.03 123.24,-113.12 129.15,-113.18 135.06,-113.25 142.36,-113.34 149.65,-113.43 156.50,-113.46 163.35,-113.48 170.51,-113.17 177.67,-112.85 184.38,-111.95 191.09,-111.04 196.16,-110.01 201.24,-108.97 205.81,-108.03 210.39,-107.09 216.40,-105.34 222.42,-103.58 227.71,-102.05 233.01,-100.52 237.33,-99.03 241.66,-97.53 246.30,-95.54 250.95,-93.55 254.70,-91.19 258.46,-88.83 262.40,-85.11 266.34,-81.40 268.98,-77.83 271.62,-74.26 274.42,-68.89 277.22,-63.52 278.23,-58.38 279.23,-53.25 279.37,-48.94 279.51,-44.64 278.08,-38.76 276.65,-32.88 273.13,-28.42 269.61,-23.96 265.03,-21.07 260.45,-18.18 255.49,-15.95 250.52,-13.72 246.00,-11.95 241.48,-10.18 236.51,-7.97 231.54,-5.77 227.36,-4.21 223.19,-2.64 216.83,-3.72 210.47,-4.79 208.73,-5.53 206.99,-6.26 206.14,-6.24 205.29,-6.21 204.48,-6.46 203.67,-6.71 202.98,-7.21 202.29,-7.71 201.79,-8.40 201.30,-9.09 201.05,-9.90 200.80,-10.71 200.82,-11.56 200.85,-12.41 201.14,-13.21 201.43,-14.01 201.97,-14.67 202.50,-15.33 203.22,-15.79 203.93,-16.25 204.76,-16.45 205.58,-16.65 206.43,-16.58 207.28,-16.52 208.06,-16.18 208.84,-15.84 209.47,-15.27 210.10,-14.71 210.52,-13.97 210.94,-13.23 211.10,-12.39 211.26,-11.56 211.14,-10.71 211.03,-9.87 210.65,-9.11 210.27,-8.35 209.67,-7.75 209.07,-7.15 208.30,-6.77 207.54,-6.39 206.70,-6.28 205.86,-6.17 205.02,-6.33 204.19,-6.49 203.45,-6.91 202.71,-7.33 202.14,-7.96 201.58,-8.59 201.24,-9.37 200.91,-10.16 200.84,-11.00 200.77,-11.85 200.98,-12.67 201.18,-13.50 201.64,-14.21 202.10,-14.93 202.76,-15.46 203.42,-15.99 204.22,-16.29 205.02,-16.58 205.02,-16.58 205.02,-16.58 206.36,-17.90 207.71,-19.22 210.02,-22.86 212.32,-26.49 216.90,-28.04 221.48,-29.58 226.55,-31.82 231.62,-34.05 236.41,-35.93 241.20,-37.80 246.44,-40.17 251.68,-42.53 252.64,-46.72 253.61,-50.90 252.04,-55.36 250.48,-59.81 247.18,-63.83 243.87,-67.86 239.12,-70.52 234.37,-73.18 230.06,-74.68 225.74,-76.18 220.44,-77.81 215.15,-79.45 210.30,-80.96 205.46,-82.46 200.53,-83.51 195.61,-84.55 191.37,-85.41 187.14,-86.28 181.36,-87.11 175.57,-87.94 169.46,-88.35 163.36,-88.76 156.51,-88.78 149.67,-88.81 142.44,-88.88 135.21,-88.95 129.43,-88.91 123.65,-88.87 118.48,-88.78 113.32,-88.70 106.85,-88.54 100.38,-88.39 95.10,-88.25 89.82,-88.11 84.25,-87.78 78.67,-87.45 74.43,-86.98 70.20,-86.51 65.80,-86.10 61.41,-85.69 53.28,-84.54 45.15,-83.38 38.83,-82.16 32.51,-80.94 24.26,-78.07 16.02,-75.19 9.32,-72.43 2.62,-69.66 -2.42,-67.48 -7.47,-65.29 -13.06,-62.00 -18.66,-58.71 -21.91,-55.96 -25.16,-53.20 -29.12,-48.71 -33.08,-44.21 -36.10,-40.37 -39.13,-36.53 -42.02,-32.74 -44.91,-28.95 -39.80,-27.40 -34.70,-25.85 -30.72,-23.97 -26.74,-22.08 -22.75,-20.33 -18.76,-18.57 -13.14,-16.42 -7.52,-14.27 -2.92,-9.96 1.68,-5.66 2.33,-5.37 2.99,-5.09 3.55,-4.66 4.12,-4.22 4.56,-3.67 5.01,-3.11 5.31,-2.47 5.61,-1.82 5.75,-1.13 5.89,-0.43 5.85,0.27 5.82,0.99 5.61,1.67 5.41,2.35 5.05,2.96 4.69,3.58 4.19,4.09 3.70,4.60 3.09,4.97 2.49,5.35 1.81,5.57 1.13,5.79 0.42,5.84 -0.28,5.89 -0.98,5.77 -1.68,5.66 -1.68,5.66 L -1.68,5.66 Z"></path></g><g transform="translate(237.73479286200563 151.66607333879801) rotate(0 -113.86739643100282 96.11730583996723)" stroke="none"><path fill="#1e1e1e" d="M 1.02,5.69 Q 1.02,5.69 -3.43,8.58 -7.90,11.46 -13.72,12.20 -19.54,12.93 -26.33,12.35 -33.12,11.76 -38.79,10.06 -44.46,8.37 -48.62,6.36 -52.78,4.35 -58.47,2.37 -64.15,0.40 -70.92,-1.38 -77.70,-3.16 -85.00,-4.69 -92.30,-6.21 -99.44,-8.07 -106.58,-9.93 -110.89,-11.20 -115.20,-12.47 -123.44,-14.49 -131.67,-16.50 -137.94,-17.16 -144.21,-17.82 -149.10,-17.89 -153.99,-17.95 -160.87,-16.85 -167.75,-15.74 -174.60,-12.02 -181.45,-8.30 -186.93,-3.85 -192.40,0.58 -195.26,3.74 -198.13,6.90 -202.58,12.70 -207.03,18.50 -209.27,23.86 -211.51,29.22 -212.85,36.03 -214.20,42.85 -214.47,50.39 -214.75,57.94 -214.43,65.13 -214.10,72.31 -213.34,76.87 -212.59,81.43 -210.62,88.70 -208.65,95.97 -206.46,101.71 -204.26,107.46 -201.66,113.05 -199.07,118.64 -196.94,123.42 -194.81,128.19 -191.31,133.38 -187.81,138.57 -184.39,143.25 -180.97,147.93 -178.78,151.83 -176.60,155.73 -173.79,160.68 -170.99,165.62 -168.10,170.30 -165.22,174.97 -162.25,179.25 -159.28,183.53 -156.04,187.64 -152.80,191.74 -150.01,196.62 -147.21,201.49 -144.86,205.76 -142.51,210.03 -147.58,210.66 -152.64,211.28 -151.68,213.13 -150.72,214.97 -149.90,214.74 -149.08,214.50 -148.24,214.54 -147.39,214.57 -146.59,214.88 -145.80,215.19 -145.15,215.73 -144.49,216.27 -144.05,217.00 -143.60,217.72 -143.41,218.55 -143.22,219.38 -143.30,220.22 -143.39,221.07 -143.74,221.84 -144.08,222.62 -144.66,223.24 -145.24,223.87 -145.99,224.27 -146.73,224.68 -147.57,224.82 -148.41,224.97 -149.25,224.84 -150.09,224.71 -150.84,224.32 -151.60,223.93 -152.19,223.32 -152.78,222.71 -153.15,221.94 -153.51,221.17 -153.61,220.33 -153.71,219.49 -153.54,218.65 -153.36,217.82 -152.93,217.09 -152.50,216.36 -151.86,215.80 -151.22,215.24 -150.43,214.92 -149.64,214.60 -148.80,214.54 -147.95,214.49 -147.13,214.71 -146.31,214.93 -145.60,215.40 -144.89,215.87 -144.37,216.54 -143.85,217.21 -143.57,218.01 -143.29,218.81 -143.28,219.66 -143.27,220.51 -143.53,221.32 -143.80,222.13 -144.30,222.81 -144.81,223.49 -145.51,223.98 -146.21,224.46 -146.21,224.46 -146.21,224.46 -148.09,227.66 -149.97,230.85 -158.48,225.39 -166.99,219.93 -169.66,214.83 -172.33,209.74 -175.13,205.89 -177.94,202.04 -181.32,197.54 -184.71,193.04 -187.54,188.72 -190.37,184.39 -192.72,180.52 -195.07,176.65 -197.46,172.38 -199.84,168.10 -203.29,162.68 -206.74,157.26 -209.24,153.81 -211.74,150.36 -215.08,145.01 -218.42,139.67 -220.78,134.36 -223.14,129.05 -225.82,123.19 -228.49,117.33 -231.08,110.24 -233.67,103.15 -234.89,98.75 -236.11,94.35 -237.08,89.91 -238.06,85.47 -238.89,79.99 -239.72,74.51 -240.05,69.75 -240.38,64.99 -240.02,56.69 -239.66,48.38 -239.25,43.59 -238.83,38.80 -237.97,34.10 -237.11,29.40 -235.73,24.70 -234.36,20.00 -230.67,12.42 -226.98,4.84 -224.30,1.04 -221.63,-2.76 -218.77,-6.10 -215.91,-9.44 -212.28,-13.35 -208.64,-17.26 -204.73,-20.73 -200.83,-24.20 -197.14,-26.70 -193.46,-29.20 -188.38,-32.06 -183.30,-34.93 -178.54,-36.92 -173.79,-38.91 -168.83,-40.08 -163.86,-41.25 -158.69,-41.55 -153.52,-41.85 -144.26,-41.41 -134.99,-40.96 -130.69,-40.30 -126.40,-39.64 -121.61,-38.48 -116.82,-37.32 -112.63,-36.12 -108.45,-34.93 -100.60,-32.40 -92.76,-29.86 -86.24,-28.15 -79.71,-26.44 -75.40,-25.31 -71.08,-24.18 -64.62,-22.14 -58.16,-20.10 -50.79,-17.19 -43.42,-14.28 -36.52,-11.35 -29.61,-8.43 -25.37,-7.88 -21.12,-7.34 -16.26,-7.66 -11.41,-7.98 -6.21,-6.83 -1.02,-5.69 -0.33,-5.73 0.36,-5.77 1.05,-5.64 1.73,-5.52 2.37,-5.23 3.00,-4.94 3.55,-4.51 4.10,-4.08 4.53,-3.53 4.96,-2.98 5.24,-2.34 5.53,-1.70 5.65,-1.01 5.77,-0.33 5.73,0.36 5.69,1.05 5.48,1.72 5.27,2.39 4.90,2.98 4.54,3.58 4.05,4.07 3.55,4.56 2.95,4.92 2.36,5.28 1.69,5.49 1.02,5.69 1.02,5.69 L 1.02,5.69 Z"></path></g><g transform="translate(707.3049601052135 140.48690800350232) rotate(0 116.32753637533915 102.1681647471778)" stroke="none"><path fill="#1e1e1e" d="M 4.72,-3.23 Q 4.72,-3.23 9.83,-0.29 14.94,2.65 19.47,4.28 23.99,5.92 30.71,6.15 37.42,6.39 43.49,6.45 49.56,6.50 54.92,6.17 60.27,5.83 66.03,3.73 71.78,1.62 76.69,-1.00 81.60,-3.63 86.01,-5.81 90.42,-8.00 94.33,-10.49 98.24,-12.98 102.28,-15.42 106.31,-17.87 111.10,-20.30 115.89,-22.73 121.42,-25.11 126.94,-27.50 133.62,-29.43 140.30,-31.36 147.19,-32.42 154.08,-33.48 159.48,-33.67 164.89,-33.86 171.21,-34.08 177.54,-34.30 184.37,-33.07 191.20,-31.84 195.74,-29.85 200.29,-27.87 207.57,-23.46 214.86,-19.05 220.24,-13.13 225.62,-7.21 228.09,-3.58 230.56,0.04 233.70,6.05 236.85,12.06 239.86,20.46 242.86,28.87 244.29,36.25 245.71,43.64 245.33,51.98 244.95,60.32 243.17,65.19 241.38,70.06 237.48,77.52 233.57,84.98 231.78,89.88 230.00,94.77 227.33,101.06 224.66,107.35 220.22,113.32 215.78,119.29 212.35,124.02 208.93,128.75 204.75,134.64 200.57,140.53 197.51,144.21 194.45,147.89 190.89,152.59 187.33,157.28 184.87,160.94 182.41,164.61 178.99,169.52 175.56,174.43 172.91,177.88 170.26,181.33 167.51,185.65 164.76,189.97 163.02,194.07 161.29,198.17 160.47,204.08 159.64,209.99 159.52,215.28 159.39,220.56 156.11,221.89 152.83,223.22 153.29,223.94 153.74,224.66 153.94,225.48 154.14,226.31 154.07,227.16 154.00,228.00 153.66,228.78 153.32,229.56 152.75,230.19 152.17,230.82 151.43,231.23 150.69,231.65 149.86,231.80 149.02,231.96 148.18,231.84 147.34,231.72 146.58,231.34 145.82,230.96 145.22,230.35 144.62,229.75 144.25,228.99 143.88,228.22 143.77,227.38 143.66,226.54 143.82,225.70 143.98,224.87 144.41,224.13 144.83,223.39 145.47,222.83 146.10,222.27 146.88,221.93 147.67,221.60 148.51,221.54 149.36,221.47 150.18,221.68 151.01,221.89 151.72,222.36 152.44,222.82 152.96,223.48 153.49,224.15 153.78,224.95 154.07,225.75 154.09,226.60 154.11,227.45 153.85,228.26 153.60,229.07 153.10,229.76 152.60,230.44 151.91,230.94 151.21,231.43 150.40,231.67 149.59,231.92 148.74,231.89 147.89,231.86 147.09,231.56 146.29,231.27 145.64,230.73 144.98,230.19 144.98,230.19 144.98,230.19 138.41,223.65 131.84,217.10 132.05,211.87 132.26,206.63 132.91,201.81 133.57,197.00 135.11,191.26 136.64,185.52 138.45,181.36 140.26,177.20 144.06,171.17 147.86,165.15 151.75,159.97 155.63,154.79 159.00,149.84 162.36,144.88 165.01,141.24 167.66,137.60 171.70,132.42 175.74,127.24 178.64,123.60 181.54,119.96 183.93,116.43 186.32,112.90 189.12,108.91 191.91,104.91 195.77,100.28 199.63,95.65 201.68,90.98 203.73,86.31 206.41,79.25 209.10,72.18 211.16,68.24 213.22,64.29 215.49,60.16 217.76,56.03 218.18,51.44 218.61,46.84 217.80,41.72 216.99,36.60 215.84,32.50 214.70,28.40 212.79,23.59 210.88,18.78 207.89,13.59 204.90,8.40 201.84,4.42 198.79,0.43 194.32,-2.52 189.86,-5.48 183.72,-7.95 177.59,-10.42 171.52,-10.58 165.45,-10.75 160.72,-10.64 156.00,-10.53 150.64,-9.91 145.28,-9.30 140.15,-7.89 135.01,-6.49 128.75,-3.87 122.49,-1.25 118.12,1.13 113.75,3.51 109.77,5.95 105.79,8.38 101.30,10.97 96.81,13.55 92.88,15.61 88.95,17.67 84.73,19.80 80.52,21.93 74.83,24.12 69.14,26.30 61.94,27.35 54.74,28.40 49.02,28.37 43.30,28.34 36.21,28.18 29.11,28.02 20.37,26.73 11.63,25.44 7.77,23.38 3.91,21.33 0.53,18.18 -2.83,15.02 -3.78,9.13 -4.72,3.23 -5.04,2.62 -5.36,2.01 -5.52,1.34 -5.68,0.66 -5.68,-0.02 -5.68,-0.71 -5.51,-1.38 -5.34,-2.05 -5.02,-2.66 -4.70,-3.27 -4.24,-3.78 -3.78,-4.30 -3.21,-4.69 -2.64,-5.08 -1.99,-5.32 -1.34,-5.56 -0.66,-5.64 0.02,-5.72 0.70,-5.64 1.39,-5.55 2.03,-5.30 2.68,-5.06 3.24,-4.66 3.81,-4.27 4.27,-3.75 4.72,-3.23 4.72,-3.23 L 4.72,-3.23 Z"></path></g><g transform="translate(98.44745777820935 316.40500328790586) rotate(0 29.336264373006088 -66.17505111302535)" stroke="none"><path fill="#1e1e1e" d="M -6.04,-1.07 Q -6.04,-1.07 -7.71,-6.97 -9.38,-12.87 -8.73,-18.54 -8.08,-24.21 -8.07,-29.71 -8.06,-35.21 -9.03,-40.15 -9.99,-45.09 -11.57,-49.57 -13.15,-54.05 -15.00,-58.53 -16.86,-63.01 -18.97,-67.33 -21.08,-71.65 -25.34,-75.58 -29.60,-79.51 -33.37,-83.89 -37.13,-88.27 -39.14,-93.91 -41.16,-99.55 -41.61,-105.19 -42.06,-110.82 -40.98,-117.04 -39.91,-123.26 -37.68,-127.29 -35.46,-131.32 -30.37,-135.65 -25.28,-139.98 -20.05,-141.86 -14.82,-143.75 -9.30,-144.56 -3.77,-145.38 3.67,-145.28 11.13,-145.19 15.78,-144.00 20.43,-142.81 27.47,-139.13 34.51,-135.44 38.11,-133.00 41.72,-130.56 45.90,-127.51 50.08,-124.45 54.30,-121.05 58.53,-117.64 63.67,-116.04 68.81,-114.44 76.65,-114.89 84.49,-115.33 85.27,-115.67 86.05,-116.00 86.90,-116.08 87.74,-116.15 88.57,-115.94 89.39,-115.74 90.11,-115.28 90.83,-114.83 91.36,-114.17 91.90,-113.51 92.19,-112.71 92.49,-111.91 92.51,-111.06 92.54,-110.21 92.29,-109.40 92.04,-108.59 91.55,-107.90 91.05,-107.20 90.36,-106.71 89.68,-106.21 88.86,-105.96 88.05,-105.71 87.20,-105.73 86.35,-105.75 85.55,-106.04 84.76,-106.33 84.09,-106.86 83.43,-107.39 82.97,-108.11 82.51,-108.82 82.30,-109.65 82.10,-110.47 82.16,-111.32 82.23,-112.16 82.56,-112.95 82.90,-113.73 83.46,-114.36 84.03,-115.00 84.77,-115.42 85.51,-115.84 86.34,-116.00 87.18,-116.16 88.02,-116.05 88.86,-115.93 89.62,-115.56 90.38,-115.18 90.99,-114.58 91.59,-113.98 91.97,-113.22 92.35,-112.46 92.46,-111.62 92.58,-110.78 92.42,-109.94 92.27,-109.11 91.85,-108.37 91.43,-107.63 90.80,-107.06 90.17,-106.49 90.17,-106.49 90.17,-106.49 88.49,-102.81 86.82,-99.14 82.13,-94.61 77.45,-90.09 70.00,-88.75 62.56,-87.41 56.85,-89.09 51.14,-90.76 46.15,-93.45 41.16,-96.15 37.26,-99.32 33.37,-102.49 29.72,-105.28 26.08,-108.07 21.22,-111.43 16.36,-114.79 10.36,-116.78 4.37,-118.76 -0.17,-118.55 -4.72,-118.35 -9.69,-116.10 -14.66,-113.85 -14.84,-108.68 -15.03,-103.51 -12.14,-100.32 -9.25,-97.12 -5.85,-93.95 -2.46,-90.77 0.91,-86.10 4.29,-81.43 6.01,-77.32 7.74,-73.22 9.69,-67.87 11.64,-62.52 13.36,-56.85 15.08,-51.19 16.11,-45.75 17.14,-40.31 16.85,-35.47 16.56,-30.63 15.94,-25.55 15.32,-20.46 14.29,-14.65 13.25,-8.83 9.64,-3.87 6.04,1.07 5.82,1.78 5.61,2.49 5.23,3.12 4.85,3.76 4.33,4.28 3.81,4.81 3.17,5.20 2.54,5.58 1.84,5.81 1.13,6.03 0.39,6.08 -0.34,6.13 -1.07,6.00 -1.79,5.87 -2.47,5.57 -3.15,5.27 -3.73,4.81 -4.32,4.36 -4.78,3.78 -5.24,3.20 -5.54,2.52 -5.85,1.85 -5.99,1.12 -6.12,0.39 -6.08,-0.33 -6.04,-1.07 -6.04,-1.07 L -6.04,-1.07 Z"></path></g><g transform="translate(763.7344200784464 202.6958879194981) rotate(0 49.039995508073844 25.86312562805915)" stroke="none"><path fill="#1e1e1e" d="M 1.18,-5.54 Q 1.18,-5.54 7.26,-7.87 13.34,-10.19 18.67,-9.58 24.00,-8.96 29.65,-10.14 35.29,-11.32 39.42,-12.64 43.55,-13.96 47.70,-16.17 51.85,-18.38 55.67,-20.50 59.49,-22.63 63.90,-24.61 68.31,-26.59 72.43,-28.09 76.55,-29.59 80.97,-30.19 85.38,-30.79 90.12,-29.66 94.86,-28.52 101.06,-21.86 107.27,-15.21 108.89,-8.67 110.52,-2.14 110.83,2.33 111.15,6.82 110.21,12.99 109.27,19.15 106.93,24.73 104.59,30.30 100.88,35.08 97.16,39.85 93.21,44.68 89.26,49.50 85.67,53.03 82.09,56.56 78.96,59.88 75.83,63.21 72.06,66.97 68.29,70.72 61.09,72.15 53.89,73.58 53.24,74.12 52.58,74.66 51.79,74.97 51.00,75.27 50.15,75.31 49.30,75.34 48.48,75.10 47.67,74.87 46.97,74.38 46.27,73.90 45.77,73.21 45.26,72.53 45.00,71.72 44.74,70.91 44.75,70.06 44.76,69.21 45.04,68.41 45.32,67.61 45.84,66.94 46.37,66.27 47.07,65.80 47.78,65.33 48.61,65.12 49.43,64.90 50.28,64.95 51.12,65.01 51.91,65.34 52.69,65.66 53.34,66.22 53.98,66.78 54.41,67.51 54.83,68.24 55.01,69.08 55.18,69.91 55.08,70.75 54.97,71.60 54.61,72.36 54.24,73.13 53.65,73.74 53.06,74.35 52.30,74.74 51.55,75.13 50.71,75.25 49.86,75.38 49.03,75.23 48.19,75.08 47.45,74.68 46.70,74.27 46.12,73.64 45.55,73.02 45.20,72.24 44.85,71.47 44.77,70.62 44.69,69.78 44.88,68.95 45.07,68.12 45.52,67.40 45.97,66.68 45.97,66.68 45.97,66.68 47.60,59.22 49.22,51.76 52.83,48.22 56.44,44.68 60.22,40.76 64.00,36.84 67.69,33.38 71.39,29.91 74.22,26.24 77.05,22.56 80.22,18.37 83.39,14.19 84.11,9.11 84.83,4.03 84.52,-0.66 84.21,-5.36 79.49,-3.56 74.77,-1.77 69.73,0.87 64.68,3.52 58.45,6.77 52.21,10.02 48.13,11.32 44.05,12.62 38.66,14.38 33.26,16.14 26.06,16.27 18.86,16.40 13.44,15.57 8.02,14.75 3.42,10.14 -1.18,5.54 -1.82,5.32 -2.47,5.10 -3.04,4.73 -3.62,4.36 -4.09,3.86 -4.56,3.36 -4.89,2.77 -5.23,2.17 -5.41,1.51 -5.60,0.86 -5.62,0.17 -5.64,-0.50 -5.50,-1.17 -5.36,-1.84 -5.06,-2.45 -4.76,-3.07 -4.32,-3.59 -3.89,-4.12 -3.34,-4.52 -2.79,-4.93 -2.16,-5.19 -1.53,-5.45 -0.85,-5.56 -0.17,-5.66 0.50,-5.60 1.18,-5.54 1.18,-5.54 L 1.18,-5.54 Z"></path></g><g transform="translate(341.41341117794946 195.9395477047192) rotate(0 7.384942149085873 168.92659463376913)" stroke="none"><path fill="#1e1e1e" d="M 4.82,9.37 Q 4.82,9.37 -1.57,13.23 -7.98,17.09 -16.72,22.02 -25.47,26.94 -34.59,33.11 -43.71,39.28 -52.72,49.26 -61.74,59.24 -68.57,70.43 -75.41,81.62 -81.67,98.12 -87.93,114.62 -91.24,132.87 -94.54,151.12 -95.29,171.55 -96.03,191.98 -91.21,215.68 -86.39,239.39 -76.03,255.47 -65.66,271.56 -46.69,280.18 -27.71,288.80 -7.47,289.59 12.76,290.38 33.04,283.41 53.32,276.44 62.94,266.69 72.55,256.94 70.05,242.44 67.55,227.95 59.70,220.24 51.85,212.53 43.24,211.76 34.62,210.99 26.03,220.04 17.43,229.10 13.23,242.38 9.04,255.66 13.99,270.37 18.94,285.08 28.32,295.63 37.70,306.18 50.59,310.87 63.49,315.56 75.91,313.78 88.34,312.00 96.77,306.81 105.19,301.62 111.36,294.55 117.54,287.48 118.37,287.32 119.21,287.17 120.05,287.28 120.89,287.40 121.65,287.78 122.41,288.16 123.01,288.76 123.61,289.36 123.99,290.12 124.36,290.89 124.48,291.73 124.59,292.57 124.43,293.41 124.27,294.24 123.85,294.98 123.43,295.72 122.79,296.28 122.16,296.85 121.38,297.18 120.59,297.52 119.75,297.58 118.90,297.65 118.08,297.44 117.25,297.24 116.54,296.78 115.82,296.32 115.29,295.66 114.76,294.99 114.47,294.19 114.18,293.39 114.16,292.55 114.14,291.70 114.39,290.88 114.64,290.07 115.14,289.38 115.63,288.69 116.32,288.20 117.02,287.71 117.83,287.46 118.64,287.21 119.49,287.24 120.34,287.26 121.14,287.56 121.94,287.85 122.60,288.38 123.26,288.92 123.71,289.64 124.17,290.35 124.37,291.18 124.58,292.00 124.50,292.85 124.43,293.70 124.10,294.48 123.76,295.26 123.19,295.89 122.62,296.52 121.88,296.94 121.14,297.35 121.14,297.35 121.14,297.35 127.57,296.50 134.00,295.64 132.76,302.38 131.52,309.12 125.11,316.67 118.69,324.23 105.29,331.34 91.88,338.44 73.25,339.74 54.61,341.04 36.22,332.82 17.83,324.60 5.40,308.85 -7.01,293.11 -11.86,271.18 -16.71,249.25 -8.83,229.59 -0.94,209.93 15.25,198.22 31.46,186.50 49.68,189.82 67.91,193.14 79.88,207.98 91.86,222.83 92.69,245.33 93.52,267.83 78.24,284.28 62.97,300.73 37.42,309.07 11.87,317.41 -13.62,315.45 -39.12,313.49 -63.23,300.52 -87.34,287.55 -100.20,266.37 -113.05,245.20 -118.04,218.11 -123.03,191.02 -122.00,168.54 -120.96,146.06 -116.75,125.45 -112.54,104.84 -104.75,86.34 -96.96,67.84 -88.31,55.00 -79.66,42.16 -68.29,30.91 -56.92,19.66 -46.86,13.05 -36.79,6.45 -27.67,1.51 -18.55,-3.42 -11.69,-6.40 -4.82,-9.37 -3.63,-9.81 -2.44,-10.25 -1.18,-10.39 0.08,-10.54 1.34,-10.37 2.60,-10.21 3.78,-9.75 4.97,-9.29 6.01,-8.56 7.05,-7.83 7.88,-6.87 8.72,-5.92 9.30,-4.79 9.88,-3.66 10.18,-2.42 10.47,-1.18 10.46,0.08 10.45,1.35 10.14,2.58 9.82,3.81 9.22,4.93 8.63,6.05 7.77,7.00 6.92,7.94 5.87,8.65 4.82,9.37 4.82,9.37 L 4.82,9.37 Z"></path></g><g transform="translate(263.0326289807963 583.1945177662637) rotate(0 76.92007410520364 85.74311276586832)" stroke="none"><path fill="#1e1e1e" d="M 0.12,-6.13 Q 0.12,-6.13 16.86,-9.29 33.60,-12.44 54.28,-6.72 74.97,-1.01 95.92,11.69 116.87,24.40 131.66,44.13 146.46,63.86 146.77,84.27 147.08,104.68 131.17,121.21 115.27,137.73 96.00,145.43 76.74,153.12 57.94,151.14 39.15,149.17 29.02,137.60 18.90,126.03 21.18,111.72 23.45,97.41 33.33,87.30 43.20,77.19 59.59,75.17 75.99,73.15 90.46,80.21 104.92,87.26 114.40,99.04 123.87,110.81 127.85,125.09 131.83,139.36 130.26,150.83 128.70,162.30 122.62,169.66 116.55,177.02 113.44,179.93 110.33,182.85 108.80,183.76 107.27,184.67 105.57,185.19 103.86,185.71 102.08,185.80 100.30,185.90 98.55,185.57 96.80,185.23 95.18,184.49 93.56,183.75 92.17,182.64 90.77,181.53 89.68,180.12 88.59,178.72 87.87,177.09 87.15,175.46 86.84,173.70 86.53,171.95 86.65,170.17 86.77,168.39 87.31,166.70 87.85,165.00 88.79,163.48 89.72,161.96 90.99,160.71 92.25,159.46 97.36,159.50 102.47,159.54 102.94,158.83 103.41,158.12 104.08,157.60 104.75,157.08 105.55,156.80 106.36,156.52 107.21,156.51 108.06,156.50 108.86,156.77 109.67,157.03 110.35,157.54 111.03,158.05 111.52,158.74 112.00,159.44 112.24,160.26 112.47,161.08 112.43,161.93 112.40,162.77 112.09,163.57 111.78,164.36 111.24,165.01 110.69,165.67 109.97,166.11 109.25,166.56 108.42,166.75 107.59,166.94 106.74,166.85 105.90,166.77 105.12,166.42 104.35,166.07 103.73,165.49 103.10,164.91 102.70,164.17 102.29,163.42 102.15,162.58 102.00,161.74 102.13,160.90 102.26,160.06 102.65,159.31 103.04,158.56 103.65,157.97 104.27,157.38 105.03,157.01 105.80,156.65 106.65,156.55 107.49,156.45 108.32,156.62 109.15,156.80 109.89,157.23 110.62,157.66 111.17,158.30 111.73,158.94 112.05,159.73 112.37,160.52 112.43,161.37 112.48,162.21 112.26,163.03 112.04,163.86 112.04,163.86 112.04,163.85 111.19,173.35 110.33,182.84 108.80,183.76 107.27,184.67 105.57,185.19 103.86,185.71 102.09,185.80 100.31,185.90 98.56,185.57 96.81,185.23 95.19,184.49 93.57,183.75 92.17,182.64 90.77,181.54 89.69,180.13 88.60,178.72 87.87,177.09 87.15,175.46 86.84,173.70 86.53,171.95 86.65,170.17 86.77,168.39 87.31,166.70 87.85,165.00 88.79,163.48 89.72,161.96 90.99,160.71 92.25,159.46 92.90,159.12 93.54,158.78 98.03,156.61 102.52,154.45 103.48,149.75 104.43,145.05 102.82,135.79 101.21,126.53 96.02,118.55 90.83,110.57 82.91,105.19 74.99,99.82 65.97,98.81 56.95,97.80 52.19,101.73 47.42,105.66 46.98,115.05 46.55,124.45 57.54,126.00 68.54,127.55 83.02,122.41 97.50,117.27 110.11,107.71 122.71,98.14 123.14,87.43 123.57,76.71 112.91,61.65 102.24,46.60 84.79,35.47 67.34,24.35 50.09,19.06 32.84,13.78 16.35,9.96 -0.12,6.13 -0.85,6.03 -1.58,5.93 -2.27,5.65 -2.96,5.37 -3.56,4.94 -4.16,4.51 -4.64,3.94 -5.12,3.38 -5.45,2.72 -5.78,2.06 -5.94,1.33 -6.11,0.61 -6.09,-0.12 -6.08,-0.86 -5.88,-1.57 -5.69,-2.29 -5.33,-2.94 -4.98,-3.59 -4.48,-4.13 -3.97,-4.67 -3.36,-5.08 -2.74,-5.49 -2.04,-5.74 -1.34,-5.99 -0.61,-6.06 0.12,-6.13 0.12,-6.13 L 0.12,-6.13 Z"></path></g><g transform="translate(466.808191281958 827.1463360701673) rotate(0 -24.406939852182404 92.15575695901225)" stroke="none"><path fill="#1e1e1e" d="M 7.15,7.53 Q 7.15,7.53 1.00,14.33 -5.15,21.12 -11.79,29.36 -18.43,37.60 -28.45,54.23 -38.46,70.85 -44.14,91.73 -49.82,112.60 -47.41,128.56 -45.00,144.51 -33.23,150.96 -21.46,157.42 -12.73,154.71 -4.00,152.00 -0.66,147.60 2.68,143.19 -0.27,138.12 -3.23,133.05 2.24,132.24 7.72,131.43 3.05,134.75 -1.60,138.07 -4.85,139.57 -8.10,141.06 -8.61,141.74 -9.12,142.42 -9.82,142.90 -10.52,143.39 -11.34,143.62 -12.16,143.85 -13.01,143.81 -13.86,143.77 -14.65,143.46 -15.44,143.15 -16.09,142.60 -16.74,142.06 -17.18,141.33 -17.63,140.60 -17.81,139.78 -18.00,138.95 -17.91,138.10 -17.83,137.26 -17.47,136.48 -17.12,135.71 -16.54,135.09 -15.96,134.47 -15.21,134.07 -14.46,133.66 -13.63,133.52 -12.79,133.38 -11.95,133.51 -11.11,133.64 -10.36,134.04 -9.60,134.43 -9.01,135.04 -8.43,135.66 -8.06,136.43 -7.70,137.20 -7.61,138.04 -7.51,138.88 -7.69,139.72 -7.87,140.55 -8.30,141.28 -8.73,142.01 -9.38,142.56 -10.02,143.12 -10.81,143.44 -11.60,143.75 -12.45,143.81 -13.29,143.86 -14.11,143.63 -14.93,143.41 -15.64,142.94 -16.35,142.47 -16.87,141.79 -17.38,141.12 -17.66,140.31 -17.94,139.51 -17.94,138.66 -17.95,137.81 -17.68,137.00 -17.41,136.20 -17.41,136.20 -17.41,136.20 -18.04,132.68 -18.67,129.15 -16.91,123.01 -15.15,116.87 -10.28,113.34 -5.41,109.80 8.28,117.08 21.98,124.36 23.83,137.39 25.68,150.42 15.49,163.36 5.30,176.31 -12.65,179.12 -30.61,181.94 -49.54,168.60 -68.47,155.26 -72.53,130.64 -76.59,106.02 -69.03,81.23 -61.47,56.44 -49.43,38.75 -37.39,21.07 -29.38,12.56 -21.37,4.06 -14.26,-1.73 -7.15,-7.53 -6.15,-8.28 -5.14,-9.03 -3.99,-9.51 -2.83,-10.00 -1.59,-10.19 -0.36,-10.38 0.88,-10.28 2.13,-10.17 3.32,-9.76 4.50,-9.36 5.56,-8.69 6.61,-8.01 7.48,-7.10 8.34,-6.19 8.96,-5.10 9.58,-4.02 9.92,-2.81 10.26,-1.60 10.31,-0.35 10.35,0.89 10.09,2.12 9.84,3.34 9.29,4.47 8.75,5.60 7.95,6.57 7.15,7.53 7.15,7.53 L 7.15,7.53 Z"></path></g></svg>