<?xml version="1.0" encoding="utf-8"?>
<!-- Generator: Adobe Illustrator 23.0.1, SVG Export Plug-In . SVG Version: 6.00 Build 0)  -->
<svg version="1.1" id="Layer_1" xmlns="http://www.w3.org/2000/svg" xmlns:xlink="http://www.w3.org/1999/xlink" x="0px" y="0px"
	 viewBox="0 0 343.4 178.8" style="enable-background:new 0 0 343.4 178.8;" xml:space="preserve">
<style type="text/css">
	.st0{fill:#EF3E42;}
	.st1{fill:#004990;}
	.st2{fill:#FFFFFF;}
</style>
<g>
	<path class="st0" d="M292.9,74.3c0-2.4,0.2-6.3,0.7-8.7l-0.2-0.1c-2.3,5.7-7.4,9.5-13.8,9.5c-9.9,0-14.8-7.3-14.8-19
		c0-14.3,8.1-22.4,20.6-22.4c2.3,0,4.7,0.2,7.4,0.4V15.3h6v59H292.9z M292.9,39.4c-2.7-0.6-5.3-1-7.9-1c-8.2,0-13.7,5-13.7,17.1
		c0,9.1,3.1,14.5,9.7,14.5c8,0,12-9.4,12-16.5V39.4H292.9z"/>
	<path class="st0" d="M335.6,74.3l-15.8-21.1v21.1h-6.1v-59h6.1v36.8l15.1-18h7.4l-16,18.3l17.2,21.9H335.6z"/>
</g>
<g>
	<path class="st1" d="M157.5,74.3V48.6c0-4.1-1.1-6.6-4.7-6.6c-5,0-8.9,5.9-8.9,12.9v19.4h-9.8V34.1h9.3c0,1.9-0.2,5.1-0.5,7.2h0.1
		c2.3-4.7,6.8-8,13-8c8.6,0,11.4,5.7,11.4,12.8v28.2H157.5z"/>
	<path class="st1" d="M201,74.3l-12.4-19.9v19.9h-10.3v-59h10.3v35.6l11.7-16.7h12.6l-14.1,18.3l15.1,21.8H201z"/>
	<path class="st1" d="M247.2,23.8c-1.6-0.6-3.5-0.7-5-0.7c-4.5,0-6.5,2.3-6.5,7.7v3.4h9.4v8h-9.4v32.2h-10.3V42.1h-7v-8h7v-3.2
		c0-10.9,5-16.2,16-16.2c2.2,0,4.4,0.2,6.5,0.6L247.2,23.8z"/>
</g>
<g>
	<path class="st2" d="M118.8,121l-3.2-4.7h-0.2v4.7h-1.7v-10.8c0.8,0,1.7-0.1,2.9-0.1c2.2,0,3.8,0.8,3.8,2.9c0,1.7-1.3,2.8-2.9,3
		c0.3,0.4,0.6,0.8,0.9,1.2l2.8,3.8H118.8z M116.3,111.5c-0.3,0-0.7,0-0.9,0v3.4c0.2,0,0.5,0,0.8,0c1.4,0,2.3-0.7,2.3-1.8
		C118.5,112,117.7,111.5,116.3,111.5z"/>
</g>
<g>
	<path class="st2" d="M140.5,121h-2l-3.8-10.8h1.9l2.3,6.7c0.2,0.6,0.5,1.5,0.7,2.2l0,0c0.2-0.7,0.4-1.5,0.7-2.3l2.3-6.5h1.8
		L140.5,121z"/>
</g>
<g>
	<path class="st2" d="M165.1,121l-0.8-2.4h-4.4l-0.8,2.4h-1.8l3.9-10.8h1.9L167,121H165.1z M162.6,113.6c-0.2-0.5-0.3-1-0.4-1.5l0,0
		c-0.1,0.5-0.3,0.9-0.4,1.5l-1.3,3.6h3.5L162.6,113.6z"/>
</g>
<g>
	<path class="st2" d="M185.8,111.6v9.3H184v-9.3h-3v-1.5h7.7v1.5H185.8z"/>
</g>
<g>
	<path class="st2" d="M207.4,121.1c-3.3,0-4.9-2.1-4.9-5.4c0-3.6,2.3-5.7,5.2-5.7s4.9,1.8,4.9,5.4
		C212.6,119,210.3,121.1,207.4,121.1z M207.6,111.5c-1.7,0-3.2,1.3-3.2,3.9c0,2.4,1,4.1,3.1,4.1c1.6,0,3.2-1.3,3.2-4
		C210.7,113,209.6,111.5,207.6,111.5z"/>
</g>
<g>
	<path class="st2" d="M232.2,121l-3.2-4.7h-0.2v4.7H227v-10.8c0.8,0,1.7-0.1,2.9-0.1c2.2,0,3.8,0.8,3.8,2.9c0,1.7-1.3,2.8-2.9,3
		c0.3,0.4,0.6,0.8,0.9,1.2l2.8,3.8H232.2z M229.7,111.5c-0.3,0-0.7,0-0.9,0v3.4c0.2,0,0.5,0,0.8,0c1.4,0,2.3-0.7,2.3-1.8
		C231.9,112,231.1,111.5,229.7,111.5z"/>
</g>
<g>
	<path class="st2" d="M91.4,121v-10.8h5.7v1.5h-3.9v3.1H97v1.4h-3.8v3.4h3.9v1.5L91.4,121L91.4,121z"/>
</g>
<g>
	<path class="st2" d="M70.8,121.1c-0.9,0-1.7-0.1-2.4-0.3l0.2-1.7c0.7,0.3,1.5,0.4,2.3,0.4c1.1,0,2.1-0.5,2.1-1.6
		c0-2.3-4.7-1.3-4.7-4.8c0-1.9,1.4-3.2,3.9-3.2c0.6,0,1.4,0.1,2,0.2l-0.2,1.5c-0.6-0.2-1.2-0.3-1.9-0.3c-1.4,0-2,0.6-2,1.5
		c0,2.2,4.8,1.4,4.8,4.8C74.8,119.7,73.2,121.1,70.8,121.1z"/>
</g>
<g>
	<path class="st2" d="M50.9,121l-3.7-6.1c-0.5-0.8-0.9-1.6-1.2-2.3c0.1,1.1,0.1,3.2,0.1,4.8v3.6h-1.7v-10.8h2.3l3.6,5.9
		c0.5,0.8,0.9,1.7,1.3,2.4c-0.1-1.2-0.1-3.6-0.1-5.1v-3.2h1.7V121H50.9z"/>
</g>
<g>
	<path class="st2" d="M26,121.1c-3.3,0-4.9-2.1-4.9-5.4c0-3.6,2.3-5.7,5.2-5.7s4.9,1.8,4.9,5.4C31.2,119,28.8,121.1,26,121.1z
		 M26.1,111.5c-1.7,0-3.2,1.3-3.2,3.9c0,2.4,1,4.1,3.1,4.1c1.6,0,3.2-1.3,3.2-4C29.3,113,28.2,111.5,26.1,111.5z"/>
</g>
<g>
	<path class="st2" d="M5.7,121l-3.9-5.3v5.3H0v-10.8h1.7v5l3.9-5h2.1l-4.3,5.2L8,121H5.7z"/>
</g>
<g>
	<path class="st2" d="M160.9,98.4c-1.1,0-2,0-2.9-0.1V87.5c0.8,0,2.1-0.1,3.3-0.1c3.4,0,5.5,1.6,5.5,5.3
		C166.9,96.5,164.5,98.4,160.9,98.4z M161.3,88.9c-0.5,0-1.1,0-1.5,0v7.9c0.4,0,0.9,0.1,1.3,0.1c2.3,0,3.9-1.2,3.9-4
		C165.1,90.3,163.9,88.9,161.3,88.9z"/>
</g>
<g>
	<path class="st2" d="M184,98.3V87.5h1.7v10.8H184z"/>
</g>
<g>
	<path class="st2" d="M206.8,98.5c-0.9,0-1.7-0.1-2.4-0.3l0.2-1.7c0.7,0.3,1.5,0.4,2.3,0.4c1.1,0,2.1-0.5,2.1-1.6
		c0-2.3-4.7-1.3-4.7-4.8c0-1.9,1.4-3.2,3.9-3.2c0.6,0,1.4,0.1,2,0.2L210,89c-0.6-0.2-1.2-0.3-1.9-0.3c-1.4,0-2,0.6-2,1.5
		c0,2.2,4.8,1.4,4.8,4.8C210.9,97,209.3,98.5,206.8,98.5z"/>
</g>
<g>
	<path class="st2" d="M232.4,98.3l-3.9-5.3v5.3h-1.7V87.5h1.7v5l3.9-5h2.1l-4.3,5.2l4.4,5.6C234.6,98.3,232.4,98.3,232.4,98.3z"/>
</g>
<g>
	<path class="st2" d="M141.5,98.3l-3.2-4.7h-0.2v4.7h-1.7V87.5c0.8,0,1.7-0.1,2.9-0.1c2.2,0,3.8,0.8,3.8,2.9c0,1.7-1.3,2.8-2.9,3
		c0.3,0.4,0.6,0.8,0.9,1.2l2.8,3.8H141.5z M139,88.9c-0.3,0-0.7,0-0.9,0v3.4c0.2,0,0.5,0,0.8,0c1.4,0,2.3-0.7,2.3-1.8
		C141.2,89.4,140.4,88.9,139,88.9z"/>
</g>
<g>
	<path class="st2" d="M116.7,98.5c-3.3,0-4.9-2.1-4.9-5.4c0-3.6,2.3-5.7,5.2-5.7c2.9,0,4.9,1.8,4.9,5.4
		C121.9,96.3,119.6,98.5,116.7,98.5z M116.9,88.9c-1.7,0-3.2,1.3-3.2,3.9c0,2.4,1,4.1,3.1,4.1c1.6,0,3.2-1.3,3.2-4
		C120,90.3,118.9,88.9,116.9,88.9z"/>
</g>
<g>
	<path class="st2" d="M96.3,98.3l-3.7-6.1c-0.5-0.8-0.9-1.6-1.2-2.3c0.1,1.1,0.1,3.2,0.1,4.8v3.6h-1.7V87.5h2.3l3.6,5.9
		c0.5,0.8,0.9,1.7,1.3,2.4c-0.1-1.2-0.1-3.5-0.1-5.1v-3.2h1.7v10.8C98.6,98.3,96.3,98.3,96.3,98.3z"/>
</g>
<g>
	<path class="st2" d="M161.8,143.7c-0.6,0-1.7,0-2.8,0v-10.3c0.8,0,1.9,0,3.2,0c2.2,0,3.3,0.9,3.3,2.5c0,1-0.6,1.9-1.7,2.3l0,0
		c1.3,0.3,2,1.3,2,2.3C165.9,141.9,165,143.7,161.8,143.7z M161.9,134.7c-0.4,0-0.9,0-1.2,0v3c0.3,0,0.5,0,0.9,0
		c1.5,0,2.2-0.6,2.2-1.7C163.8,135.3,163.4,134.7,161.9,134.7z M161.6,139c-0.2,0-0.7,0-0.9,0v3.3c0.3,0,0.7,0.1,1.2,0.1
		c1.5,0,2.2-0.7,2.2-1.8C164.1,139.4,163.1,139,161.6,139z"/>
</g>
<g>
	<path class="st2" d="M184.8,143.8c-3.2,0-3.9-1.8-3.9-3.6v-6.8h1.7v6.6c0,1.4,0.5,2.4,2.4,2.4c1.7,0,2.4-0.7,2.4-2.6v-6.4h1.6v6.3
		C188.9,142.4,187.5,143.8,184.8,143.8z"/>
</g>
<g>
	<path class="st2" d="M209.6,143.6l-3.5-5.8c-0.5-0.7-0.8-1.5-1.1-2.2c0.1,1,0.1,3.1,0.1,4.5v3.5h-1.6v-10.3h2.2l3.4,5.6
		c0.5,0.8,0.9,1.6,1.2,2.3c-0.1-1.2-0.1-3.4-0.1-4.9v-3h1.6v10.3L209.6,143.6L209.6,143.6z"/>
</g>
<g>
	<path class="st2" d="M229,143.7c-1,0-1.9,0-2.7-0.1v-10.2c0.8,0,2-0.1,3.2-0.1c3.2,0,5.2,1.5,5.2,5
		C234.7,141.9,232.4,143.7,229,143.7z M229.4,134.7c-0.5,0-1,0-1.4,0v7.5c0.3,0,0.8,0.1,1.2,0.1c2.2,0,3.8-1.2,3.8-3.8
		C233,136.1,231.9,134.7,229.4,134.7z"/>
</g>
<g>
	<path class="st2" d="M141.4,143.6l-3.1-4.4h-0.2v4.4h-1.7v-10.3c0.7,0,1.6-0.1,2.8-0.1c2.1,0,3.6,0.7,3.6,2.8
		c0,1.6-1.3,2.7-2.8,2.9c0.3,0.4,0.6,0.7,0.9,1.1l2.6,3.6H141.4z M139,134.7c-0.3,0-0.6,0-0.9,0v3.3c0.2,0,0.4,0,0.8,0
		c1.3,0,2.1-0.7,2.1-1.7C141.1,135.2,140.4,134.7,139,134.7z"/>
</g>
<g>
	<path class="st2" d="M116.7,143.8c-3.1,0-4.6-2-4.6-5.2c0-3.4,2.2-5.4,4.9-5.4c2.8,0,4.6,1.7,4.6,5.2
		C121.6,141.8,119.4,143.8,116.7,143.8z M116.9,134.7c-1.6,0-3,1.3-3,3.7c0,2.3,1,3.9,3,3.9c1.5,0,3-1.2,3-3.8
		C119.9,136.1,118.8,134.7,116.9,134.7z"/>
</g>
<g>
	<path class="st2" d="M93.5,134.8v3H97v1.4h-3.5v4.5h-1.7v-10.3h5.3v1.4L93.5,134.8L93.5,134.8z"/>
</g>
<g>
	<path class="st0" d="M187.8,166.3l-0.8-2.4h-4.4l-0.8,2.4H180l3.9-10.8h1.9l3.9,10.8H187.8z M185.3,159c-0.2-0.5-0.3-1-0.4-1.5l0,0
		c-0.1,0.5-0.3,0.9-0.4,1.5l-1.3,3.6h3.5L185.3,159z"/>
</g>
<g>
	<path class="st0" d="M209.5,166.3l-3.2-4.7h-0.2v4.7h-1.7v-10.8c0.8,0,1.7-0.1,2.9-0.1c2.2,0,3.8,0.8,3.8,2.9c0,1.7-1.3,2.8-2.9,3
		c0.3,0.4,0.6,0.8,0.9,1.2l2.8,3.8L209.5,166.3L209.5,166.3z M207,156.9c-0.3,0-0.7,0-0.9,0v3.4c0.2,0,0.5,0,0.8,0
		c1.4,0,2.3-0.7,2.3-1.8C209.2,157.4,208.5,156.9,207,156.9z"/>
</g>
<g>
	<path class="st0" d="M232.4,166.3l-3.9-5.3v5.3h-1.7v-10.8h1.7v5l3.9-5h2.1l-4.3,5.2l4.4,5.6H232.4z"/>
</g>
<g>
	<path class="st0" d="M166.8,166.3l-0.8-5.7c-0.2-1.1-0.3-1.9-0.3-2.6l0,0c-0.1,0.6-0.3,1.3-0.6,2.1l-2,6.3h-1.8l-1.9-5.8
		c-0.3-0.9-0.5-1.7-0.7-2.5l0,0c-0.1,0.9-0.2,1.8-0.3,2.8l-0.7,5.6h-1.8l1.6-10.8h2.1l2.1,6.2c0.2,0.6,0.4,1.4,0.6,2.2l0,0
		c0.2-0.8,0.4-1.4,0.6-2.1l2.1-6.3h2.1l1.6,10.8h-1.9V166.3z"/>
</g>
<g>
	<path class="st0" d="M141.6,166.3l-3.7-6.1c-0.5-0.8-0.9-1.6-1.2-2.3c0.1,1.1,0.1,3.2,0.1,4.8v3.6h-1.7v-10.8h2.3l3.6,5.9
		c0.5,0.8,0.9,1.7,1.3,2.4c-0.1-1.2-0.1-3.5-0.1-5.1v-3.2h1.7v10.8L141.6,166.3L141.6,166.3z"/>
</g>
<g>
	<path class="st0" d="M119.8,166.3l-0.8-2.4h-4.4l-0.8,2.4H112l3.9-10.8h1.9l3.9,10.8H119.8z M117.2,159c-0.2-0.5-0.3-1-0.4-1.5l0,0
		c-0.1,0.5-0.3,0.9-0.4,1.5l-1.3,3.6h3.5L117.2,159z"/>
</g>
<g>
	<path class="st0" d="M92.9,166.4c-1.1,0-2,0-2.9-0.1v-10.8c0.8,0,2.1-0.1,3.3-0.1c3.4,0,5.5,1.6,5.5,5.3
		C98.9,164.5,96.4,166.4,92.9,166.4z M93.3,156.9c-0.5,0-1.1,0-1.5,0v7.9c0.4,0,0.9,0.1,1.3,0.1c2.3,0,4-1.2,4-4
		C97,158.3,95.9,156.9,93.3,156.9z"/>
</g>
<rect x="255.3" class="st1" width="1.1" height="178.8"/>
</svg>
